<?xml version="1.0" standalone="no"?>
<!DOCTYPE svg PUBLIC "-//W3C//DTD SVG 20010904//EN"
 "http://www.w3.org/TR/2001/REC-SVG-20010904/DTD/svg10.dtd">
<svg version="1.0" xmlns="http://www.w3.org/2000/svg"
 width="936.000000pt" height="936.000000pt" viewBox="0 0 936.000000 936.000000"
 preserveAspectRatio="xMidYMid meet">
<metadata>
Created by potrace 1.11, written by Peter Selinger 2001-2013
</metadata>
<g transform="translate(0.000000,936.000000) scale(0.100000,-0.100000)"
fill="#000000" stroke="none">
<path d="M7330 8876 c0 -20 -57 -82 -112 -121 -38 -28 -148 -84 -263 -136 -55
-25 -427 -154 -470 -163 -5 -2 -41 -12 -80 -24 -57 -17 -126 -37 -200 -56 -5
-1 -30 -8 -55 -15 -25 -7 -52 -14 -60 -16 -8 -2 -35 -8 -60 -15 -25 -7 -52
-14 -60 -15 -8 -2 -73 -17 -145 -34 -71 -17 -141 -32 -155 -34 -14 -3 -68 -14
-120 -25 -52 -12 -106 -23 -120 -25 -79 -15 -107 -20 -125 -24 -11 -2 -29 -6
-40 -7 -34 -6 -87 -16 -140 -26 -27 -5 -66 -12 -85 -14 -19 -3 -73 -12 -120
-20 -47 -8 -109 -18 -139 -21 -30 -3 -58 -8 -61 -10 -4 -3 -29 -7 -56 -10 -27
-3 -58 -7 -70 -9 -12 -2 -45 -7 -75 -11 -30 -4 -56 -8 -59 -10 -3 -2 -39 -6
-80 -10 -41 -4 -77 -9 -80 -10 -3 -2 -37 -6 -75 -10 -39 -3 -77 -8 -85 -10
-15 -4 -108 -15 -165 -20 -16 -1 -66 -7 -110 -13 -44 -6 -111 -14 -150 -17
-38 -3 -81 -8 -95 -10 -28 -4 -142 -15 -210 -20 -25 -1 -75 -6 -112 -9 -69 -6
-136 -11 -263 -21 -38 -3 -95 -7 -125 -10 -54 -4 -173 -11 -355 -21 -86 -4
-497 -16 -542 -15 l-21 1 -1 -1028 c0 -908 2 -1030 15 -1051 31 -47 281 -147
579 -232 77 -22 163 -46 190 -54 28 -8 64 -17 80 -20 17 -4 37 -9 45 -12 8 -3
22 -8 30 -9 8 -2 80 -20 160 -39 80 -20 156 -38 170 -41 14 -3 34 -8 45 -11
11 -4 27 -8 35 -9 15 -2 45 -9 90 -19 14 -3 60 -13 103 -22 42 -9 76 -17 75
-19 -4 -3 -72 -11 -173 -20 -38 -3 -86 -7 -105 -9 -36 -4 -127 -12 -235 -21
-33 -2 -98 -7 -145 -10 -47 -3 -114 -7 -150 -10 -127 -9 -479 -22 -695 -27
l-110 -2 -2 -1025 c-2 -751 1 -1031 9 -1047 11 -22 170 -109 215 -117 12 -3
35 -12 52 -20 17 -9 32 -16 33 -16 4 1 6 1 133 -40 55 -18 105 -33 110 -34 6
-1 16 -5 23 -9 6 -5 12 -6 12 -4 0 3 21 -2 48 -10 26 -8 63 -19 82 -24 19 -5
44 -12 55 -15 11 -3 29 -7 40 -9 11 -2 50 -13 88 -24 37 -11 71 -21 75 -22 4
-1 12 -3 17 -4 14 -4 106 -26 126 -30 14 -3 118 -27 179 -42 14 -3 30 -7 35
-8 20 -5 161 -36 185 -41 84 -17 127 -35 78 -33 -13 1 -54 -1 -93 -5 -38 -4
-97 -9 -130 -11 -33 -3 -80 -7 -105 -10 -25 -3 -74 -8 -110 -10 -36 -2 -99 -7
-140 -10 -209 -15 -250 -18 -510 -30 -63 -3 -198 -8 -300 -10 -102 -2 -190 -4
-197 -4 -9 -1 -11 -252 -10 -1034 l2 -1032 130 1 c123 1 321 10 430 19 28 3
86 8 130 11 93 6 135 10 225 18 128 12 166 16 215 21 28 3 77 8 110 10 33 3
76 7 95 10 19 2 58 7 85 10 28 3 70 8 95 11 25 2 63 7 85 9 22 2 56 6 75 9 19
2 60 7 90 11 30 3 66 8 80 10 14 2 50 7 80 10 30 3 66 8 80 10 14 2 45 6 70
10 25 3 56 8 70 10 14 2 50 7 80 10 51 6 66 8 138 19 28 5 92 14 139 21 15 2
42 6 58 8 17 3 91 15 165 27 171 27 437 71 510 85 14 3 41 8 60 11 19 3 43 7
52 10 9 3 25 6 35 8 59 11 92 16 128 22 22 3 43 8 46 10 3 2 21 6 40 9 55 10
218 45 304 65 80 19 127 30 155 34 8 1 25 6 37 10 12 4 30 8 40 10 44 9 270
68 293 77 14 5 35 11 48 14 55 12 63 14 72 20 6 4 21 8 33 11 40 7 332 105
345 116 6 6 12 8 12 5 0 -8 179 67 221 92 19 11 50 29 70 40 48 27 116 104
121 139 5 42 1 2039 -6 2110 -6 71 -30 128 -77 185 -33 40 -121 109 -164 129
-14 6 -25 14 -25 18 0 3 19 15 43 25 114 50 210 130 225 188 6 25 9 2082 2
2082 -1 0 -3 20 -5 44 -11 120 -73 205 -216 292 -53 33 -55 43 -12 54 15 3 30
10 33 13 3 4 23 17 45 29 61 33 130 94 146 128 11 25 13 212 14 1058 0 565 -3
1027 -7 1027 -5 0 -8 -6 -8 -14z"/>
</g>
</svg>
