<?xml version="1.0" encoding="UTF-8" standalone="no"?>
<!DOCTYPE svg PUBLIC "-//W3C//DTD SVG 1.1//EN"
 "http://www.w3.org/Graphics/SVG/1.1/DTD/svg11.dtd">
<!-- Generated by graphviz version 2.44.1 (20200629.0846)
 -->
<!-- Title: unix Pages: 1 -->
<svg width="432pt" height="226pt"
 viewBox="0.00 0.00 432.00 226.05" xmlns="http://www.w3.org/2000/svg" xmlns:xlink="http://www.w3.org/1999/xlink">
<g id="graph0" class="graph" transform="scale(0.56 0.56) rotate(0) translate(4 400)">
<title>unix</title>
<polygon fill="white" stroke="transparent" points="-4,4 -4,-400 768.09,-400 768.09,4 -4,4"/>
<!-- AnyVal -->
<g id="node1" class="node">
<title>AnyVal</title>
<ellipse fill="#b2dfee" stroke="#b2dfee" cx="203" cy="-234" rx="38.19" ry="18"/>
<text text-anchor="middle" x="203" y="-230.3" font-family="Consolas" font-size="14.00">AnyVal</text>
</g>
<!-- Matchable -->
<g id="node10" class="node">
<title>Matchable</title>
<ellipse fill="#b2dfee" stroke="#b2dfee" cx="322" cy="-306" rx="51.99" ry="18"/>
<text text-anchor="middle" x="322" y="-302.3" font-family="Consolas" font-size="14.00">Matchable</text>
</g>
<!-- AnyVal&#45;&gt;Matchable -->
<g id="edge2" class="edge">
<title>AnyVal&#45;&gt;Matchable</title>
<path fill="none" stroke="black" d="M225.94,-248.5C243.52,-258.83 268.03,-273.25 287.9,-284.94"/>
<polygon fill="black" stroke="black" points="286.26,-288.04 296.65,-290.09 289.81,-282 286.26,-288.04"/>
</g>
<!-- AnyRef / Object -->
<g id="node2" class="node">
<title>AnyRef / Object</title>
<ellipse fill="#b2dfee" stroke="#b2dfee" cx="487" cy="-234" rx="72.59" ry="18"/>
<text text-anchor="middle" x="487" y="-230.3" font-family="Consolas" font-size="14.00">AnyRef / Object</text>
</g>
<!-- AnyRef / Object&#45;&gt;Matchable -->
<g id="edge3" class="edge">
<title>AnyRef / Object&#45;&gt;Matchable</title>
<path fill="none" stroke="black" d="M452.01,-249.85C425.94,-260.9 390.29,-276.03 362.9,-287.65"/>
<polygon fill="black" stroke="black" points="361.43,-284.47 353.59,-291.6 364.17,-290.91 361.43,-284.47"/>
</g>
<!-- Unit -->
<g id="node3" class="node">
<title>Unit</title>
<ellipse fill="#b2dfee" stroke="#b2dfee" cx="27" cy="-162" rx="27" ry="18"/>
<text text-anchor="middle" x="27" y="-158.3" font-family="Consolas" font-size="14.00">Unit</text>
</g>
<!-- Unit&#45;&gt;AnyVal -->
<g id="edge4" class="edge">
<title>Unit&#45;&gt;AnyVal</title>
<path fill="none" stroke="black" d="M48.19,-173.35C53.03,-175.61 58.16,-177.95 63,-180 96.6,-194.27 135.47,-208.83 163.71,-219.07"/>
<polygon fill="black" stroke="black" points="162.64,-222.41 173.23,-222.51 165.01,-215.82 162.64,-222.41"/>
</g>
<!-- Boolean -->
<g id="node4" class="node">
<title>Boolean</title>
<ellipse fill="#b2dfee" stroke="#b2dfee" cx="115" cy="-162" rx="42.79" ry="18"/>
<text text-anchor="middle" x="115" y="-158.3" font-family="Consolas" font-size="14.00">Boolean</text>
</g>
<!-- Boolean&#45;&gt;AnyVal -->
<g id="edge5" class="edge">
<title>Boolean&#45;&gt;AnyVal</title>
<path fill="none" stroke="black" d="M134.09,-178.19C146.4,-187.98 162.59,-200.85 176.18,-211.66"/>
<polygon fill="black" stroke="black" points="174.24,-214.6 184.24,-218.08 178.6,-209.12 174.24,-214.6"/>
</g>
<!-- Int -->
<g id="node5" class="node">
<title>Int</title>
<ellipse fill="#b2dfee" stroke="#b2dfee" cx="203" cy="-162" rx="27" ry="18"/>
<text text-anchor="middle" x="203" y="-158.3" font-family="Consolas" font-size="14.00">Int</text>
</g>
<!-- Int&#45;&gt;AnyVal -->
<g id="edge6" class="edge">
<title>Int&#45;&gt;AnyVal</title>
<path fill="none" stroke="black" d="M203,-180.3C203,-188.02 203,-197.29 203,-205.89"/>
<polygon fill="black" stroke="black" points="199.5,-205.9 203,-215.9 206.5,-205.9 199.5,-205.9"/>
</g>
<!-- ... (value types) -->
<g id="node6" class="node">
<title>... (value types)</title>
<ellipse fill="#b2dfee" stroke="#b2dfee" cx="319" cy="-162" rx="70.69" ry="18"/>
<text text-anchor="middle" x="319" y="-158.3" font-family="Consolas" font-size="14.00">... (value types)</text>
</g>
<!-- ... (value types)&#45;&gt;AnyVal -->
<g id="edge7" class="edge">
<title>... (value types)&#45;&gt;AnyVal</title>
<path fill="none" stroke="black" d="M292.68,-178.88C275.49,-189.26 252.94,-202.86 234.76,-213.84"/>
<polygon fill="black" stroke="black" points="232.45,-211.14 225.7,-219.3 236.07,-217.13 232.45,-211.14"/>
</g>
<!-- String -->
<g id="node7" class="node">
<title>String</title>
<ellipse fill="#b2dfee" stroke="#b2dfee" cx="442" cy="-162" rx="33.6" ry="18"/>
<text text-anchor="middle" x="442" y="-158.3" font-family="Consolas" font-size="14.00">String</text>
</g>
<!-- String&#45;&gt;AnyRef / Object -->
<g id="edge8" class="edge">
<title>String&#45;&gt;AnyRef / Object</title>
<path fill="none" stroke="black" d="M452.44,-179.24C457.79,-187.56 464.43,-197.9 470.46,-207.27"/>
<polygon fill="black" stroke="black" points="467.64,-209.36 475.99,-215.88 473.53,-205.57 467.64,-209.36"/>
</g>
<!-- List[Int] -->
<g id="node8" class="node">
<title>List[Int]</title>
<ellipse fill="#b2dfee" stroke="#b2dfee" cx="533" cy="-162" rx="38.99" ry="18"/>
<text text-anchor="middle" x="533" y="-158.3" font-family="Consolas" font-size="14.00">List[Int]</text>
</g>
<!-- List[Int]&#45;&gt;AnyRef / Object -->
<g id="edge9" class="edge">
<title>List[Int]&#45;&gt;AnyRef / Object</title>
<path fill="none" stroke="black" d="M522.1,-179.59C516.62,-187.92 509.87,-198.2 503.75,-207.51"/>
<polygon fill="black" stroke="black" points="500.71,-205.76 498.14,-216.04 506.56,-209.61 500.71,-205.76"/>
</g>
<!-- ... (reference types) -->
<g id="node9" class="node">
<title>... (reference types)</title>
<ellipse fill="#b2dfee" stroke="#b2dfee" cx="677" cy="-162" rx="87.18" ry="18"/>
<text text-anchor="middle" x="677" y="-158.3" font-family="Consolas" font-size="14.00">... (reference types)</text>
</g>
<!-- ... (reference types)&#45;&gt;AnyRef / Object -->
<g id="edge10" class="edge">
<title>... (reference types)&#45;&gt;AnyRef / Object</title>
<path fill="none" stroke="black" d="M636.24,-178.02C606.72,-188.89 566.7,-203.64 535.53,-215.12"/>
<polygon fill="black" stroke="black" points="533.92,-211.98 525.75,-218.73 536.34,-218.55 533.92,-211.98"/>
</g>
<!-- Any -->
<g id="node11" class="node">
<title>Any</title>
<ellipse fill="#b2dfee" stroke="#b2dfee" cx="322" cy="-378" rx="27" ry="18"/>
<text text-anchor="middle" x="322" y="-374.3" font-family="Consolas" font-size="14.00">Any</text>
</g>
<!-- Matchable&#45;&gt;Any -->
<g id="edge1" class="edge">
<title>Matchable&#45;&gt;Any</title>
<path fill="none" stroke="black" d="M322,-324.3C322,-332.02 322,-341.29 322,-349.89"/>
<polygon fill="black" stroke="black" points="318.5,-349.9 322,-359.9 325.5,-349.9 318.5,-349.9"/>
</g>
<!-- Null -->
<g id="node12" class="node">
<title>Null</title>
<ellipse fill="#b2dfee" stroke="#b2dfee" cx="487" cy="-90" rx="27" ry="18"/>
<text text-anchor="middle" x="487" y="-86.3" font-family="Consolas" font-size="14.00">Null</text>
</g>
<!-- Null&#45;&gt;String -->
<g id="edge11" class="edge">
<title>Null&#45;&gt;String</title>
<path fill="none" stroke="black" d="M476.79,-106.88C471.23,-115.53 464.23,-126.42 457.96,-136.17"/>
<polygon fill="black" stroke="black" points="454.95,-134.39 452.48,-144.69 460.83,-138.17 454.95,-134.39"/>
</g>
<!-- Null&#45;&gt;List[Int] -->
<g id="edge12" class="edge">
<title>Null&#45;&gt;List[Int]</title>
<path fill="none" stroke="black" d="M497.44,-106.88C503.04,-115.41 510.07,-126.11 516.41,-135.75"/>
<polygon fill="black" stroke="black" points="513.54,-137.77 521.96,-144.2 519.39,-133.92 513.54,-137.77"/>
</g>
<!-- Null&#45;&gt;... (reference types) -->
<g id="edge13" class="edge">
<title>Null&#45;&gt;... (reference types)</title>
<path fill="none" stroke="black" d="M510.3,-99.58C539.04,-110.17 588.73,-128.48 626.39,-142.36"/>
<polygon fill="black" stroke="black" points="625.59,-145.79 636.18,-145.96 628.01,-139.22 625.59,-145.79"/>
</g>
<!-- Nothing -->
<g id="node13" class="node">
<title>Nothing</title>
<ellipse fill="#b2dfee" stroke="#b2dfee" cx="203" cy="-18" rx="40.89" ry="18"/>
<text text-anchor="middle" x="203" y="-14.3" font-family="Consolas" font-size="14.00">Nothing</text>
</g>
<!-- Nothing&#45;&gt;Unit -->
<g id="edge15" class="edge">
<title>Nothing&#45;&gt;Unit</title>
<path fill="none" stroke="black" d="M184.16,-34.2C152.15,-60.03 87.13,-112.49 51.58,-141.17"/>
<polygon fill="black" stroke="black" points="49.21,-138.58 43.63,-147.59 53.61,-144.03 49.21,-138.58"/>
</g>
<!-- Nothing&#45;&gt;Boolean -->
<g id="edge16" class="edge">
<title>Nothing&#45;&gt;Boolean</title>
<path fill="none" stroke="black" d="M192.73,-35.57C177.51,-60.12 148.84,-106.4 130.89,-135.35"/>
<polygon fill="black" stroke="black" points="127.77,-133.75 125.47,-144.1 133.72,-137.44 127.77,-133.75"/>
</g>
<!-- Nothing&#45;&gt;Int -->
<g id="edge17" class="edge">
<title>Nothing&#45;&gt;Int</title>
<path fill="none" stroke="black" d="M203,-36.13C203,-60.33 203,-104.79 203,-133.61"/>
<polygon fill="black" stroke="black" points="199.5,-133.81 203,-143.81 206.5,-133.81 199.5,-133.81"/>
</g>
<!-- Nothing&#45;&gt;... (value types) -->
<g id="edge18" class="edge">
<title>Nothing&#45;&gt;... (value types)</title>
<path fill="none" stroke="black" d="M216.31,-35.29C236.46,-59.95 274.86,-106.97 298.57,-135.99"/>
<polygon fill="black" stroke="black" points="296.09,-138.49 305.13,-144.02 301.51,-134.06 296.09,-138.49"/>
</g>
<!-- Nothing&#45;&gt;Null -->
<g id="edge14" class="edge">
<title>Nothing&#45;&gt;Null</title>
<path fill="none" stroke="black" d="M237.82,-27.58C292.37,-41.03 397.36,-66.91 452.01,-80.38"/>
<polygon fill="black" stroke="black" points="451.37,-83.82 461.92,-82.82 453.05,-77.03 451.37,-83.82"/>
</g>
</g>
</svg>
