<?xml version="1.0" encoding="UTF-8" standalone="no"?>
<!DOCTYPE svg PUBLIC "-//W3C//DTD SVG 1.1//EN"
 "http://www.w3.org/Graphics/SVG/1.1/DTD/svg11.dtd">
<!-- Generated by graphviz version 2.38.0 (20140413.2041)
 -->
<!-- Title: MutableCollections Pages: 1 -->
<svg width="2769pt" height="476pt"
 viewBox="0.00 0.00 2768.50 476.00" xmlns="http://www.w3.org/2000/svg" xmlns:xlink="http://www.w3.org/1999/xlink">
<g id="graph0" class="graph" transform="scale(1 1) rotate(0) translate(4 472)">
<title>MutableCollections</title>
<polygon fill="white" stroke="none" points="-4,4 -4,-472 2764.5,-472 2764.5,4 -4,4"/>
<!-- HashSet -->
<g id="node1" class="node"><title>HashSet</title>
<path fill="#4a5659" stroke="#4a5659" d="M1104,-252C1104,-252 1065,-252 1065,-252 1059,-252 1053,-246 1053,-240 1053,-240 1053,-228 1053,-228 1053,-222 1059,-216 1065,-216 1065,-216 1104,-216 1104,-216 1110,-216 1116,-222 1116,-228 1116,-228 1116,-240 1116,-240 1116,-246 1110,-252 1104,-252"/>
<text text-anchor="middle" x="1084.5" y="-230.3" font-family="Times New Roman,serif" font-size="14.00" fill="#ffffff">HashSet</text>
</g>
<!-- ImmutableSetAdaptor -->
<g id="node2" class="node"><title>ImmutableSetAdaptor</title>
<path fill="#4a5659" stroke="#4a5659" d="M1262.5,-252C1262.5,-252 1146.5,-252 1146.5,-252 1140.5,-252 1134.5,-246 1134.5,-240 1134.5,-240 1134.5,-228 1134.5,-228 1134.5,-222 1140.5,-216 1146.5,-216 1146.5,-216 1262.5,-216 1262.5,-216 1268.5,-216 1274.5,-222 1274.5,-228 1274.5,-228 1274.5,-240 1274.5,-240 1274.5,-246 1268.5,-252 1262.5,-252"/>
<text text-anchor="middle" x="1204.5" y="-230.3" font-family="Times New Roman,serif" font-size="14.00" fill="#ffffff">ImmutableSetAdaptor</text>
</g>
<!-- LinkedHashSet -->
<g id="node3" class="node"><title>LinkedHashSet</title>
<path fill="#4a5659" stroke="#4a5659" d="M1382,-252C1382,-252 1305,-252 1305,-252 1299,-252 1293,-246 1293,-240 1293,-240 1293,-228 1293,-228 1293,-222 1299,-216 1305,-216 1305,-216 1382,-216 1382,-216 1388,-216 1394,-222 1394,-228 1394,-228 1394,-240 1394,-240 1394,-246 1388,-252 1382,-252"/>
<text text-anchor="middle" x="1343.5" y="-230.3" font-family="Times New Roman,serif" font-size="14.00" fill="#ffffff">LinkedHashSet</text>
</g>
<!-- HashMap -->
<g id="node4" class="node"><title>HashMap</title>
<path fill="#4a5659" stroke="#4a5659" d="M59,-252C59,-252 12,-252 12,-252 6,-252 0,-246 0,-240 0,-240 0,-228 0,-228 0,-222 6,-216 12,-216 12,-216 59,-216 59,-216 65,-216 71,-222 71,-228 71,-228 71,-240 71,-240 71,-246 65,-252 59,-252"/>
<text text-anchor="middle" x="35.5" y="-230.3" font-family="Times New Roman,serif" font-size="14.00" fill="#ffffff">HashMap</text>
</g>
<!-- OpenHashMap -->
<g id="node5" class="node"><title>OpenHashMap</title>
<path fill="#4a5659" stroke="#4a5659" d="M178,-252C178,-252 101,-252 101,-252 95,-252 89,-246 89,-240 89,-240 89,-228 89,-228 89,-222 95,-216 101,-216 101,-216 178,-216 178,-216 184,-216 190,-222 190,-228 190,-228 190,-240 190,-240 190,-246 184,-252 178,-252"/>
<text text-anchor="middle" x="139.5" y="-230.3" font-family="Times New Roman,serif" font-size="14.00" fill="#ffffff">OpenHashMap</text>
</g>
<!-- WeakHashMap -->
<g id="node6" class="node"><title>WeakHashMap</title>
<path fill="#4a5659" stroke="#4a5659" d="M299,-252C299,-252 220,-252 220,-252 214,-252 208,-246 208,-240 208,-240 208,-228 208,-228 208,-222 214,-216 220,-216 220,-216 299,-216 299,-216 305,-216 311,-222 311,-228 311,-228 311,-240 311,-240 311,-246 305,-252 299,-252"/>
<text text-anchor="middle" x="259.5" y="-230.3" font-family="Times New Roman,serif" font-size="14.00" fill="#ffffff">WeakHashMap</text>
</g>
<!-- LinkedHashMap -->
<g id="node7" class="node"><title>LinkedHashMap</title>
<path fill="#4a5659" stroke="#4a5659" d="M426,-252C426,-252 341,-252 341,-252 335,-252 329,-246 329,-240 329,-240 329,-228 329,-228 329,-222 335,-216 341,-216 341,-216 426,-216 426,-216 432,-216 438,-222 438,-228 438,-228 438,-240 438,-240 438,-246 432,-252 426,-252"/>
<text text-anchor="middle" x="383.5" y="-230.3" font-family="Times New Roman,serif" font-size="14.00" fill="#ffffff">LinkedHashMap</text>
</g>
<!-- ListMap -->
<g id="node8" class="node"><title>ListMap</title>
<path fill="#4a5659" stroke="#4a5659" d="M507,-252C507,-252 468,-252 468,-252 462,-252 456,-246 456,-240 456,-240 456,-228 456,-228 456,-222 462,-216 468,-216 468,-216 507,-216 507,-216 513,-216 519,-222 519,-228 519,-228 519,-240 519,-240 519,-246 513,-252 507,-252"/>
<text text-anchor="middle" x="487.5" y="-230.3" font-family="Times New Roman,serif" font-size="14.00" fill="#ffffff">ListMap</text>
</g>
<!-- ImmutableMapAdaptor -->
<g id="node9" class="node"><title>ImmutableMapAdaptor</title>
<path fill="#4a5659" stroke="#4a5659" d="M672,-252C672,-252 549,-252 549,-252 543,-252 537,-246 537,-240 537,-240 537,-228 537,-228 537,-222 543,-216 549,-216 549,-216 672,-216 672,-216 678,-216 684,-222 684,-228 684,-228 684,-240 684,-240 684,-246 678,-252 672,-252"/>
<text text-anchor="middle" x="610.5" y="-230.3" font-family="Times New Roman,serif" font-size="14.00" fill="#ffffff">ImmutableMapAdaptor</text>
</g>
<!-- ArraySeq -->
<g id="node10" class="node"><title>ArraySeq</title>
<path fill="#4a5659" stroke="#4a5659" d="M1972.5,-180C1972.5,-180 1926.5,-180 1926.5,-180 1920.5,-180 1914.5,-174 1914.5,-168 1914.5,-168 1914.5,-156 1914.5,-156 1914.5,-150 1920.5,-144 1926.5,-144 1926.5,-144 1972.5,-144 1972.5,-144 1978.5,-144 1984.5,-150 1984.5,-156 1984.5,-156 1984.5,-168 1984.5,-168 1984.5,-174 1978.5,-180 1972.5,-180"/>
<text text-anchor="middle" x="1949.5" y="-158.3" font-family="Times New Roman,serif" font-size="14.00" fill="#ffffff">ArraySeq</text>
</g>
<!-- ArrayBuffer -->
<g id="node11" class="node"><title>ArrayBuffer</title>
<path fill="#4a5659" stroke="#4a5659" d="M2181,-180C2181,-180 2122,-180 2122,-180 2116,-180 2110,-174 2110,-168 2110,-168 2110,-156 2110,-156 2110,-150 2116,-144 2122,-144 2122,-144 2181,-144 2181,-144 2187,-144 2193,-150 2193,-156 2193,-156 2193,-168 2193,-168 2193,-174 2187,-180 2181,-180"/>
<text text-anchor="middle" x="2151.5" y="-158.3" font-family="Times New Roman,serif" font-size="14.00" fill="#ffffff">ArrayBuffer</text>
</g>
<!-- StringBuilder -->
<g id="node12" class="node"><title>StringBuilder</title>
<path fill="#4a5659" stroke="#4a5659" d="M2080,-180C2080,-180 2015,-180 2015,-180 2009,-180 2003,-174 2003,-168 2003,-168 2003,-156 2003,-156 2003,-150 2009,-144 2015,-144 2015,-144 2080,-144 2080,-144 2086,-144 2092,-150 2092,-156 2092,-156 2092,-168 2092,-168 2092,-174 2086,-180 2080,-180"/>
<text text-anchor="middle" x="2047.5" y="-158.3" font-family="Times New Roman,serif" font-size="14.00" fill="#ffffff">StringBuilder</text>
</g>
<!-- ListBuffer -->
<g id="node13" class="node"><title>ListBuffer</title>
<path fill="#4a5659" stroke="#4a5659" d="M2272,-180C2272,-180 2223,-180 2223,-180 2217,-180 2211,-174 2211,-168 2211,-168 2211,-156 2211,-156 2211,-150 2217,-144 2223,-144 2223,-144 2272,-144 2272,-144 2278,-144 2284,-150 2284,-156 2284,-156 2284,-168 2284,-168 2284,-174 2278,-180 2272,-180"/>
<text text-anchor="middle" x="2247.5" y="-158.3" font-family="Times New Roman,serif" font-size="14.00" fill="#ffffff">ListBuffer</text>
</g>
<!-- Stack -->
<g id="node14" class="node"><title>Stack</title>
<path fill="#4a5659" stroke="#4a5659" d="M1674.5,-180C1674.5,-180 1644.5,-180 1644.5,-180 1638.5,-180 1632.5,-174 1632.5,-168 1632.5,-168 1632.5,-156 1632.5,-156 1632.5,-150 1638.5,-144 1644.5,-144 1644.5,-144 1674.5,-144 1674.5,-144 1680.5,-144 1686.5,-150 1686.5,-156 1686.5,-156 1686.5,-168 1686.5,-168 1686.5,-174 1680.5,-180 1674.5,-180"/>
<text text-anchor="middle" x="1659.5" y="-158.3" font-family="Times New Roman,serif" font-size="14.00" fill="#ffffff">Stack</text>
</g>
<!-- SynchronizedStack -->
<g id="node16" class="node"><title>SynchronizedStack</title>
<path fill="#4a5659" stroke="#4a5659" d="M1710,-108C1710,-108 1609,-108 1609,-108 1603,-108 1597,-102 1597,-96 1597,-96 1597,-84 1597,-84 1597,-78 1603,-72 1609,-72 1609,-72 1710,-72 1710,-72 1716,-72 1722,-78 1722,-84 1722,-84 1722,-96 1722,-96 1722,-102 1716,-108 1710,-108"/>
<text text-anchor="middle" x="1659.5" y="-86.3" font-family="Times New Roman,serif" font-size="14.00" fill="#ffffff">SynchronizedStack</text>
</g>
<!-- Stack&#45;&gt;SynchronizedStack -->
<g id="edge33" class="edge"><title>Stack&#45;&gt;SynchronizedStack</title>
<path fill="none" stroke="#7f7f7f" d="M1659.5,-143.697C1659.5,-135.983 1659.5,-126.712 1659.5,-118.112"/>
<polygon fill="#7f7f7f" stroke="#7f7f7f" points="1663,-118.104 1659.5,-108.104 1656,-118.104 1663,-118.104"/>
</g>
<!-- ArrayStack -->
<g id="node15" class="node"><title>ArrayStack</title>
<path fill="#4a5659" stroke="#4a5659" d="M1772.5,-180C1772.5,-180 1716.5,-180 1716.5,-180 1710.5,-180 1704.5,-174 1704.5,-168 1704.5,-168 1704.5,-156 1704.5,-156 1704.5,-150 1710.5,-144 1716.5,-144 1716.5,-144 1772.5,-144 1772.5,-144 1778.5,-144 1784.5,-150 1784.5,-156 1784.5,-156 1784.5,-168 1784.5,-168 1784.5,-174 1778.5,-180 1772.5,-180"/>
<text text-anchor="middle" x="1744.5" y="-158.3" font-family="Times New Roman,serif" font-size="14.00" fill="#ffffff">ArrayStack</text>
</g>
<!-- PriorityQueue -->
<g id="node17" class="node"><title>PriorityQueue</title>
<path fill="#4a5659" stroke="#4a5659" d="M1884.5,-180C1884.5,-180 1814.5,-180 1814.5,-180 1808.5,-180 1802.5,-174 1802.5,-168 1802.5,-168 1802.5,-156 1802.5,-156 1802.5,-150 1808.5,-144 1814.5,-144 1814.5,-144 1884.5,-144 1884.5,-144 1890.5,-144 1896.5,-150 1896.5,-156 1896.5,-156 1896.5,-168 1896.5,-168 1896.5,-174 1890.5,-180 1884.5,-180"/>
<text text-anchor="middle" x="1849.5" y="-158.3" font-family="Times New Roman,serif" font-size="14.00" fill="#ffffff">PriorityQueue</text>
</g>
<!-- SynchronizedPriorityQueue -->
<g id="node18" class="node"><title>SynchronizedPriorityQueue</title>
<path fill="#4a5659" stroke="#4a5659" d="M1922.5,-108C1922.5,-108 1776.5,-108 1776.5,-108 1770.5,-108 1764.5,-102 1764.5,-96 1764.5,-96 1764.5,-84 1764.5,-84 1764.5,-78 1770.5,-72 1776.5,-72 1776.5,-72 1922.5,-72 1922.5,-72 1928.5,-72 1934.5,-78 1934.5,-84 1934.5,-84 1934.5,-96 1934.5,-96 1934.5,-102 1928.5,-108 1922.5,-108"/>
<text text-anchor="middle" x="1849.5" y="-86.3" font-family="Times New Roman,serif" font-size="14.00" fill="#ffffff">SynchronizedPriorityQueue</text>
</g>
<!-- PriorityQueue&#45;&gt;SynchronizedPriorityQueue -->
<g id="edge34" class="edge"><title>PriorityQueue&#45;&gt;SynchronizedPriorityQueue</title>
<path fill="none" stroke="#7f7f7f" d="M1849.5,-143.697C1849.5,-135.983 1849.5,-126.712 1849.5,-118.112"/>
<polygon fill="#7f7f7f" stroke="#7f7f7f" points="1853,-118.104 1849.5,-108.104 1846,-118.104 1853,-118.104"/>
</g>
<!-- SynchronizedQueue -->
<g id="node19" class="node"><title>SynchronizedQueue</title>
<path fill="#4a5659" stroke="#4a5659" d="M2563,-36C2563,-36 2458,-36 2458,-36 2452,-36 2446,-30 2446,-24 2446,-24 2446,-12 2446,-12 2446,-6 2452,-0 2458,-0 2458,-0 2563,-0 2563,-0 2569,-0 2575,-6 2575,-12 2575,-12 2575,-24 2575,-24 2575,-30 2569,-36 2563,-36"/>
<text text-anchor="middle" x="2510.5" y="-14.3" font-family="Times New Roman,serif" font-size="14.00" fill="#ffffff">SynchronizedQueue</text>
</g>
<!-- MutableList -->
<g id="node20" class="node"><title>MutableList</title>
<path fill="#4a5659" stroke="#4a5659" d="M2520,-180C2520,-180 2461,-180 2461,-180 2455,-180 2449,-174 2449,-168 2449,-168 2449,-156 2449,-156 2449,-150 2455,-144 2461,-144 2461,-144 2520,-144 2520,-144 2526,-144 2532,-150 2532,-156 2532,-156 2532,-168 2532,-168 2532,-174 2526,-180 2520,-180"/>
<text text-anchor="middle" x="2490.5" y="-158.3" font-family="Times New Roman,serif" font-size="14.00" fill="#ffffff">MutableList</text>
</g>
<!-- Queue -->
<g id="node39" class="node"><title>Queue</title>
<path fill="#6dc6e6" stroke="#6dc6e6" d="M2525.5,-108C2525.5,-108 2495.5,-108 2495.5,-108 2489.5,-108 2483.5,-102 2483.5,-96 2483.5,-96 2483.5,-84 2483.5,-84 2483.5,-78 2489.5,-72 2495.5,-72 2495.5,-72 2525.5,-72 2525.5,-72 2531.5,-72 2537.5,-78 2537.5,-84 2537.5,-84 2537.5,-96 2537.5,-96 2537.5,-102 2531.5,-108 2525.5,-108"/>
<text text-anchor="middle" x="2510.5" y="-86.3" font-family="Times New Roman,serif" font-size="14.00" fill="#ffffff">Queue</text>
</g>
<!-- MutableList&#45;&gt;Queue -->
<g id="edge38" class="edge"><title>MutableList&#45;&gt;Queue</title>
<path fill="none" stroke="#7f7f7f" d="M2495.44,-143.697C2497.67,-135.898 2500.35,-126.509 2502.83,-117.829"/>
<polygon fill="#7f7f7f" stroke="#7f7f7f" points="2506.23,-118.681 2505.61,-108.104 2499.5,-116.758 2506.23,-118.681"/>
</g>
<!-- LinkedList -->
<g id="node21" class="node"><title>LinkedList</title>
<path fill="#4a5659" stroke="#4a5659" d="M2614.5,-180C2614.5,-180 2562.5,-180 2562.5,-180 2556.5,-180 2550.5,-174 2550.5,-168 2550.5,-168 2550.5,-156 2550.5,-156 2550.5,-150 2556.5,-144 2562.5,-144 2562.5,-144 2614.5,-144 2614.5,-144 2620.5,-144 2626.5,-150 2626.5,-156 2626.5,-156 2626.5,-168 2626.5,-168 2626.5,-174 2620.5,-180 2614.5,-180"/>
<text text-anchor="middle" x="2588.5" y="-158.3" font-family="Times New Roman,serif" font-size="14.00" fill="#ffffff">LinkedList</text>
</g>
<!-- DoubleLinkedList -->
<g id="node22" class="node"><title>DoubleLinkedList</title>
<path fill="#4a5659" stroke="#4a5659" d="M2748.5,-180C2748.5,-180 2656.5,-180 2656.5,-180 2650.5,-180 2644.5,-174 2644.5,-168 2644.5,-168 2644.5,-156 2644.5,-156 2644.5,-150 2650.5,-144 2656.5,-144 2656.5,-144 2748.5,-144 2748.5,-144 2754.5,-144 2760.5,-150 2760.5,-156 2760.5,-156 2760.5,-168 2760.5,-168 2760.5,-174 2754.5,-180 2748.5,-180"/>
<text text-anchor="middle" x="2702.5" y="-158.3" font-family="Times New Roman,serif" font-size="14.00" fill="#ffffff">DoubleLinkedList</text>
</g>
<!-- Traversable -->
<g id="node23" class="node"><title>Traversable</title>
<path fill="#6dc6e6" stroke="#6dc6e6" d="M1420.5,-468C1420.5,-468 1362.5,-468 1362.5,-468 1356.5,-468 1350.5,-462 1350.5,-456 1350.5,-456 1350.5,-444 1350.5,-444 1350.5,-438 1356.5,-432 1362.5,-432 1362.5,-432 1420.5,-432 1420.5,-432 1426.5,-432 1432.5,-438 1432.5,-444 1432.5,-444 1432.5,-456 1432.5,-456 1432.5,-462 1426.5,-468 1420.5,-468"/>
<text text-anchor="middle" x="1391.5" y="-446.3" font-family="Times New Roman,serif" font-size="14.00" fill="#ffffff">Traversable</text>
</g>
<!-- Iterable -->
<g id="node24" class="node"><title>Iterable</title>
<path fill="#6dc6e6" stroke="#6dc6e6" d="M1408.5,-396C1408.5,-396 1374.5,-396 1374.5,-396 1368.5,-396 1362.5,-390 1362.5,-384 1362.5,-384 1362.5,-372 1362.5,-372 1362.5,-366 1368.5,-360 1374.5,-360 1374.5,-360 1408.5,-360 1408.5,-360 1414.5,-360 1420.5,-366 1420.5,-372 1420.5,-372 1420.5,-384 1420.5,-384 1420.5,-390 1414.5,-396 1408.5,-396"/>
<text text-anchor="middle" x="1391.5" y="-374.3" font-family="Times New Roman,serif" font-size="14.00" fill="#ffffff">Iterable</text>
</g>
<!-- Traversable&#45;&gt;Iterable -->
<g id="edge1" class="edge"><title>Traversable&#45;&gt;Iterable</title>
<path fill="none" stroke="#7f7f7f" stroke-width="4" d="M1391.5,-431.697C1391.5,-423.983 1391.5,-414.712 1391.5,-406.112"/>
<polygon fill="#7f7f7f" stroke="#7f7f7f" stroke-width="4" points="1395,-406.104 1391.5,-396.104 1388,-406.104 1395,-406.104"/>
</g>
<!-- Map -->
<g id="node25" class="node"><title>Map</title>
<path fill="#6dc6e6" stroke="#6dc6e6" d="M564.5,-324C564.5,-324 534.5,-324 534.5,-324 528.5,-324 522.5,-318 522.5,-312 522.5,-312 522.5,-300 522.5,-300 522.5,-294 528.5,-288 534.5,-288 534.5,-288 564.5,-288 564.5,-288 570.5,-288 576.5,-294 576.5,-300 576.5,-300 576.5,-312 576.5,-312 576.5,-318 570.5,-324 564.5,-324"/>
<text text-anchor="middle" x="549.5" y="-302.3" font-family="Times New Roman,serif" font-size="14.00" fill="#ffffff">Map</text>
</g>
<!-- Iterable&#45;&gt;Map -->
<g id="edge2" class="edge"><title>Iterable&#45;&gt;Map</title>
<path fill="none" stroke="#7f7f7f" d="M1362.03,-374.55C1234.37,-363.937 729.223,-321.941 586.963,-310.114"/>
<polygon fill="#7f7f7f" stroke="#7f7f7f" points="586.852,-306.593 576.596,-309.253 586.272,-313.569 586.852,-306.593"/>
</g>
<!-- Set -->
<g id="node29" class="node"><title>Set</title>
<path fill="#6dc6e6" stroke="#6dc6e6" d="M1406.5,-324C1406.5,-324 1376.5,-324 1376.5,-324 1370.5,-324 1364.5,-318 1364.5,-312 1364.5,-312 1364.5,-300 1364.5,-300 1364.5,-294 1370.5,-288 1376.5,-288 1376.5,-288 1406.5,-288 1406.5,-288 1412.5,-288 1418.5,-294 1418.5,-300 1418.5,-300 1418.5,-312 1418.5,-312 1418.5,-318 1412.5,-324 1406.5,-324"/>
<text text-anchor="middle" x="1391.5" y="-302.3" font-family="Times New Roman,serif" font-size="14.00" fill="#ffffff">Set</text>
</g>
<!-- Iterable&#45;&gt;Set -->
<g id="edge12" class="edge"><title>Iterable&#45;&gt;Set</title>
<path fill="none" stroke="#7f7f7f" d="M1391.5,-359.697C1391.5,-351.983 1391.5,-342.712 1391.5,-334.112"/>
<polygon fill="#7f7f7f" stroke="#7f7f7f" points="1395,-334.104 1391.5,-324.104 1388,-334.104 1395,-334.104"/>
</g>
<!-- Seq -->
<g id="node33" class="node"><title>Seq</title>
<path fill="#6dc6e6" stroke="#6dc6e6" d="M1864.5,-324C1864.5,-324 1834.5,-324 1834.5,-324 1828.5,-324 1822.5,-318 1822.5,-312 1822.5,-312 1822.5,-300 1822.5,-300 1822.5,-294 1828.5,-288 1834.5,-288 1834.5,-288 1864.5,-288 1864.5,-288 1870.5,-288 1876.5,-294 1876.5,-300 1876.5,-300 1876.5,-312 1876.5,-312 1876.5,-318 1870.5,-324 1864.5,-324"/>
<text text-anchor="middle" x="1849.5" y="-302.3" font-family="Times New Roman,serif" font-size="14.00" fill="#ffffff">Seq</text>
</g>
<!-- Iterable&#45;&gt;Seq -->
<g id="edge19" class="edge"><title>Iterable&#45;&gt;Seq</title>
<path fill="none" stroke="#7f7f7f" stroke-width="4" d="M1420.85,-372.515C1501,-360.264 1723.57,-326.247 1812.29,-312.687"/>
<polygon fill="#7f7f7f" stroke="#7f7f7f" stroke-width="4" points="1813.07,-316.108 1822.43,-311.137 1812.02,-309.188 1813.07,-316.108"/>
</g>
<!-- Map&#45;&gt;HashMap -->
<g id="edge3" class="edge"><title>Map&#45;&gt;HashMap</title>
<path fill="none" stroke="#7f7f7f" stroke-width="4" d="M522.315,-304.36C450.884,-302.17 252.149,-292.803 81.2002,-252.091"/>
<polygon fill="#7f7f7f" stroke="#7f7f7f" stroke-width="4" points="81.8202,-248.639 71.277,-249.684 80.1703,-255.442 81.8202,-248.639"/>
</g>
<!-- Map&#45;&gt;OpenHashMap -->
<g id="edge5" class="edge"><title>Map&#45;&gt;OpenHashMap</title>
<path fill="none" stroke="#7f7f7f" d="M522.419,-302.133C464.779,-295.773 325.608,-279.037 200.382,-252.273"/>
<polygon fill="#7f7f7f" stroke="#7f7f7f" points="200.756,-248.773 190.241,-250.076 199.274,-255.614 200.756,-248.773"/>
</g>
<!-- Map&#45;&gt;WeakHashMap -->
<g id="edge4" class="edge"><title>Map&#45;&gt;WeakHashMap</title>
<path fill="none" stroke="#7f7f7f" d="M522.484,-299.23C481.165,-290.307 399.582,-272.304 321.202,-252.381"/>
<polygon fill="#7f7f7f" stroke="#7f7f7f" points="321.722,-248.901 311.167,-249.815 319.988,-255.683 321.722,-248.901"/>
</g>
<!-- Map&#45;&gt;LinkedHashMap -->
<g id="edge6" class="edge"><title>Map&#45;&gt;LinkedHashMap</title>
<path fill="none" stroke="#7f7f7f" d="M522.46,-293.597C498.336,-283.425 462.407,-268.274 433.126,-255.927"/>
<polygon fill="#7f7f7f" stroke="#7f7f7f" points="434.451,-252.687 423.877,-252.026 431.731,-259.137 434.451,-252.687"/>
</g>
<!-- Map&#45;&gt;ListMap -->
<g id="edge10" class="edge"><title>Map&#45;&gt;ListMap</title>
<path fill="none" stroke="#7f7f7f" d="M534.174,-287.697C526.741,-279.305 517.677,-269.07 509.52,-259.861"/>
<polygon fill="#7f7f7f" stroke="#7f7f7f" points="511.9,-257.27 502.65,-252.104 506.66,-261.911 511.9,-257.27"/>
</g>
<!-- Map&#45;&gt;ImmutableMapAdaptor -->
<g id="edge9" class="edge"><title>Map&#45;&gt;ImmutableMapAdaptor</title>
<path fill="none" stroke="#7f7f7f" d="M564.579,-287.697C571.892,-279.305 580.81,-269.07 588.835,-259.861"/>
<polygon fill="#7f7f7f" stroke="#7f7f7f" points="591.664,-261.943 595.595,-252.104 586.386,-257.344 591.664,-261.943"/>
</g>
<!-- ObservableMap -->
<g id="node26" class="node"><title>ObservableMap</title>
<path fill="#6dc6e6" stroke="#6dc6e6" d="M796.5,-252C796.5,-252 714.5,-252 714.5,-252 708.5,-252 702.5,-246 702.5,-240 702.5,-240 702.5,-228 702.5,-228 702.5,-222 708.5,-216 714.5,-216 714.5,-216 796.5,-216 796.5,-216 802.5,-216 808.5,-222 808.5,-228 808.5,-228 808.5,-240 808.5,-240 808.5,-246 802.5,-252 796.5,-252"/>
<text text-anchor="middle" x="755.5" y="-230.3" font-family="Times New Roman,serif" font-size="14.00" fill="#ffffff">ObservableMap</text>
</g>
<!-- Map&#45;&gt;ObservableMap -->
<g id="edge7" class="edge"><title>Map&#45;&gt;ObservableMap</title>
<path fill="none" stroke="#7f7f7f" d="M576.855,-295.705C607.023,-285.453 656.485,-268.646 695.724,-255.312"/>
<polygon fill="#7f7f7f" stroke="#7f7f7f" points="697.119,-258.535 705.462,-252.003 694.867,-251.907 697.119,-258.535"/>
</g>
<!-- SynchronizedMap -->
<g id="node27" class="node"><title>SynchronizedMap</title>
<path fill="#6dc6e6" stroke="#6dc6e6" d="M934,-252C934,-252 839,-252 839,-252 833,-252 827,-246 827,-240 827,-240 827,-228 827,-228 827,-222 833,-216 839,-216 839,-216 934,-216 934,-216 940,-216 946,-222 946,-228 946,-228 946,-240 946,-240 946,-246 940,-252 934,-252"/>
<text text-anchor="middle" x="886.5" y="-230.3" font-family="Times New Roman,serif" font-size="14.00" fill="#ffffff">SynchronizedMap</text>
</g>
<!-- Map&#45;&gt;SynchronizedMap -->
<g id="edge8" class="edge"><title>Map&#45;&gt;SynchronizedMap</title>
<path fill="none" stroke="#7f7f7f" d="M576.595,-300.071C623.408,-291.463 722.666,-272.807 816.736,-252.117"/>
<polygon fill="#7f7f7f" stroke="#7f7f7f" points="817.692,-255.49 826.701,-249.913 816.181,-248.655 817.692,-255.49"/>
</g>
<!-- MultiMap -->
<g id="node28" class="node"><title>MultiMap</title>
<path fill="#6dc6e6" stroke="#6dc6e6" d="M1023,-252C1023,-252 976,-252 976,-252 970,-252 964,-246 964,-240 964,-240 964,-228 964,-228 964,-222 970,-216 976,-216 976,-216 1023,-216 1023,-216 1029,-216 1035,-222 1035,-228 1035,-228 1035,-240 1035,-240 1035,-246 1029,-252 1023,-252"/>
<text text-anchor="middle" x="999.5" y="-230.3" font-family="Times New Roman,serif" font-size="14.00" fill="#ffffff">MultiMap</text>
</g>
<!-- Map&#45;&gt;MultiMap -->
<g id="edge11" class="edge"><title>Map&#45;&gt;MultiMap</title>
<path fill="none" stroke="#7f7f7f" d="M576.922,-303.599C641.391,-299.845 807.526,-287.495 953.825,-251.806"/>
<polygon fill="#7f7f7f" stroke="#7f7f7f" points="955.016,-255.116 963.877,-249.308 953.328,-248.323 955.016,-255.116"/>
</g>
<!-- Set&#45;&gt;HashSet -->
<g id="edge13" class="edge"><title>Set&#45;&gt;HashSet</title>
<path fill="none" stroke="#7f7f7f" stroke-width="4" d="M1364.26,-301.379C1317.27,-294.748 1217.98,-279.054 1125.81,-251.748"/>
<polygon fill="#7f7f7f" stroke="#7f7f7f" stroke-width="4" points="1126.64,-248.343 1116.06,-248.806 1124.62,-255.045 1126.64,-248.343"/>
</g>
<!-- Set&#45;&gt;ImmutableSetAdaptor -->
<g id="edge17" class="edge"><title>Set&#45;&gt;ImmutableSetAdaptor</title>
<path fill="none" stroke="#7f7f7f" d="M1364.31,-294.821C1336.99,-284.597 1294.12,-268.549 1259.66,-255.648"/>
<polygon fill="#7f7f7f" stroke="#7f7f7f" points="1260.78,-252.328 1250.18,-252.1 1258.32,-258.884 1260.78,-252.328"/>
</g>
<!-- Set&#45;&gt;LinkedHashSet -->
<g id="edge18" class="edge"><title>Set&#45;&gt;LinkedHashSet</title>
<path fill="none" stroke="#7f7f7f" d="M1379.63,-287.697C1374,-279.474 1367.15,-269.483 1360.93,-260.421"/>
<polygon fill="#7f7f7f" stroke="#7f7f7f" points="1363.77,-258.372 1355.23,-252.104 1358,-262.331 1363.77,-258.372"/>
</g>
<!-- BitSet -->
<g id="node30" class="node"><title>BitSet</title>
<path fill="#6dc6e6" stroke="#6dc6e6" d="M1454.5,-252C1454.5,-252 1424.5,-252 1424.5,-252 1418.5,-252 1412.5,-246 1412.5,-240 1412.5,-240 1412.5,-228 1412.5,-228 1412.5,-222 1418.5,-216 1424.5,-216 1424.5,-216 1454.5,-216 1454.5,-216 1460.5,-216 1466.5,-222 1466.5,-228 1466.5,-228 1466.5,-240 1466.5,-240 1466.5,-246 1460.5,-252 1454.5,-252"/>
<text text-anchor="middle" x="1439.5" y="-230.3" font-family="Times New Roman,serif" font-size="14.00" fill="#ffffff">BitSet</text>
</g>
<!-- Set&#45;&gt;BitSet -->
<g id="edge14" class="edge"><title>Set&#45;&gt;BitSet</title>
<path fill="none" stroke="#7f7f7f" d="M1403.37,-287.697C1409,-279.474 1415.85,-269.483 1422.07,-260.421"/>
<polygon fill="#7f7f7f" stroke="#7f7f7f" points="1425,-262.331 1427.77,-252.104 1419.23,-258.372 1425,-262.331"/>
</g>
<!-- ObservableSet -->
<g id="node31" class="node"><title>ObservableSet</title>
<path fill="#6dc6e6" stroke="#6dc6e6" d="M1570.5,-252C1570.5,-252 1496.5,-252 1496.5,-252 1490.5,-252 1484.5,-246 1484.5,-240 1484.5,-240 1484.5,-228 1484.5,-228 1484.5,-222 1490.5,-216 1496.5,-216 1496.5,-216 1570.5,-216 1570.5,-216 1576.5,-216 1582.5,-222 1582.5,-228 1582.5,-228 1582.5,-240 1582.5,-240 1582.5,-246 1576.5,-252 1570.5,-252"/>
<text text-anchor="middle" x="1533.5" y="-230.3" font-family="Times New Roman,serif" font-size="14.00" fill="#ffffff">ObservableSet</text>
</g>
<!-- Set&#45;&gt;ObservableSet -->
<g id="edge15" class="edge"><title>Set&#45;&gt;ObservableSet</title>
<path fill="none" stroke="#7f7f7f" d="M1418.54,-291.669C1438.72,-281.723 1466.7,-267.929 1490.01,-256.441"/>
<polygon fill="#7f7f7f" stroke="#7f7f7f" points="1491.59,-259.563 1499.01,-252.002 1488.49,-253.285 1491.59,-259.563"/>
</g>
<!-- SynchronizedSet -->
<g id="node32" class="node"><title>SynchronizedSet</title>
<path fill="#6dc6e6" stroke="#6dc6e6" d="M1700,-252C1700,-252 1613,-252 1613,-252 1607,-252 1601,-246 1601,-240 1601,-240 1601,-228 1601,-228 1601,-222 1607,-216 1613,-216 1613,-216 1700,-216 1700,-216 1706,-216 1712,-222 1712,-228 1712,-228 1712,-240 1712,-240 1712,-246 1706,-252 1700,-252"/>
<text text-anchor="middle" x="1656.5" y="-230.3" font-family="Times New Roman,serif" font-size="14.00" fill="#ffffff">SynchronizedSet</text>
</g>
<!-- Set&#45;&gt;SynchronizedSet -->
<g id="edge16" class="edge"><title>Set&#45;&gt;SynchronizedSet</title>
<path fill="none" stroke="#7f7f7f" d="M1418.86,-297.772C1459.22,-287.112 1535.89,-266.859 1591.25,-252.235"/>
<polygon fill="#7f7f7f" stroke="#7f7f7f" points="1592.21,-255.603 1600.98,-249.665 1590.42,-248.835 1592.21,-255.603"/>
</g>
<!-- Seq&#45;&gt;Stack -->
<g id="edge22" class="edge"><title>Seq&#45;&gt;Stack</title>
<path fill="none" stroke="#7f7f7f" d="M1826.58,-287.871C1792.63,-262.497 1728.88,-214.854 1690.7,-186.318"/>
<polygon fill="#7f7f7f" stroke="#7f7f7f" points="1692.61,-183.372 1682.5,-180.189 1688.41,-188.979 1692.61,-183.372"/>
</g>
<!-- Seq&#45;&gt;ArrayStack -->
<g id="edge23" class="edge"><title>Seq&#45;&gt;ArrayStack</title>
<path fill="none" stroke="#7f7f7f" d="M1836.83,-287.871C1818.55,-263.137 1784.61,-217.242 1763.36,-188.512"/>
<polygon fill="#7f7f7f" stroke="#7f7f7f" points="1765.97,-186.149 1757.21,-180.189 1760.34,-190.311 1765.97,-186.149"/>
</g>
<!-- Seq&#45;&gt;PriorityQueue -->
<g id="edge24" class="edge"><title>Seq&#45;&gt;PriorityQueue</title>
<path fill="none" stroke="#7f7f7f" d="M1849.5,-287.871C1849.5,-263.67 1849.5,-219.211 1849.5,-190.393"/>
<polygon fill="#7f7f7f" stroke="#7f7f7f" points="1853,-190.189 1849.5,-180.189 1846,-190.189 1853,-190.189"/>
</g>
<!-- IndexedSeq -->
<g id="node34" class="node"><title>IndexedSeq</title>
<path fill="#6dc6e6" stroke="#6dc6e6" d="M2028,-252C2028,-252 1969,-252 1969,-252 1963,-252 1957,-246 1957,-240 1957,-240 1957,-228 1957,-228 1957,-222 1963,-216 1969,-216 1969,-216 2028,-216 2028,-216 2034,-216 2040,-222 2040,-228 2040,-228 2040,-240 2040,-240 2040,-246 2034,-252 2028,-252"/>
<text text-anchor="middle" x="1998.5" y="-230.3" font-family="Times New Roman,serif" font-size="14.00" fill="#ffffff">IndexedSeq</text>
</g>
<!-- Seq&#45;&gt;IndexedSeq -->
<g id="edge20" class="edge"><title>Seq&#45;&gt;IndexedSeq</title>
<path fill="none" stroke="#7f7f7f" stroke-width="4" d="M1876.83,-292.161C1898.06,-282.186 1927.97,-268.133 1952.83,-256.456"/>
<polygon fill="#7f7f7f" stroke="#7f7f7f" stroke-width="4" points="1954.51,-259.531 1962.08,-252.111 1951.54,-253.196 1954.51,-259.531"/>
</g>
<!-- Buffer -->
<g id="node35" class="node"><title>Buffer</title>
<path fill="#6dc6e6" stroke="#6dc6e6" d="M2262.5,-252C2262.5,-252 2232.5,-252 2232.5,-252 2226.5,-252 2220.5,-246 2220.5,-240 2220.5,-240 2220.5,-228 2220.5,-228 2220.5,-222 2226.5,-216 2232.5,-216 2232.5,-216 2262.5,-216 2262.5,-216 2268.5,-216 2274.5,-222 2274.5,-228 2274.5,-228 2274.5,-240 2274.5,-240 2274.5,-246 2268.5,-252 2262.5,-252"/>
<text text-anchor="middle" x="2247.5" y="-230.3" font-family="Times New Roman,serif" font-size="14.00" fill="#ffffff">Buffer</text>
</g>
<!-- Seq&#45;&gt;Buffer -->
<g id="edge21" class="edge"><title>Seq&#45;&gt;Buffer</title>
<path fill="none" stroke="#7f7f7f" d="M1876.54,-300.244C1946.03,-288.022 2130.93,-255.502 2210.38,-241.529"/>
<polygon fill="#7f7f7f" stroke="#7f7f7f" points="2211.18,-244.942 2220.42,-239.763 2209.96,-238.048 2211.18,-244.942"/>
</g>
<!-- LinearSeq -->
<g id="node36" class="node"><title>LinearSeq</title>
<path fill="#6dc6e6" stroke="#6dc6e6" d="M2564,-252C2564,-252 2515,-252 2515,-252 2509,-252 2503,-246 2503,-240 2503,-240 2503,-228 2503,-228 2503,-222 2509,-216 2515,-216 2515,-216 2564,-216 2564,-216 2570,-216 2576,-222 2576,-228 2576,-228 2576,-240 2576,-240 2576,-246 2570,-252 2564,-252"/>
<text text-anchor="middle" x="2539.5" y="-230.3" font-family="Times New Roman,serif" font-size="14.00" fill="#ffffff">LinearSeq</text>
</g>
<!-- Seq&#45;&gt;LinearSeq -->
<g id="edge25" class="edge"><title>Seq&#45;&gt;LinearSeq</title>
<path fill="none" stroke="#7f7f7f" d="M1876.55,-302.256C1980.98,-291.661 2358.73,-253.339 2492.3,-239.788"/>
<polygon fill="#7f7f7f" stroke="#7f7f7f" points="2493.01,-243.234 2502.61,-238.743 2492.31,-236.27 2493.01,-243.234"/>
</g>
<!-- IndexedSeq&#45;&gt;ArraySeq -->
<g id="edge26" class="edge"><title>IndexedSeq&#45;&gt;ArraySeq</title>
<path fill="none" stroke="#7f7f7f" d="M1986.39,-215.697C1980.63,-207.474 1973.64,-197.483 1967.29,-188.421"/>
<polygon fill="#7f7f7f" stroke="#7f7f7f" points="1970.08,-186.29 1961.47,-180.104 1964.34,-190.304 1970.08,-186.29"/>
</g>
<!-- IndexedSeq&#45;&gt;ArrayBuffer -->
<g id="edge28" class="edge"><title>IndexedSeq&#45;&gt;ArrayBuffer</title>
<path fill="none" stroke="#7f7f7f" stroke-width="4" d="M2035.93,-215.876C2056.75,-206.349 2082.85,-194.407 2104.98,-184.283"/>
<polygon fill="#7f7f7f" stroke="#7f7f7f" stroke-width="4" points="2106.56,-187.411 2114.19,-180.068 2103.64,-181.046 2106.56,-187.411"/>
</g>
<!-- IndexedSeq&#45;&gt;StringBuilder -->
<g id="edge27" class="edge"><title>IndexedSeq&#45;&gt;StringBuilder</title>
<path fill="none" stroke="#7f7f7f" d="M2010.61,-215.697C2016.37,-207.474 2023.36,-197.483 2029.71,-188.421"/>
<polygon fill="#7f7f7f" stroke="#7f7f7f" points="2032.66,-190.304 2035.53,-180.104 2026.92,-186.29 2032.66,-190.304"/>
</g>
<!-- Buffer&#45;&gt;ArrayBuffer -->
<g id="edge29" class="edge"><title>Buffer&#45;&gt;ArrayBuffer</title>
<path fill="none" stroke="#7f7f7f" stroke-width="4" d="M2223.77,-215.697C2211.56,-206.796 2196.51,-195.823 2183.32,-186.199"/>
<polygon fill="#7f7f7f" stroke="#7f7f7f" stroke-width="4" points="2185.1,-183.168 2174.96,-180.104 2180.98,-188.824 2185.1,-183.168"/>
</g>
<!-- Buffer&#45;&gt;ListBuffer -->
<g id="edge32" class="edge"><title>Buffer&#45;&gt;ListBuffer</title>
<path fill="none" stroke="#7f7f7f" d="M2247.5,-215.697C2247.5,-207.983 2247.5,-198.712 2247.5,-190.112"/>
<polygon fill="#7f7f7f" stroke="#7f7f7f" points="2251,-190.104 2247.5,-180.104 2244,-190.104 2251,-190.104"/>
</g>
<!-- ObservableBuffer -->
<g id="node37" class="node"><title>ObservableBuffer</title>
<path fill="#6dc6e6" stroke="#6dc6e6" d="M2307.5,-108C2307.5,-108 2215.5,-108 2215.5,-108 2209.5,-108 2203.5,-102 2203.5,-96 2203.5,-96 2203.5,-84 2203.5,-84 2203.5,-78 2209.5,-72 2215.5,-72 2215.5,-72 2307.5,-72 2307.5,-72 2313.5,-72 2319.5,-78 2319.5,-84 2319.5,-84 2319.5,-96 2319.5,-96 2319.5,-102 2313.5,-108 2307.5,-108"/>
<text text-anchor="middle" x="2261.5" y="-86.3" font-family="Times New Roman,serif" font-size="14.00" fill="#ffffff">ObservableBuffer</text>
</g>
<!-- Buffer&#45;&gt;ObservableBuffer -->
<g id="edge30" class="edge"><title>Buffer&#45;&gt;ObservableBuffer</title>
<path fill="none" stroke="#7f7f7f" d="M2267.88,-215.531C2277.31,-206.092 2287.51,-193.597 2292.5,-180 2298.02,-164.981 2296.68,-159.443 2292.5,-144 2289.92,-134.48 2285.16,-124.917 2280.12,-116.587"/>
<polygon fill="#7f7f7f" stroke="#7f7f7f" points="2283.01,-114.601 2274.65,-108.092 2277.12,-118.393 2283.01,-114.601"/>
</g>
<!-- SynchronizedBuffer -->
<g id="node38" class="node"><title>SynchronizedBuffer</title>
<path fill="#6dc6e6" stroke="#6dc6e6" d="M2453.5,-108C2453.5,-108 2349.5,-108 2349.5,-108 2343.5,-108 2337.5,-102 2337.5,-96 2337.5,-96 2337.5,-84 2337.5,-84 2337.5,-78 2343.5,-72 2349.5,-72 2349.5,-72 2453.5,-72 2453.5,-72 2459.5,-72 2465.5,-78 2465.5,-84 2465.5,-84 2465.5,-96 2465.5,-96 2465.5,-102 2459.5,-108 2453.5,-108"/>
<text text-anchor="middle" x="2401.5" y="-86.3" font-family="Times New Roman,serif" font-size="14.00" fill="#ffffff">SynchronizedBuffer</text>
</g>
<!-- Buffer&#45;&gt;SynchronizedBuffer -->
<g id="edge31" class="edge"><title>Buffer&#45;&gt;SynchronizedBuffer</title>
<path fill="none" stroke="#7f7f7f" d="M2267.77,-215.814C2279.74,-205.557 2295.13,-192.195 2308.5,-180 2331.91,-158.654 2357.91,-133.66 2376.45,-115.603"/>
<polygon fill="#7f7f7f" stroke="#7f7f7f" points="2379.2,-117.809 2383.91,-108.319 2374.31,-112.8 2379.2,-117.809"/>
</g>
<!-- LinearSeq&#45;&gt;MutableList -->
<g id="edge35" class="edge"><title>LinearSeq&#45;&gt;MutableList</title>
<path fill="none" stroke="#7f7f7f" stroke-width="4" d="M2527.39,-215.697C2521.63,-207.474 2514.64,-197.483 2508.29,-188.421"/>
<polygon fill="#7f7f7f" stroke="#7f7f7f" stroke-width="4" points="2511.08,-186.29 2502.47,-180.104 2505.34,-190.304 2511.08,-186.29"/>
</g>
<!-- LinearSeq&#45;&gt;LinkedList -->
<g id="edge36" class="edge"><title>LinearSeq&#45;&gt;LinkedList</title>
<path fill="none" stroke="#7f7f7f" d="M2551.61,-215.697C2557.37,-207.474 2564.36,-197.483 2570.71,-188.421"/>
<polygon fill="#7f7f7f" stroke="#7f7f7f" points="2573.66,-190.304 2576.53,-180.104 2567.92,-186.29 2573.66,-190.304"/>
</g>
<!-- LinearSeq&#45;&gt;DoubleLinkedList -->
<g id="edge37" class="edge"><title>LinearSeq&#45;&gt;DoubleLinkedList</title>
<path fill="none" stroke="#7f7f7f" d="M2576.08,-217.291C2598.97,-207.461 2628.73,-194.68 2653.63,-183.988"/>
<polygon fill="#7f7f7f" stroke="#7f7f7f" points="2655.1,-187.165 2662.91,-180.003 2652.34,-180.733 2655.1,-187.165"/>
</g>
<!-- Queue&#45;&gt;SynchronizedQueue -->
<g id="edge39" class="edge"><title>Queue&#45;&gt;SynchronizedQueue</title>
<path fill="none" stroke="#7f7f7f" d="M2510.5,-71.6966C2510.5,-63.9827 2510.5,-54.7125 2510.5,-46.1124"/>
<polygon fill="#7f7f7f" stroke="#7f7f7f" points="2514,-46.1043 2510.5,-36.1043 2507,-46.1044 2514,-46.1043"/>
</g>
</g>
</svg>
