<?xml version="1.0" encoding="UTF-8" standalone="no"?>
<!DOCTYPE svg PUBLIC "-//W3C//DTD SVG 1.1//EN"
 "http://www.w3.org/Graphics/SVG/1.1/DTD/svg11.dtd">
<!-- Generated by graphviz version 2.38.0 (20140413.2041)
 -->
<!-- Title: Collections Pages: 1 -->
<svg width="361pt" height="260pt"
 viewBox="0.00 0.00 360.50 260.00" xmlns="http://www.w3.org/2000/svg" xmlns:xlink="http://www.w3.org/1999/xlink">
<g id="graph0" class="graph" transform="scale(1 1) rotate(0) translate(4 256)">
<title>Collections</title>
<polygon fill="white" stroke="none" points="-4,4 -4,-256 356.5,-256 356.5,4 -4,4"/>
<!-- Iterable -->
<g id="node1" class="node"><title>Iterable</title>
<path fill="#6dc6e6" stroke="#6dc6e6" d="M240,-252C240,-252 206,-252 206,-252 200,-252 194,-246 194,-240 194,-240 194,-228 194,-228 194,-222 200,-216 206,-216 206,-216 240,-216 240,-216 246,-216 252,-222 252,-228 252,-228 252,-240 252,-240 252,-246 246,-252 240,-252"/>
<text text-anchor="middle" x="223" y="-230.3" font-family="Times,serif" font-size="14.00" fill="#ffffff">Iterable</text>
</g>
<!-- Seq -->
<g id="node2" class="node"><title>Seq</title>
<path fill="#6dc6e6" stroke="#6dc6e6" d="M149,-180C149,-180 119,-180 119,-180 113,-180 107,-174 107,-168 107,-168 107,-156 107,-156 107,-150 113,-144 119,-144 119,-144 149,-144 149,-144 155,-144 161,-150 161,-156 161,-156 161,-168 161,-168 161,-174 155,-180 149,-180"/>
<text text-anchor="middle" x="134" y="-158.3" font-family="Times,serif" font-size="14.00" fill="#ffffff">Seq</text>
</g>
<!-- Iterable&#45;&gt;Seq -->
<g id="edge1" class="edge"><title>Iterable&#45;&gt;Seq</title>
<path fill="none" stroke="#7f7f7f" d="M201,-215.697C189.791,-206.881 175.998,-196.032 163.846,-186.474"/>
<polygon fill="#7f7f7f" stroke="#7f7f7f" points="165.771,-183.535 155.747,-180.104 161.443,-189.038 165.771,-183.535"/>
</g>
<!-- Set -->
<g id="node3" class="node"><title>Set</title>
<path fill="#6dc6e6" stroke="#6dc6e6" d="M238,-180C238,-180 208,-180 208,-180 202,-180 196,-174 196,-168 196,-168 196,-156 196,-156 196,-150 202,-144 208,-144 208,-144 238,-144 238,-144 244,-144 250,-150 250,-156 250,-156 250,-168 250,-168 250,-174 244,-180 238,-180"/>
<text text-anchor="middle" x="223" y="-158.3" font-family="Times,serif" font-size="14.00" fill="#ffffff">Set</text>
</g>
<!-- Iterable&#45;&gt;Set -->
<g id="edge2" class="edge"><title>Iterable&#45;&gt;Set</title>
<path fill="none" stroke="#7f7f7f" d="M223,-215.697C223,-207.983 223,-198.712 223,-190.112"/>
<polygon fill="#7f7f7f" stroke="#7f7f7f" points="226.5,-190.104 223,-180.104 219.5,-190.104 226.5,-190.104"/>
</g>
<!-- Map -->
<g id="node4" class="node"><title>Map</title>
<path fill="#6dc6e6" stroke="#6dc6e6" d="M319,-180C319,-180 289,-180 289,-180 283,-180 277,-174 277,-168 277,-168 277,-156 277,-156 277,-150 283,-144 289,-144 289,-144 319,-144 319,-144 325,-144 331,-150 331,-156 331,-156 331,-168 331,-168 331,-174 325,-180 319,-180"/>
<text text-anchor="middle" x="304" y="-158.3" font-family="Times,serif" font-size="14.00" fill="#ffffff">Map</text>
</g>
<!-- Iterable&#45;&gt;Map -->
<g id="edge3" class="edge"><title>Iterable&#45;&gt;Map</title>
<path fill="none" stroke="#7f7f7f" d="M243.022,-215.697C253.126,-206.965 265.536,-196.24 276.518,-186.75"/>
<polygon fill="#7f7f7f" stroke="#7f7f7f" points="278.93,-189.291 284.208,-180.104 274.353,-183.995 278.93,-189.291"/>
</g>
<!-- IndexedSeq -->
<g id="node5" class="node"><title>IndexedSeq</title>
<path fill="#6dc6e6" stroke="#6dc6e6" d="M68,-108C68,-108 12,-108 12,-108 6,-108 0,-102 0,-96 0,-96 0,-84 0,-84 0,-78 6,-72 12,-72 12,-72 68,-72 68,-72 74,-72 80,-78 80,-84 80,-84 80,-96 80,-96 80,-102 74,-108 68,-108"/>
<text text-anchor="middle" x="40" y="-86.3" font-family="Times,serif" font-size="14.00" fill="#ffffff">IndexedSeq</text>
</g>
<!-- Seq&#45;&gt;IndexedSeq -->
<g id="edge4" class="edge"><title>Seq&#45;&gt;IndexedSeq</title>
<path fill="none" stroke="#7f7f7f" d="M110.764,-143.697C98.8117,-134.796 84.0769,-123.823 71.1528,-114.199"/>
<polygon fill="#7f7f7f" stroke="#7f7f7f" points="73.0796,-111.27 62.9687,-108.104 68.8987,-116.884 73.0796,-111.27"/>
</g>
<!-- LinearSeq -->
<g id="node6" class="node"><title>LinearSeq</title>
<path fill="#6dc6e6" stroke="#6dc6e6" d="M158,-108C158,-108 110,-108 110,-108 104,-108 98,-102 98,-96 98,-96 98,-84 98,-84 98,-78 104,-72 110,-72 110,-72 158,-72 158,-72 164,-72 170,-78 170,-84 170,-84 170,-96 170,-96 170,-102 164,-108 158,-108"/>
<text text-anchor="middle" x="134" y="-86.3" font-family="Times,serif" font-size="14.00" fill="#ffffff">LinearSeq</text>
</g>
<!-- Seq&#45;&gt;LinearSeq -->
<g id="edge5" class="edge"><title>Seq&#45;&gt;LinearSeq</title>
<path fill="none" stroke="#7f7f7f" d="M134,-143.697C134,-135.983 134,-126.712 134,-118.112"/>
<polygon fill="#7f7f7f" stroke="#7f7f7f" points="137.5,-118.104 134,-108.104 130.5,-118.104 137.5,-118.104"/>
</g>
<!-- SortedSet -->
<g id="node7" class="node"><title>SortedSet</title>
<path fill="#6dc6e6" stroke="#6dc6e6" d="M245.5,-108C245.5,-108 200.5,-108 200.5,-108 194.5,-108 188.5,-102 188.5,-96 188.5,-96 188.5,-84 188.5,-84 188.5,-78 194.5,-72 200.5,-72 200.5,-72 245.5,-72 245.5,-72 251.5,-72 257.5,-78 257.5,-84 257.5,-84 257.5,-96 257.5,-96 257.5,-102 251.5,-108 245.5,-108"/>
<text text-anchor="middle" x="223" y="-86.3" font-family="Times,serif" font-size="14.00" fill="#ffffff">SortedSet</text>
</g>
<!-- Set&#45;&gt;SortedSet -->
<g id="edge6" class="edge"><title>Set&#45;&gt;SortedSet</title>
<path fill="none" stroke="#7f7f7f" d="M223,-143.697C223,-135.983 223,-126.712 223,-118.112"/>
<polygon fill="#7f7f7f" stroke="#7f7f7f" points="226.5,-118.104 223,-108.104 219.5,-118.104 226.5,-118.104"/>
</g>
<!-- SortedMap -->
<g id="node9" class="node"><title>SortedMap</title>
<path fill="#6dc6e6" stroke="#6dc6e6" d="M340.5,-108C340.5,-108 287.5,-108 287.5,-108 281.5,-108 275.5,-102 275.5,-96 275.5,-96 275.5,-84 275.5,-84 275.5,-78 281.5,-72 287.5,-72 287.5,-72 340.5,-72 340.5,-72 346.5,-72 352.5,-78 352.5,-84 352.5,-84 352.5,-96 352.5,-96 352.5,-102 346.5,-108 340.5,-108"/>
<text text-anchor="middle" x="314" y="-86.3" font-family="Times,serif" font-size="14.00" fill="#ffffff">SortedMap</text>
</g>
<!-- Map&#45;&gt;SortedMap -->
<g id="edge8" class="edge"><title>Map&#45;&gt;SortedMap</title>
<path fill="none" stroke="#7f7f7f" d="M306.472,-143.697C307.574,-135.983 308.898,-126.712 310.127,-118.112"/>
<polygon fill="#7f7f7f" stroke="#7f7f7f" points="313.607,-118.499 311.557,-108.104 306.677,-117.509 313.607,-118.499"/>
</g>
<!-- BitSet -->
<g id="node8" class="node"><title>BitSet</title>
<path fill="#6dc6e6" stroke="#6dc6e6" d="M238,-36C238,-36 208,-36 208,-36 202,-36 196,-30 196,-24 196,-24 196,-12 196,-12 196,-6 202,-0 208,-0 208,-0 238,-0 238,-0 244,-0 250,-6 250,-12 250,-12 250,-24 250,-24 250,-30 244,-36 238,-36"/>
<text text-anchor="middle" x="223" y="-14.3" font-family="Times,serif" font-size="14.00" fill="#ffffff">BitSet</text>
</g>
<!-- SortedSet&#45;&gt;BitSet -->
<g id="edge7" class="edge"><title>SortedSet&#45;&gt;BitSet</title>
<path fill="none" stroke="#7f7f7f" d="M223,-71.6966C223,-63.9827 223,-54.7125 223,-46.1124"/>
<polygon fill="#7f7f7f" stroke="#7f7f7f" points="226.5,-46.1043 223,-36.1043 219.5,-46.1044 226.5,-46.1043"/>
</g>
</g>
</svg>
