<?xml version="1.0" encoding="UTF-8" standalone="no"?>
<!DOCTYPE svg PUBLIC "-//W3C//DTD SVG 1.1//EN"
 "http://www.w3.org/Graphics/SVG/1.1/DTD/svg11.dtd">
<!-- Generated by graphviz version 2.38.0 (20140413.2041)
 -->
<!-- Title: MutableCollections Pages: 1 -->
<svg width="1309pt" height="620pt"
 viewBox="0.00 0.00 1308.50 620.00" xmlns="http://www.w3.org/2000/svg" xmlns:xlink="http://www.w3.org/1999/xlink">
<g id="graph0" class="graph" transform="scale(1 1) rotate(0) translate(4 616)">
<title>MutableCollections</title>
<polygon fill="white" stroke="none" points="-4,4 -4,-616 1304.5,-616 1304.5,4 -4,4"/>
<!-- HashSet -->
<g id="node1" class="node"><title>HashSet</title>
<path fill="#4a5659" stroke="#4a5659" d="M834,-396C834,-396 795,-396 795,-396 789,-396 783,-390 783,-384 783,-384 783,-372 783,-372 783,-366 789,-360 795,-360 795,-360 834,-360 834,-360 840,-360 846,-366 846,-372 846,-372 846,-384 846,-384 846,-390 840,-396 834,-396"/>
<text text-anchor="middle" x="814.5" y="-374.3" font-family="Times New Roman,serif" font-size="14.00" fill="#ffffff">HashSet</text>
</g>
<!-- ImmutableSetAdaptor -->
<g id="node2" class="node"><title>ImmutableSetAdaptor</title>
<path fill="#4a5659" stroke="#4a5659" d="M992.5,-396C992.5,-396 876.5,-396 876.5,-396 870.5,-396 864.5,-390 864.5,-384 864.5,-384 864.5,-372 864.5,-372 864.5,-366 870.5,-360 876.5,-360 876.5,-360 992.5,-360 992.5,-360 998.5,-360 1004.5,-366 1004.5,-372 1004.5,-372 1004.5,-384 1004.5,-384 1004.5,-390 998.5,-396 992.5,-396"/>
<text text-anchor="middle" x="934.5" y="-374.3" font-family="Times New Roman,serif" font-size="14.00" fill="#ffffff">ImmutableSetAdaptor</text>
</g>
<!-- LinkedHashSet -->
<g id="node3" class="node"><title>LinkedHashSet</title>
<path fill="#4a5659" stroke="#4a5659" d="M1031,-324C1031,-324 954,-324 954,-324 948,-324 942,-318 942,-312 942,-312 942,-300 942,-300 942,-294 948,-288 954,-288 954,-288 1031,-288 1031,-288 1037,-288 1043,-294 1043,-300 1043,-300 1043,-312 1043,-312 1043,-318 1037,-324 1031,-324"/>
<text text-anchor="middle" x="992.5" y="-302.3" font-family="Times New Roman,serif" font-size="14.00" fill="#ffffff">LinkedHashSet</text>
</g>
<!-- HashMap -->
<g id="node4" class="node"><title>HashMap</title>
<path fill="#4a5659" stroke="#4a5659" d="M59,-396C59,-396 12,-396 12,-396 6,-396 0,-390 0,-384 0,-384 0,-372 0,-372 0,-366 6,-360 12,-360 12,-360 59,-360 59,-360 65,-360 71,-366 71,-372 71,-372 71,-384 71,-384 71,-390 65,-396 59,-396"/>
<text text-anchor="middle" x="35.5" y="-374.3" font-family="Times New Roman,serif" font-size="14.00" fill="#ffffff">HashMap</text>
</g>
<!-- OpenHashMap -->
<g id="node5" class="node"><title>OpenHashMap</title>
<path fill="#4a5659" stroke="#4a5659" d="M178,-396C178,-396 101,-396 101,-396 95,-396 89,-390 89,-384 89,-384 89,-372 89,-372 89,-366 95,-360 101,-360 101,-360 178,-360 178,-360 184,-360 190,-366 190,-372 190,-372 190,-384 190,-384 190,-390 184,-396 178,-396"/>
<text text-anchor="middle" x="139.5" y="-374.3" font-family="Times New Roman,serif" font-size="14.00" fill="#ffffff">OpenHashMap</text>
</g>
<!-- WeakHashMap -->
<g id="node6" class="node"><title>WeakHashMap</title>
<path fill="#4a5659" stroke="#4a5659" d="M140,-324C140,-324 61,-324 61,-324 55,-324 49,-318 49,-312 49,-312 49,-300 49,-300 49,-294 55,-288 61,-288 61,-288 140,-288 140,-288 146,-288 152,-294 152,-300 152,-300 152,-312 152,-312 152,-318 146,-324 140,-324"/>
<text text-anchor="middle" x="100.5" y="-302.3" font-family="Times New Roman,serif" font-size="14.00" fill="#ffffff">WeakHashMap</text>
</g>
<!-- LinkedHashMap -->
<g id="node7" class="node"><title>LinkedHashMap</title>
<path fill="#4a5659" stroke="#4a5659" d="M267,-324C267,-324 182,-324 182,-324 176,-324 170,-318 170,-312 170,-312 170,-300 170,-300 170,-294 176,-288 182,-288 182,-288 267,-288 267,-288 273,-288 279,-294 279,-300 279,-300 279,-312 279,-312 279,-318 273,-324 267,-324"/>
<text text-anchor="middle" x="224.5" y="-302.3" font-family="Times New Roman,serif" font-size="14.00" fill="#ffffff">LinkedHashMap</text>
</g>
<!-- ListMap -->
<g id="node8" class="node"><title>ListMap</title>
<path fill="#4a5659" stroke="#4a5659" d="M348,-324C348,-324 309,-324 309,-324 303,-324 297,-318 297,-312 297,-312 297,-300 297,-300 297,-294 303,-288 309,-288 309,-288 348,-288 348,-288 354,-288 360,-294 360,-300 360,-300 360,-312 360,-312 360,-318 354,-324 348,-324"/>
<text text-anchor="middle" x="328.5" y="-302.3" font-family="Times New Roman,serif" font-size="14.00" fill="#ffffff">ListMap</text>
</g>
<!-- TreeMap -->
<g id="node9" class="node"><title>TreeMap</title>
<path fill="#4a5659" stroke="#4a5659" d="M411.5,-396C411.5,-396 367.5,-396 367.5,-396 361.5,-396 355.5,-390 355.5,-384 355.5,-384 355.5,-372 355.5,-372 355.5,-366 361.5,-360 367.5,-360 367.5,-360 411.5,-360 411.5,-360 417.5,-360 423.5,-366 423.5,-372 423.5,-372 423.5,-384 423.5,-384 423.5,-390 417.5,-396 411.5,-396"/>
<text text-anchor="middle" x="389.5" y="-374.3" font-family="Times New Roman,serif" font-size="14.00" fill="#ffffff">TreeMap</text>
</g>
<!-- ImmutableMapAdaptor -->
<g id="node10" class="node"><title>ImmutableMapAdaptor</title>
<path fill="#4a5659" stroke="#4a5659" d="M513,-324C513,-324 390,-324 390,-324 384,-324 378,-318 378,-312 378,-312 378,-300 378,-300 378,-294 384,-288 390,-288 390,-288 513,-288 513,-288 519,-288 525,-294 525,-300 525,-300 525,-312 525,-312 525,-318 519,-324 513,-324"/>
<text text-anchor="middle" x="451.5" y="-302.3" font-family="Times New Roman,serif" font-size="14.00" fill="#ffffff">ImmutableMapAdaptor</text>
</g>
<!-- ArraySeq -->
<g id="node11" class="node"><title>ArraySeq</title>
<path fill="#4a5659" stroke="#4a5659" d="M874.5,-180C874.5,-180 828.5,-180 828.5,-180 822.5,-180 816.5,-174 816.5,-168 816.5,-168 816.5,-156 816.5,-156 816.5,-150 822.5,-144 828.5,-144 828.5,-144 874.5,-144 874.5,-144 880.5,-144 886.5,-150 886.5,-156 886.5,-156 886.5,-168 886.5,-168 886.5,-174 880.5,-180 874.5,-180"/>
<text text-anchor="middle" x="851.5" y="-158.3" font-family="Times New Roman,serif" font-size="14.00" fill="#ffffff">ArraySeq</text>
</g>
<!-- ArrayBuffer -->
<g id="node12" class="node"><title>ArrayBuffer</title>
<path fill="#4a5659" stroke="#4a5659" d="M1014,-180C1014,-180 955,-180 955,-180 949,-180 943,-174 943,-168 943,-168 943,-156 943,-156 943,-150 949,-144 955,-144 955,-144 1014,-144 1014,-144 1020,-144 1026,-150 1026,-156 1026,-156 1026,-168 1026,-168 1026,-174 1020,-180 1014,-180"/>
<text text-anchor="middle" x="984.5" y="-158.3" font-family="Times New Roman,serif" font-size="14.00" fill="#ffffff">ArrayBuffer</text>
</g>
<!-- StringBuilder -->
<g id="node13" class="node"><title>StringBuilder</title>
<path fill="#4a5659" stroke="#4a5659" d="M947,-108C947,-108 882,-108 882,-108 876,-108 870,-102 870,-96 870,-96 870,-84 870,-84 870,-78 876,-72 882,-72 882,-72 947,-72 947,-72 953,-72 959,-78 959,-84 959,-84 959,-96 959,-96 959,-102 953,-108 947,-108"/>
<text text-anchor="middle" x="914.5" y="-86.3" font-family="Times New Roman,serif" font-size="14.00" fill="#ffffff">StringBuilder</text>
</g>
<!-- ListBuffer -->
<g id="node14" class="node"><title>ListBuffer</title>
<path fill="#4a5659" stroke="#4a5659" d="M1058,-108C1058,-108 1009,-108 1009,-108 1003,-108 997,-102 997,-96 997,-96 997,-84 997,-84 997,-78 1003,-72 1009,-72 1009,-72 1058,-72 1058,-72 1064,-72 1070,-78 1070,-84 1070,-84 1070,-96 1070,-96 1070,-102 1064,-108 1058,-108"/>
<text text-anchor="middle" x="1033.5" y="-86.3" font-family="Times New Roman,serif" font-size="14.00" fill="#ffffff">ListBuffer</text>
</g>
<!-- Stack -->
<g id="node15" class="node"><title>Stack</title>
<path fill="#4a5659" stroke="#4a5659" d="M569.5,-252C569.5,-252 539.5,-252 539.5,-252 533.5,-252 527.5,-246 527.5,-240 527.5,-240 527.5,-228 527.5,-228 527.5,-222 533.5,-216 539.5,-216 539.5,-216 569.5,-216 569.5,-216 575.5,-216 581.5,-222 581.5,-228 581.5,-228 581.5,-240 581.5,-240 581.5,-246 575.5,-252 569.5,-252"/>
<text text-anchor="middle" x="554.5" y="-230.3" font-family="Times New Roman,serif" font-size="14.00" fill="#ffffff">Stack</text>
</g>
<!-- SynchronizedStack -->
<g id="node17" class="node"><title>SynchronizedStack</title>
<path fill="#4a5659" stroke="#4a5659" d="M553,-180C553,-180 452,-180 452,-180 446,-180 440,-174 440,-168 440,-168 440,-156 440,-156 440,-150 446,-144 452,-144 452,-144 553,-144 553,-144 559,-144 565,-150 565,-156 565,-156 565,-168 565,-168 565,-174 559,-180 553,-180"/>
<text text-anchor="middle" x="502.5" y="-158.3" font-family="Times New Roman,serif" font-size="14.00" fill="#ffffff">SynchronizedStack</text>
</g>
<!-- Stack&#45;&gt;SynchronizedStack -->
<g id="edge38" class="edge"><title>Stack&#45;&gt;SynchronizedStack</title>
<path fill="none" stroke="#7f7f7f" d="M541.646,-215.697C535.475,-207.389 527.963,-197.277 521.176,-188.141"/>
<polygon fill="#7f7f7f" stroke="#7f7f7f" points="523.979,-186.045 515.206,-180.104 518.36,-190.219 523.979,-186.045"/>
</g>
<!-- ArrayStack -->
<g id="node16" class="node"><title>ArrayStack</title>
<path fill="#4a5659" stroke="#4a5659" d="M687.5,-252C687.5,-252 631.5,-252 631.5,-252 625.5,-252 619.5,-246 619.5,-240 619.5,-240 619.5,-228 619.5,-228 619.5,-222 625.5,-216 631.5,-216 631.5,-216 687.5,-216 687.5,-216 693.5,-216 699.5,-222 699.5,-228 699.5,-228 699.5,-240 699.5,-240 699.5,-246 693.5,-252 687.5,-252"/>
<text text-anchor="middle" x="659.5" y="-230.3" font-family="Times New Roman,serif" font-size="14.00" fill="#ffffff">ArrayStack</text>
</g>
<!-- PriorityQueue -->
<g id="node18" class="node"><title>PriorityQueue</title>
<path fill="#4a5659" stroke="#4a5659" d="M883.5,-540C883.5,-540 813.5,-540 813.5,-540 807.5,-540 801.5,-534 801.5,-528 801.5,-528 801.5,-516 801.5,-516 801.5,-510 807.5,-504 813.5,-504 813.5,-504 883.5,-504 883.5,-504 889.5,-504 895.5,-510 895.5,-516 895.5,-516 895.5,-528 895.5,-528 895.5,-534 889.5,-540 883.5,-540"/>
<text text-anchor="middle" x="848.5" y="-518.3" font-family="Times New Roman,serif" font-size="14.00" fill="#ffffff">PriorityQueue</text>
</g>
<!-- SynchronizedPriorityQueue -->
<g id="node19" class="node"><title>SynchronizedPriorityQueue</title>
<path fill="#4a5659" stroke="#4a5659" d="M1071.5,-540C1071.5,-540 925.5,-540 925.5,-540 919.5,-540 913.5,-534 913.5,-528 913.5,-528 913.5,-516 913.5,-516 913.5,-510 919.5,-504 925.5,-504 925.5,-504 1071.5,-504 1071.5,-504 1077.5,-504 1083.5,-510 1083.5,-516 1083.5,-516 1083.5,-528 1083.5,-528 1083.5,-534 1077.5,-540 1071.5,-540"/>
<text text-anchor="middle" x="998.5" y="-518.3" font-family="Times New Roman,serif" font-size="14.00" fill="#ffffff">SynchronizedPriorityQueue</text>
</g>
<!-- PriorityQueue&#45;&gt;SynchronizedPriorityQueue -->
<g id="edge39" class="edge"><title>PriorityQueue&#45;&gt;SynchronizedPriorityQueue</title>
<path fill="none" stroke="#7f7f7f" d="M895.668,-522C898.153,-522 900.639,-522 903.124,-522"/>
<polygon fill="#7f7f7f" stroke="#7f7f7f" points="903.342,-525.5 913.342,-522 903.342,-518.5 903.342,-525.5"/>
</g>
<!-- SynchronizedQueue -->
<g id="node20" class="node"><title>SynchronizedQueue</title>
<path fill="#4a5659" stroke="#4a5659" d="M677,-36C677,-36 572,-36 572,-36 566,-36 560,-30 560,-24 560,-24 560,-12 560,-12 560,-6 566,-0 572,-0 572,-0 677,-0 677,-0 683,-0 689,-6 689,-12 689,-12 689,-24 689,-24 689,-30 683,-36 677,-36"/>
<text text-anchor="middle" x="624.5" y="-14.3" font-family="Times New Roman,serif" font-size="14.00" fill="#ffffff">SynchronizedQueue</text>
</g>
<!-- MutableList -->
<g id="node21" class="node"><title>MutableList</title>
<path fill="#4a5659" stroke="#4a5659" d="M654,-180C654,-180 595,-180 595,-180 589,-180 583,-174 583,-168 583,-168 583,-156 583,-156 583,-150 589,-144 595,-144 595,-144 654,-144 654,-144 660,-144 666,-150 666,-156 666,-156 666,-168 666,-168 666,-174 660,-180 654,-180"/>
<text text-anchor="middle" x="624.5" y="-158.3" font-family="Times New Roman,serif" font-size="14.00" fill="#ffffff">MutableList</text>
</g>
<!-- Queue -->
<g id="node41" class="node"><title>Queue</title>
<path fill="#6dc6e6" stroke="#6dc6e6" d="M639.5,-108C639.5,-108 609.5,-108 609.5,-108 603.5,-108 597.5,-102 597.5,-96 597.5,-96 597.5,-84 597.5,-84 597.5,-78 603.5,-72 609.5,-72 609.5,-72 639.5,-72 639.5,-72 645.5,-72 651.5,-78 651.5,-84 651.5,-84 651.5,-96 651.5,-96 651.5,-102 645.5,-108 639.5,-108"/>
<text text-anchor="middle" x="624.5" y="-86.3" font-family="Times New Roman,serif" font-size="14.00" fill="#ffffff">Queue</text>
</g>
<!-- MutableList&#45;&gt;Queue -->
<g id="edge40" class="edge"><title>MutableList&#45;&gt;Queue</title>
<path fill="none" stroke="#7f7f7f" d="M624.5,-143.697C624.5,-135.983 624.5,-126.712 624.5,-118.112"/>
<polygon fill="#7f7f7f" stroke="#7f7f7f" points="628,-118.104 624.5,-108.104 621,-118.104 628,-118.104"/>
</g>
<!-- LinkedList -->
<g id="node22" class="node"><title>LinkedList</title>
<path fill="#4a5659" stroke="#4a5659" d="M748.5,-180C748.5,-180 696.5,-180 696.5,-180 690.5,-180 684.5,-174 684.5,-168 684.5,-168 684.5,-156 684.5,-156 684.5,-150 690.5,-144 696.5,-144 696.5,-144 748.5,-144 748.5,-144 754.5,-144 760.5,-150 760.5,-156 760.5,-156 760.5,-168 760.5,-168 760.5,-174 754.5,-180 748.5,-180"/>
<text text-anchor="middle" x="722.5" y="-158.3" font-family="Times New Roman,serif" font-size="14.00" fill="#ffffff">LinkedList</text>
</g>
<!-- DoubleLinkedList -->
<g id="node23" class="node"><title>DoubleLinkedList</title>
<path fill="#4a5659" stroke="#4a5659" d="M834.5,-108C834.5,-108 742.5,-108 742.5,-108 736.5,-108 730.5,-102 730.5,-96 730.5,-96 730.5,-84 730.5,-84 730.5,-78 736.5,-72 742.5,-72 742.5,-72 834.5,-72 834.5,-72 840.5,-72 846.5,-78 846.5,-84 846.5,-84 846.5,-96 846.5,-96 846.5,-102 840.5,-108 834.5,-108"/>
<text text-anchor="middle" x="788.5" y="-86.3" font-family="Times New Roman,serif" font-size="14.00" fill="#ffffff">DoubleLinkedList</text>
</g>
<!-- Traversable -->
<g id="node24" class="node"><title>Traversable</title>
<path fill="#6dc6e6" stroke="#6dc6e6" d="M783.5,-612C783.5,-612 725.5,-612 725.5,-612 719.5,-612 713.5,-606 713.5,-600 713.5,-600 713.5,-588 713.5,-588 713.5,-582 719.5,-576 725.5,-576 725.5,-576 783.5,-576 783.5,-576 789.5,-576 795.5,-582 795.5,-588 795.5,-588 795.5,-600 795.5,-600 795.5,-606 789.5,-612 783.5,-612"/>
<text text-anchor="middle" x="754.5" y="-590.3" font-family="Times New Roman,serif" font-size="14.00" fill="#ffffff">Traversable</text>
</g>
<!-- Iterable -->
<g id="node25" class="node"><title>Iterable</title>
<path fill="#6dc6e6" stroke="#6dc6e6" d="M771.5,-540C771.5,-540 737.5,-540 737.5,-540 731.5,-540 725.5,-534 725.5,-528 725.5,-528 725.5,-516 725.5,-516 725.5,-510 731.5,-504 737.5,-504 737.5,-504 771.5,-504 771.5,-504 777.5,-504 783.5,-510 783.5,-516 783.5,-516 783.5,-528 783.5,-528 783.5,-534 777.5,-540 771.5,-540"/>
<text text-anchor="middle" x="754.5" y="-518.3" font-family="Times New Roman,serif" font-size="14.00" fill="#ffffff">Iterable</text>
</g>
<!-- Traversable&#45;&gt;Iterable -->
<g id="edge1" class="edge"><title>Traversable&#45;&gt;Iterable</title>
<path fill="none" stroke="#7f7f7f" stroke-width="4" d="M754.5,-575.697C754.5,-567.983 754.5,-558.712 754.5,-550.112"/>
<polygon fill="#7f7f7f" stroke="#7f7f7f" stroke-width="4" points="758,-550.104 754.5,-540.104 751,-550.104 758,-550.104"/>
</g>
<!-- Iterable&#45;&gt;PriorityQueue -->
<g id="edge5" class="edge"><title>Iterable&#45;&gt;PriorityQueue</title>
<path fill="none" stroke="#7f7f7f" d="M783.508,-522C786.007,-522 788.506,-522 791.005,-522"/>
<polygon fill="#7f7f7f" stroke="#7f7f7f" points="791.279,-525.5 801.279,-522 791.279,-518.5 791.279,-525.5"/>
</g>
<!-- Map -->
<g id="node26" class="node"><title>Map</title>
<path fill="#6dc6e6" stroke="#6dc6e6" d="M404.5,-468C404.5,-468 374.5,-468 374.5,-468 368.5,-468 362.5,-462 362.5,-456 362.5,-456 362.5,-444 362.5,-444 362.5,-438 368.5,-432 374.5,-432 374.5,-432 404.5,-432 404.5,-432 410.5,-432 416.5,-438 416.5,-444 416.5,-444 416.5,-456 416.5,-456 416.5,-462 410.5,-468 404.5,-468"/>
<text text-anchor="middle" x="389.5" y="-446.3" font-family="Times New Roman,serif" font-size="14.00" fill="#ffffff">Map</text>
</g>
<!-- Iterable&#45;&gt;Map -->
<g id="edge2" class="edge"><title>Iterable&#45;&gt;Map</title>
<path fill="none" stroke="#7f7f7f" d="M725.248,-515.39C659.463,-502.774 499.924,-472.177 426.997,-458.191"/>
<polygon fill="#7f7f7f" stroke="#7f7f7f" points="427.368,-454.699 416.888,-456.252 426.049,-461.573 427.368,-454.699"/>
</g>
<!-- Seq -->
<g id="node27" class="node"><title>Seq</title>
<path fill="#6dc6e6" stroke="#6dc6e6" d="M769.5,-324C769.5,-324 739.5,-324 739.5,-324 733.5,-324 727.5,-318 727.5,-312 727.5,-312 727.5,-300 727.5,-300 727.5,-294 733.5,-288 739.5,-288 739.5,-288 769.5,-288 769.5,-288 775.5,-288 781.5,-294 781.5,-300 781.5,-300 781.5,-312 781.5,-312 781.5,-318 775.5,-324 769.5,-324"/>
<text text-anchor="middle" x="754.5" y="-302.3" font-family="Times New Roman,serif" font-size="14.00" fill="#ffffff">Seq</text>
</g>
<!-- Iterable&#45;&gt;Seq -->
<g id="edge3" class="edge"><title>Iterable&#45;&gt;Seq</title>
<path fill="none" stroke="#7f7f7f" stroke-width="4" d="M754.5,-503.849C754.5,-466.832 754.5,-379.181 754.5,-334.386"/>
<polygon fill="#7f7f7f" stroke="#7f7f7f" stroke-width="4" points="758,-334.232 754.5,-324.232 751,-334.232 758,-334.232"/>
</g>
<!-- Set -->
<g id="node28" class="node"><title>Set</title>
<path fill="#6dc6e6" stroke="#6dc6e6" d="M1047.5,-468C1047.5,-468 1017.5,-468 1017.5,-468 1011.5,-468 1005.5,-462 1005.5,-456 1005.5,-456 1005.5,-444 1005.5,-444 1005.5,-438 1011.5,-432 1017.5,-432 1017.5,-432 1047.5,-432 1047.5,-432 1053.5,-432 1059.5,-438 1059.5,-444 1059.5,-444 1059.5,-456 1059.5,-456 1059.5,-462 1053.5,-468 1047.5,-468"/>
<text text-anchor="middle" x="1032.5" y="-446.3" font-family="Times New Roman,serif" font-size="14.00" fill="#ffffff">Set</text>
</g>
<!-- Iterable&#45;&gt;Set -->
<g id="edge4" class="edge"><title>Iterable&#45;&gt;Set</title>
<path fill="none" stroke="#7f7f7f" d="M783.725,-507.218C786.658,-506.049 789.618,-504.952 792.5,-504 862.711,-480.81 947.836,-464.731 995.515,-456.761"/>
<polygon fill="#7f7f7f" stroke="#7f7f7f" points="996.085,-460.214 1005.38,-455.138 994.949,-453.307 996.085,-460.214"/>
</g>
<!-- Map&#45;&gt;HashMap -->
<g id="edge6" class="edge"><title>Map&#45;&gt;HashMap</title>
<path fill="none" stroke="#7f7f7f" stroke-width="4" d="M362.149,-446.18C309.232,-440.332 189.186,-425.15 81.0759,-396.172"/>
<polygon fill="#7f7f7f" stroke="#7f7f7f" stroke-width="4" points="81.8908,-392.767 71.3221,-393.511 80.048,-399.52 81.8908,-392.767"/>
</g>
<!-- Map&#45;&gt;OpenHashMap -->
<g id="edge8" class="edge"><title>Map&#45;&gt;OpenHashMap</title>
<path fill="none" stroke="#7f7f7f" d="M362.27,-441.376C323.512,-430.523 251.413,-410.336 199.729,-395.864"/>
<polygon fill="#7f7f7f" stroke="#7f7f7f" points="200.578,-392.467 190.004,-393.141 198.69,-399.208 200.578,-392.467"/>
</g>
<!-- Map&#45;&gt;WeakHashMap -->
<g id="edge7" class="edge"><title>Map&#45;&gt;WeakHashMap</title>
<path fill="none" stroke="#7f7f7f" d="M362.312,-435.641C312.295,-411.065 205.28,-358.483 144.695,-328.715"/>
<polygon fill="#7f7f7f" stroke="#7f7f7f" points="145.905,-325.41 135.386,-324.141 142.818,-331.692 145.905,-325.41"/>
</g>
<!-- Map&#45;&gt;LinkedHashMap -->
<g id="edge9" class="edge"><title>Map&#45;&gt;LinkedHashMap</title>
<path fill="none" stroke="#7f7f7f" d="M369.597,-431.871C340.361,-406.711 285.682,-359.654 252.436,-331.042"/>
<polygon fill="#7f7f7f" stroke="#7f7f7f" points="254.336,-328.059 244.473,-324.189 249.77,-333.365 254.336,-328.059"/>
</g>
<!-- Map&#45;&gt;ListMap -->
<g id="edge14" class="edge"><title>Map&#45;&gt;ListMap</title>
<path fill="none" stroke="#7f7f7f" d="M371.99,-431.858C363.05,-422.14 352.766,-409.29 346.5,-396 337.283,-376.452 332.776,-352.317 330.577,-334.114"/>
<polygon fill="#7f7f7f" stroke="#7f7f7f" points="334.057,-333.741 329.531,-324.161 327.096,-334.472 334.057,-333.741"/>
</g>
<!-- Map&#45;&gt;TreeMap -->
<g id="edge13" class="edge"><title>Map&#45;&gt;TreeMap</title>
<path fill="none" stroke="#7f7f7f" d="M389.5,-431.697C389.5,-423.983 389.5,-414.712 389.5,-406.112"/>
<polygon fill="#7f7f7f" stroke="#7f7f7f" points="393,-406.104 389.5,-396.104 386,-406.104 393,-406.104"/>
</g>
<!-- Map&#45;&gt;ImmutableMapAdaptor -->
<g id="edge12" class="edge"><title>Map&#45;&gt;ImmutableMapAdaptor</title>
<path fill="none" stroke="#7f7f7f" d="M406.953,-431.831C415.876,-422.105 426.163,-409.256 432.5,-396 441.843,-376.458 446.628,-352.323 449.057,-334.118"/>
<polygon fill="#7f7f7f" stroke="#7f7f7f" points="452.536,-334.505 450.232,-324.164 445.584,-333.685 452.536,-334.505"/>
</g>
<!-- ObservableMap -->
<g id="node29" class="node"><title>ObservableMap</title>
<path fill="#6dc6e6" stroke="#6dc6e6" d="M637.5,-324C637.5,-324 555.5,-324 555.5,-324 549.5,-324 543.5,-318 543.5,-312 543.5,-312 543.5,-300 543.5,-300 543.5,-294 549.5,-288 555.5,-288 555.5,-288 637.5,-288 637.5,-288 643.5,-288 649.5,-294 649.5,-300 649.5,-300 649.5,-312 649.5,-312 649.5,-318 643.5,-324 637.5,-324"/>
<text text-anchor="middle" x="596.5" y="-302.3" font-family="Times New Roman,serif" font-size="14.00" fill="#ffffff">ObservableMap</text>
</g>
<!-- Map&#45;&gt;ObservableMap -->
<g id="edge10" class="edge"><title>Map&#45;&gt;ObservableMap</title>
<path fill="none" stroke="#7f7f7f" d="M410.958,-431.928C434.429,-413.498 473.393,-383.614 508.5,-360 524.211,-349.432 542.025,-338.515 557.496,-329.355"/>
<polygon fill="#7f7f7f" stroke="#7f7f7f" points="559.453,-332.265 566.301,-324.181 555.906,-326.23 559.453,-332.265"/>
</g>
<!-- SynchronizedMap -->
<g id="node30" class="node"><title>SynchronizedMap</title>
<path fill="#6dc6e6" stroke="#6dc6e6" d="M625,-396C625,-396 530,-396 530,-396 524,-396 518,-390 518,-384 518,-384 518,-372 518,-372 518,-366 524,-360 530,-360 530,-360 625,-360 625,-360 631,-360 637,-366 637,-372 637,-372 637,-384 637,-384 637,-390 631,-396 625,-396"/>
<text text-anchor="middle" x="577.5" y="-374.3" font-family="Times New Roman,serif" font-size="14.00" fill="#ffffff">SynchronizedMap</text>
</g>
<!-- Map&#45;&gt;SynchronizedMap -->
<g id="edge11" class="edge"><title>Map&#45;&gt;SynchronizedMap</title>
<path fill="none" stroke="#7f7f7f" d="M416.837,-438.821C444.297,-428.597 487.396,-412.549 522.044,-399.648"/>
<polygon fill="#7f7f7f" stroke="#7f7f7f" points="523.423,-402.87 531.573,-396.1 520.98,-396.31 523.423,-402.87"/>
</g>
<!-- MultiMap -->
<g id="node31" class="node"><title>MultiMap</title>
<path fill="#6dc6e6" stroke="#6dc6e6" d="M714,-396C714,-396 667,-396 667,-396 661,-396 655,-390 655,-384 655,-384 655,-372 655,-372 655,-366 661,-360 667,-360 667,-360 714,-360 714,-360 720,-360 726,-366 726,-372 726,-372 726,-384 726,-384 726,-390 720,-396 714,-396"/>
<text text-anchor="middle" x="690.5" y="-374.3" font-family="Times New Roman,serif" font-size="14.00" fill="#ffffff">MultiMap</text>
</g>
<!-- Map&#45;&gt;MultiMap -->
<g id="edge15" class="edge"><title>Map&#45;&gt;MultiMap</title>
<path fill="none" stroke="#7f7f7f" d="M416.747,-444.806C462.248,-437.493 556.617,-421.013 645.157,-395.847"/>
<polygon fill="#7f7f7f" stroke="#7f7f7f" points="646.173,-399.197 654.81,-393.062 644.232,-392.472 646.173,-399.197"/>
</g>
<!-- Seq&#45;&gt;Stack -->
<g id="edge26" class="edge"><title>Seq&#45;&gt;Stack</title>
<path fill="none" stroke="#7f7f7f" d="M727.11,-295.414C691.803,-283.056 630.294,-261.528 591.032,-247.786"/>
<polygon fill="#7f7f7f" stroke="#7f7f7f" points="592.154,-244.471 581.559,-244.471 589.841,-251.078 592.154,-244.471"/>
</g>
<!-- Seq&#45;&gt;ArrayStack -->
<g id="edge27" class="edge"><title>Seq&#45;&gt;ArrayStack</title>
<path fill="none" stroke="#7f7f7f" d="M731.017,-287.697C718.937,-278.796 704.046,-267.823 690.984,-258.199"/>
<polygon fill="#7f7f7f" stroke="#7f7f7f" points="692.84,-255.219 682.713,-252.104 688.687,-260.854 692.84,-255.219"/>
</g>
<!-- LinearSeq -->
<g id="node36" class="node"><title>LinearSeq</title>
<path fill="#6dc6e6" stroke="#6dc6e6" d="M779,-252C779,-252 730,-252 730,-252 724,-252 718,-246 718,-240 718,-240 718,-228 718,-228 718,-222 724,-216 730,-216 730,-216 779,-216 779,-216 785,-216 791,-222 791,-228 791,-228 791,-240 791,-240 791,-246 785,-252 779,-252"/>
<text text-anchor="middle" x="754.5" y="-230.3" font-family="Times New Roman,serif" font-size="14.00" fill="#ffffff">LinearSeq</text>
</g>
<!-- Seq&#45;&gt;LinearSeq -->
<g id="edge23" class="edge"><title>Seq&#45;&gt;LinearSeq</title>
<path fill="none" stroke="#7f7f7f" d="M754.5,-287.697C754.5,-279.983 754.5,-270.712 754.5,-262.112"/>
<polygon fill="#7f7f7f" stroke="#7f7f7f" points="758,-262.104 754.5,-252.104 751,-262.104 758,-262.104"/>
</g>
<!-- IndexedSeq -->
<g id="node37" class="node"><title>IndexedSeq</title>
<path fill="#6dc6e6" stroke="#6dc6e6" d="M912,-252C912,-252 853,-252 853,-252 847,-252 841,-246 841,-240 841,-240 841,-228 841,-228 841,-222 847,-216 853,-216 853,-216 912,-216 912,-216 918,-216 924,-222 924,-228 924,-228 924,-240 924,-240 924,-246 918,-252 912,-252"/>
<text text-anchor="middle" x="882.5" y="-230.3" font-family="Times New Roman,serif" font-size="14.00" fill="#ffffff">IndexedSeq</text>
</g>
<!-- Seq&#45;&gt;IndexedSeq -->
<g id="edge24" class="edge"><title>Seq&#45;&gt;IndexedSeq</title>
<path fill="none" stroke="#7f7f7f" stroke-width="4" d="M781.646,-290.155C799.337,-280.48 822.728,-267.688 842.529,-256.859"/>
<polygon fill="#7f7f7f" stroke="#7f7f7f" stroke-width="4" points="844.247,-259.909 851.341,-252.04 840.888,-253.767 844.247,-259.909"/>
</g>
<!-- Buffer -->
<g id="node38" class="node"><title>Buffer</title>
<path fill="#6dc6e6" stroke="#6dc6e6" d="M1069.5,-252C1069.5,-252 1039.5,-252 1039.5,-252 1033.5,-252 1027.5,-246 1027.5,-240 1027.5,-240 1027.5,-228 1027.5,-228 1027.5,-222 1033.5,-216 1039.5,-216 1039.5,-216 1069.5,-216 1069.5,-216 1075.5,-216 1081.5,-222 1081.5,-228 1081.5,-228 1081.5,-240 1081.5,-240 1081.5,-246 1075.5,-252 1069.5,-252"/>
<text text-anchor="middle" x="1054.5" y="-230.3" font-family="Times New Roman,serif" font-size="14.00" fill="#ffffff">Buffer</text>
</g>
<!-- Seq&#45;&gt;Buffer -->
<g id="edge25" class="edge"><title>Seq&#45;&gt;Buffer</title>
<path fill="none" stroke="#7f7f7f" d="M781.652,-298.665C835.509,-286.098 955.93,-258 1017.18,-243.708"/>
<polygon fill="#7f7f7f" stroke="#7f7f7f" points="1018.25,-247.052 1027.19,-241.372 1016.66,-240.236 1018.25,-247.052"/>
</g>
<!-- Set&#45;&gt;HashSet -->
<g id="edge16" class="edge"><title>Set&#45;&gt;HashSet</title>
<path fill="none" stroke="#7f7f7f" stroke-width="4" d="M1005.23,-441.768C972.078,-432.773 914.29,-416.451 855.911,-395.962"/>
<polygon fill="#7f7f7f" stroke="#7f7f7f" stroke-width="4" points="856.754,-392.548 846.16,-392.502 854.414,-399.145 856.754,-392.548"/>
</g>
<!-- Set&#45;&gt;ImmutableSetAdaptor -->
<g id="edge18" class="edge"><title>Set&#45;&gt;ImmutableSetAdaptor</title>
<path fill="none" stroke="#7f7f7f" d="M1008.53,-431.876C995.95,-422.893 980.368,-411.763 966.748,-402.034"/>
<polygon fill="#7f7f7f" stroke="#7f7f7f" points="968.737,-399.154 958.566,-396.19 964.669,-404.85 968.737,-399.154"/>
</g>
<!-- Set&#45;&gt;LinkedHashSet -->
<g id="edge19" class="edge"><title>Set&#45;&gt;LinkedHashSet</title>
<path fill="none" stroke="#7f7f7f" d="M1029.69,-431.723C1026.55,-413.631 1020.91,-384.499 1013.5,-360 1010.86,-351.285 1007.41,-341.988 1004.07,-333.654"/>
<polygon fill="#7f7f7f" stroke="#7f7f7f" points="1007.3,-332.314 1000.25,-324.406 1000.83,-334.985 1007.3,-332.314"/>
</g>
<!-- ObservableSet -->
<g id="node32" class="node"><title>ObservableSet</title>
<path fill="#6dc6e6" stroke="#6dc6e6" d="M1147.5,-324C1147.5,-324 1073.5,-324 1073.5,-324 1067.5,-324 1061.5,-318 1061.5,-312 1061.5,-312 1061.5,-300 1061.5,-300 1061.5,-294 1067.5,-288 1073.5,-288 1073.5,-288 1147.5,-288 1147.5,-288 1153.5,-288 1159.5,-294 1159.5,-300 1159.5,-300 1159.5,-312 1159.5,-312 1159.5,-318 1153.5,-324 1147.5,-324"/>
<text text-anchor="middle" x="1110.5" y="-302.3" font-family="Times New Roman,serif" font-size="14.00" fill="#ffffff">ObservableSet</text>
</g>
<!-- Set&#45;&gt;ObservableSet -->
<g id="edge17" class="edge"><title>Set&#45;&gt;ObservableSet</title>
<path fill="none" stroke="#7f7f7f" d="M1041.91,-431.871C1055.38,-407.35 1080.27,-362.032 1096.08,-333.259"/>
<polygon fill="#7f7f7f" stroke="#7f7f7f" points="1099.31,-334.639 1101.06,-324.189 1093.18,-331.269 1099.31,-334.639"/>
</g>
<!-- SynchronizedSet -->
<g id="node33" class="node"><title>SynchronizedSet</title>
<path fill="#6dc6e6" stroke="#6dc6e6" d="M1198,-396C1198,-396 1111,-396 1111,-396 1105,-396 1099,-390 1099,-384 1099,-384 1099,-372 1099,-372 1099,-366 1105,-360 1111,-360 1111,-360 1198,-360 1198,-360 1204,-360 1210,-366 1210,-372 1210,-372 1210,-384 1210,-384 1210,-390 1204,-396 1198,-396"/>
<text text-anchor="middle" x="1154.5" y="-374.3" font-family="Times New Roman,serif" font-size="14.00" fill="#ffffff">SynchronizedSet</text>
</g>
<!-- Set&#45;&gt;SynchronizedSet -->
<g id="edge20" class="edge"><title>Set&#45;&gt;SynchronizedSet</title>
<path fill="none" stroke="#7f7f7f" d="M1059.58,-433.465C1076.11,-423.98 1097.51,-411.7 1115.81,-401.201"/>
<polygon fill="#7f7f7f" stroke="#7f7f7f" points="1117.57,-404.223 1124.5,-396.211 1114.09,-398.152 1117.57,-404.223"/>
</g>
<!-- SortedSet -->
<g id="node34" class="node"><title>SortedSet</title>
<path fill="#6dc6e6" stroke="#6dc6e6" d="M1288.5,-396C1288.5,-396 1240.5,-396 1240.5,-396 1234.5,-396 1228.5,-390 1228.5,-384 1228.5,-384 1228.5,-372 1228.5,-372 1228.5,-366 1234.5,-360 1240.5,-360 1240.5,-360 1288.5,-360 1288.5,-360 1294.5,-360 1300.5,-366 1300.5,-372 1300.5,-372 1300.5,-384 1300.5,-384 1300.5,-390 1294.5,-396 1288.5,-396"/>
<text text-anchor="middle" x="1264.5" y="-374.3" font-family="Times New Roman,serif" font-size="14.00" fill="#ffffff">SortedSet</text>
</g>
<!-- Set&#45;&gt;SortedSet -->
<g id="edge21" class="edge"><title>Set&#45;&gt;SortedSet</title>
<path fill="none" stroke="#7f7f7f" d="M1059.8,-441.921C1096.24,-432.315 1162.65,-414.249 1218.5,-396 1218.6,-395.967 1218.7,-395.934 1218.8,-395.901"/>
<polygon fill="#7f7f7f" stroke="#7f7f7f" points="1220.09,-399.16 1228.43,-392.626 1217.84,-392.532 1220.09,-399.16"/>
</g>
<!-- BitSet -->
<g id="node35" class="node"><title>BitSet</title>
<path fill="#6dc6e6" stroke="#6dc6e6" d="M1279.5,-324C1279.5,-324 1249.5,-324 1249.5,-324 1243.5,-324 1237.5,-318 1237.5,-312 1237.5,-312 1237.5,-300 1237.5,-300 1237.5,-294 1243.5,-288 1249.5,-288 1249.5,-288 1279.5,-288 1279.5,-288 1285.5,-288 1291.5,-294 1291.5,-300 1291.5,-300 1291.5,-312 1291.5,-312 1291.5,-318 1285.5,-324 1279.5,-324"/>
<text text-anchor="middle" x="1264.5" y="-302.3" font-family="Times New Roman,serif" font-size="14.00" fill="#ffffff">BitSet</text>
</g>
<!-- SortedSet&#45;&gt;BitSet -->
<g id="edge22" class="edge"><title>SortedSet&#45;&gt;BitSet</title>
<path fill="none" stroke="#7f7f7f" d="M1264.5,-359.697C1264.5,-351.983 1264.5,-342.712 1264.5,-334.112"/>
<polygon fill="#7f7f7f" stroke="#7f7f7f" points="1268,-334.104 1264.5,-324.104 1261,-334.104 1268,-334.104"/>
</g>
<!-- LinearSeq&#45;&gt;MutableList -->
<g id="edge28" class="edge"><title>LinearSeq&#45;&gt;MutableList</title>
<path fill="none" stroke="#7f7f7f" stroke-width="4" d="M722.698,-215.876C705.386,-206.554 683.779,-194.919 665.244,-184.939"/>
<polygon fill="#7f7f7f" stroke="#7f7f7f" stroke-width="4" points="666.888,-181.849 656.424,-180.19 663.569,-188.012 666.888,-181.849"/>
</g>
<!-- LinearSeq&#45;&gt;LinkedList -->
<g id="edge29" class="edge"><title>LinearSeq&#45;&gt;LinkedList</title>
<path fill="none" stroke="#7f7f7f" d="M746.59,-215.697C742.947,-207.728 738.546,-198.1 734.506,-189.264"/>
<polygon fill="#7f7f7f" stroke="#7f7f7f" points="737.66,-187.744 730.319,-180.104 731.294,-190.654 737.66,-187.744"/>
</g>
<!-- LinearSeq&#45;&gt;DoubleLinkedList -->
<g id="edge30" class="edge"><title>LinearSeq&#45;&gt;DoubleLinkedList</title>
<path fill="none" stroke="#7f7f7f" d="M759.65,-215.89C762.687,-205.545 766.508,-192.066 769.5,-180 774.601,-159.427 779.574,-135.975 783.152,-118.311"/>
<polygon fill="#7f7f7f" stroke="#7f7f7f" points="786.657,-118.631 785.188,-108.138 779.793,-117.257 786.657,-118.631"/>
</g>
<!-- IndexedSeq&#45;&gt;ArraySeq -->
<g id="edge31" class="edge"><title>IndexedSeq&#45;&gt;ArraySeq</title>
<path fill="none" stroke="#7f7f7f" d="M874.837,-215.697C871.308,-207.728 867.044,-198.1 863.131,-189.264"/>
<polygon fill="#7f7f7f" stroke="#7f7f7f" points="866.324,-187.831 859.075,-180.104 859.924,-190.665 866.324,-187.831"/>
</g>
<!-- IndexedSeq&#45;&gt;ArrayBuffer -->
<g id="edge33" class="edge"><title>IndexedSeq&#45;&gt;ArrayBuffer</title>
<path fill="none" stroke="#7f7f7f" stroke-width="4" d="M907.452,-215.876C920.542,-206.893 936.76,-195.763 950.936,-186.034"/>
<polygon fill="#7f7f7f" stroke="#7f7f7f" stroke-width="4" points="953.187,-188.734 959.452,-180.19 949.226,-182.962 953.187,-188.734"/>
</g>
<!-- IndexedSeq&#45;&gt;StringBuilder -->
<g id="edge32" class="edge"><title>IndexedSeq&#45;&gt;StringBuilder</title>
<path fill="none" stroke="#7f7f7f" d="M886.847,-215.845C889.438,-205.484 892.747,-192.005 895.5,-180 900.238,-159.34 905.228,-135.892 908.905,-118.252"/>
<polygon fill="#7f7f7f" stroke="#7f7f7f" points="912.407,-118.598 911.01,-108.096 905.553,-117.177 912.407,-118.598"/>
</g>
<!-- Buffer&#45;&gt;ArrayBuffer -->
<g id="edge34" class="edge"><title>Buffer&#45;&gt;ArrayBuffer</title>
<path fill="none" stroke="#7f7f7f" stroke-width="4" d="M1037.2,-215.697C1028.64,-207.135 1018.16,-196.656 1008.8,-187.304"/>
<polygon fill="#7f7f7f" stroke="#7f7f7f" stroke-width="4" points="1011.15,-184.701 1001.6,-180.104 1006.2,-189.65 1011.15,-184.701"/>
</g>
<!-- Buffer&#45;&gt;ListBuffer -->
<g id="edge37" class="edge"><title>Buffer&#45;&gt;ListBuffer</title>
<path fill="none" stroke="#7f7f7f" d="M1051.97,-215.871C1048.39,-191.67 1041.81,-147.211 1037.55,-118.393"/>
<polygon fill="#7f7f7f" stroke="#7f7f7f" points="1040.97,-117.57 1036.04,-108.189 1034.04,-118.594 1040.97,-117.57"/>
</g>
<!-- ObservableBuffer -->
<g id="node39" class="node"><title>ObservableBuffer</title>
<path fill="#6dc6e6" stroke="#6dc6e6" d="M1192.5,-108C1192.5,-108 1100.5,-108 1100.5,-108 1094.5,-108 1088.5,-102 1088.5,-96 1088.5,-96 1088.5,-84 1088.5,-84 1088.5,-78 1094.5,-72 1100.5,-72 1100.5,-72 1192.5,-72 1192.5,-72 1198.5,-72 1204.5,-78 1204.5,-84 1204.5,-84 1204.5,-96 1204.5,-96 1204.5,-102 1198.5,-108 1192.5,-108"/>
<text text-anchor="middle" x="1146.5" y="-86.3" font-family="Times New Roman,serif" font-size="14.00" fill="#ffffff">ObservableBuffer</text>
</g>
<!-- Buffer&#45;&gt;ObservableBuffer -->
<g id="edge35" class="edge"><title>Buffer&#45;&gt;ObservableBuffer</title>
<path fill="none" stroke="#7f7f7f" d="M1065.6,-215.871C1081.55,-191.244 1111.1,-145.638 1129.73,-116.885"/>
<polygon fill="#7f7f7f" stroke="#7f7f7f" points="1132.86,-118.485 1135.36,-108.189 1126.99,-114.679 1132.86,-118.485"/>
</g>
<!-- SynchronizedBuffer -->
<g id="node40" class="node"><title>SynchronizedBuffer</title>
<path fill="#6dc6e6" stroke="#6dc6e6" d="M1263.5,-180C1263.5,-180 1159.5,-180 1159.5,-180 1153.5,-180 1147.5,-174 1147.5,-168 1147.5,-168 1147.5,-156 1147.5,-156 1147.5,-150 1153.5,-144 1159.5,-144 1159.5,-144 1263.5,-144 1263.5,-144 1269.5,-144 1275.5,-150 1275.5,-156 1275.5,-156 1275.5,-168 1275.5,-168 1275.5,-174 1269.5,-180 1263.5,-180"/>
<text text-anchor="middle" x="1211.5" y="-158.3" font-family="Times New Roman,serif" font-size="14.00" fill="#ffffff">SynchronizedBuffer</text>
</g>
<!-- Buffer&#45;&gt;SynchronizedBuffer -->
<g id="edge36" class="edge"><title>Buffer&#45;&gt;SynchronizedBuffer</title>
<path fill="none" stroke="#7f7f7f" d="M1081.85,-220.807C1104.48,-210.716 1137.16,-196.144 1164.05,-184.156"/>
<polygon fill="#7f7f7f" stroke="#7f7f7f" points="1165.59,-187.303 1173.29,-180.034 1162.74,-180.91 1165.59,-187.303"/>
</g>
<!-- Queue&#45;&gt;SynchronizedQueue -->
<g id="edge41" class="edge"><title>Queue&#45;&gt;SynchronizedQueue</title>
<path fill="none" stroke="#7f7f7f" d="M624.5,-71.6966C624.5,-63.9827 624.5,-54.7125 624.5,-46.1124"/>
<polygon fill="#7f7f7f" stroke="#7f7f7f" points="628,-46.1043 624.5,-36.1043 621,-46.1044 628,-46.1043"/>
</g>
</g>
</svg>
