<?xml version="1.0" encoding="UTF-8" standalone="no"?>
<!DOCTYPE svg PUBLIC "-//W3C//DTD SVG 1.1//EN"
 "http://www.w3.org/Graphics/SVG/1.1/DTD/svg11.dtd">
<!-- Generated by graphviz version 2.38.0 (20140413.2041)
 -->
<!-- Title: Collections Pages: 1 -->
<svg width="371pt" height="332pt"
 viewBox="0.00 0.00 370.50 332.00" xmlns="http://www.w3.org/2000/svg" xmlns:xlink="http://www.w3.org/1999/xlink">
<g id="graph0" class="graph" transform="scale(1 1) rotate(0) translate(4 328)">
<title>Collections</title>
<polygon fill="white" stroke="none" points="-4,4 -4,-328 366.5,-328 366.5,4 -4,4"/>
<!-- Traversable -->
<g id="node1" class="node"><title>Traversable</title>
<path fill="#6dc6e6" stroke="#6dc6e6" d="M257.5,-324C257.5,-324 199.5,-324 199.5,-324 193.5,-324 187.5,-318 187.5,-312 187.5,-312 187.5,-300 187.5,-300 187.5,-294 193.5,-288 199.5,-288 199.5,-288 257.5,-288 257.5,-288 263.5,-288 269.5,-294 269.5,-300 269.5,-300 269.5,-312 269.5,-312 269.5,-318 263.5,-324 257.5,-324"/>
<text text-anchor="middle" x="228.5" y="-302.3" font-family="Times New Roman,serif" font-size="14.00" fill="#ffffff">Traversable</text>
</g>
<!-- Iterable -->
<g id="node2" class="node"><title>Iterable</title>
<path fill="#6dc6e6" stroke="#6dc6e6" d="M245.5,-252C245.5,-252 211.5,-252 211.5,-252 205.5,-252 199.5,-246 199.5,-240 199.5,-240 199.5,-228 199.5,-228 199.5,-222 205.5,-216 211.5,-216 211.5,-216 245.5,-216 245.5,-216 251.5,-216 257.5,-222 257.5,-228 257.5,-228 257.5,-240 257.5,-240 257.5,-246 251.5,-252 245.5,-252"/>
<text text-anchor="middle" x="228.5" y="-230.3" font-family="Times New Roman,serif" font-size="14.00" fill="#ffffff">Iterable</text>
</g>
<!-- Traversable&#45;&gt;Iterable -->
<g id="edge1" class="edge"><title>Traversable&#45;&gt;Iterable</title>
<path fill="none" stroke="#7f7f7f" d="M228.5,-287.697C228.5,-279.983 228.5,-270.712 228.5,-262.112"/>
<polygon fill="#7f7f7f" stroke="#7f7f7f" points="232,-262.104 228.5,-252.104 225,-262.104 232,-262.104"/>
</g>
<!-- Seq -->
<g id="node3" class="node"><title>Seq</title>
<path fill="#6dc6e6" stroke="#6dc6e6" d="M152.5,-180C152.5,-180 122.5,-180 122.5,-180 116.5,-180 110.5,-174 110.5,-168 110.5,-168 110.5,-156 110.5,-156 110.5,-150 116.5,-144 122.5,-144 122.5,-144 152.5,-144 152.5,-144 158.5,-144 164.5,-150 164.5,-156 164.5,-156 164.5,-168 164.5,-168 164.5,-174 158.5,-180 152.5,-180"/>
<text text-anchor="middle" x="137.5" y="-158.3" font-family="Times New Roman,serif" font-size="14.00" fill="#ffffff">Seq</text>
</g>
<!-- Iterable&#45;&gt;Seq -->
<g id="edge2" class="edge"><title>Iterable&#45;&gt;Seq</title>
<path fill="none" stroke="#7f7f7f" d="M206.006,-215.697C194.545,-206.881 180.442,-196.032 168.016,-186.474"/>
<polygon fill="#7f7f7f" stroke="#7f7f7f" points="169.796,-183.427 159.736,-180.104 165.528,-188.976 169.796,-183.427"/>
</g>
<!-- Set -->
<g id="node4" class="node"><title>Set</title>
<path fill="#6dc6e6" stroke="#6dc6e6" d="M243.5,-180C243.5,-180 213.5,-180 213.5,-180 207.5,-180 201.5,-174 201.5,-168 201.5,-168 201.5,-156 201.5,-156 201.5,-150 207.5,-144 213.5,-144 213.5,-144 243.5,-144 243.5,-144 249.5,-144 255.5,-150 255.5,-156 255.5,-156 255.5,-168 255.5,-168 255.5,-174 249.5,-180 243.5,-180"/>
<text text-anchor="middle" x="228.5" y="-158.3" font-family="Times New Roman,serif" font-size="14.00" fill="#ffffff">Set</text>
</g>
<!-- Iterable&#45;&gt;Set -->
<g id="edge3" class="edge"><title>Iterable&#45;&gt;Set</title>
<path fill="none" stroke="#7f7f7f" d="M228.5,-215.697C228.5,-207.983 228.5,-198.712 228.5,-190.112"/>
<polygon fill="#7f7f7f" stroke="#7f7f7f" points="232,-190.104 228.5,-180.104 225,-190.104 232,-190.104"/>
</g>
<!-- Map -->
<g id="node5" class="node"><title>Map</title>
<path fill="#6dc6e6" stroke="#6dc6e6" d="M326.5,-180C326.5,-180 296.5,-180 296.5,-180 290.5,-180 284.5,-174 284.5,-168 284.5,-168 284.5,-156 284.5,-156 284.5,-150 290.5,-144 296.5,-144 296.5,-144 326.5,-144 326.5,-144 332.5,-144 338.5,-150 338.5,-156 338.5,-156 338.5,-168 338.5,-168 338.5,-174 332.5,-180 326.5,-180"/>
<text text-anchor="middle" x="311.5" y="-158.3" font-family="Times New Roman,serif" font-size="14.00" fill="#ffffff">Map</text>
</g>
<!-- Iterable&#45;&gt;Map -->
<g id="edge4" class="edge"><title>Iterable&#45;&gt;Map</title>
<path fill="none" stroke="#7f7f7f" d="M249.017,-215.697C259.369,-206.965 272.086,-196.24 283.339,-186.75"/>
<polygon fill="#7f7f7f" stroke="#7f7f7f" points="285.831,-189.227 291.219,-180.104 281.318,-183.876 285.831,-189.227"/>
</g>
<!-- IndexedSeq -->
<g id="node6" class="node"><title>IndexedSeq</title>
<path fill="#6dc6e6" stroke="#6dc6e6" d="M71,-108C71,-108 12,-108 12,-108 6,-108 0,-102 0,-96 0,-96 0,-84 0,-84 0,-78 6,-72 12,-72 12,-72 71,-72 71,-72 77,-72 83,-78 83,-84 83,-84 83,-96 83,-96 83,-102 77,-108 71,-108"/>
<text text-anchor="middle" x="41.5" y="-86.3" font-family="Times New Roman,serif" font-size="14.00" fill="#ffffff">IndexedSeq</text>
</g>
<!-- Seq&#45;&gt;IndexedSeq -->
<g id="edge5" class="edge"><title>Seq&#45;&gt;IndexedSeq</title>
<path fill="none" stroke="#7f7f7f" d="M113.77,-143.697C101.563,-134.796 86.5147,-123.823 73.3156,-114.199"/>
<polygon fill="#7f7f7f" stroke="#7f7f7f" points="75.0996,-111.168 64.9574,-108.104 70.9753,-116.824 75.0996,-111.168"/>
</g>
<!-- LinearSeq -->
<g id="node7" class="node"><title>LinearSeq</title>
<path fill="#6dc6e6" stroke="#6dc6e6" d="M162,-108C162,-108 113,-108 113,-108 107,-108 101,-102 101,-96 101,-96 101,-84 101,-84 101,-78 107,-72 113,-72 113,-72 162,-72 162,-72 168,-72 174,-78 174,-84 174,-84 174,-96 174,-96 174,-102 168,-108 162,-108"/>
<text text-anchor="middle" x="137.5" y="-86.3" font-family="Times New Roman,serif" font-size="14.00" fill="#ffffff">LinearSeq</text>
</g>
<!-- Seq&#45;&gt;LinearSeq -->
<g id="edge6" class="edge"><title>Seq&#45;&gt;LinearSeq</title>
<path fill="none" stroke="#7f7f7f" d="M137.5,-143.697C137.5,-135.983 137.5,-126.712 137.5,-118.112"/>
<polygon fill="#7f7f7f" stroke="#7f7f7f" points="141,-118.104 137.5,-108.104 134,-118.104 141,-118.104"/>
</g>
<!-- SortedSet -->
<g id="node8" class="node"><title>SortedSet</title>
<path fill="#6dc6e6" stroke="#6dc6e6" d="M252.5,-108C252.5,-108 204.5,-108 204.5,-108 198.5,-108 192.5,-102 192.5,-96 192.5,-96 192.5,-84 192.5,-84 192.5,-78 198.5,-72 204.5,-72 204.5,-72 252.5,-72 252.5,-72 258.5,-72 264.5,-78 264.5,-84 264.5,-84 264.5,-96 264.5,-96 264.5,-102 258.5,-108 252.5,-108"/>
<text text-anchor="middle" x="228.5" y="-86.3" font-family="Times New Roman,serif" font-size="14.00" fill="#ffffff">SortedSet</text>
</g>
<!-- Set&#45;&gt;SortedSet -->
<g id="edge7" class="edge"><title>Set&#45;&gt;SortedSet</title>
<path fill="none" stroke="#7f7f7f" d="M228.5,-143.697C228.5,-135.983 228.5,-126.712 228.5,-118.112"/>
<polygon fill="#7f7f7f" stroke="#7f7f7f" points="232,-118.104 228.5,-108.104 225,-118.104 232,-118.104"/>
</g>
<!-- SortedMap -->
<g id="node10" class="node"><title>SortedMap</title>
<path fill="#6dc6e6" stroke="#6dc6e6" d="M350.5,-108C350.5,-108 294.5,-108 294.5,-108 288.5,-108 282.5,-102 282.5,-96 282.5,-96 282.5,-84 282.5,-84 282.5,-78 288.5,-72 294.5,-72 294.5,-72 350.5,-72 350.5,-72 356.5,-72 362.5,-78 362.5,-84 362.5,-84 362.5,-96 362.5,-96 362.5,-102 356.5,-108 350.5,-108"/>
<text text-anchor="middle" x="322.5" y="-86.3" font-family="Times New Roman,serif" font-size="14.00" fill="#ffffff">SortedMap</text>
</g>
<!-- Map&#45;&gt;SortedMap -->
<g id="edge9" class="edge"><title>Map&#45;&gt;SortedMap</title>
<path fill="none" stroke="#7f7f7f" d="M314.219,-143.697C315.431,-135.983 316.888,-126.712 318.239,-118.112"/>
<polygon fill="#7f7f7f" stroke="#7f7f7f" points="321.717,-118.526 319.812,-108.104 314.802,-117.44 321.717,-118.526"/>
</g>
<!-- BitSet -->
<g id="node9" class="node"><title>BitSet</title>
<path fill="#6dc6e6" stroke="#6dc6e6" d="M243.5,-36C243.5,-36 213.5,-36 213.5,-36 207.5,-36 201.5,-30 201.5,-24 201.5,-24 201.5,-12 201.5,-12 201.5,-6 207.5,-0 213.5,-0 213.5,-0 243.5,-0 243.5,-0 249.5,-0 255.5,-6 255.5,-12 255.5,-12 255.5,-24 255.5,-24 255.5,-30 249.5,-36 243.5,-36"/>
<text text-anchor="middle" x="228.5" y="-14.3" font-family="Times New Roman,serif" font-size="14.00" fill="#ffffff">BitSet</text>
</g>
<!-- SortedSet&#45;&gt;BitSet -->
<g id="edge8" class="edge"><title>SortedSet&#45;&gt;BitSet</title>
<path fill="none" stroke="#7f7f7f" d="M228.5,-71.6966C228.5,-63.9827 228.5,-54.7125 228.5,-46.1124"/>
<polygon fill="#7f7f7f" stroke="#7f7f7f" points="232,-46.1043 228.5,-36.1043 225,-46.1044 232,-46.1043"/>
</g>
</g>
</svg>
