<?xml version="1.0" encoding="UTF-8" standalone="no"?>
<!DOCTYPE svg PUBLIC "-//W3C//DTD SVG 1.1//EN"
 "http://www.w3.org/Graphics/SVG/1.1/DTD/svg11.dtd">
<!-- Generated by graphviz version 2.38.0 (20140413.2041)
 -->
<!-- Title: MutableCollections Pages: 1 -->
<svg width="1295pt" height="620pt"
 viewBox="0.00 0.00 1294.50 620.00" xmlns="http://www.w3.org/2000/svg" xmlns:xlink="http://www.w3.org/1999/xlink">
<g id="graph0" class="graph" transform="scale(1 1) rotate(0) translate(4 616)">
<title>MutableCollections</title>
<polygon fill="white" stroke="none" points="-4,4 -4,-616 1290.5,-616 1290.5,4 -4,4"/>
<!-- HashSet -->
<g id="node1" class="node"><title>HashSet</title>
<path fill="#4a5659" stroke="#4a5659" d="M829,-396C829,-396 791,-396 791,-396 785,-396 779,-390 779,-384 779,-384 779,-372 779,-372 779,-366 785,-360 791,-360 791,-360 829,-360 829,-360 835,-360 841,-366 841,-372 841,-372 841,-384 841,-384 841,-390 835,-396 829,-396"/>
<text text-anchor="middle" x="810" y="-374.3" font-family="Times,serif" font-size="14.00" fill="#ffffff">HashSet</text>
</g>
<!-- ImmutableSetAdaptor -->
<g id="node2" class="node"><title>ImmutableSetAdaptor</title>
<path fill="#4a5659" stroke="#4a5659" d="M985,-396C985,-396 871,-396 871,-396 865,-396 859,-390 859,-384 859,-384 859,-372 859,-372 859,-366 865,-360 871,-360 871,-360 985,-360 985,-360 991,-360 997,-366 997,-372 997,-372 997,-384 997,-384 997,-390 991,-396 985,-396"/>
<text text-anchor="middle" x="928" y="-374.3" font-family="Times,serif" font-size="14.00" fill="#ffffff">ImmutableSetAdaptor</text>
</g>
<!-- LinkedHashSet -->
<g id="node3" class="node"><title>LinkedHashSet</title>
<path fill="#4a5659" stroke="#4a5659" d="M1024,-324C1024,-324 948,-324 948,-324 942,-324 936,-318 936,-312 936,-312 936,-300 936,-300 936,-294 942,-288 948,-288 948,-288 1024,-288 1024,-288 1030,-288 1036,-294 1036,-300 1036,-300 1036,-312 1036,-312 1036,-318 1030,-324 1024,-324"/>
<text text-anchor="middle" x="986" y="-302.3" font-family="Times,serif" font-size="14.00" fill="#ffffff">LinkedHashSet</text>
</g>
<!-- HashMap -->
<g id="node4" class="node"><title>HashMap</title>
<path fill="#4a5659" stroke="#4a5659" d="M58,-396C58,-396 12,-396 12,-396 6,-396 0,-390 0,-384 0,-384 0,-372 0,-372 0,-366 6,-360 12,-360 12,-360 58,-360 58,-360 64,-360 70,-366 70,-372 70,-372 70,-384 70,-384 70,-390 64,-396 58,-396"/>
<text text-anchor="middle" x="35" y="-374.3" font-family="Times,serif" font-size="14.00" fill="#ffffff">HashMap</text>
</g>
<!-- OpenHashMap -->
<g id="node5" class="node"><title>OpenHashMap</title>
<path fill="#4a5659" stroke="#4a5659" d="M175.5,-396C175.5,-396 100.5,-396 100.5,-396 94.5,-396 88.5,-390 88.5,-384 88.5,-384 88.5,-372 88.5,-372 88.5,-366 94.5,-360 100.5,-360 100.5,-360 175.5,-360 175.5,-360 181.5,-360 187.5,-366 187.5,-372 187.5,-372 187.5,-384 187.5,-384 187.5,-390 181.5,-396 175.5,-396"/>
<text text-anchor="middle" x="138" y="-374.3" font-family="Times,serif" font-size="14.00" fill="#ffffff">OpenHashMap</text>
</g>
<!-- WeakHashMap -->
<g id="node6" class="node"><title>WeakHashMap</title>
<path fill="#4a5659" stroke="#4a5659" d="M138,-324C138,-324 60,-324 60,-324 54,-324 48,-318 48,-312 48,-312 48,-300 48,-300 48,-294 54,-288 60,-288 60,-288 138,-288 138,-288 144,-288 150,-294 150,-300 150,-300 150,-312 150,-312 150,-318 144,-324 138,-324"/>
<text text-anchor="middle" x="99" y="-302.3" font-family="Times,serif" font-size="14.00" fill="#ffffff">WeakHashMap</text>
</g>
<!-- LinkedHashMap -->
<g id="node7" class="node"><title>LinkedHashMap</title>
<path fill="#4a5659" stroke="#4a5659" d="M264,-324C264,-324 180,-324 180,-324 174,-324 168,-318 168,-312 168,-312 168,-300 168,-300 168,-294 174,-288 180,-288 180,-288 264,-288 264,-288 270,-288 276,-294 276,-300 276,-300 276,-312 276,-312 276,-318 270,-324 264,-324"/>
<text text-anchor="middle" x="222" y="-302.3" font-family="Times,serif" font-size="14.00" fill="#ffffff">LinkedHashMap</text>
</g>
<!-- ListMap -->
<g id="node8" class="node"><title>ListMap</title>
<path fill="#4a5659" stroke="#4a5659" d="M345.5,-324C345.5,-324 306.5,-324 306.5,-324 300.5,-324 294.5,-318 294.5,-312 294.5,-312 294.5,-300 294.5,-300 294.5,-294 300.5,-288 306.5,-288 306.5,-288 345.5,-288 345.5,-288 351.5,-288 357.5,-294 357.5,-300 357.5,-300 357.5,-312 357.5,-312 357.5,-318 351.5,-324 345.5,-324"/>
<text text-anchor="middle" x="326" y="-302.3" font-family="Times,serif" font-size="14.00" fill="#ffffff">ListMap</text>
</g>
<!-- TreeMap -->
<g id="node9" class="node"><title>TreeMap</title>
<path fill="#4a5659" stroke="#4a5659" d="M408.5,-396C408.5,-396 365.5,-396 365.5,-396 359.5,-396 353.5,-390 353.5,-384 353.5,-384 353.5,-372 353.5,-372 353.5,-366 359.5,-360 365.5,-360 365.5,-360 408.5,-360 408.5,-360 414.5,-360 420.5,-366 420.5,-372 420.5,-372 420.5,-384 420.5,-384 420.5,-390 414.5,-396 408.5,-396"/>
<text text-anchor="middle" x="387" y="-374.3" font-family="Times,serif" font-size="14.00" fill="#ffffff">TreeMap</text>
</g>
<!-- ImmutableMapAdaptor -->
<g id="node10" class="node"><title>ImmutableMapAdaptor</title>
<path fill="#4a5659" stroke="#4a5659" d="M510,-324C510,-324 388,-324 388,-324 382,-324 376,-318 376,-312 376,-312 376,-300 376,-300 376,-294 382,-288 388,-288 388,-288 510,-288 510,-288 516,-288 522,-294 522,-300 522,-300 522,-312 522,-312 522,-318 516,-324 510,-324"/>
<text text-anchor="middle" x="449" y="-302.3" font-family="Times,serif" font-size="14.00" fill="#ffffff">ImmutableMapAdaptor</text>
</g>
<!-- ArraySeq -->
<g id="node11" class="node"><title>ArraySeq</title>
<path fill="#4a5659" stroke="#4a5659" d="M869,-180C869,-180 825,-180 825,-180 819,-180 813,-174 813,-168 813,-168 813,-156 813,-156 813,-150 819,-144 825,-144 825,-144 869,-144 869,-144 875,-144 881,-150 881,-156 881,-156 881,-168 881,-168 881,-174 875,-180 869,-180"/>
<text text-anchor="middle" x="847" y="-158.3" font-family="Times,serif" font-size="14.00" fill="#ffffff">ArraySeq</text>
</g>
<!-- ArrayBuffer -->
<g id="node12" class="node"><title>ArrayBuffer</title>
<path fill="#4a5659" stroke="#4a5659" d="M1008.5,-180C1008.5,-180 949.5,-180 949.5,-180 943.5,-180 937.5,-174 937.5,-168 937.5,-168 937.5,-156 937.5,-156 937.5,-150 943.5,-144 949.5,-144 949.5,-144 1008.5,-144 1008.5,-144 1014.5,-144 1020.5,-150 1020.5,-156 1020.5,-156 1020.5,-168 1020.5,-168 1020.5,-174 1014.5,-180 1008.5,-180"/>
<text text-anchor="middle" x="979" y="-158.3" font-family="Times,serif" font-size="14.00" fill="#ffffff">ArrayBuffer</text>
</g>
<!-- StringBuilder -->
<g id="node13" class="node"><title>StringBuilder</title>
<path fill="#4a5659" stroke="#4a5659" d="M942,-108C942,-108 876,-108 876,-108 870,-108 864,-102 864,-96 864,-96 864,-84 864,-84 864,-78 870,-72 876,-72 876,-72 942,-72 942,-72 948,-72 954,-78 954,-84 954,-84 954,-96 954,-96 954,-102 948,-108 942,-108"/>
<text text-anchor="middle" x="909" y="-86.3" font-family="Times,serif" font-size="14.00" fill="#ffffff">StringBuilder</text>
</g>
<!-- ListBuffer -->
<g id="node14" class="node"><title>ListBuffer</title>
<path fill="#4a5659" stroke="#4a5659" d="M1053.5,-108C1053.5,-108 1004.5,-108 1004.5,-108 998.5,-108 992.5,-102 992.5,-96 992.5,-96 992.5,-84 992.5,-84 992.5,-78 998.5,-72 1004.5,-72 1004.5,-72 1053.5,-72 1053.5,-72 1059.5,-72 1065.5,-78 1065.5,-84 1065.5,-84 1065.5,-96 1065.5,-96 1065.5,-102 1059.5,-108 1053.5,-108"/>
<text text-anchor="middle" x="1029" y="-86.3" font-family="Times,serif" font-size="14.00" fill="#ffffff">ListBuffer</text>
</g>
<!-- Stack -->
<g id="node15" class="node"><title>Stack</title>
<path fill="#4a5659" stroke="#4a5659" d="M569,-252C569,-252 539,-252 539,-252 533,-252 527,-246 527,-240 527,-240 527,-228 527,-228 527,-222 533,-216 539,-216 539,-216 569,-216 569,-216 575,-216 581,-222 581,-228 581,-228 581,-240 581,-240 581,-246 575,-252 569,-252"/>
<text text-anchor="middle" x="554" y="-230.3" font-family="Times,serif" font-size="14.00" fill="#ffffff">Stack</text>
</g>
<!-- SynchronizedStack -->
<g id="node17" class="node"><title>SynchronizedStack</title>
<path fill="#4a5659" stroke="#4a5659" d="M549.5,-180C549.5,-180 452.5,-180 452.5,-180 446.5,-180 440.5,-174 440.5,-168 440.5,-168 440.5,-156 440.5,-156 440.5,-150 446.5,-144 452.5,-144 452.5,-144 549.5,-144 549.5,-144 555.5,-144 561.5,-150 561.5,-156 561.5,-156 561.5,-168 561.5,-168 561.5,-174 555.5,-180 549.5,-180"/>
<text text-anchor="middle" x="501" y="-158.3" font-family="Times,serif" font-size="14.00" fill="#ffffff">SynchronizedStack</text>
</g>
<!-- Stack&#45;&gt;SynchronizedStack -->
<g id="edge38" class="edge"><title>Stack&#45;&gt;SynchronizedStack</title>
<path fill="none" stroke="#7f7f7f" d="M540.899,-215.697C534.609,-207.389 526.953,-197.277 520.035,-188.141"/>
<polygon fill="#7f7f7f" stroke="#7f7f7f" points="522.777,-185.964 513.95,-180.104 517.196,-190.19 522.777,-185.964"/>
</g>
<!-- ArrayStack -->
<g id="node16" class="node"><title>ArrayStack</title>
<path fill="#4a5659" stroke="#4a5659" d="M685,-252C685,-252 631,-252 631,-252 625,-252 619,-246 619,-240 619,-240 619,-228 619,-228 619,-222 625,-216 631,-216 631,-216 685,-216 685,-216 691,-216 697,-222 697,-228 697,-228 697,-240 697,-240 697,-246 691,-252 685,-252"/>
<text text-anchor="middle" x="658" y="-230.3" font-family="Times,serif" font-size="14.00" fill="#ffffff">ArrayStack</text>
</g>
<!-- PriorityQueue -->
<g id="node18" class="node"><title>PriorityQueue</title>
<path fill="#4a5659" stroke="#4a5659" d="M878.5,-540C878.5,-540 809.5,-540 809.5,-540 803.5,-540 797.5,-534 797.5,-528 797.5,-528 797.5,-516 797.5,-516 797.5,-510 803.5,-504 809.5,-504 809.5,-504 878.5,-504 878.5,-504 884.5,-504 890.5,-510 890.5,-516 890.5,-516 890.5,-528 890.5,-528 890.5,-534 884.5,-540 878.5,-540"/>
<text text-anchor="middle" x="844" y="-518.3" font-family="Times,serif" font-size="14.00" fill="#ffffff">PriorityQueue</text>
</g>
<!-- SynchronizedPriorityQueue -->
<g id="node19" class="node"><title>SynchronizedPriorityQueue</title>
<path fill="#4a5659" stroke="#4a5659" d="M1063.5,-540C1063.5,-540 920.5,-540 920.5,-540 914.5,-540 908.5,-534 908.5,-528 908.5,-528 908.5,-516 908.5,-516 908.5,-510 914.5,-504 920.5,-504 920.5,-504 1063.5,-504 1063.5,-504 1069.5,-504 1075.5,-510 1075.5,-516 1075.5,-516 1075.5,-528 1075.5,-528 1075.5,-534 1069.5,-540 1063.5,-540"/>
<text text-anchor="middle" x="992" y="-518.3" font-family="Times,serif" font-size="14.00" fill="#ffffff">SynchronizedPriorityQueue</text>
</g>
<!-- PriorityQueue&#45;&gt;SynchronizedPriorityQueue -->
<g id="edge39" class="edge"><title>PriorityQueue&#45;&gt;SynchronizedPriorityQueue</title>
<path fill="none" stroke="#7f7f7f" d="M890.539,-522C893.14,-522 895.741,-522 898.342,-522"/>
<polygon fill="#7f7f7f" stroke="#7f7f7f" points="898.374,-525.5 908.374,-522 898.374,-518.5 898.374,-525.5"/>
</g>
<!-- SynchronizedQueue -->
<g id="node20" class="node"><title>SynchronizedQueue</title>
<path fill="#4a5659" stroke="#4a5659" d="M672,-36C672,-36 570,-36 570,-36 564,-36 558,-30 558,-24 558,-24 558,-12 558,-12 558,-6 564,-0 570,-0 570,-0 672,-0 672,-0 678,-0 684,-6 684,-12 684,-12 684,-24 684,-24 684,-30 678,-36 672,-36"/>
<text text-anchor="middle" x="621" y="-14.3" font-family="Times,serif" font-size="14.00" fill="#ffffff">SynchronizedQueue</text>
</g>
<!-- MutableList -->
<g id="node21" class="node"><title>MutableList</title>
<path fill="#4a5659" stroke="#4a5659" d="M650.5,-180C650.5,-180 591.5,-180 591.5,-180 585.5,-180 579.5,-174 579.5,-168 579.5,-168 579.5,-156 579.5,-156 579.5,-150 585.5,-144 591.5,-144 591.5,-144 650.5,-144 650.5,-144 656.5,-144 662.5,-150 662.5,-156 662.5,-156 662.5,-168 662.5,-168 662.5,-174 656.5,-180 650.5,-180"/>
<text text-anchor="middle" x="621" y="-158.3" font-family="Times,serif" font-size="14.00" fill="#ffffff">MutableList</text>
</g>
<!-- Queue -->
<g id="node41" class="node"><title>Queue</title>
<path fill="#6dc6e6" stroke="#6dc6e6" d="M636,-108C636,-108 606,-108 606,-108 600,-108 594,-102 594,-96 594,-96 594,-84 594,-84 594,-78 600,-72 606,-72 606,-72 636,-72 636,-72 642,-72 648,-78 648,-84 648,-84 648,-96 648,-96 648,-102 642,-108 636,-108"/>
<text text-anchor="middle" x="621" y="-86.3" font-family="Times,serif" font-size="14.00" fill="#ffffff">Queue</text>
</g>
<!-- MutableList&#45;&gt;Queue -->
<g id="edge40" class="edge"><title>MutableList&#45;&gt;Queue</title>
<path fill="none" stroke="#7f7f7f" d="M621,-143.697C621,-135.983 621,-126.712 621,-118.112"/>
<polygon fill="#7f7f7f" stroke="#7f7f7f" points="624.5,-118.104 621,-108.104 617.5,-118.104 624.5,-118.104"/>
</g>
<!-- LinkedList -->
<g id="node22" class="node"><title>LinkedList</title>
<path fill="#4a5659" stroke="#4a5659" d="M745,-180C745,-180 693,-180 693,-180 687,-180 681,-174 681,-168 681,-168 681,-156 681,-156 681,-150 687,-144 693,-144 693,-144 745,-144 745,-144 751,-144 757,-150 757,-156 757,-156 757,-168 757,-168 757,-174 751,-180 745,-180"/>
<text text-anchor="middle" x="719" y="-158.3" font-family="Times,serif" font-size="14.00" fill="#ffffff">LinkedList</text>
</g>
<!-- DoubleLinkedList -->
<g id="node23" class="node"><title>DoubleLinkedList</title>
<path fill="#4a5659" stroke="#4a5659" d="M831,-108C831,-108 739,-108 739,-108 733,-108 727,-102 727,-96 727,-96 727,-84 727,-84 727,-78 733,-72 739,-72 739,-72 831,-72 831,-72 837,-72 843,-78 843,-84 843,-84 843,-96 843,-96 843,-102 837,-108 831,-108"/>
<text text-anchor="middle" x="785" y="-86.3" font-family="Times,serif" font-size="14.00" fill="#ffffff">DoubleLinkedList</text>
</g>
<!-- Traversable -->
<g id="node24" class="node"><title>Traversable</title>
<path fill="#6dc6e6" stroke="#6dc6e6" d="M779,-612C779,-612 723,-612 723,-612 717,-612 711,-606 711,-600 711,-600 711,-588 711,-588 711,-582 717,-576 723,-576 723,-576 779,-576 779,-576 785,-576 791,-582 791,-588 791,-588 791,-600 791,-600 791,-606 785,-612 779,-612"/>
<text text-anchor="middle" x="751" y="-590.3" font-family="Times,serif" font-size="14.00" fill="#ffffff">Traversable</text>
</g>
<!-- Iterable -->
<g id="node25" class="node"><title>Iterable</title>
<path fill="#6dc6e6" stroke="#6dc6e6" d="M768,-540C768,-540 734,-540 734,-540 728,-540 722,-534 722,-528 722,-528 722,-516 722,-516 722,-510 728,-504 734,-504 734,-504 768,-504 768,-504 774,-504 780,-510 780,-516 780,-516 780,-528 780,-528 780,-534 774,-540 768,-540"/>
<text text-anchor="middle" x="751" y="-518.3" font-family="Times,serif" font-size="14.00" fill="#ffffff">Iterable</text>
</g>
<!-- Traversable&#45;&gt;Iterable -->
<g id="edge1" class="edge"><title>Traversable&#45;&gt;Iterable</title>
<path fill="none" stroke="#7f7f7f" stroke-width="4" d="M751,-575.697C751,-567.983 751,-558.712 751,-550.112"/>
<polygon fill="#7f7f7f" stroke="#7f7f7f" stroke-width="4" points="754.5,-550.104 751,-540.104 747.5,-550.104 754.5,-550.104"/>
</g>
<!-- Iterable&#45;&gt;PriorityQueue -->
<g id="edge5" class="edge"><title>Iterable&#45;&gt;PriorityQueue</title>
<path fill="none" stroke="#7f7f7f" d="M780.062,-522C782.362,-522 784.662,-522 786.962,-522"/>
<polygon fill="#7f7f7f" stroke="#7f7f7f" points="787.046,-525.5 797.046,-522 787.046,-518.5 787.046,-525.5"/>
</g>
<!-- Map -->
<g id="node26" class="node"><title>Map</title>
<path fill="#6dc6e6" stroke="#6dc6e6" d="M402,-468C402,-468 372,-468 372,-468 366,-468 360,-462 360,-456 360,-456 360,-444 360,-444 360,-438 366,-432 372,-432 372,-432 402,-432 402,-432 408,-432 414,-438 414,-444 414,-444 414,-456 414,-456 414,-462 408,-468 402,-468"/>
<text text-anchor="middle" x="387" y="-446.3" font-family="Times,serif" font-size="14.00" fill="#ffffff">Map</text>
</g>
<!-- Iterable&#45;&gt;Map -->
<g id="edge2" class="edge"><title>Iterable&#45;&gt;Map</title>
<path fill="none" stroke="#7f7f7f" d="M721.828,-515.39C656.223,-502.774 497.122,-472.177 424.395,-458.191"/>
<polygon fill="#7f7f7f" stroke="#7f7f7f" points="424.794,-454.704 414.313,-456.252 423.472,-461.578 424.794,-454.704"/>
</g>
<!-- Seq -->
<g id="node27" class="node"><title>Seq</title>
<path fill="#6dc6e6" stroke="#6dc6e6" d="M766,-324C766,-324 736,-324 736,-324 730,-324 724,-318 724,-312 724,-312 724,-300 724,-300 724,-294 730,-288 736,-288 736,-288 766,-288 766,-288 772,-288 778,-294 778,-300 778,-300 778,-312 778,-312 778,-318 772,-324 766,-324"/>
<text text-anchor="middle" x="751" y="-302.3" font-family="Times,serif" font-size="14.00" fill="#ffffff">Seq</text>
</g>
<!-- Iterable&#45;&gt;Seq -->
<g id="edge3" class="edge"><title>Iterable&#45;&gt;Seq</title>
<path fill="none" stroke="#7f7f7f" stroke-width="4" d="M751,-503.849C751,-466.832 751,-379.181 751,-334.386"/>
<polygon fill="#7f7f7f" stroke="#7f7f7f" stroke-width="4" points="754.5,-334.232 751,-324.232 747.5,-334.232 754.5,-334.232"/>
</g>
<!-- Set -->
<g id="node28" class="node"><title>Set</title>
<path fill="#6dc6e6" stroke="#6dc6e6" d="M1040,-468C1040,-468 1010,-468 1010,-468 1004,-468 998,-462 998,-456 998,-456 998,-444 998,-444 998,-438 1004,-432 1010,-432 1010,-432 1040,-432 1040,-432 1046,-432 1052,-438 1052,-444 1052,-444 1052,-456 1052,-456 1052,-462 1046,-468 1040,-468"/>
<text text-anchor="middle" x="1025" y="-446.3" font-family="Times,serif" font-size="14.00" fill="#ffffff">Set</text>
</g>
<!-- Iterable&#45;&gt;Set -->
<g id="edge4" class="edge"><title>Iterable&#45;&gt;Set</title>
<path fill="none" stroke="#7f7f7f" d="M780.259,-506.88C782.85,-505.837 785.455,-504.859 788,-504 856.897,-480.758 940.523,-464.778 987.766,-456.824"/>
<polygon fill="#7f7f7f" stroke="#7f7f7f" points="988.544,-460.243 997.839,-455.157 987.401,-453.336 988.544,-460.243"/>
</g>
<!-- Map&#45;&gt;HashMap -->
<g id="edge6" class="edge"><title>Map&#45;&gt;HashMap</title>
<path fill="none" stroke="#7f7f7f" stroke-width="4" d="M359.826,-446.159C307.252,-440.274 187.981,-425.032 80.0754,-396.012"/>
<polygon fill="#7f7f7f" stroke="#7f7f7f" stroke-width="4" points="80.9077,-392.611 70.3384,-393.347 79.0595,-399.363 80.9077,-392.611"/>
</g>
<!-- Map&#45;&gt;OpenHashMap -->
<g id="edge8" class="edge"><title>Map&#45;&gt;OpenHashMap</title>
<path fill="none" stroke="#7f7f7f" d="M359.879,-441.376C321.157,-430.49 249.025,-410.212 197.515,-395.731"/>
<polygon fill="#7f7f7f" stroke="#7f7f7f" points="198.401,-392.344 187.827,-393.007 196.506,-399.083 198.401,-392.344"/>
</g>
<!-- Map&#45;&gt;WeakHashMap -->
<g id="edge7" class="edge"><title>Map&#45;&gt;WeakHashMap</title>
<path fill="none" stroke="#7f7f7f" d="M359.906,-435.641C310.062,-411.065 203.417,-358.483 143.042,-328.715"/>
<polygon fill="#7f7f7f" stroke="#7f7f7f" points="144.282,-325.424 133.765,-324.141 141.187,-331.703 144.282,-325.424"/>
</g>
<!-- Map&#45;&gt;LinkedHashMap -->
<g id="edge9" class="edge"><title>Map&#45;&gt;LinkedHashMap</title>
<path fill="none" stroke="#7f7f7f" d="M367.097,-431.871C337.861,-406.711 283.182,-359.654 249.936,-331.042"/>
<polygon fill="#7f7f7f" stroke="#7f7f7f" points="251.836,-328.059 241.973,-324.189 247.27,-333.365 251.836,-328.059"/>
</g>
<!-- Map&#45;&gt;ListMap -->
<g id="edge14" class="edge"><title>Map&#45;&gt;ListMap</title>
<path fill="none" stroke="#7f7f7f" d="M369.49,-431.858C360.55,-422.14 350.266,-409.29 344,-396 334.783,-376.452 330.276,-352.317 328.077,-334.114"/>
<polygon fill="#7f7f7f" stroke="#7f7f7f" points="331.557,-333.741 327.031,-324.161 324.596,-334.472 331.557,-333.741"/>
</g>
<!-- Map&#45;&gt;TreeMap -->
<g id="edge13" class="edge"><title>Map&#45;&gt;TreeMap</title>
<path fill="none" stroke="#7f7f7f" d="M387,-431.697C387,-423.983 387,-414.712 387,-406.112"/>
<polygon fill="#7f7f7f" stroke="#7f7f7f" points="390.5,-406.104 387,-396.104 383.5,-406.104 390.5,-406.104"/>
</g>
<!-- Map&#45;&gt;ImmutableMapAdaptor -->
<g id="edge12" class="edge"><title>Map&#45;&gt;ImmutableMapAdaptor</title>
<path fill="none" stroke="#7f7f7f" d="M403.98,-431.736C412.676,-421.982 422.726,-409.136 429,-396 438.357,-376.409 443.428,-352.277 446.12,-334.086"/>
<polygon fill="#7f7f7f" stroke="#7f7f7f" points="449.594,-334.516 447.445,-324.141 442.655,-333.592 449.594,-334.516"/>
</g>
<!-- ObservableMap -->
<g id="node29" class="node"><title>ObservableMap</title>
<path fill="#6dc6e6" stroke="#6dc6e6" d="M632,-324C632,-324 552,-324 552,-324 546,-324 540,-318 540,-312 540,-312 540,-300 540,-300 540,-294 546,-288 552,-288 552,-288 632,-288 632,-288 638,-288 644,-294 644,-300 644,-300 644,-312 644,-312 644,-318 638,-324 632,-324"/>
<text text-anchor="middle" x="592" y="-302.3" font-family="Times,serif" font-size="14.00" fill="#ffffff">ObservableMap</text>
</g>
<!-- Map&#45;&gt;ObservableMap -->
<g id="edge10" class="edge"><title>Map&#45;&gt;ObservableMap</title>
<path fill="none" stroke="#7f7f7f" d="M408.505,-431.997C432.016,-413.627 471.014,-383.793 506,-360 521.517,-349.447 539.087,-338.457 554.283,-329.238"/>
<polygon fill="#7f7f7f" stroke="#7f7f7f" points="556.164,-332.191 562.922,-324.032 552.551,-326.196 556.164,-332.191"/>
</g>
<!-- SynchronizedMap -->
<g id="node30" class="node"><title>SynchronizedMap</title>
<path fill="#6dc6e6" stroke="#6dc6e6" d="M619,-396C619,-396 527,-396 527,-396 521,-396 515,-390 515,-384 515,-384 515,-372 515,-372 515,-366 521,-360 527,-360 527,-360 619,-360 619,-360 625,-360 631,-366 631,-372 631,-372 631,-384 631,-384 631,-390 625,-396 619,-396"/>
<text text-anchor="middle" x="573" y="-374.3" font-family="Times,serif" font-size="14.00" fill="#ffffff">SynchronizedMap</text>
</g>
<!-- Map&#45;&gt;SynchronizedMap -->
<g id="edge11" class="edge"><title>Map&#45;&gt;SynchronizedMap</title>
<path fill="none" stroke="#7f7f7f" d="M414.046,-438.821C441.214,-428.597 483.855,-412.549 518.134,-399.648"/>
<polygon fill="#7f7f7f" stroke="#7f7f7f" points="519.435,-402.899 527.562,-396.1 516.97,-396.347 519.435,-402.899"/>
</g>
<!-- MultiMap -->
<g id="node31" class="node"><title>MultiMap</title>
<path fill="#6dc6e6" stroke="#6dc6e6" d="M710.5,-396C710.5,-396 661.5,-396 661.5,-396 655.5,-396 649.5,-390 649.5,-384 649.5,-384 649.5,-372 649.5,-372 649.5,-366 655.5,-360 661.5,-360 661.5,-360 710.5,-360 710.5,-360 716.5,-360 722.5,-366 722.5,-372 722.5,-372 722.5,-384 722.5,-384 722.5,-390 716.5,-396 710.5,-396"/>
<text text-anchor="middle" x="686" y="-374.3" font-family="Times,serif" font-size="14.00" fill="#ffffff">MultiMap</text>
</g>
<!-- Map&#45;&gt;MultiMap -->
<g id="edge15" class="edge"><title>Map&#45;&gt;MultiMap</title>
<path fill="none" stroke="#7f7f7f" d="M414.28,-444.646C459.318,-437.167 552.114,-420.534 639.455,-395.925"/>
<polygon fill="#7f7f7f" stroke="#7f7f7f" points="640.599,-399.239 649.251,-393.124 638.674,-392.508 640.599,-399.239"/>
</g>
<!-- Seq&#45;&gt;Stack -->
<g id="edge26" class="edge"><title>Seq&#45;&gt;Stack</title>
<path fill="none" stroke="#7f7f7f" d="M723.608,-295.267C689.058,-282.99 629.515,-261.833 590.96,-248.133"/>
<polygon fill="#7f7f7f" stroke="#7f7f7f" points="591.754,-244.701 581.159,-244.651 589.41,-251.297 591.754,-244.701"/>
</g>
<!-- Seq&#45;&gt;ArrayStack -->
<g id="edge27" class="edge"><title>Seq&#45;&gt;ArrayStack</title>
<path fill="none" stroke="#7f7f7f" d="M728.011,-287.697C716.186,-278.796 701.608,-267.823 688.821,-258.199"/>
<polygon fill="#7f7f7f" stroke="#7f7f7f" points="690.819,-255.322 680.724,-252.104 686.609,-260.915 690.819,-255.322"/>
</g>
<!-- LinearSeq -->
<g id="node36" class="node"><title>LinearSeq</title>
<path fill="#6dc6e6" stroke="#6dc6e6" d="M775,-252C775,-252 727,-252 727,-252 721,-252 715,-246 715,-240 715,-240 715,-228 715,-228 715,-222 721,-216 727,-216 727,-216 775,-216 775,-216 781,-216 787,-222 787,-228 787,-228 787,-240 787,-240 787,-246 781,-252 775,-252"/>
<text text-anchor="middle" x="751" y="-230.3" font-family="Times,serif" font-size="14.00" fill="#ffffff">LinearSeq</text>
</g>
<!-- Seq&#45;&gt;LinearSeq -->
<g id="edge23" class="edge"><title>Seq&#45;&gt;LinearSeq</title>
<path fill="none" stroke="#7f7f7f" d="M751,-287.697C751,-279.983 751,-270.712 751,-262.112"/>
<polygon fill="#7f7f7f" stroke="#7f7f7f" points="754.5,-262.104 751,-252.104 747.5,-262.104 754.5,-262.104"/>
</g>
<!-- IndexedSeq -->
<g id="node37" class="node"><title>IndexedSeq</title>
<path fill="#6dc6e6" stroke="#6dc6e6" d="M906,-252C906,-252 850,-252 850,-252 844,-252 838,-246 838,-240 838,-240 838,-228 838,-228 838,-222 844,-216 850,-216 850,-216 906,-216 906,-216 912,-216 918,-222 918,-228 918,-228 918,-240 918,-240 918,-246 912,-252 906,-252"/>
<text text-anchor="middle" x="878" y="-230.3" font-family="Times,serif" font-size="14.00" fill="#ffffff">IndexedSeq</text>
</g>
<!-- Seq&#45;&gt;IndexedSeq -->
<g id="edge24" class="edge"><title>Seq&#45;&gt;IndexedSeq</title>
<path fill="none" stroke="#7f7f7f" stroke-width="4" d="M778.245,-289.983C795.611,-280.412 818.417,-267.841 837.839,-257.136"/>
<polygon fill="#7f7f7f" stroke="#7f7f7f" stroke-width="4" points="839.709,-260.102 846.777,-252.209 836.33,-253.971 839.709,-260.102"/>
</g>
<!-- Buffer -->
<g id="node38" class="node"><title>Buffer</title>
<path fill="#6dc6e6" stroke="#6dc6e6" d="M1064,-252C1064,-252 1034,-252 1034,-252 1028,-252 1022,-246 1022,-240 1022,-240 1022,-228 1022,-228 1022,-222 1028,-216 1034,-216 1034,-216 1064,-216 1064,-216 1070,-216 1076,-222 1076,-228 1076,-228 1076,-240 1076,-240 1076,-246 1070,-252 1064,-252"/>
<text text-anchor="middle" x="1049" y="-230.3" font-family="Times,serif" font-size="14.00" fill="#ffffff">Buffer</text>
</g>
<!-- Seq&#45;&gt;Buffer -->
<g id="edge25" class="edge"><title>Seq&#45;&gt;Buffer</title>
<path fill="none" stroke="#7f7f7f" d="M778.236,-298.602C831.886,-286 951.294,-257.951 1012.01,-243.689"/>
<polygon fill="#7f7f7f" stroke="#7f7f7f" points="1013,-247.052 1021.94,-241.357 1011.4,-240.237 1013,-247.052"/>
</g>
<!-- Set&#45;&gt;HashSet -->
<g id="edge16" class="edge"><title>Set&#45;&gt;HashSet</title>
<path fill="none" stroke="#7f7f7f" stroke-width="4" d="M997.721,-441.722C964.868,-432.745 907.896,-416.504 850.841,-396.127"/>
<polygon fill="#7f7f7f" stroke="#7f7f7f" stroke-width="4" points="851.91,-392.792 841.316,-392.686 849.532,-399.376 851.91,-392.792"/>
</g>
<!-- Set&#45;&gt;ImmutableSetAdaptor -->
<g id="edge18" class="edge"><title>Set&#45;&gt;ImmutableSetAdaptor</title>
<path fill="none" stroke="#7f7f7f" d="M1001.02,-431.697C988.689,-422.796 973.484,-411.823 960.147,-402.199"/>
<polygon fill="#7f7f7f" stroke="#7f7f7f" points="961.859,-399.118 951.702,-396.104 957.763,-404.794 961.859,-399.118"/>
</g>
<!-- Set&#45;&gt;LinkedHashSet -->
<g id="edge19" class="edge"><title>Set&#45;&gt;LinkedHashSet</title>
<path fill="none" stroke="#7f7f7f" d="M1022.11,-431.747C1018.9,-413.675 1013.21,-384.559 1006,-360 1003.48,-351.413 1000.22,-342.234 997.073,-333.968"/>
<polygon fill="#7f7f7f" stroke="#7f7f7f" points="1000.25,-332.475 993.34,-324.441 993.729,-335.029 1000.25,-332.475"/>
</g>
<!-- ObservableSet -->
<g id="node32" class="node"><title>ObservableSet</title>
<path fill="#6dc6e6" stroke="#6dc6e6" d="M1137.5,-324C1137.5,-324 1066.5,-324 1066.5,-324 1060.5,-324 1054.5,-318 1054.5,-312 1054.5,-312 1054.5,-300 1054.5,-300 1054.5,-294 1060.5,-288 1066.5,-288 1066.5,-288 1137.5,-288 1137.5,-288 1143.5,-288 1149.5,-294 1149.5,-300 1149.5,-300 1149.5,-312 1149.5,-312 1149.5,-318 1143.5,-324 1137.5,-324"/>
<text text-anchor="middle" x="1102" y="-302.3" font-family="Times,serif" font-size="14.00" fill="#ffffff">ObservableSet</text>
</g>
<!-- Set&#45;&gt;ObservableSet -->
<g id="edge17" class="edge"><title>Set&#45;&gt;ObservableSet</title>
<path fill="none" stroke="#7f7f7f" d="M1034.29,-431.871C1047.58,-407.35 1072.16,-362.032 1087.76,-333.259"/>
<polygon fill="#7f7f7f" stroke="#7f7f7f" points="1090.99,-334.648 1092.68,-324.189 1084.84,-331.312 1090.99,-334.648"/>
</g>
<!-- SynchronizedSet -->
<g id="node33" class="node"><title>SynchronizedSet</title>
<path fill="#6dc6e6" stroke="#6dc6e6" d="M1187,-396C1187,-396 1103,-396 1103,-396 1097,-396 1091,-390 1091,-384 1091,-384 1091,-372 1091,-372 1091,-366 1097,-360 1103,-360 1103,-360 1187,-360 1187,-360 1193,-360 1199,-366 1199,-372 1199,-372 1199,-384 1199,-384 1199,-390 1193,-396 1187,-396"/>
<text text-anchor="middle" x="1145" y="-374.3" font-family="Times,serif" font-size="14.00" fill="#ffffff">SynchronizedSet</text>
</g>
<!-- Set&#45;&gt;SynchronizedSet -->
<g id="edge20" class="edge"><title>Set&#45;&gt;SynchronizedSet</title>
<path fill="none" stroke="#7f7f7f" d="M1052.23,-433.116C1068.36,-423.704 1089.06,-411.632 1106.81,-401.278"/>
<polygon fill="#7f7f7f" stroke="#7f7f7f" points="1108.91,-404.106 1115.78,-396.044 1105.38,-398.06 1108.91,-404.106"/>
</g>
<!-- SortedSet -->
<g id="node34" class="node"><title>SortedSet</title>
<path fill="#6dc6e6" stroke="#6dc6e6" d="M1274.5,-396C1274.5,-396 1229.5,-396 1229.5,-396 1223.5,-396 1217.5,-390 1217.5,-384 1217.5,-384 1217.5,-372 1217.5,-372 1217.5,-366 1223.5,-360 1229.5,-360 1229.5,-360 1274.5,-360 1274.5,-360 1280.5,-360 1286.5,-366 1286.5,-372 1286.5,-372 1286.5,-384 1286.5,-384 1286.5,-390 1280.5,-396 1274.5,-396"/>
<text text-anchor="middle" x="1252" y="-374.3" font-family="Times,serif" font-size="14.00" fill="#ffffff">SortedSet</text>
</g>
<!-- Set&#45;&gt;SortedSet -->
<g id="edge21" class="edge"><title>Set&#45;&gt;SortedSet</title>
<path fill="none" stroke="#7f7f7f" d="M1052.2,-441.914C1086.32,-432.855 1146.77,-416.245 1207.32,-396.089"/>
<polygon fill="#7f7f7f" stroke="#7f7f7f" points="1208.67,-399.327 1217.04,-392.824 1206.44,-392.692 1208.67,-399.327"/>
</g>
<!-- BitSet -->
<g id="node35" class="node"><title>BitSet</title>
<path fill="#6dc6e6" stroke="#6dc6e6" d="M1267,-324C1267,-324 1237,-324 1237,-324 1231,-324 1225,-318 1225,-312 1225,-312 1225,-300 1225,-300 1225,-294 1231,-288 1237,-288 1237,-288 1267,-288 1267,-288 1273,-288 1279,-294 1279,-300 1279,-300 1279,-312 1279,-312 1279,-318 1273,-324 1267,-324"/>
<text text-anchor="middle" x="1252" y="-302.3" font-family="Times,serif" font-size="14.00" fill="#ffffff">BitSet</text>
</g>
<!-- SortedSet&#45;&gt;BitSet -->
<g id="edge22" class="edge"><title>SortedSet&#45;&gt;BitSet</title>
<path fill="none" stroke="#7f7f7f" d="M1252,-359.697C1252,-351.983 1252,-342.712 1252,-334.112"/>
<polygon fill="#7f7f7f" stroke="#7f7f7f" points="1255.5,-334.104 1252,-324.104 1248.5,-334.104 1255.5,-334.104"/>
</g>
<!-- LinearSeq&#45;&gt;MutableList -->
<g id="edge28" class="edge"><title>LinearSeq&#45;&gt;MutableList</title>
<path fill="none" stroke="#7f7f7f" stroke-width="4" d="M719.198,-215.876C701.886,-206.554 680.279,-194.919 661.744,-184.939"/>
<polygon fill="#7f7f7f" stroke="#7f7f7f" stroke-width="4" points="663.388,-181.849 652.924,-180.19 660.069,-188.012 663.388,-181.849"/>
</g>
<!-- LinearSeq&#45;&gt;LinkedList -->
<g id="edge29" class="edge"><title>LinearSeq&#45;&gt;LinkedList</title>
<path fill="none" stroke="#7f7f7f" d="M743.09,-215.697C739.447,-207.728 735.046,-198.1 731.006,-189.264"/>
<polygon fill="#7f7f7f" stroke="#7f7f7f" points="734.16,-187.744 726.819,-180.104 727.794,-190.654 734.16,-187.744"/>
</g>
<!-- LinearSeq&#45;&gt;DoubleLinkedList -->
<g id="edge30" class="edge"><title>LinearSeq&#45;&gt;DoubleLinkedList</title>
<path fill="none" stroke="#7f7f7f" d="M756.15,-215.89C759.187,-205.545 763.008,-192.066 766,-180 771.101,-159.427 776.074,-135.975 779.652,-118.311"/>
<polygon fill="#7f7f7f" stroke="#7f7f7f" points="783.157,-118.631 781.688,-108.138 776.293,-117.257 783.157,-118.631"/>
</g>
<!-- IndexedSeq&#45;&gt;ArraySeq -->
<g id="edge31" class="edge"><title>IndexedSeq&#45;&gt;ArraySeq</title>
<path fill="none" stroke="#7f7f7f" d="M870.337,-215.697C866.808,-207.728 862.544,-198.1 858.631,-189.264"/>
<polygon fill="#7f7f7f" stroke="#7f7f7f" points="861.824,-187.831 854.575,-180.104 855.424,-190.665 861.824,-187.831"/>
</g>
<!-- IndexedSeq&#45;&gt;ArrayBuffer -->
<g id="edge33" class="edge"><title>IndexedSeq&#45;&gt;ArrayBuffer</title>
<path fill="none" stroke="#7f7f7f" stroke-width="4" d="M902.707,-215.876C915.669,-206.893 931.728,-195.763 945.765,-186.034"/>
<polygon fill="#7f7f7f" stroke="#7f7f7f" stroke-width="4" points="947.972,-188.763 954.198,-180.19 943.985,-183.009 947.972,-188.763"/>
</g>
<!-- IndexedSeq&#45;&gt;StringBuilder -->
<g id="edge32" class="edge"><title>IndexedSeq&#45;&gt;StringBuilder</title>
<path fill="none" stroke="#7f7f7f" d="M881.945,-215.826C884.312,-205.458 887.365,-191.978 890,-180 894.553,-159.299 899.552,-135.853 903.279,-118.224"/>
<polygon fill="#7f7f7f" stroke="#7f7f7f" points="906.78,-118.583 905.42,-108.075 899.931,-117.138 906.78,-118.583"/>
</g>
<!-- Buffer&#45;&gt;ArrayBuffer -->
<g id="edge34" class="edge"><title>Buffer&#45;&gt;ArrayBuffer</title>
<path fill="none" stroke="#7f7f7f" stroke-width="4" d="M1031.7,-215.697C1023.14,-207.135 1012.66,-196.656 1003.3,-187.304"/>
<polygon fill="#7f7f7f" stroke="#7f7f7f" stroke-width="4" points="1005.65,-184.701 996.104,-180.104 1000.7,-189.65 1005.65,-184.701"/>
</g>
<!-- Buffer&#45;&gt;ListBuffer -->
<g id="edge37" class="edge"><title>Buffer&#45;&gt;ListBuffer</title>
<path fill="none" stroke="#7f7f7f" d="M1046.59,-215.871C1043.18,-191.67 1036.92,-147.211 1032.86,-118.393"/>
<polygon fill="#7f7f7f" stroke="#7f7f7f" points="1036.28,-117.603 1031.42,-108.189 1029.35,-118.58 1036.28,-117.603"/>
</g>
<!-- ObservableBuffer -->
<g id="node39" class="node"><title>ObservableBuffer</title>
<path fill="#6dc6e6" stroke="#6dc6e6" d="M1184.5,-108C1184.5,-108 1095.5,-108 1095.5,-108 1089.5,-108 1083.5,-102 1083.5,-96 1083.5,-96 1083.5,-84 1083.5,-84 1083.5,-78 1089.5,-72 1095.5,-72 1095.5,-72 1184.5,-72 1184.5,-72 1190.5,-72 1196.5,-78 1196.5,-84 1196.5,-84 1196.5,-96 1196.5,-96 1196.5,-102 1190.5,-108 1184.5,-108"/>
<text text-anchor="middle" x="1140" y="-86.3" font-family="Times,serif" font-size="14.00" fill="#ffffff">ObservableBuffer</text>
</g>
<!-- Buffer&#45;&gt;ObservableBuffer -->
<g id="edge35" class="edge"><title>Buffer&#45;&gt;ObservableBuffer</title>
<path fill="none" stroke="#7f7f7f" d="M1059.98,-215.871C1075.76,-191.244 1104.99,-145.638 1123.41,-116.885"/>
<polygon fill="#7f7f7f" stroke="#7f7f7f" points="1126.54,-118.497 1128.98,-108.189 1120.64,-114.72 1126.54,-118.497"/>
</g>
<!-- SynchronizedBuffer -->
<g id="node40" class="node"><title>SynchronizedBuffer</title>
<path fill="#6dc6e6" stroke="#6dc6e6" d="M1256,-180C1256,-180 1154,-180 1154,-180 1148,-180 1142,-174 1142,-168 1142,-168 1142,-156 1142,-156 1142,-150 1148,-144 1154,-144 1154,-144 1256,-144 1256,-144 1262,-144 1268,-150 1268,-156 1268,-156 1268,-168 1268,-168 1268,-174 1262,-180 1256,-180"/>
<text text-anchor="middle" x="1205" y="-158.3" font-family="Times,serif" font-size="14.00" fill="#ffffff">SynchronizedBuffer</text>
</g>
<!-- Buffer&#45;&gt;SynchronizedBuffer -->
<g id="edge36" class="edge"><title>Buffer&#45;&gt;SynchronizedBuffer</title>
<path fill="none" stroke="#7f7f7f" d="M1076.17,-220.807C1098.66,-210.716 1131.14,-196.144 1157.85,-184.156"/>
<polygon fill="#7f7f7f" stroke="#7f7f7f" points="1159.35,-187.322 1167.04,-180.034 1156.48,-180.935 1159.35,-187.322"/>
</g>
<!-- Queue&#45;&gt;SynchronizedQueue -->
<g id="edge41" class="edge"><title>Queue&#45;&gt;SynchronizedQueue</title>
<path fill="none" stroke="#7f7f7f" d="M621,-71.6966C621,-63.9827 621,-54.7125 621,-46.1124"/>
<polygon fill="#7f7f7f" stroke="#7f7f7f" points="624.5,-46.1043 621,-36.1043 617.5,-46.1044 624.5,-46.1043"/>
</g>
</g>
</svg>
