<?xml version="1.0" encoding="UTF-8" standalone="no"?>
<!DOCTYPE svg PUBLIC "-//W3C//DTD SVG 1.1//EN"
 "http://www.w3.org/Graphics/SVG/1.1/DTD/svg11.dtd">
<!-- Generated by graphviz version 2.38.0 (20140413.2041)
 -->
<!-- Title: ImmutableCollections Pages: 1 -->
<svg width="615pt" height="476pt"
 viewBox="0.00 0.00 614.50 476.00" xmlns="http://www.w3.org/2000/svg" xmlns:xlink="http://www.w3.org/1999/xlink">
<g id="graph0" class="graph" transform="scale(1 1) rotate(0) translate(4 472)">
<title>ImmutableCollections</title>
<polygon fill="white" stroke="none" points="-4,4 -4,-472 610.5,-472 610.5,4 -4,4"/>
<!-- HashSet -->
<g id="node1" class="node"><title>HashSet</title>
<path fill="#4a5659" stroke="#4a5659" d="M113,-252C113,-252 74,-252 74,-252 68,-252 62,-246 62,-240 62,-240 62,-228 62,-228 62,-222 68,-216 74,-216 74,-216 113,-216 113,-216 119,-216 125,-222 125,-228 125,-228 125,-240 125,-240 125,-246 119,-252 113,-252"/>
<text text-anchor="middle" x="93.5" y="-230.3" font-family="Times New Roman,serif" font-size="14.00" fill="#ffffff">HashSet</text>
</g>
<!-- TreeSet -->
<g id="node2" class="node"><title>TreeSet</title>
<path fill="#4a5659" stroke="#4a5659" d="M196.5,-180C196.5,-180 160.5,-180 160.5,-180 154.5,-180 148.5,-174 148.5,-168 148.5,-168 148.5,-156 148.5,-156 148.5,-150 154.5,-144 160.5,-144 160.5,-144 196.5,-144 196.5,-144 202.5,-144 208.5,-150 208.5,-156 208.5,-156 208.5,-168 208.5,-168 208.5,-174 202.5,-180 196.5,-180"/>
<text text-anchor="middle" x="178.5" y="-158.3" font-family="Times New Roman,serif" font-size="14.00" fill="#ffffff">TreeSet</text>
</g>
<!-- ListSet -->
<g id="node3" class="node"><title>ListSet</title>
<path fill="#4a5659" stroke="#4a5659" d="M187.5,-252C187.5,-252 155.5,-252 155.5,-252 149.5,-252 143.5,-246 143.5,-240 143.5,-240 143.5,-228 143.5,-228 143.5,-222 149.5,-216 155.5,-216 155.5,-216 187.5,-216 187.5,-216 193.5,-216 199.5,-222 199.5,-228 199.5,-228 199.5,-240 199.5,-240 199.5,-246 193.5,-252 187.5,-252"/>
<text text-anchor="middle" x="171.5" y="-230.3" font-family="Times New Roman,serif" font-size="14.00" fill="#ffffff">ListSet</text>
</g>
<!-- HashMap -->
<g id="node4" class="node"><title>HashMap</title>
<path fill="#4a5659" stroke="#4a5659" d="M409,-252C409,-252 362,-252 362,-252 356,-252 350,-246 350,-240 350,-240 350,-228 350,-228 350,-222 356,-216 362,-216 362,-216 409,-216 409,-216 415,-216 421,-222 421,-228 421,-228 421,-240 421,-240 421,-246 415,-252 409,-252"/>
<text text-anchor="middle" x="385.5" y="-230.3" font-family="Times New Roman,serif" font-size="14.00" fill="#ffffff">HashMap</text>
</g>
<!-- TreeMap -->
<g id="node5" class="node"><title>TreeMap</title>
<path fill="#4a5659" stroke="#4a5659" d="M582.5,-180C582.5,-180 538.5,-180 538.5,-180 532.5,-180 526.5,-174 526.5,-168 526.5,-168 526.5,-156 526.5,-156 526.5,-150 532.5,-144 538.5,-144 538.5,-144 582.5,-144 582.5,-144 588.5,-144 594.5,-150 594.5,-156 594.5,-156 594.5,-168 594.5,-168 594.5,-174 588.5,-180 582.5,-180"/>
<text text-anchor="middle" x="560.5" y="-158.3" font-family="Times New Roman,serif" font-size="14.00" fill="#ffffff">TreeMap</text>
</g>
<!-- ListMap -->
<g id="node6" class="node"><title>ListMap</title>
<path fill="#4a5659" stroke="#4a5659" d="M490,-252C490,-252 451,-252 451,-252 445,-252 439,-246 439,-240 439,-240 439,-228 439,-228 439,-222 445,-216 451,-216 451,-216 490,-216 490,-216 496,-216 502,-222 502,-228 502,-228 502,-240 502,-240 502,-246 496,-252 490,-252"/>
<text text-anchor="middle" x="470.5" y="-230.3" font-family="Times New Roman,serif" font-size="14.00" fill="#ffffff">ListMap</text>
</g>
<!-- Vector -->
<g id="node7" class="node"><title>Vector</title>
<path fill="#4a5659" stroke="#4a5659" d="M43,-36C43,-36 12,-36 12,-36 6,-36 0,-30 0,-24 0,-24 0,-12 0,-12 0,-6 6,-0 12,-0 12,-0 43,-0 43,-0 49,-0 55,-6 55,-12 55,-12 55,-24 55,-24 55,-30 49,-36 43,-36"/>
<text text-anchor="middle" x="27.5" y="-14.3" font-family="Times New Roman,serif" font-size="14.00" fill="#ffffff">Vector</text>
</g>
<!-- NumericRange -->
<g id="node8" class="node"><title>NumericRange</title>
<path fill="#4a5659" stroke="#4a5659" d="M160,-36C160,-36 85,-36 85,-36 79,-36 73,-30 73,-24 73,-24 73,-12 73,-12 73,-6 79,-0 85,-0 85,-0 160,-0 160,-0 166,-0 172,-6 172,-12 172,-12 172,-24 172,-24 172,-30 166,-36 160,-36"/>
<text text-anchor="middle" x="122.5" y="-14.3" font-family="Times New Roman,serif" font-size="14.00" fill="#ffffff">NumericRange</text>
</g>
<!-- String -->
<g id="node9" class="node"><title>String</title>
<path fill="#4a5659" stroke="#4a5659" d="M232.5,-36C232.5,-36 202.5,-36 202.5,-36 196.5,-36 190.5,-30 190.5,-24 190.5,-24 190.5,-12 190.5,-12 190.5,-6 196.5,-0 202.5,-0 202.5,-0 232.5,-0 232.5,-0 238.5,-0 244.5,-6 244.5,-12 244.5,-12 244.5,-24 244.5,-24 244.5,-30 238.5,-36 232.5,-36"/>
<text text-anchor="middle" x="217.5" y="-14.3" font-family="Times New Roman,serif" font-size="14.00" fill="#ffffff">String</text>
</g>
<!-- Range -->
<g id="node10" class="node"><title>Range</title>
<path fill="#4a5659" stroke="#4a5659" d="M304.5,-36C304.5,-36 274.5,-36 274.5,-36 268.5,-36 262.5,-30 262.5,-24 262.5,-24 262.5,-12 262.5,-12 262.5,-6 268.5,-0 274.5,-0 274.5,-0 304.5,-0 304.5,-0 310.5,-0 316.5,-6 316.5,-12 316.5,-12 316.5,-24 316.5,-24 316.5,-30 310.5,-36 304.5,-36"/>
<text text-anchor="middle" x="289.5" y="-14.3" font-family="Times New Roman,serif" font-size="14.00" fill="#ffffff">Range</text>
</g>
<!-- List -->
<g id="node11" class="node"><title>List</title>
<path fill="#4a5659" stroke="#4a5659" d="M376.5,-36C376.5,-36 346.5,-36 346.5,-36 340.5,-36 334.5,-30 334.5,-24 334.5,-24 334.5,-12 334.5,-12 334.5,-6 340.5,-0 346.5,-0 346.5,-0 376.5,-0 376.5,-0 382.5,-0 388.5,-6 388.5,-12 388.5,-12 388.5,-24 388.5,-24 388.5,-30 382.5,-36 376.5,-36"/>
<text text-anchor="middle" x="361.5" y="-14.3" font-family="Times New Roman,serif" font-size="14.00" fill="#ffffff">List</text>
</g>
<!-- Stack -->
<g id="node12" class="node"><title>Stack</title>
<path fill="#4a5659" stroke="#4a5659" d="M448.5,-36C448.5,-36 418.5,-36 418.5,-36 412.5,-36 406.5,-30 406.5,-24 406.5,-24 406.5,-12 406.5,-12 406.5,-6 412.5,-0 418.5,-0 418.5,-0 448.5,-0 448.5,-0 454.5,-0 460.5,-6 460.5,-12 460.5,-12 460.5,-24 460.5,-24 460.5,-30 454.5,-36 448.5,-36"/>
<text text-anchor="middle" x="433.5" y="-14.3" font-family="Times New Roman,serif" font-size="14.00" fill="#ffffff">Stack</text>
</g>
<!-- Stream -->
<g id="node13" class="node"><title>Stream</title>
<path fill="#4a5659" stroke="#4a5659" d="M522.5,-36C522.5,-36 490.5,-36 490.5,-36 484.5,-36 478.5,-30 478.5,-24 478.5,-24 478.5,-12 478.5,-12 478.5,-6 484.5,-0 490.5,-0 490.5,-0 522.5,-0 522.5,-0 528.5,-0 534.5,-6 534.5,-12 534.5,-12 534.5,-24 534.5,-24 534.5,-30 528.5,-36 522.5,-36"/>
<text text-anchor="middle" x="506.5" y="-14.3" font-family="Times New Roman,serif" font-size="14.00" fill="#ffffff">Stream</text>
</g>
<!-- Queue -->
<g id="node14" class="node"><title>Queue</title>
<path fill="#4a5659" stroke="#4a5659" d="M594.5,-36C594.5,-36 564.5,-36 564.5,-36 558.5,-36 552.5,-30 552.5,-24 552.5,-24 552.5,-12 552.5,-12 552.5,-6 558.5,-0 564.5,-0 564.5,-0 594.5,-0 594.5,-0 600.5,-0 606.5,-6 606.5,-12 606.5,-12 606.5,-24 606.5,-24 606.5,-30 600.5,-36 594.5,-36"/>
<text text-anchor="middle" x="579.5" y="-14.3" font-family="Times New Roman,serif" font-size="14.00" fill="#ffffff">Queue</text>
</g>
<!-- Traversable -->
<g id="node15" class="node"><title>Traversable</title>
<path fill="#6dc6e6" stroke="#6dc6e6" d="M350.5,-468C350.5,-468 292.5,-468 292.5,-468 286.5,-468 280.5,-462 280.5,-456 280.5,-456 280.5,-444 280.5,-444 280.5,-438 286.5,-432 292.5,-432 292.5,-432 350.5,-432 350.5,-432 356.5,-432 362.5,-438 362.5,-444 362.5,-444 362.5,-456 362.5,-456 362.5,-462 356.5,-468 350.5,-468"/>
<text text-anchor="middle" x="321.5" y="-446.3" font-family="Times New Roman,serif" font-size="14.00" fill="#ffffff">Traversable</text>
</g>
<!-- Iterable -->
<g id="node16" class="node"><title>Iterable</title>
<path fill="#6dc6e6" stroke="#6dc6e6" d="M338.5,-396C338.5,-396 304.5,-396 304.5,-396 298.5,-396 292.5,-390 292.5,-384 292.5,-384 292.5,-372 292.5,-372 292.5,-366 298.5,-360 304.5,-360 304.5,-360 338.5,-360 338.5,-360 344.5,-360 350.5,-366 350.5,-372 350.5,-372 350.5,-384 350.5,-384 350.5,-390 344.5,-396 338.5,-396"/>
<text text-anchor="middle" x="321.5" y="-374.3" font-family="Times New Roman,serif" font-size="14.00" fill="#ffffff">Iterable</text>
</g>
<!-- Traversable&#45;&gt;Iterable -->
<g id="edge1" class="edge"><title>Traversable&#45;&gt;Iterable</title>
<path fill="none" stroke="#7f7f7f" stroke-width="4" d="M321.5,-431.697C321.5,-423.983 321.5,-414.712 321.5,-406.112"/>
<polygon fill="#7f7f7f" stroke="#7f7f7f" stroke-width="4" points="325,-406.104 321.5,-396.104 318,-406.104 325,-406.104"/>
</g>
<!-- Set -->
<g id="node17" class="node"><title>Set</title>
<path fill="#6dc6e6" stroke="#6dc6e6" d="M227.5,-324C227.5,-324 197.5,-324 197.5,-324 191.5,-324 185.5,-318 185.5,-312 185.5,-312 185.5,-300 185.5,-300 185.5,-294 191.5,-288 197.5,-288 197.5,-288 227.5,-288 227.5,-288 233.5,-288 239.5,-294 239.5,-300 239.5,-300 239.5,-312 239.5,-312 239.5,-318 233.5,-324 227.5,-324"/>
<text text-anchor="middle" x="212.5" y="-302.3" font-family="Times New Roman,serif" font-size="14.00" fill="#ffffff">Set</text>
</g>
<!-- Iterable&#45;&gt;Set -->
<g id="edge2" class="edge"><title>Iterable&#45;&gt;Set</title>
<path fill="none" stroke="#7f7f7f" d="M294.836,-359.876C280.716,-350.808 263.189,-339.552 247.939,-329.759"/>
<polygon fill="#7f7f7f" stroke="#7f7f7f" points="249.573,-326.648 239.267,-324.19 245.79,-332.538 249.573,-326.648"/>
</g>
<!-- Seq -->
<g id="node18" class="node"><title>Seq</title>
<path fill="#6dc6e6" stroke="#6dc6e6" d="M340.5,-180C340.5,-180 310.5,-180 310.5,-180 304.5,-180 298.5,-174 298.5,-168 298.5,-168 298.5,-156 298.5,-156 298.5,-150 304.5,-144 310.5,-144 310.5,-144 340.5,-144 340.5,-144 346.5,-144 352.5,-150 352.5,-156 352.5,-156 352.5,-168 352.5,-168 352.5,-174 346.5,-180 340.5,-180"/>
<text text-anchor="middle" x="325.5" y="-158.3" font-family="Times New Roman,serif" font-size="14.00" fill="#ffffff">Seq</text>
</g>
<!-- Iterable&#45;&gt;Seq -->
<g id="edge3" class="edge"><title>Iterable&#45;&gt;Seq</title>
<path fill="none" stroke="#7f7f7f" stroke-width="4" d="M321.821,-359.849C322.512,-322.832 324.151,-235.181 324.988,-190.386"/>
<polygon fill="#7f7f7f" stroke="#7f7f7f" stroke-width="4" points="328.49,-190.296 325.178,-180.232 321.492,-190.165 328.49,-190.296"/>
</g>
<!-- Map -->
<g id="node19" class="node"><title>Map</title>
<path fill="#6dc6e6" stroke="#6dc6e6" d="M442.5,-324C442.5,-324 412.5,-324 412.5,-324 406.5,-324 400.5,-318 400.5,-312 400.5,-312 400.5,-300 400.5,-300 400.5,-294 406.5,-288 412.5,-288 412.5,-288 442.5,-288 442.5,-288 448.5,-288 454.5,-294 454.5,-300 454.5,-300 454.5,-312 454.5,-312 454.5,-318 448.5,-324 442.5,-324"/>
<text text-anchor="middle" x="427.5" y="-302.3" font-family="Times New Roman,serif" font-size="14.00" fill="#ffffff">Map</text>
</g>
<!-- Iterable&#45;&gt;Map -->
<g id="edge4" class="edge"><title>Iterable&#45;&gt;Map</title>
<path fill="none" stroke="#7f7f7f" d="M347.431,-359.876C361.162,-350.808 378.206,-339.552 393.036,-329.759"/>
<polygon fill="#7f7f7f" stroke="#7f7f7f" points="395.054,-332.621 401.47,-324.19 391.196,-326.78 395.054,-332.621"/>
</g>
<!-- Set&#45;&gt;HashSet -->
<g id="edge6" class="edge"><title>Set&#45;&gt;HashSet</title>
<path fill="none" stroke="#7f7f7f" stroke-width="4" d="M185.497,-289.116C169.497,-279.704 148.974,-267.632 131.373,-257.278"/>
<polygon fill="#7f7f7f" stroke="#7f7f7f" stroke-width="4" points="132.869,-254.098 122.475,-252.044 129.32,-260.131 132.869,-254.098"/>
</g>
<!-- Set&#45;&gt;ListSet -->
<g id="edge7" class="edge"><title>Set&#45;&gt;ListSet</title>
<path fill="none" stroke="#7f7f7f" d="M202.365,-287.697C197.648,-279.644 191.938,-269.894 186.718,-260.982"/>
<polygon fill="#7f7f7f" stroke="#7f7f7f" points="189.592,-258.964 181.518,-252.104 183.552,-262.502 189.592,-258.964"/>
</g>
<!-- SortedSet -->
<g id="node20" class="node"><title>SortedSet</title>
<path fill="#6dc6e6" stroke="#6dc6e6" d="M277.5,-252C277.5,-252 229.5,-252 229.5,-252 223.5,-252 217.5,-246 217.5,-240 217.5,-240 217.5,-228 217.5,-228 217.5,-222 223.5,-216 229.5,-216 229.5,-216 277.5,-216 277.5,-216 283.5,-216 289.5,-222 289.5,-228 289.5,-228 289.5,-240 289.5,-240 289.5,-246 283.5,-252 277.5,-252"/>
<text text-anchor="middle" x="253.5" y="-230.3" font-family="Times New Roman,serif" font-size="14.00" fill="#ffffff">SortedSet</text>
</g>
<!-- Set&#45;&gt;SortedSet -->
<g id="edge5" class="edge"><title>Set&#45;&gt;SortedSet</title>
<path fill="none" stroke="#7f7f7f" d="M222.635,-287.697C227.352,-279.644 233.062,-269.894 238.282,-260.982"/>
<polygon fill="#7f7f7f" stroke="#7f7f7f" points="241.448,-262.502 243.482,-252.104 235.408,-258.964 241.448,-262.502"/>
</g>
<!-- IndexedSeq -->
<g id="node22" class="node"><title>IndexedSeq</title>
<path fill="#6dc6e6" stroke="#6dc6e6" d="M247,-108C247,-108 188,-108 188,-108 182,-108 176,-102 176,-96 176,-96 176,-84 176,-84 176,-78 182,-72 188,-72 188,-72 247,-72 247,-72 253,-72 259,-78 259,-84 259,-84 259,-96 259,-96 259,-102 253,-108 247,-108"/>
<text text-anchor="middle" x="217.5" y="-86.3" font-family="Times New Roman,serif" font-size="14.00" fill="#ffffff">IndexedSeq</text>
</g>
<!-- Seq&#45;&gt;IndexedSeq -->
<g id="edge10" class="edge"><title>Seq&#45;&gt;IndexedSeq</title>
<path fill="none" stroke="#7f7f7f" d="M299.08,-143.876C285.09,-134.808 267.724,-123.552 252.614,-113.759"/>
<polygon fill="#7f7f7f" stroke="#7f7f7f" points="254.317,-110.692 244.021,-108.19 250.509,-116.566 254.317,-110.692"/>
</g>
<!-- LinearSeq -->
<g id="node23" class="node"><title>LinearSeq</title>
<path fill="#6dc6e6" stroke="#6dc6e6" d="M458,-108C458,-108 409,-108 409,-108 403,-108 397,-102 397,-96 397,-96 397,-84 397,-84 397,-78 403,-72 409,-72 409,-72 458,-72 458,-72 464,-72 470,-78 470,-84 470,-84 470,-96 470,-96 470,-102 464,-108 458,-108"/>
<text text-anchor="middle" x="433.5" y="-86.3" font-family="Times New Roman,serif" font-size="14.00" fill="#ffffff">LinearSeq</text>
</g>
<!-- Seq&#45;&gt;LinearSeq -->
<g id="edge11" class="edge"><title>Seq&#45;&gt;LinearSeq</title>
<path fill="none" stroke="#7f7f7f" stroke-width="4" d="M351.92,-143.876C365.91,-134.808 383.276,-123.552 398.386,-113.759"/>
<polygon fill="#7f7f7f" stroke="#7f7f7f" stroke-width="4" points="400.491,-116.566 406.979,-108.19 396.683,-110.692 400.491,-116.566"/>
</g>
<!-- Map&#45;&gt;HashMap -->
<g id="edge20" class="edge"><title>Map&#45;&gt;HashMap</title>
<path fill="none" stroke="#7f7f7f" stroke-width="4" d="M417.118,-287.697C412.235,-279.559 406.313,-269.689 400.921,-260.701"/>
<polygon fill="#7f7f7f" stroke="#7f7f7f" stroke-width="4" points="403.909,-258.879 395.763,-252.104 397.906,-262.48 403.909,-258.879"/>
</g>
<!-- Map&#45;&gt;ListMap -->
<g id="edge21" class="edge"><title>Map&#45;&gt;ListMap</title>
<path fill="none" stroke="#7f7f7f" d="M438.129,-287.697C443.128,-279.559 449.191,-269.689 454.712,-260.701"/>
<polygon fill="#7f7f7f" stroke="#7f7f7f" points="457.741,-262.457 459.993,-252.104 451.777,-258.793 457.741,-262.457"/>
</g>
<!-- SortedMap -->
<g id="node24" class="node"><title>SortedMap</title>
<path fill="#6dc6e6" stroke="#6dc6e6" d="M588.5,-252C588.5,-252 532.5,-252 532.5,-252 526.5,-252 520.5,-246 520.5,-240 520.5,-240 520.5,-228 520.5,-228 520.5,-222 526.5,-216 532.5,-216 532.5,-216 588.5,-216 588.5,-216 594.5,-216 600.5,-222 600.5,-228 600.5,-228 600.5,-240 600.5,-240 600.5,-246 594.5,-252 588.5,-252"/>
<text text-anchor="middle" x="560.5" y="-230.3" font-family="Times New Roman,serif" font-size="14.00" fill="#ffffff">SortedMap</text>
</g>
<!-- Map&#45;&gt;SortedMap -->
<g id="edge22" class="edge"><title>Map&#45;&gt;SortedMap</title>
<path fill="none" stroke="#7f7f7f" d="M454.735,-290.666C473.272,-280.91 498.149,-267.816 519.12,-256.779"/>
<polygon fill="#7f7f7f" stroke="#7f7f7f" points="520.921,-259.786 528.14,-252.032 517.661,-253.592 520.921,-259.786"/>
</g>
<!-- SortedSet&#45;&gt;TreeSet -->
<g id="edge9" class="edge"><title>SortedSet&#45;&gt;TreeSet</title>
<path fill="none" stroke="#7f7f7f" d="M234.961,-215.697C225.697,-207.05 214.338,-196.449 204.243,-187.027"/>
<polygon fill="#7f7f7f" stroke="#7f7f7f" points="206.525,-184.369 196.826,-180.104 201.749,-189.486 206.525,-184.369"/>
</g>
<!-- BitSet -->
<g id="node21" class="node"><title>BitSet</title>
<path fill="#6dc6e6" stroke="#6dc6e6" d="M268.5,-180C268.5,-180 238.5,-180 238.5,-180 232.5,-180 226.5,-174 226.5,-168 226.5,-168 226.5,-156 226.5,-156 226.5,-150 232.5,-144 238.5,-144 238.5,-144 268.5,-144 268.5,-144 274.5,-144 280.5,-150 280.5,-156 280.5,-156 280.5,-168 280.5,-168 280.5,-174 274.5,-180 268.5,-180"/>
<text text-anchor="middle" x="253.5" y="-158.3" font-family="Times New Roman,serif" font-size="14.00" fill="#ffffff">BitSet</text>
</g>
<!-- SortedSet&#45;&gt;BitSet -->
<g id="edge8" class="edge"><title>SortedSet&#45;&gt;BitSet</title>
<path fill="none" stroke="#7f7f7f" d="M253.5,-215.697C253.5,-207.983 253.5,-198.712 253.5,-190.112"/>
<polygon fill="#7f7f7f" stroke="#7f7f7f" points="257,-190.104 253.5,-180.104 250,-190.104 257,-190.104"/>
</g>
<!-- IndexedSeq&#45;&gt;Vector -->
<g id="edge12" class="edge"><title>IndexedSeq&#45;&gt;Vector</title>
<path fill="none" stroke="#7f7f7f" stroke-width="4" d="M175.866,-76.0418C146.753,-66.6741 106.865,-53.2295 64.6101,-36.2734"/>
<polygon fill="#7f7f7f" stroke="#7f7f7f" stroke-width="4" points="65.856,-33.0018 55.2738,-32.4844 63.2236,-39.488 65.856,-33.0018"/>
</g>
<!-- IndexedSeq&#45;&gt;NumericRange -->
<g id="edge13" class="edge"><title>IndexedSeq&#45;&gt;NumericRange</title>
<path fill="none" stroke="#7f7f7f" d="M194.017,-71.6966C181.937,-62.796 167.046,-51.8232 153.984,-42.1989"/>
<polygon fill="#7f7f7f" stroke="#7f7f7f" points="155.84,-39.2187 145.713,-36.1043 151.687,-44.8541 155.84,-39.2187"/>
</g>
<!-- IndexedSeq&#45;&gt;String -->
<g id="edge15" class="edge"><title>IndexedSeq&#45;&gt;String</title>
<path fill="none" stroke="#7f7f7f" stroke-dasharray="5,2" d="M217.5,-71.6966C217.5,-63.9827 217.5,-54.7125 217.5,-46.1124"/>
<polygon fill="#7f7f7f" stroke="#7f7f7f" points="221,-46.1043 217.5,-36.1043 214,-46.1044 221,-46.1043"/>
</g>
<!-- IndexedSeq&#45;&gt;Range -->
<g id="edge14" class="edge"><title>IndexedSeq&#45;&gt;Range</title>
<path fill="none" stroke="#7f7f7f" d="M235.298,-71.6966C244.104,-63.135 254.882,-52.6562 264.501,-43.3045"/>
<polygon fill="#7f7f7f" stroke="#7f7f7f" points="267.177,-45.5846 271.907,-36.1043 262.297,-40.5657 267.177,-45.5846"/>
</g>
<!-- LinearSeq&#45;&gt;List -->
<g id="edge16" class="edge"><title>LinearSeq&#45;&gt;List</title>
<path fill="none" stroke="#7f7f7f" stroke-width="4" d="M415.702,-71.6966C406.896,-63.135 396.118,-52.6562 386.499,-43.3045"/>
<polygon fill="#7f7f7f" stroke="#7f7f7f" stroke-width="4" points="388.703,-40.5657 379.093,-36.1043 383.823,-45.5846 388.703,-40.5657"/>
</g>
<!-- LinearSeq&#45;&gt;Stack -->
<g id="edge17" class="edge"><title>LinearSeq&#45;&gt;Stack</title>
<path fill="none" stroke="#7f7f7f" d="M433.5,-71.6966C433.5,-63.9827 433.5,-54.7125 433.5,-46.1124"/>
<polygon fill="#7f7f7f" stroke="#7f7f7f" points="437,-46.1043 433.5,-36.1043 430,-46.1044 437,-46.1043"/>
</g>
<!-- LinearSeq&#45;&gt;Stream -->
<g id="edge18" class="edge"><title>LinearSeq&#45;&gt;Stream</title>
<path fill="none" stroke="#7f7f7f" d="M451.545,-71.6966C460.562,-63.0503 471.618,-52.4486 481.443,-43.027"/>
<polygon fill="#7f7f7f" stroke="#7f7f7f" points="483.867,-45.5518 488.663,-36.1043 479.022,-40.4993 483.867,-45.5518"/>
</g>
<!-- LinearSeq&#45;&gt;Queue -->
<g id="edge19" class="edge"><title>LinearSeq&#45;&gt;Queue</title>
<path fill="none" stroke="#7f7f7f" d="M469.216,-71.8761C491.671,-61.1096 520.561,-47.2583 543.139,-36.4334"/>
<polygon fill="#7f7f7f" stroke="#7f7f7f" points="544.887,-39.4767 552.391,-31.9973 541.861,-33.1646 544.887,-39.4767"/>
</g>
<!-- SortedMap&#45;&gt;TreeMap -->
<g id="edge23" class="edge"><title>SortedMap&#45;&gt;TreeMap</title>
<path fill="none" stroke="#7f7f7f" d="M560.5,-215.697C560.5,-207.983 560.5,-198.712 560.5,-190.112"/>
<polygon fill="#7f7f7f" stroke="#7f7f7f" points="564,-190.104 560.5,-180.104 557,-190.104 564,-190.104"/>
</g>
</g>
</svg>
