<?xml version="1.0" encoding="UTF-8" standalone="no"?>
<!DOCTYPE svg PUBLIC "-//W3C//DTD SVG 1.1//EN"
 "http://www.w3.org/Graphics/SVG/1.1/DTD/svg11.dtd">
<!-- Generated by graphviz version 2.38.0 (20140413.2041)
 -->
<!-- Title: ImmutableCollections Pages: 1 -->
<svg width="739pt" height="404pt"
 viewBox="0.00 0.00 738.50 404.00" xmlns="http://www.w3.org/2000/svg" xmlns:xlink="http://www.w3.org/1999/xlink">
<g id="graph0" class="graph" transform="scale(1 1) rotate(0) translate(4 400)">
<title>ImmutableCollections</title>
<polygon fill="white" stroke="none" points="-4,4 -4,-400 734.5,-400 734.5,4 -4,4"/>
<!-- HashSet -->
<g id="node1" class="node"><title>HashSet</title>
<path fill="#4a5659" stroke="#4a5659" d="M157,-252C157,-252 119,-252 119,-252 113,-252 107,-246 107,-240 107,-240 107,-228 107,-228 107,-222 113,-216 119,-216 119,-216 157,-216 157,-216 163,-216 169,-222 169,-228 169,-228 169,-240 169,-240 169,-246 163,-252 157,-252"/>
<text text-anchor="middle" x="138" y="-230.3" font-family="Times,serif" font-size="14.00" fill="#ffffff">HashSet</text>
</g>
<!-- TreeSet -->
<g id="node2" class="node"><title>TreeSet</title>
<path fill="#4a5659" stroke="#4a5659" d="M237.5,-180C237.5,-180 202.5,-180 202.5,-180 196.5,-180 190.5,-174 190.5,-168 190.5,-168 190.5,-156 190.5,-156 190.5,-150 196.5,-144 202.5,-144 202.5,-144 237.5,-144 237.5,-144 243.5,-144 249.5,-150 249.5,-156 249.5,-156 249.5,-168 249.5,-168 249.5,-174 243.5,-180 237.5,-180"/>
<text text-anchor="middle" x="220" y="-158.3" font-family="Times,serif" font-size="14.00" fill="#ffffff">TreeSet</text>
</g>
<!-- ListSet -->
<g id="node3" class="node"><title>ListSet</title>
<path fill="#4a5659" stroke="#4a5659" d="M230.5,-252C230.5,-252 199.5,-252 199.5,-252 193.5,-252 187.5,-246 187.5,-240 187.5,-240 187.5,-228 187.5,-228 187.5,-222 193.5,-216 199.5,-216 199.5,-216 230.5,-216 230.5,-216 236.5,-216 242.5,-222 242.5,-228 242.5,-228 242.5,-240 242.5,-240 242.5,-246 236.5,-252 230.5,-252"/>
<text text-anchor="middle" x="215" y="-230.3" font-family="Times,serif" font-size="14.00" fill="#ffffff">ListSet</text>
</g>
<!-- HashMap -->
<g id="node4" class="node"><title>HashMap</title>
<path fill="#4a5659" stroke="#4a5659" d="M448,-252C448,-252 402,-252 402,-252 396,-252 390,-246 390,-240 390,-240 390,-228 390,-228 390,-222 396,-216 402,-216 402,-216 448,-216 448,-216 454,-216 460,-222 460,-228 460,-228 460,-240 460,-240 460,-246 454,-252 448,-252"/>
<text text-anchor="middle" x="425" y="-230.3" font-family="Times,serif" font-size="14.00" fill="#ffffff">HashMap</text>
</g>
<!-- TreeMap -->
<g id="node5" class="node"><title>TreeMap</title>
<path fill="#4a5659" stroke="#4a5659" d="M538.5,-180C538.5,-180 495.5,-180 495.5,-180 489.5,-180 483.5,-174 483.5,-168 483.5,-168 483.5,-156 483.5,-156 483.5,-150 489.5,-144 495.5,-144 495.5,-144 538.5,-144 538.5,-144 544.5,-144 550.5,-150 550.5,-156 550.5,-156 550.5,-168 550.5,-168 550.5,-174 544.5,-180 538.5,-180"/>
<text text-anchor="middle" x="517" y="-158.3" font-family="Times,serif" font-size="14.00" fill="#ffffff">TreeMap</text>
</g>
<!-- ListMap -->
<g id="node6" class="node"><title>ListMap</title>
<path fill="#4a5659" stroke="#4a5659" d="M621.5,-180C621.5,-180 582.5,-180 582.5,-180 576.5,-180 570.5,-174 570.5,-168 570.5,-168 570.5,-156 570.5,-156 570.5,-150 576.5,-144 582.5,-144 582.5,-144 621.5,-144 621.5,-144 627.5,-144 633.5,-150 633.5,-156 633.5,-156 633.5,-168 633.5,-168 633.5,-174 627.5,-180 621.5,-180"/>
<text text-anchor="middle" x="602" y="-158.3" font-family="Times,serif" font-size="14.00" fill="#ffffff">ListMap</text>
</g>
<!-- VectorMap -->
<g id="node7" class="node"><title>VectorMap</title>
<path fill="#4a5659" stroke="#4a5659" d="M718.5,-180C718.5,-180 663.5,-180 663.5,-180 657.5,-180 651.5,-174 651.5,-168 651.5,-168 651.5,-156 651.5,-156 651.5,-150 657.5,-144 663.5,-144 663.5,-144 718.5,-144 718.5,-144 724.5,-144 730.5,-150 730.5,-156 730.5,-156 730.5,-168 730.5,-168 730.5,-174 724.5,-180 718.5,-180"/>
<text text-anchor="middle" x="691" y="-158.3" font-family="Times,serif" font-size="14.00" fill="#ffffff">VectorMap</text>
</g>
<!-- Vector -->
<g id="node8" class="node"><title>Vector</title>
<path fill="#4a5659" stroke="#4a5659" d="M42,-36C42,-36 12,-36 12,-36 6,-36 0,-30 0,-24 0,-24 0,-12 0,-12 0,-6 6,-0 12,-0 12,-0 42,-0 42,-0 48,-0 54,-6 54,-12 54,-12 54,-24 54,-24 54,-30 48,-36 42,-36"/>
<text text-anchor="middle" x="27" y="-14.3" font-family="Times,serif" font-size="14.00" fill="#ffffff">Vector</text>
</g>
<!-- ArraySeq -->
<g id="node9" class="node"><title>ArraySeq</title>
<path fill="#4a5659" stroke="#4a5659" d="M128,-36C128,-36 84,-36 84,-36 78,-36 72,-30 72,-24 72,-24 72,-12 72,-12 72,-6 78,-0 84,-0 84,-0 128,-0 128,-0 134,-0 140,-6 140,-12 140,-12 140,-24 140,-24 140,-30 134,-36 128,-36"/>
<text text-anchor="middle" x="106" y="-14.3" font-family="Times,serif" font-size="14.00" fill="#ffffff">ArraySeq</text>
</g>
<!-- NumericRange -->
<g id="node10" class="node"><title>NumericRange</title>
<path fill="#4a5659" stroke="#4a5659" d="M245.5,-36C245.5,-36 170.5,-36 170.5,-36 164.5,-36 158.5,-30 158.5,-24 158.5,-24 158.5,-12 158.5,-12 158.5,-6 164.5,-0 170.5,-0 170.5,-0 245.5,-0 245.5,-0 251.5,-0 257.5,-6 257.5,-12 257.5,-12 257.5,-24 257.5,-24 257.5,-30 251.5,-36 245.5,-36"/>
<text text-anchor="middle" x="208" y="-14.3" font-family="Times,serif" font-size="14.00" fill="#ffffff">NumericRange</text>
</g>
<!-- String -->
<g id="node11" class="node"><title>String</title>
<path fill="#4a5659" stroke="#4a5659" d="M318,-36C318,-36 288,-36 288,-36 282,-36 276,-30 276,-24 276,-24 276,-12 276,-12 276,-6 282,-0 288,-0 288,-0 318,-0 318,-0 324,-0 330,-6 330,-12 330,-12 330,-24 330,-24 330,-30 324,-36 318,-36"/>
<text text-anchor="middle" x="303" y="-14.3" font-family="Times,serif" font-size="14.00" fill="#ffffff">String</text>
</g>
<!-- Range -->
<g id="node12" class="node"><title>Range</title>
<path fill="#4a5659" stroke="#4a5659" d="M390,-36C390,-36 360,-36 360,-36 354,-36 348,-30 348,-24 348,-24 348,-12 348,-12 348,-6 354,-0 360,-0 360,-0 390,-0 390,-0 396,-0 402,-6 402,-12 402,-12 402,-24 402,-24 402,-30 396,-36 390,-36"/>
<text text-anchor="middle" x="375" y="-14.3" font-family="Times,serif" font-size="14.00" fill="#ffffff">Range</text>
</g>
<!-- List -->
<g id="node13" class="node"><title>List</title>
<path fill="#4a5659" stroke="#4a5659" d="M462,-36C462,-36 432,-36 432,-36 426,-36 420,-30 420,-24 420,-24 420,-12 420,-12 420,-6 426,-0 432,-0 432,-0 462,-0 462,-0 468,-0 474,-6 474,-12 474,-12 474,-24 474,-24 474,-30 468,-36 462,-36"/>
<text text-anchor="middle" x="447" y="-14.3" font-family="Times,serif" font-size="14.00" fill="#ffffff">List</text>
</g>
<!-- LazyList -->
<g id="node14" class="node"><title>LazyList</title>
<path fill="#4a5659" stroke="#4a5659" d="M545.5,-36C545.5,-36 504.5,-36 504.5,-36 498.5,-36 492.5,-30 492.5,-24 492.5,-24 492.5,-12 492.5,-12 492.5,-6 498.5,-0 504.5,-0 504.5,-0 545.5,-0 545.5,-0 551.5,-0 557.5,-6 557.5,-12 557.5,-12 557.5,-24 557.5,-24 557.5,-30 551.5,-36 545.5,-36"/>
<text text-anchor="middle" x="525" y="-14.3" font-family="Times,serif" font-size="14.00" fill="#ffffff">LazyList</text>
</g>
<!-- Queue -->
<g id="node15" class="node"><title>Queue</title>
<path fill="#4a5659" stroke="#4a5659" d="M618,-36C618,-36 588,-36 588,-36 582,-36 576,-30 576,-24 576,-24 576,-12 576,-12 576,-6 582,-0 588,-0 588,-0 618,-0 618,-0 624,-0 630,-6 630,-12 630,-12 630,-24 630,-24 630,-30 624,-36 618,-36"/>
<text text-anchor="middle" x="603" y="-14.3" font-family="Times,serif" font-size="14.00" fill="#ffffff">Queue</text>
</g>
<!-- Iterable -->
<g id="node16" class="node"><title>Iterable</title>
<path fill="#6dc6e6" stroke="#6dc6e6" d="M379,-396C379,-396 345,-396 345,-396 339,-396 333,-390 333,-384 333,-384 333,-372 333,-372 333,-366 339,-360 345,-360 345,-360 379,-360 379,-360 385,-360 391,-366 391,-372 391,-372 391,-384 391,-384 391,-390 385,-396 379,-396"/>
<text text-anchor="middle" x="362" y="-374.3" font-family="Times,serif" font-size="14.00" fill="#ffffff">Iterable</text>
</g>
<!-- Set -->
<g id="node17" class="node"><title>Set</title>
<path fill="#6dc6e6" stroke="#6dc6e6" d="M270,-324C270,-324 240,-324 240,-324 234,-324 228,-318 228,-312 228,-312 228,-300 228,-300 228,-294 234,-288 240,-288 240,-288 270,-288 270,-288 276,-288 282,-294 282,-300 282,-300 282,-312 282,-312 282,-318 276,-324 270,-324"/>
<text text-anchor="middle" x="255" y="-302.3" font-family="Times,serif" font-size="14.00" fill="#ffffff">Set</text>
</g>
<!-- Iterable&#45;&gt;Set -->
<g id="edge1" class="edge"><title>Iterable&#45;&gt;Set</title>
<path fill="none" stroke="#7f7f7f" d="M335.825,-359.876C321.964,-350.808 304.759,-339.552 289.789,-329.759"/>
<polygon fill="#7f7f7f" stroke="#7f7f7f" points="291.56,-326.735 281.276,-324.19 287.728,-332.593 291.56,-326.735"/>
</g>
<!-- Seq -->
<g id="node18" class="node"><title>Seq</title>
<path fill="#6dc6e6" stroke="#6dc6e6" d="M382,-180C382,-180 352,-180 352,-180 346,-180 340,-174 340,-168 340,-168 340,-156 340,-156 340,-150 346,-144 352,-144 352,-144 382,-144 382,-144 388,-144 394,-150 394,-156 394,-156 394,-168 394,-168 394,-174 388,-180 382,-180"/>
<text text-anchor="middle" x="367" y="-158.3" font-family="Times,serif" font-size="14.00" fill="#ffffff">Seq</text>
</g>
<!-- Iterable&#45;&gt;Seq -->
<g id="edge2" class="edge"><title>Iterable&#45;&gt;Seq</title>
<path fill="none" stroke="#7f7f7f" stroke-width="4" d="M362.401,-359.849C363.266,-322.832 365.314,-235.181 366.36,-190.386"/>
<polygon fill="#7f7f7f" stroke="#7f7f7f" stroke-width="4" points="369.863,-190.312 366.597,-180.232 362.865,-190.148 369.863,-190.312"/>
</g>
<!-- Map -->
<g id="node19" class="node"><title>Map</title>
<path fill="#6dc6e6" stroke="#6dc6e6" d="M486,-324C486,-324 456,-324 456,-324 450,-324 444,-318 444,-312 444,-312 444,-300 444,-300 444,-294 450,-288 456,-288 456,-288 486,-288 486,-288 492,-288 498,-294 498,-300 498,-300 498,-312 498,-312 498,-318 492,-324 486,-324"/>
<text text-anchor="middle" x="471" y="-302.3" font-family="Times,serif" font-size="14.00" fill="#ffffff">Map</text>
</g>
<!-- Iterable&#45;&gt;Map -->
<g id="edge3" class="edge"><title>Iterable&#45;&gt;Map</title>
<path fill="none" stroke="#7f7f7f" d="M388.664,-359.876C402.784,-350.808 420.311,-339.552 435.561,-329.759"/>
<polygon fill="#7f7f7f" stroke="#7f7f7f" points="437.71,-332.538 444.233,-324.19 433.927,-326.648 437.71,-332.538"/>
</g>
<!-- Set&#45;&gt;HashSet -->
<g id="edge5" class="edge"><title>Set&#45;&gt;HashSet</title>
<path fill="none" stroke="#7f7f7f" stroke-width="4" d="M227.864,-288.765C212.228,-279.41 192.348,-267.516 175.263,-257.294"/>
<polygon fill="#7f7f7f" stroke="#7f7f7f" stroke-width="4" points="177,-254.255 166.621,-252.124 173.406,-260.262 177,-254.255"/>
</g>
<!-- Set&#45;&gt;ListSet -->
<g id="edge6" class="edge"><title>Set&#45;&gt;ListSet</title>
<path fill="none" stroke="#7f7f7f" d="M245.112,-287.697C240.511,-279.644 234.94,-269.894 229.847,-260.982"/>
<polygon fill="#7f7f7f" stroke="#7f7f7f" points="232.774,-259.05 224.774,-252.104 226.696,-262.523 232.774,-259.05"/>
</g>
<!-- SortedSet -->
<g id="node20" class="node"><title>SortedSet</title>
<path fill="#6dc6e6" stroke="#6dc6e6" d="M317.5,-252C317.5,-252 272.5,-252 272.5,-252 266.5,-252 260.5,-246 260.5,-240 260.5,-240 260.5,-228 260.5,-228 260.5,-222 266.5,-216 272.5,-216 272.5,-216 317.5,-216 317.5,-216 323.5,-216 329.5,-222 329.5,-228 329.5,-228 329.5,-240 329.5,-240 329.5,-246 323.5,-252 317.5,-252"/>
<text text-anchor="middle" x="295" y="-230.3" font-family="Times,serif" font-size="14.00" fill="#ffffff">SortedSet</text>
</g>
<!-- Set&#45;&gt;SortedSet -->
<g id="edge4" class="edge"><title>Set&#45;&gt;SortedSet</title>
<path fill="none" stroke="#7f7f7f" d="M264.888,-287.697C269.489,-279.644 275.06,-269.894 280.153,-260.982"/>
<polygon fill="#7f7f7f" stroke="#7f7f7f" points="283.304,-262.523 285.226,-252.104 277.226,-259.05 283.304,-262.523"/>
</g>
<!-- IndexedSeq -->
<g id="node22" class="node"><title>IndexedSeq</title>
<path fill="#6dc6e6" stroke="#6dc6e6" d="M283,-108C283,-108 227,-108 227,-108 221,-108 215,-102 215,-96 215,-96 215,-84 215,-84 215,-78 221,-72 227,-72 227,-72 283,-72 283,-72 289,-72 295,-78 295,-84 295,-84 295,-96 295,-96 295,-102 289,-108 283,-108"/>
<text text-anchor="middle" x="255" y="-86.3" font-family="Times,serif" font-size="14.00" fill="#ffffff">IndexedSeq</text>
</g>
<!-- Seq&#45;&gt;IndexedSeq -->
<g id="edge9" class="edge"><title>Seq&#45;&gt;IndexedSeq</title>
<path fill="none" stroke="#7f7f7f" d="M339.888,-144.055C325.139,-134.837 306.71,-123.319 290.794,-113.371"/>
<polygon fill="#7f7f7f" stroke="#7f7f7f" points="292.586,-110.364 282.251,-108.032 288.876,-116.3 292.586,-110.364"/>
</g>
<!-- LinearSeq -->
<g id="node23" class="node"><title>LinearSeq</title>
<path fill="#6dc6e6" stroke="#6dc6e6" d="M510,-108C510,-108 462,-108 462,-108 456,-108 450,-102 450,-96 450,-96 450,-84 450,-84 450,-78 456,-72 462,-72 462,-72 510,-72 510,-72 516,-72 522,-78 522,-84 522,-84 522,-96 522,-96 522,-102 516,-108 510,-108"/>
<text text-anchor="middle" x="486" y="-86.3" font-family="Times,serif" font-size="14.00" fill="#ffffff">LinearSeq</text>
</g>
<!-- Seq&#45;&gt;LinearSeq -->
<g id="edge10" class="edge"><title>Seq&#45;&gt;LinearSeq</title>
<path fill="none" stroke="#7f7f7f" stroke-width="4" d="M394.003,-145.116C410.003,-135.704 430.526,-123.632 448.127,-113.278"/>
<polygon fill="#7f7f7f" stroke="#7f7f7f" stroke-width="4" points="450.18,-116.131 457.025,-108.044 446.631,-110.098 450.18,-116.131"/>
</g>
<!-- Map&#45;&gt;HashMap -->
<g id="edge19" class="edge"><title>Map&#45;&gt;HashMap</title>
<path fill="none" stroke="#7f7f7f" stroke-width="4" d="M459.629,-287.697C454.282,-279.559 447.796,-269.689 441.889,-260.701"/>
<polygon fill="#7f7f7f" stroke="#7f7f7f" stroke-width="4" points="444.657,-258.539 436.24,-252.104 438.807,-262.384 444.657,-258.539"/>
</g>
<!-- SortedMap -->
<g id="node24" class="node"><title>SortedMap</title>
<path fill="#6dc6e6" stroke="#6dc6e6" d="M543.5,-252C543.5,-252 490.5,-252 490.5,-252 484.5,-252 478.5,-246 478.5,-240 478.5,-240 478.5,-228 478.5,-228 478.5,-222 484.5,-216 490.5,-216 490.5,-216 543.5,-216 543.5,-216 549.5,-216 555.5,-222 555.5,-228 555.5,-228 555.5,-240 555.5,-240 555.5,-246 549.5,-252 543.5,-252"/>
<text text-anchor="middle" x="517" y="-230.3" font-family="Times,serif" font-size="14.00" fill="#ffffff">SortedMap</text>
</g>
<!-- Map&#45;&gt;SortedMap -->
<g id="edge20" class="edge"><title>Map&#45;&gt;SortedMap</title>
<path fill="none" stroke="#7f7f7f" d="M482.371,-287.697C487.718,-279.559 494.204,-269.689 500.111,-260.701"/>
<polygon fill="#7f7f7f" stroke="#7f7f7f" points="503.193,-262.384 505.76,-252.104 497.343,-258.539 503.193,-262.384"/>
</g>
<!-- SeqMap -->
<g id="node25" class="node"><title>SeqMap</title>
<path fill="#6dc6e6" stroke="#6dc6e6" d="M624,-252C624,-252 586,-252 586,-252 580,-252 574,-246 574,-240 574,-240 574,-228 574,-228 574,-222 580,-216 586,-216 586,-216 624,-216 624,-216 630,-216 636,-222 636,-228 636,-228 636,-240 636,-240 636,-246 630,-252 624,-252"/>
<text text-anchor="middle" x="605" y="-230.3" font-family="Times,serif" font-size="14.00" fill="#ffffff">SeqMap</text>
</g>
<!-- Map&#45;&gt;SeqMap -->
<g id="edge21" class="edge"><title>Map&#45;&gt;SeqMap</title>
<path fill="none" stroke="#7f7f7f" d="M498.117,-290.834C517.255,-280.837 543.219,-267.274 564.764,-256.019"/>
<polygon fill="#7f7f7f" stroke="#7f7f7f" points="566.451,-259.086 573.694,-251.354 563.21,-252.882 566.451,-259.086"/>
</g>
<!-- SortedSet&#45;&gt;TreeSet -->
<g id="edge8" class="edge"><title>SortedSet&#45;&gt;TreeSet</title>
<path fill="none" stroke="#7f7f7f" d="M276.461,-215.697C267.197,-207.05 255.838,-196.449 245.743,-187.027"/>
<polygon fill="#7f7f7f" stroke="#7f7f7f" points="248.025,-184.369 238.326,-180.104 243.249,-189.486 248.025,-184.369"/>
</g>
<!-- BitSet -->
<g id="node21" class="node"><title>BitSet</title>
<path fill="#6dc6e6" stroke="#6dc6e6" d="M310,-180C310,-180 280,-180 280,-180 274,-180 268,-174 268,-168 268,-168 268,-156 268,-156 268,-150 274,-144 280,-144 280,-144 310,-144 310,-144 316,-144 322,-150 322,-156 322,-156 322,-168 322,-168 322,-174 316,-180 310,-180"/>
<text text-anchor="middle" x="295" y="-158.3" font-family="Times,serif" font-size="14.00" fill="#ffffff">BitSet</text>
</g>
<!-- SortedSet&#45;&gt;BitSet -->
<g id="edge7" class="edge"><title>SortedSet&#45;&gt;BitSet</title>
<path fill="none" stroke="#7f7f7f" d="M295,-215.697C295,-207.983 295,-198.712 295,-190.112"/>
<polygon fill="#7f7f7f" stroke="#7f7f7f" points="298.5,-190.104 295,-180.104 291.5,-190.104 298.5,-190.104"/>
</g>
<!-- IndexedSeq&#45;&gt;Vector -->
<g id="edge11" class="edge"><title>IndexedSeq&#45;&gt;Vector</title>
<path fill="none" stroke="#7f7f7f" stroke-width="4" d="M214.652,-80.0008C177.428,-71.2273 120.611,-56.6458 63.7946,-35.9951"/>
<polygon fill="#7f7f7f" stroke="#7f7f7f" stroke-width="4" points="64.9022,-32.6731 54.309,-32.4897 62.4757,-39.2391 64.9022,-32.6731"/>
</g>
<!-- IndexedSeq&#45;&gt;ArraySeq -->
<g id="edge12" class="edge"><title>IndexedSeq&#45;&gt;ArraySeq</title>
<path fill="none" stroke="#7f7f7f" d="M218.55,-71.8761C197.593,-62.0304 171.145,-49.605 149.153,-39.2734"/>
<polygon fill="#7f7f7f" stroke="#7f7f7f" points="150.57,-36.0718 140.03,-34.9874 147.593,-42.4074 150.57,-36.0718"/>
</g>
<!-- IndexedSeq&#45;&gt;NumericRange -->
<g id="edge13" class="edge"><title>IndexedSeq&#45;&gt;NumericRange</title>
<path fill="none" stroke="#7f7f7f" d="M243.382,-71.6966C237.861,-63.4741 231.153,-53.4832 225.068,-44.4207"/>
<polygon fill="#7f7f7f" stroke="#7f7f7f" points="227.965,-42.4555 219.484,-36.1043 222.153,-46.3576 227.965,-42.4555"/>
</g>
<!-- IndexedSeq&#45;&gt;String -->
<g id="edge15" class="edge"><title>IndexedSeq&#45;&gt;String</title>
<path fill="none" stroke="#7f7f7f" stroke-dasharray="5,2" d="M266.865,-71.6966C272.503,-63.4741 279.354,-53.4832 285.569,-44.4207"/>
<polygon fill="#7f7f7f" stroke="#7f7f7f" points="288.503,-46.331 291.271,-36.1043 282.729,-42.3723 288.503,-46.331"/>
</g>
<!-- IndexedSeq&#45;&gt;Range -->
<g id="edge14" class="edge"><title>IndexedSeq&#45;&gt;Range</title>
<path fill="none" stroke="#7f7f7f" d="M284.355,-71.8761C300.9,-62.2252 321.693,-50.0956 339.19,-39.8891"/>
<polygon fill="#7f7f7f" stroke="#7f7f7f" points="341.125,-42.8123 348,-34.7503 337.598,-36.7658 341.125,-42.8123"/>
</g>
<!-- LinearSeq&#45;&gt;List -->
<g id="edge16" class="edge"><title>LinearSeq&#45;&gt;List</title>
<path fill="none" stroke="#7f7f7f" stroke-width="4" d="M476.36,-71.6966C471.873,-63.6436 466.441,-53.8945 461.476,-44.9824"/>
<polygon fill="#7f7f7f" stroke="#7f7f7f" stroke-width="4" points="464.454,-43.1366 456.53,-36.1043 458.339,-46.5435 464.454,-43.1366"/>
</g>
<!-- LinearSeq&#45;&gt;LazyList -->
<g id="edge17" class="edge"><title>LinearSeq&#45;&gt;LazyList</title>
<path fill="none" stroke="#7f7f7f" d="M495.64,-71.6966C500.127,-63.6436 505.559,-53.8945 510.524,-44.9824"/>
<polygon fill="#7f7f7f" stroke="#7f7f7f" points="513.661,-46.5435 515.47,-36.1043 507.546,-43.1366 513.661,-46.5435"/>
</g>
<!-- LinearSeq&#45;&gt;Queue -->
<g id="edge18" class="edge"><title>LinearSeq&#45;&gt;Queue</title>
<path fill="none" stroke="#7f7f7f" d="M514.621,-71.8761C530.376,-62.4504 550.082,-50.6602 566.886,-40.6065"/>
<polygon fill="#7f7f7f" stroke="#7f7f7f" points="569.095,-43.3634 575.88,-35.2257 565.501,-37.3564 569.095,-43.3634"/>
</g>
<!-- SortedMap&#45;&gt;TreeMap -->
<g id="edge22" class="edge"><title>SortedMap&#45;&gt;TreeMap</title>
<path fill="none" stroke="#7f7f7f" d="M517,-215.697C517,-207.983 517,-198.712 517,-190.112"/>
<polygon fill="#7f7f7f" stroke="#7f7f7f" points="520.5,-190.104 517,-180.104 513.5,-190.104 520.5,-190.104"/>
</g>
<!-- SeqMap&#45;&gt;ListMap -->
<g id="edge23" class="edge"><title>SeqMap&#45;&gt;ListMap</title>
<path fill="none" stroke="#7f7f7f" d="M604.258,-215.697C603.928,-207.983 603.531,-198.712 603.162,-190.112"/>
<polygon fill="#7f7f7f" stroke="#7f7f7f" points="606.658,-189.945 602.733,-180.104 599.665,-190.245 606.658,-189.945"/>
</g>
<!-- SeqMap&#45;&gt;VectorMap -->
<g id="edge24" class="edge"><title>SeqMap&#45;&gt;VectorMap</title>
<path fill="none" stroke="#7f7f7f" d="M626.258,-215.697C637.089,-206.881 650.418,-196.032 662.16,-186.474"/>
<polygon fill="#7f7f7f" stroke="#7f7f7f" points="664.44,-189.132 669.986,-180.104 660.021,-183.703 664.44,-189.132"/>
</g>
</g>
</svg>
