<?xml version="1.0" encoding="UTF-8" standalone="no"?>
<!DOCTYPE svg PUBLIC "-//W3C//DTD SVG 1.1//EN"
 "http://www.w3.org/Graphics/SVG/1.1/DTD/svg11.dtd">
<!-- Generated by graphviz version 2.38.0 (20140413.2041)
 -->
<!-- Title: MutableCollections Pages: 1 -->
<svg width="1367pt" height="620pt"
 viewBox="0.00 0.00 1366.50 620.00" xmlns="http://www.w3.org/2000/svg" xmlns:xlink="http://www.w3.org/1999/xlink">
<g id="graph0" class="graph" transform="scale(1 1) rotate(0) translate(4 616)">
<title>MutableCollections</title>
<polygon fill="white" stroke="none" points="-4,4 -4,-616 1362.5,-616 1362.5,4 -4,4"/>
<!-- HashSet -->
<g id="node1" class="node"><title>HashSet</title>
<path fill="#4a5659" stroke="#4a5659" d="M834,-396C834,-396 795,-396 795,-396 789,-396 783,-390 783,-384 783,-384 783,-372 783,-372 783,-366 789,-360 795,-360 795,-360 834,-360 834,-360 840,-360 846,-366 846,-372 846,-372 846,-384 846,-384 846,-390 840,-396 834,-396"/>
<text text-anchor="middle" x="814.5" y="-374.3" font-family="Times New Roman,serif" font-size="14.00" fill="#ffffff">HashSet</text>
</g>
<!-- ImmutableSetAdaptor -->
<g id="node2" class="node"><title>ImmutableSetAdaptor</title>
<path fill="#4a5659" stroke="#4a5659" d="M992.5,-396C992.5,-396 876.5,-396 876.5,-396 870.5,-396 864.5,-390 864.5,-384 864.5,-384 864.5,-372 864.5,-372 864.5,-366 870.5,-360 876.5,-360 876.5,-360 992.5,-360 992.5,-360 998.5,-360 1004.5,-366 1004.5,-372 1004.5,-372 1004.5,-384 1004.5,-384 1004.5,-390 998.5,-396 992.5,-396"/>
<text text-anchor="middle" x="934.5" y="-374.3" font-family="Times New Roman,serif" font-size="14.00" fill="#ffffff">ImmutableSetAdaptor</text>
</g>
<!-- LinkedHashSet -->
<g id="node3" class="node"><title>LinkedHashSet</title>
<path fill="#4a5659" stroke="#4a5659" d="M1031,-324C1031,-324 954,-324 954,-324 948,-324 942,-318 942,-312 942,-312 942,-300 942,-300 942,-294 948,-288 954,-288 954,-288 1031,-288 1031,-288 1037,-288 1043,-294 1043,-300 1043,-300 1043,-312 1043,-312 1043,-318 1037,-324 1031,-324"/>
<text text-anchor="middle" x="992.5" y="-302.3" font-family="Times New Roman,serif" font-size="14.00" fill="#ffffff">LinkedHashSet</text>
</g>
<!-- HashMap -->
<g id="node4" class="node"><title>HashMap</title>
<path fill="#4a5659" stroke="#4a5659" d="M59,-396C59,-396 12,-396 12,-396 6,-396 0,-390 0,-384 0,-384 0,-372 0,-372 0,-366 6,-360 12,-360 12,-360 59,-360 59,-360 65,-360 71,-366 71,-372 71,-372 71,-384 71,-384 71,-390 65,-396 59,-396"/>
<text text-anchor="middle" x="35.5" y="-374.3" font-family="Times New Roman,serif" font-size="14.00" fill="#ffffff">HashMap</text>
</g>
<!-- OpenHashMap -->
<g id="node5" class="node"><title>OpenHashMap</title>
<path fill="#4a5659" stroke="#4a5659" d="M178,-396C178,-396 101,-396 101,-396 95,-396 89,-390 89,-384 89,-384 89,-372 89,-372 89,-366 95,-360 101,-360 101,-360 178,-360 178,-360 184,-360 190,-366 190,-372 190,-372 190,-384 190,-384 190,-390 184,-396 178,-396"/>
<text text-anchor="middle" x="139.5" y="-374.3" font-family="Times New Roman,serif" font-size="14.00" fill="#ffffff">OpenHashMap</text>
</g>
<!-- WeakHashMap -->
<g id="node6" class="node"><title>WeakHashMap</title>
<path fill="#4a5659" stroke="#4a5659" d="M156,-324C156,-324 77,-324 77,-324 71,-324 65,-318 65,-312 65,-312 65,-300 65,-300 65,-294 71,-288 77,-288 77,-288 156,-288 156,-288 162,-288 168,-294 168,-300 168,-300 168,-312 168,-312 168,-318 162,-324 156,-324"/>
<text text-anchor="middle" x="116.5" y="-302.3" font-family="Times New Roman,serif" font-size="14.00" fill="#ffffff">WeakHashMap</text>
</g>
<!-- LinkedHashMap -->
<g id="node7" class="node"><title>LinkedHashMap</title>
<path fill="#4a5659" stroke="#4a5659" d="M283,-324C283,-324 198,-324 198,-324 192,-324 186,-318 186,-312 186,-312 186,-300 186,-300 186,-294 192,-288 198,-288 198,-288 283,-288 283,-288 289,-288 295,-294 295,-300 295,-300 295,-312 295,-312 295,-318 289,-324 283,-324"/>
<text text-anchor="middle" x="240.5" y="-302.3" font-family="Times New Roman,serif" font-size="14.00" fill="#ffffff">LinkedHashMap</text>
</g>
<!-- ListMap -->
<g id="node8" class="node"><title>ListMap</title>
<path fill="#4a5659" stroke="#4a5659" d="M364,-324C364,-324 325,-324 325,-324 319,-324 313,-318 313,-312 313,-312 313,-300 313,-300 313,-294 319,-288 325,-288 325,-288 364,-288 364,-288 370,-288 376,-294 376,-300 376,-300 376,-312 376,-312 376,-318 370,-324 364,-324"/>
<text text-anchor="middle" x="344.5" y="-302.3" font-family="Times New Roman,serif" font-size="14.00" fill="#ffffff">ListMap</text>
</g>
<!-- ImmutableMapAdaptor -->
<g id="node9" class="node"><title>ImmutableMapAdaptor</title>
<path fill="#4a5659" stroke="#4a5659" d="M529,-324C529,-324 406,-324 406,-324 400,-324 394,-318 394,-312 394,-312 394,-300 394,-300 394,-294 400,-288 406,-288 406,-288 529,-288 529,-288 535,-288 541,-294 541,-300 541,-300 541,-312 541,-312 541,-318 535,-324 529,-324"/>
<text text-anchor="middle" x="467.5" y="-302.3" font-family="Times New Roman,serif" font-size="14.00" fill="#ffffff">ImmutableMapAdaptor</text>
</g>
<!-- ArraySeq -->
<g id="node10" class="node"><title>ArraySeq</title>
<path fill="#4a5659" stroke="#4a5659" d="M957.5,-180C957.5,-180 911.5,-180 911.5,-180 905.5,-180 899.5,-174 899.5,-168 899.5,-168 899.5,-156 899.5,-156 899.5,-150 905.5,-144 911.5,-144 911.5,-144 957.5,-144 957.5,-144 963.5,-144 969.5,-150 969.5,-156 969.5,-156 969.5,-168 969.5,-168 969.5,-174 963.5,-180 957.5,-180"/>
<text text-anchor="middle" x="934.5" y="-158.3" font-family="Times New Roman,serif" font-size="14.00" fill="#ffffff">ArraySeq</text>
</g>
<!-- ArrayBuffer -->
<g id="node11" class="node"><title>ArrayBuffer</title>
<path fill="#4a5659" stroke="#4a5659" d="M1097,-180C1097,-180 1038,-180 1038,-180 1032,-180 1026,-174 1026,-168 1026,-168 1026,-156 1026,-156 1026,-150 1032,-144 1038,-144 1038,-144 1097,-144 1097,-144 1103,-144 1109,-150 1109,-156 1109,-156 1109,-168 1109,-168 1109,-174 1103,-180 1097,-180"/>
<text text-anchor="middle" x="1067.5" y="-158.3" font-family="Times New Roman,serif" font-size="14.00" fill="#ffffff">ArrayBuffer</text>
</g>
<!-- StringBuilder -->
<g id="node12" class="node"><title>StringBuilder</title>
<path fill="#4a5659" stroke="#4a5659" d="M1030,-108C1030,-108 965,-108 965,-108 959,-108 953,-102 953,-96 953,-96 953,-84 953,-84 953,-78 959,-72 965,-72 965,-72 1030,-72 1030,-72 1036,-72 1042,-78 1042,-84 1042,-84 1042,-96 1042,-96 1042,-102 1036,-108 1030,-108"/>
<text text-anchor="middle" x="997.5" y="-86.3" font-family="Times New Roman,serif" font-size="14.00" fill="#ffffff">StringBuilder</text>
</g>
<!-- ListBuffer -->
<g id="node13" class="node"><title>ListBuffer</title>
<path fill="#4a5659" stroke="#4a5659" d="M1141,-108C1141,-108 1092,-108 1092,-108 1086,-108 1080,-102 1080,-96 1080,-96 1080,-84 1080,-84 1080,-78 1086,-72 1092,-72 1092,-72 1141,-72 1141,-72 1147,-72 1153,-78 1153,-84 1153,-84 1153,-96 1153,-96 1153,-102 1147,-108 1141,-108"/>
<text text-anchor="middle" x="1116.5" y="-86.3" font-family="Times New Roman,serif" font-size="14.00" fill="#ffffff">ListBuffer</text>
</g>
<!-- Stack -->
<g id="node14" class="node"><title>Stack</title>
<path fill="#4a5659" stroke="#4a5659" d="M470.5,-252C470.5,-252 440.5,-252 440.5,-252 434.5,-252 428.5,-246 428.5,-240 428.5,-240 428.5,-228 428.5,-228 428.5,-222 434.5,-216 440.5,-216 440.5,-216 470.5,-216 470.5,-216 476.5,-216 482.5,-222 482.5,-228 482.5,-228 482.5,-240 482.5,-240 482.5,-246 476.5,-252 470.5,-252"/>
<text text-anchor="middle" x="455.5" y="-230.3" font-family="Times New Roman,serif" font-size="14.00" fill="#ffffff">Stack</text>
</g>
<!-- SynchronizedStack -->
<g id="node16" class="node"><title>SynchronizedStack</title>
<path fill="#4a5659" stroke="#4a5659" d="M447,-180C447,-180 346,-180 346,-180 340,-180 334,-174 334,-168 334,-168 334,-156 334,-156 334,-150 340,-144 346,-144 346,-144 447,-144 447,-144 453,-144 459,-150 459,-156 459,-156 459,-168 459,-168 459,-174 453,-180 447,-180"/>
<text text-anchor="middle" x="396.5" y="-158.3" font-family="Times New Roman,serif" font-size="14.00" fill="#ffffff">SynchronizedStack</text>
</g>
<!-- Stack&#45;&gt;SynchronizedStack -->
<g id="edge37" class="edge"><title>Stack&#45;&gt;SynchronizedStack</title>
<path fill="none" stroke="#7f7f7f" d="M440.916,-215.697C433.842,-207.305 425.217,-197.07 417.455,-187.861"/>
<polygon fill="#7f7f7f" stroke="#7f7f7f" points="420.037,-185.495 410.917,-180.104 414.685,-190.006 420.037,-185.495"/>
</g>
<!-- ArrayStack -->
<g id="node15" class="node"><title>ArrayStack</title>
<path fill="#4a5659" stroke="#4a5659" d="M626.5,-252C626.5,-252 570.5,-252 570.5,-252 564.5,-252 558.5,-246 558.5,-240 558.5,-240 558.5,-228 558.5,-228 558.5,-222 564.5,-216 570.5,-216 570.5,-216 626.5,-216 626.5,-216 632.5,-216 638.5,-222 638.5,-228 638.5,-228 638.5,-240 638.5,-240 638.5,-246 632.5,-252 626.5,-252"/>
<text text-anchor="middle" x="598.5" y="-230.3" font-family="Times New Roman,serif" font-size="14.00" fill="#ffffff">ArrayStack</text>
</g>
<!-- PriorityQueue -->
<g id="node17" class="node"><title>PriorityQueue</title>
<path fill="#4a5659" stroke="#4a5659" d="M738.5,-252C738.5,-252 668.5,-252 668.5,-252 662.5,-252 656.5,-246 656.5,-240 656.5,-240 656.5,-228 656.5,-228 656.5,-222 662.5,-216 668.5,-216 668.5,-216 738.5,-216 738.5,-216 744.5,-216 750.5,-222 750.5,-228 750.5,-228 750.5,-240 750.5,-240 750.5,-246 744.5,-252 738.5,-252"/>
<text text-anchor="middle" x="703.5" y="-230.3" font-family="Times New Roman,serif" font-size="14.00" fill="#ffffff">PriorityQueue</text>
</g>
<!-- SynchronizedPriorityQueue -->
<g id="node18" class="node"><title>SynchronizedPriorityQueue</title>
<path fill="#4a5659" stroke="#4a5659" d="M635.5,-180C635.5,-180 489.5,-180 489.5,-180 483.5,-180 477.5,-174 477.5,-168 477.5,-168 477.5,-156 477.5,-156 477.5,-150 483.5,-144 489.5,-144 489.5,-144 635.5,-144 635.5,-144 641.5,-144 647.5,-150 647.5,-156 647.5,-156 647.5,-168 647.5,-168 647.5,-174 641.5,-180 635.5,-180"/>
<text text-anchor="middle" x="562.5" y="-158.3" font-family="Times New Roman,serif" font-size="14.00" fill="#ffffff">SynchronizedPriorityQueue</text>
</g>
<!-- PriorityQueue&#45;&gt;SynchronizedPriorityQueue -->
<g id="edge38" class="edge"><title>PriorityQueue&#45;&gt;SynchronizedPriorityQueue</title>
<path fill="none" stroke="#7f7f7f" d="M669.008,-215.876C650.06,-206.469 626.368,-194.708 606.144,-184.667"/>
<polygon fill="#7f7f7f" stroke="#7f7f7f" points="607.638,-181.502 597.125,-180.19 604.526,-187.771 607.638,-181.502"/>
</g>
<!-- SynchronizedQueue -->
<g id="node19" class="node"><title>SynchronizedQueue</title>
<path fill="#4a5659" stroke="#4a5659" d="M760,-36C760,-36 655,-36 655,-36 649,-36 643,-30 643,-24 643,-24 643,-12 643,-12 643,-6 649,-0 655,-0 655,-0 760,-0 760,-0 766,-0 772,-6 772,-12 772,-12 772,-24 772,-24 772,-30 766,-36 760,-36"/>
<text text-anchor="middle" x="707.5" y="-14.3" font-family="Times New Roman,serif" font-size="14.00" fill="#ffffff">SynchronizedQueue</text>
</g>
<!-- MutableList -->
<g id="node20" class="node"><title>MutableList</title>
<path fill="#4a5659" stroke="#4a5659" d="M737,-180C737,-180 678,-180 678,-180 672,-180 666,-174 666,-168 666,-168 666,-156 666,-156 666,-150 672,-144 678,-144 678,-144 737,-144 737,-144 743,-144 749,-150 749,-156 749,-156 749,-168 749,-168 749,-174 743,-180 737,-180"/>
<text text-anchor="middle" x="707.5" y="-158.3" font-family="Times New Roman,serif" font-size="14.00" fill="#ffffff">MutableList</text>
</g>
<!-- Queue -->
<g id="node40" class="node"><title>Queue</title>
<path fill="#6dc6e6" stroke="#6dc6e6" d="M722.5,-108C722.5,-108 692.5,-108 692.5,-108 686.5,-108 680.5,-102 680.5,-96 680.5,-96 680.5,-84 680.5,-84 680.5,-78 686.5,-72 692.5,-72 692.5,-72 722.5,-72 722.5,-72 728.5,-72 734.5,-78 734.5,-84 734.5,-84 734.5,-96 734.5,-96 734.5,-102 728.5,-108 722.5,-108"/>
<text text-anchor="middle" x="707.5" y="-86.3" font-family="Times New Roman,serif" font-size="14.00" fill="#ffffff">Queue</text>
</g>
<!-- MutableList&#45;&gt;Queue -->
<g id="edge39" class="edge"><title>MutableList&#45;&gt;Queue</title>
<path fill="none" stroke="#7f7f7f" d="M707.5,-143.697C707.5,-135.983 707.5,-126.712 707.5,-118.112"/>
<polygon fill="#7f7f7f" stroke="#7f7f7f" points="711,-118.104 707.5,-108.104 704,-118.104 711,-118.104"/>
</g>
<!-- LinkedList -->
<g id="node21" class="node"><title>LinkedList</title>
<path fill="#4a5659" stroke="#4a5659" d="M831.5,-180C831.5,-180 779.5,-180 779.5,-180 773.5,-180 767.5,-174 767.5,-168 767.5,-168 767.5,-156 767.5,-156 767.5,-150 773.5,-144 779.5,-144 779.5,-144 831.5,-144 831.5,-144 837.5,-144 843.5,-150 843.5,-156 843.5,-156 843.5,-168 843.5,-168 843.5,-174 837.5,-180 831.5,-180"/>
<text text-anchor="middle" x="805.5" y="-158.3" font-family="Times New Roman,serif" font-size="14.00" fill="#ffffff">LinkedList</text>
</g>
<!-- DoubleLinkedList -->
<g id="node22" class="node"><title>DoubleLinkedList</title>
<path fill="#4a5659" stroke="#4a5659" d="M917.5,-108C917.5,-108 825.5,-108 825.5,-108 819.5,-108 813.5,-102 813.5,-96 813.5,-96 813.5,-84 813.5,-84 813.5,-78 819.5,-72 825.5,-72 825.5,-72 917.5,-72 917.5,-72 923.5,-72 929.5,-78 929.5,-84 929.5,-84 929.5,-96 929.5,-96 929.5,-102 923.5,-108 917.5,-108"/>
<text text-anchor="middle" x="871.5" y="-86.3" font-family="Times New Roman,serif" font-size="14.00" fill="#ffffff">DoubleLinkedList</text>
</g>
<!-- Traversable -->
<g id="node23" class="node"><title>Traversable</title>
<path fill="#6dc6e6" stroke="#6dc6e6" d="M783.5,-612C783.5,-612 725.5,-612 725.5,-612 719.5,-612 713.5,-606 713.5,-600 713.5,-600 713.5,-588 713.5,-588 713.5,-582 719.5,-576 725.5,-576 725.5,-576 783.5,-576 783.5,-576 789.5,-576 795.5,-582 795.5,-588 795.5,-588 795.5,-600 795.5,-600 795.5,-606 789.5,-612 783.5,-612"/>
<text text-anchor="middle" x="754.5" y="-590.3" font-family="Times New Roman,serif" font-size="14.00" fill="#ffffff">Traversable</text>
</g>
<!-- Iterable -->
<g id="node24" class="node"><title>Iterable</title>
<path fill="#6dc6e6" stroke="#6dc6e6" d="M771.5,-540C771.5,-540 737.5,-540 737.5,-540 731.5,-540 725.5,-534 725.5,-528 725.5,-528 725.5,-516 725.5,-516 725.5,-510 731.5,-504 737.5,-504 737.5,-504 771.5,-504 771.5,-504 777.5,-504 783.5,-510 783.5,-516 783.5,-516 783.5,-528 783.5,-528 783.5,-534 777.5,-540 771.5,-540"/>
<text text-anchor="middle" x="754.5" y="-518.3" font-family="Times New Roman,serif" font-size="14.00" fill="#ffffff">Iterable</text>
</g>
<!-- Traversable&#45;&gt;Iterable -->
<g id="edge1" class="edge"><title>Traversable&#45;&gt;Iterable</title>
<path fill="none" stroke="#7f7f7f" stroke-width="4" d="M754.5,-575.697C754.5,-567.983 754.5,-558.712 754.5,-550.112"/>
<polygon fill="#7f7f7f" stroke="#7f7f7f" stroke-width="4" points="758,-550.104 754.5,-540.104 751,-550.104 758,-550.104"/>
</g>
<!-- Map -->
<g id="node25" class="node"><title>Map</title>
<path fill="#6dc6e6" stroke="#6dc6e6" d="M361.5,-468C361.5,-468 331.5,-468 331.5,-468 325.5,-468 319.5,-462 319.5,-456 319.5,-456 319.5,-444 319.5,-444 319.5,-438 325.5,-432 331.5,-432 331.5,-432 361.5,-432 361.5,-432 367.5,-432 373.5,-438 373.5,-444 373.5,-444 373.5,-456 373.5,-456 373.5,-462 367.5,-468 361.5,-468"/>
<text text-anchor="middle" x="346.5" y="-446.3" font-family="Times New Roman,serif" font-size="14.00" fill="#ffffff">Map</text>
</g>
<!-- Iterable&#45;&gt;Map -->
<g id="edge2" class="edge"><title>Iterable&#45;&gt;Map</title>
<path fill="none" stroke="#7f7f7f" d="M725.485,-516.022C653.092,-503.602 464.547,-471.253 383.937,-457.423"/>
<polygon fill="#7f7f7f" stroke="#7f7f7f" points="384.2,-453.917 373.752,-455.676 383.016,-460.816 384.2,-453.917"/>
</g>
<!-- Seq -->
<g id="node26" class="node"><title>Seq</title>
<path fill="#6dc6e6" stroke="#6dc6e6" d="M769.5,-324C769.5,-324 739.5,-324 739.5,-324 733.5,-324 727.5,-318 727.5,-312 727.5,-312 727.5,-300 727.5,-300 727.5,-294 733.5,-288 739.5,-288 739.5,-288 769.5,-288 769.5,-288 775.5,-288 781.5,-294 781.5,-300 781.5,-300 781.5,-312 781.5,-312 781.5,-318 775.5,-324 769.5,-324"/>
<text text-anchor="middle" x="754.5" y="-302.3" font-family="Times New Roman,serif" font-size="14.00" fill="#ffffff">Seq</text>
</g>
<!-- Iterable&#45;&gt;Seq -->
<g id="edge3" class="edge"><title>Iterable&#45;&gt;Seq</title>
<path fill="none" stroke="#7f7f7f" stroke-width="4" d="M754.5,-503.849C754.5,-466.832 754.5,-379.181 754.5,-334.386"/>
<polygon fill="#7f7f7f" stroke="#7f7f7f" stroke-width="4" points="758,-334.232 754.5,-324.232 751,-334.232 758,-334.232"/>
</g>
<!-- Set -->
<g id="node27" class="node"><title>Set</title>
<path fill="#6dc6e6" stroke="#6dc6e6" d="M1047.5,-468C1047.5,-468 1017.5,-468 1017.5,-468 1011.5,-468 1005.5,-462 1005.5,-456 1005.5,-456 1005.5,-444 1005.5,-444 1005.5,-438 1011.5,-432 1017.5,-432 1017.5,-432 1047.5,-432 1047.5,-432 1053.5,-432 1059.5,-438 1059.5,-444 1059.5,-444 1059.5,-456 1059.5,-456 1059.5,-462 1053.5,-468 1047.5,-468"/>
<text text-anchor="middle" x="1032.5" y="-446.3" font-family="Times New Roman,serif" font-size="14.00" fill="#ffffff">Set</text>
</g>
<!-- Iterable&#45;&gt;Set -->
<g id="edge4" class="edge"><title>Iterable&#45;&gt;Set</title>
<path fill="none" stroke="#7f7f7f" d="M783.725,-513.641C834.645,-500.82 939.526,-474.411 995.46,-460.327"/>
<polygon fill="#7f7f7f" stroke="#7f7f7f" points="996.468,-463.682 1005.31,-457.846 994.758,-456.894 996.468,-463.682"/>
</g>
<!-- Map&#45;&gt;HashMap -->
<g id="edge5" class="edge"><title>Map&#45;&gt;HashMap</title>
<path fill="none" stroke="#7f7f7f" stroke-width="4" d="M319.222,-445.18C272.152,-438.248 172.62,-422.103 81.0357,-396.215"/>
<polygon fill="#7f7f7f" stroke="#7f7f7f" stroke-width="4" points="81.9226,-392.828 71.3449,-393.43 79.9891,-399.556 81.9226,-392.828"/>
</g>
<!-- Map&#45;&gt;OpenHashMap -->
<g id="edge7" class="edge"><title>Map&#45;&gt;OpenHashMap</title>
<path fill="none" stroke="#7f7f7f" d="M319.438,-439.849C289.167,-429.612 239.185,-412.71 199.572,-399.314"/>
<polygon fill="#7f7f7f" stroke="#7f7f7f" points="200.596,-395.966 190.001,-396.078 198.353,-402.597 200.596,-395.966"/>
</g>
<!-- Map&#45;&gt;WeakHashMap -->
<g id="edge6" class="edge"><title>Map&#45;&gt;WeakHashMap</title>
<path fill="none" stroke="#7f7f7f" d="M319.213,-432.153C277.825,-406.601 199.121,-358.01 152.9,-329.473"/>
<polygon fill="#7f7f7f" stroke="#7f7f7f" points="154.457,-326.321 144.109,-324.046 150.78,-332.277 154.457,-326.321"/>
</g>
<!-- Map&#45;&gt;LinkedHashMap -->
<g id="edge8" class="edge"><title>Map&#45;&gt;LinkedHashMap</title>
<path fill="none" stroke="#7f7f7f" d="M333.714,-431.871C315.25,-407.137 280.991,-361.242 259.544,-332.512"/>
<polygon fill="#7f7f7f" stroke="#7f7f7f" points="262.118,-330.109 253.331,-324.189 256.509,-334.296 262.118,-330.109"/>
</g>
<!-- Map&#45;&gt;ListMap -->
<g id="edge12" class="edge"><title>Map&#45;&gt;ListMap</title>
<path fill="none" stroke="#7f7f7f" d="M346.259,-431.871C345.918,-407.67 345.292,-363.211 344.886,-334.393"/>
<polygon fill="#7f7f7f" stroke="#7f7f7f" points="348.383,-334.139 344.742,-324.189 341.383,-334.238 348.383,-334.139"/>
</g>
<!-- Map&#45;&gt;ImmutableMapAdaptor -->
<g id="edge11" class="edge"><title>Map&#45;&gt;ImmutableMapAdaptor</title>
<path fill="none" stroke="#7f7f7f" d="M350.508,-431.97C355.716,-412.757 366.36,-381.405 384.5,-360 394.837,-347.803 408.697,-337.444 422.128,-329.209"/>
<polygon fill="#7f7f7f" stroke="#7f7f7f" points="423.986,-332.177 430.85,-324.106 420.451,-326.135 423.986,-332.177"/>
</g>
<!-- ObservableMap -->
<g id="node28" class="node"><title>ObservableMap</title>
<path fill="#6dc6e6" stroke="#6dc6e6" d="M487.5,-396C487.5,-396 405.5,-396 405.5,-396 399.5,-396 393.5,-390 393.5,-384 393.5,-384 393.5,-372 393.5,-372 393.5,-366 399.5,-360 405.5,-360 405.5,-360 487.5,-360 487.5,-360 493.5,-360 499.5,-366 499.5,-372 499.5,-372 499.5,-384 499.5,-384 499.5,-390 493.5,-396 487.5,-396"/>
<text text-anchor="middle" x="446.5" y="-374.3" font-family="Times New Roman,serif" font-size="14.00" fill="#ffffff">ObservableMap</text>
</g>
<!-- Map&#45;&gt;ObservableMap -->
<g id="edge9" class="edge"><title>Map&#45;&gt;ObservableMap</title>
<path fill="none" stroke="#7f7f7f" d="M370.963,-431.876C383.796,-422.893 399.696,-411.763 413.594,-402.034"/>
<polygon fill="#7f7f7f" stroke="#7f7f7f" points="415.758,-404.792 421.943,-396.19 411.744,-399.057 415.758,-404.792"/>
</g>
<!-- SynchronizedMap -->
<g id="node29" class="node"><title>SynchronizedMap</title>
<path fill="#6dc6e6" stroke="#6dc6e6" d="M625,-396C625,-396 530,-396 530,-396 524,-396 518,-390 518,-384 518,-384 518,-372 518,-372 518,-366 524,-360 530,-360 530,-360 625,-360 625,-360 631,-360 637,-366 637,-372 637,-372 637,-384 637,-384 637,-390 631,-396 625,-396"/>
<text text-anchor="middle" x="577.5" y="-374.3" font-family="Times New Roman,serif" font-size="14.00" fill="#ffffff">SynchronizedMap</text>
</g>
<!-- Map&#45;&gt;SynchronizedMap -->
<g id="edge10" class="edge"><title>Map&#45;&gt;SynchronizedMap</title>
<path fill="none" stroke="#7f7f7f" d="M373.906,-440.695C407.531,-430.506 465.681,-412.885 511.248,-399.076"/>
<polygon fill="#7f7f7f" stroke="#7f7f7f" points="512.505,-402.353 521.06,-396.103 510.475,-395.653 512.505,-402.353"/>
</g>
<!-- MultiMap -->
<g id="node30" class="node"><title>MultiMap</title>
<path fill="#6dc6e6" stroke="#6dc6e6" d="M714,-396C714,-396 667,-396 667,-396 661,-396 655,-390 655,-384 655,-384 655,-372 655,-372 655,-366 661,-360 667,-360 667,-360 714,-360 714,-360 720,-360 726,-366 726,-372 726,-372 726,-384 726,-384 726,-390 720,-396 714,-396"/>
<text text-anchor="middle" x="690.5" y="-374.3" font-family="Times New Roman,serif" font-size="14.00" fill="#ffffff">MultiMap</text>
</g>
<!-- Map&#45;&gt;MultiMap -->
<g id="edge13" class="edge"><title>Map&#45;&gt;MultiMap</title>
<path fill="none" stroke="#7f7f7f" d="M373.675,-445.901C425.043,-439.68 539.906,-424.031 645.023,-395.835"/>
<polygon fill="#7f7f7f" stroke="#7f7f7f" points="646.111,-399.166 654.837,-393.157 644.268,-392.413 646.111,-399.166"/>
</g>
<!-- Seq&#45;&gt;Stack -->
<g id="edge24" class="edge"><title>Seq&#45;&gt;Stack</title>
<path fill="none" stroke="#7f7f7f" d="M727.438,-298.665C673.761,-286.098 553.741,-258 492.694,-243.708"/>
<polygon fill="#7f7f7f" stroke="#7f7f7f" points="493.25,-240.243 482.716,-241.372 491.655,-247.059 493.25,-240.243"/>
</g>
<!-- Seq&#45;&gt;ArrayStack -->
<g id="edge26" class="edge"><title>Seq&#45;&gt;ArrayStack</title>
<path fill="none" stroke="#7f7f7f" d="M727.327,-292.807C704.838,-282.716 672.363,-268.144 645.647,-256.156"/>
<polygon fill="#7f7f7f" stroke="#7f7f7f" points="647.019,-252.935 636.462,-252.034 644.153,-259.322 647.019,-252.935"/>
</g>
<!-- Seq&#45;&gt;PriorityQueue -->
<g id="edge25" class="edge"><title>Seq&#45;&gt;PriorityQueue</title>
<path fill="none" stroke="#7f7f7f" d="M741.893,-287.697C735.903,-279.474 728.624,-269.483 722.021,-260.421"/>
<polygon fill="#7f7f7f" stroke="#7f7f7f" points="724.679,-258.126 715.962,-252.104 719.022,-262.248 724.679,-258.126"/>
</g>
<!-- LinearSeq -->
<g id="node35" class="node"><title>LinearSeq</title>
<path fill="#6dc6e6" stroke="#6dc6e6" d="M830,-252C830,-252 781,-252 781,-252 775,-252 769,-246 769,-240 769,-240 769,-228 769,-228 769,-222 775,-216 781,-216 781,-216 830,-216 830,-216 836,-216 842,-222 842,-228 842,-228 842,-240 842,-240 842,-246 836,-252 830,-252"/>
<text text-anchor="middle" x="805.5" y="-230.3" font-family="Times New Roman,serif" font-size="14.00" fill="#ffffff">LinearSeq</text>
</g>
<!-- Seq&#45;&gt;LinearSeq -->
<g id="edge21" class="edge"><title>Seq&#45;&gt;LinearSeq</title>
<path fill="none" stroke="#7f7f7f" d="M767.107,-287.697C773.097,-279.474 780.376,-269.483 786.979,-260.421"/>
<polygon fill="#7f7f7f" stroke="#7f7f7f" points="789.978,-262.248 793.038,-252.104 784.321,-258.126 789.978,-262.248"/>
</g>
<!-- IndexedSeq -->
<g id="node36" class="node"><title>IndexedSeq</title>
<path fill="#6dc6e6" stroke="#6dc6e6" d="M995,-252C995,-252 936,-252 936,-252 930,-252 924,-246 924,-240 924,-240 924,-228 924,-228 924,-222 930,-216 936,-216 936,-216 995,-216 995,-216 1001,-216 1007,-222 1007,-228 1007,-228 1007,-240 1007,-240 1007,-246 1001,-252 995,-252"/>
<text text-anchor="middle" x="965.5" y="-230.3" font-family="Times New Roman,serif" font-size="14.00" fill="#ffffff">IndexedSeq</text>
</g>
<!-- Seq&#45;&gt;IndexedSeq -->
<g id="edge22" class="edge"><title>Seq&#45;&gt;IndexedSeq</title>
<path fill="none" stroke="#7f7f7f" stroke-width="4" d="M781.653,-295.992C815.039,-284.916 872.406,-265.884 914.197,-252.02"/>
<polygon fill="#7f7f7f" stroke="#7f7f7f" stroke-width="4" points="915.538,-255.263 923.927,-248.792 913.334,-248.619 915.538,-255.263"/>
</g>
<!-- Buffer -->
<g id="node37" class="node"><title>Buffer</title>
<path fill="#6dc6e6" stroke="#6dc6e6" d="M1152.5,-252C1152.5,-252 1122.5,-252 1122.5,-252 1116.5,-252 1110.5,-246 1110.5,-240 1110.5,-240 1110.5,-228 1110.5,-228 1110.5,-222 1116.5,-216 1122.5,-216 1122.5,-216 1152.5,-216 1152.5,-216 1158.5,-216 1164.5,-222 1164.5,-228 1164.5,-228 1164.5,-240 1164.5,-240 1164.5,-246 1158.5,-252 1152.5,-252"/>
<text text-anchor="middle" x="1137.5" y="-230.3" font-family="Times New Roman,serif" font-size="14.00" fill="#ffffff">Buffer</text>
</g>
<!-- Seq&#45;&gt;Buffer -->
<g id="edge23" class="edge"><title>Seq&#45;&gt;Buffer</title>
<path fill="none" stroke="#7f7f7f" d="M781.737,-300.022C849.066,-287.716 1023.42,-255.85 1100.23,-241.811"/>
<polygon fill="#7f7f7f" stroke="#7f7f7f" points="1101.19,-245.194 1110.4,-239.953 1099.94,-238.308 1101.19,-245.194"/>
</g>
<!-- Set&#45;&gt;HashSet -->
<g id="edge14" class="edge"><title>Set&#45;&gt;HashSet</title>
<path fill="none" stroke="#7f7f7f" stroke-width="4" d="M1005.23,-441.768C972.078,-432.773 914.29,-416.451 855.911,-395.962"/>
<polygon fill="#7f7f7f" stroke="#7f7f7f" stroke-width="4" points="856.754,-392.548 846.16,-392.502 854.414,-399.145 856.754,-392.548"/>
</g>
<!-- Set&#45;&gt;ImmutableSetAdaptor -->
<g id="edge16" class="edge"><title>Set&#45;&gt;ImmutableSetAdaptor</title>
<path fill="none" stroke="#7f7f7f" d="M1008.53,-431.876C995.95,-422.893 980.368,-411.763 966.748,-402.034"/>
<polygon fill="#7f7f7f" stroke="#7f7f7f" points="968.737,-399.154 958.566,-396.19 964.669,-404.85 968.737,-399.154"/>
</g>
<!-- Set&#45;&gt;LinkedHashSet -->
<g id="edge17" class="edge"><title>Set&#45;&gt;LinkedHashSet</title>
<path fill="none" stroke="#7f7f7f" d="M1029.69,-431.723C1026.55,-413.631 1020.91,-384.499 1013.5,-360 1010.86,-351.285 1007.41,-341.988 1004.07,-333.654"/>
<polygon fill="#7f7f7f" stroke="#7f7f7f" points="1007.3,-332.314 1000.25,-324.406 1000.83,-334.985 1007.3,-332.314"/>
</g>
<!-- ObservableSet -->
<g id="node31" class="node"><title>ObservableSet</title>
<path fill="#6dc6e6" stroke="#6dc6e6" d="M1147.5,-324C1147.5,-324 1073.5,-324 1073.5,-324 1067.5,-324 1061.5,-318 1061.5,-312 1061.5,-312 1061.5,-300 1061.5,-300 1061.5,-294 1067.5,-288 1073.5,-288 1073.5,-288 1147.5,-288 1147.5,-288 1153.5,-288 1159.5,-294 1159.5,-300 1159.5,-300 1159.5,-312 1159.5,-312 1159.5,-318 1153.5,-324 1147.5,-324"/>
<text text-anchor="middle" x="1110.5" y="-302.3" font-family="Times New Roman,serif" font-size="14.00" fill="#ffffff">ObservableSet</text>
</g>
<!-- Set&#45;&gt;ObservableSet -->
<g id="edge15" class="edge"><title>Set&#45;&gt;ObservableSet</title>
<path fill="none" stroke="#7f7f7f" d="M1041.91,-431.871C1055.38,-407.35 1080.27,-362.032 1096.08,-333.259"/>
<polygon fill="#7f7f7f" stroke="#7f7f7f" points="1099.31,-334.639 1101.06,-324.189 1093.18,-331.269 1099.31,-334.639"/>
</g>
<!-- SynchronizedSet -->
<g id="node32" class="node"><title>SynchronizedSet</title>
<path fill="#6dc6e6" stroke="#6dc6e6" d="M1198,-396C1198,-396 1111,-396 1111,-396 1105,-396 1099,-390 1099,-384 1099,-384 1099,-372 1099,-372 1099,-366 1105,-360 1111,-360 1111,-360 1198,-360 1198,-360 1204,-360 1210,-366 1210,-372 1210,-372 1210,-384 1210,-384 1210,-390 1204,-396 1198,-396"/>
<text text-anchor="middle" x="1154.5" y="-374.3" font-family="Times New Roman,serif" font-size="14.00" fill="#ffffff">SynchronizedSet</text>
</g>
<!-- Set&#45;&gt;SynchronizedSet -->
<g id="edge18" class="edge"><title>Set&#45;&gt;SynchronizedSet</title>
<path fill="none" stroke="#7f7f7f" d="M1059.58,-433.465C1076.11,-423.98 1097.51,-411.7 1115.81,-401.201"/>
<polygon fill="#7f7f7f" stroke="#7f7f7f" points="1117.57,-404.223 1124.5,-396.211 1114.09,-398.152 1117.57,-404.223"/>
</g>
<!-- SortedSet -->
<g id="node33" class="node"><title>SortedSet</title>
<path fill="#6dc6e6" stroke="#6dc6e6" d="M1288.5,-396C1288.5,-396 1240.5,-396 1240.5,-396 1234.5,-396 1228.5,-390 1228.5,-384 1228.5,-384 1228.5,-372 1228.5,-372 1228.5,-366 1234.5,-360 1240.5,-360 1240.5,-360 1288.5,-360 1288.5,-360 1294.5,-360 1300.5,-366 1300.5,-372 1300.5,-372 1300.5,-384 1300.5,-384 1300.5,-390 1294.5,-396 1288.5,-396"/>
<text text-anchor="middle" x="1264.5" y="-374.3" font-family="Times New Roman,serif" font-size="14.00" fill="#ffffff">SortedSet</text>
</g>
<!-- Set&#45;&gt;SortedSet -->
<g id="edge19" class="edge"><title>Set&#45;&gt;SortedSet</title>
<path fill="none" stroke="#7f7f7f" d="M1059.8,-441.921C1096.24,-432.315 1162.65,-414.249 1218.5,-396 1218.6,-395.967 1218.7,-395.934 1218.8,-395.901"/>
<polygon fill="#7f7f7f" stroke="#7f7f7f" points="1220.09,-399.16 1228.43,-392.626 1217.84,-392.532 1220.09,-399.16"/>
</g>
<!-- BitSet -->
<g id="node34" class="node"><title>BitSet</title>
<path fill="#6dc6e6" stroke="#6dc6e6" d="M1279.5,-324C1279.5,-324 1249.5,-324 1249.5,-324 1243.5,-324 1237.5,-318 1237.5,-312 1237.5,-312 1237.5,-300 1237.5,-300 1237.5,-294 1243.5,-288 1249.5,-288 1249.5,-288 1279.5,-288 1279.5,-288 1285.5,-288 1291.5,-294 1291.5,-300 1291.5,-300 1291.5,-312 1291.5,-312 1291.5,-318 1285.5,-324 1279.5,-324"/>
<text text-anchor="middle" x="1264.5" y="-302.3" font-family="Times New Roman,serif" font-size="14.00" fill="#ffffff">BitSet</text>
</g>
<!-- SortedSet&#45;&gt;BitSet -->
<g id="edge20" class="edge"><title>SortedSet&#45;&gt;BitSet</title>
<path fill="none" stroke="#7f7f7f" d="M1264.5,-359.697C1264.5,-351.983 1264.5,-342.712 1264.5,-334.112"/>
<polygon fill="#7f7f7f" stroke="#7f7f7f" points="1268,-334.104 1264.5,-324.104 1261,-334.104 1268,-334.104"/>
</g>
<!-- LinearSeq&#45;&gt;MutableList -->
<g id="edge27" class="edge"><title>LinearSeq&#45;&gt;MutableList</title>
<path fill="none" stroke="#7f7f7f" stroke-width="4" d="M781.527,-215.876C768.95,-206.893 753.368,-195.763 739.748,-186.034"/>
<polygon fill="#7f7f7f" stroke="#7f7f7f" stroke-width="4" points="741.737,-183.154 731.566,-180.19 737.669,-188.85 741.737,-183.154"/>
</g>
<!-- LinearSeq&#45;&gt;LinkedList -->
<g id="edge28" class="edge"><title>LinearSeq&#45;&gt;LinkedList</title>
<path fill="none" stroke="#7f7f7f" d="M805.5,-215.697C805.5,-207.983 805.5,-198.712 805.5,-190.112"/>
<polygon fill="#7f7f7f" stroke="#7f7f7f" points="809,-190.104 805.5,-180.104 802,-190.104 809,-190.104"/>
</g>
<!-- LinearSeq&#45;&gt;DoubleLinkedList -->
<g id="edge29" class="edge"><title>LinearSeq&#45;&gt;DoubleLinkedList</title>
<path fill="none" stroke="#7f7f7f" d="M825.089,-215.645C834.742,-206.056 845.733,-193.391 852.5,-180 862.269,-160.668 867.024,-136.518 869.333,-118.254"/>
<polygon fill="#7f7f7f" stroke="#7f7f7f" points="872.818,-118.583 870.43,-108.261 865.86,-117.82 872.818,-118.583"/>
</g>
<!-- IndexedSeq&#45;&gt;ArraySeq -->
<g id="edge30" class="edge"><title>IndexedSeq&#45;&gt;ArraySeq</title>
<path fill="none" stroke="#7f7f7f" d="M957.837,-215.697C954.308,-207.728 950.044,-198.1 946.131,-189.264"/>
<polygon fill="#7f7f7f" stroke="#7f7f7f" points="949.324,-187.831 942.075,-180.104 942.924,-190.665 949.324,-187.831"/>
</g>
<!-- IndexedSeq&#45;&gt;ArrayBuffer -->
<g id="edge32" class="edge"><title>IndexedSeq&#45;&gt;ArrayBuffer</title>
<path fill="none" stroke="#7f7f7f" stroke-width="4" d="M990.452,-215.876C1003.54,-206.893 1019.76,-195.763 1033.94,-186.034"/>
<polygon fill="#7f7f7f" stroke="#7f7f7f" stroke-width="4" points="1036.19,-188.734 1042.45,-180.19 1032.23,-182.962 1036.19,-188.734"/>
</g>
<!-- IndexedSeq&#45;&gt;StringBuilder -->
<g id="edge31" class="edge"><title>IndexedSeq&#45;&gt;StringBuilder</title>
<path fill="none" stroke="#7f7f7f" d="M969.847,-215.845C972.438,-205.484 975.747,-192.005 978.5,-180 983.238,-159.34 988.228,-135.892 991.905,-118.252"/>
<polygon fill="#7f7f7f" stroke="#7f7f7f" points="995.407,-118.598 994.01,-108.096 988.553,-117.177 995.407,-118.598"/>
</g>
<!-- Buffer&#45;&gt;ArrayBuffer -->
<g id="edge33" class="edge"><title>Buffer&#45;&gt;ArrayBuffer</title>
<path fill="none" stroke="#7f7f7f" stroke-width="4" d="M1120.2,-215.697C1111.64,-207.135 1101.16,-196.656 1091.8,-187.304"/>
<polygon fill="#7f7f7f" stroke="#7f7f7f" stroke-width="4" points="1094.15,-184.701 1084.6,-180.104 1089.2,-189.65 1094.15,-184.701"/>
</g>
<!-- Buffer&#45;&gt;ListBuffer -->
<g id="edge36" class="edge"><title>Buffer&#45;&gt;ListBuffer</title>
<path fill="none" stroke="#7f7f7f" d="M1134.97,-215.871C1131.39,-191.67 1124.81,-147.211 1120.55,-118.393"/>
<polygon fill="#7f7f7f" stroke="#7f7f7f" points="1123.97,-117.57 1119.04,-108.189 1117.04,-118.594 1123.97,-117.57"/>
</g>
<!-- ObservableBuffer -->
<g id="node38" class="node"><title>ObservableBuffer</title>
<path fill="#6dc6e6" stroke="#6dc6e6" d="M1275.5,-108C1275.5,-108 1183.5,-108 1183.5,-108 1177.5,-108 1171.5,-102 1171.5,-96 1171.5,-96 1171.5,-84 1171.5,-84 1171.5,-78 1177.5,-72 1183.5,-72 1183.5,-72 1275.5,-72 1275.5,-72 1281.5,-72 1287.5,-78 1287.5,-84 1287.5,-84 1287.5,-96 1287.5,-96 1287.5,-102 1281.5,-108 1275.5,-108"/>
<text text-anchor="middle" x="1229.5" y="-86.3" font-family="Times New Roman,serif" font-size="14.00" fill="#ffffff">ObservableBuffer</text>
</g>
<!-- Buffer&#45;&gt;ObservableBuffer -->
<g id="edge34" class="edge"><title>Buffer&#45;&gt;ObservableBuffer</title>
<path fill="none" stroke="#7f7f7f" d="M1148.6,-215.871C1164.55,-191.244 1194.1,-145.638 1212.73,-116.885"/>
<polygon fill="#7f7f7f" stroke="#7f7f7f" points="1215.86,-118.485 1218.36,-108.189 1209.99,-114.679 1215.86,-118.485"/>
</g>
<!-- SynchronizedBuffer -->
<g id="node39" class="node"><title>SynchronizedBuffer</title>
<path fill="#6dc6e6" stroke="#6dc6e6" d="M1346.5,-180C1346.5,-180 1242.5,-180 1242.5,-180 1236.5,-180 1230.5,-174 1230.5,-168 1230.5,-168 1230.5,-156 1230.5,-156 1230.5,-150 1236.5,-144 1242.5,-144 1242.5,-144 1346.5,-144 1346.5,-144 1352.5,-144 1358.5,-150 1358.5,-156 1358.5,-156 1358.5,-168 1358.5,-168 1358.5,-174 1352.5,-180 1346.5,-180"/>
<text text-anchor="middle" x="1294.5" y="-158.3" font-family="Times New Roman,serif" font-size="14.00" fill="#ffffff">SynchronizedBuffer</text>
</g>
<!-- Buffer&#45;&gt;SynchronizedBuffer -->
<g id="edge35" class="edge"><title>Buffer&#45;&gt;SynchronizedBuffer</title>
<path fill="none" stroke="#7f7f7f" d="M1164.85,-220.807C1187.48,-210.716 1220.16,-196.144 1247.05,-184.156"/>
<polygon fill="#7f7f7f" stroke="#7f7f7f" points="1248.59,-187.303 1256.29,-180.034 1245.74,-180.91 1248.59,-187.303"/>
</g>
<!-- Queue&#45;&gt;SynchronizedQueue -->
<g id="edge40" class="edge"><title>Queue&#45;&gt;SynchronizedQueue</title>
<path fill="none" stroke="#7f7f7f" d="M707.5,-71.6966C707.5,-63.9827 707.5,-54.7125 707.5,-46.1124"/>
<polygon fill="#7f7f7f" stroke="#7f7f7f" points="711,-46.1043 707.5,-36.1043 704,-46.1044 711,-46.1043"/>
</g>
</g>
</svg>
