<?xml version="1.0" encoding="UTF-8" standalone="no"?>
<!DOCTYPE svg PUBLIC "-//W3C//DTD SVG 1.1//EN"
 "http://www.w3.org/Graphics/SVG/1.1/DTD/svg11.dtd">
<!-- Generated by graphviz version 2.38.0 (20140413.2041)
 -->
<!-- Title: ImmutableCollections Pages: 1 -->
<svg width="614pt" height="476pt"
 viewBox="0.00 0.00 614.00 476.00" xmlns="http://www.w3.org/2000/svg" xmlns:xlink="http://www.w3.org/1999/xlink">
<g id="graph0" class="graph" transform="scale(1 1) rotate(0) translate(4 472)">
<title>ImmutableCollections</title>
<polygon fill="white" stroke="none" points="-4,4 -4,-472 610,-472 610,4 -4,4"/>
<!-- HashSet -->
<g id="node1" class="node"><title>HashSet</title>
<path fill="#4a5659" stroke="#4a5659" d="M115,-252C115,-252 77,-252 77,-252 71,-252 65,-246 65,-240 65,-240 65,-228 65,-228 65,-222 71,-216 77,-216 77,-216 115,-216 115,-216 121,-216 127,-222 127,-228 127,-228 127,-240 127,-240 127,-246 121,-252 115,-252"/>
<text text-anchor="middle" x="96" y="-230.3" font-family="Times,serif" font-size="14.00" fill="#ffffff">HashSet</text>
</g>
<!-- TreeSet -->
<g id="node2" class="node"><title>TreeSet</title>
<path fill="#4a5659" stroke="#4a5659" d="M195.5,-180C195.5,-180 160.5,-180 160.5,-180 154.5,-180 148.5,-174 148.5,-168 148.5,-168 148.5,-156 148.5,-156 148.5,-150 154.5,-144 160.5,-144 160.5,-144 195.5,-144 195.5,-144 201.5,-144 207.5,-150 207.5,-156 207.5,-156 207.5,-168 207.5,-168 207.5,-174 201.5,-180 195.5,-180"/>
<text text-anchor="middle" x="178" y="-158.3" font-family="Times,serif" font-size="14.00" fill="#ffffff">TreeSet</text>
</g>
<!-- ListSet -->
<g id="node3" class="node"><title>ListSet</title>
<path fill="#4a5659" stroke="#4a5659" d="M188.5,-252C188.5,-252 157.5,-252 157.5,-252 151.5,-252 145.5,-246 145.5,-240 145.5,-240 145.5,-228 145.5,-228 145.5,-222 151.5,-216 157.5,-216 157.5,-216 188.5,-216 188.5,-216 194.5,-216 200.5,-222 200.5,-228 200.5,-228 200.5,-240 200.5,-240 200.5,-246 194.5,-252 188.5,-252"/>
<text text-anchor="middle" x="173" y="-230.3" font-family="Times,serif" font-size="14.00" fill="#ffffff">ListSet</text>
</g>
<!-- HashMap -->
<g id="node4" class="node"><title>HashMap</title>
<path fill="#4a5659" stroke="#4a5659" d="M406,-252C406,-252 360,-252 360,-252 354,-252 348,-246 348,-240 348,-240 348,-228 348,-228 348,-222 354,-216 360,-216 360,-216 406,-216 406,-216 412,-216 418,-222 418,-228 418,-228 418,-240 418,-240 418,-246 412,-252 406,-252"/>
<text text-anchor="middle" x="383" y="-230.3" font-family="Times,serif" font-size="14.00" fill="#ffffff">HashMap</text>
</g>
<!-- TreeMap -->
<g id="node5" class="node"><title>TreeMap</title>
<path fill="#4a5659" stroke="#4a5659" d="M577.5,-180C577.5,-180 534.5,-180 534.5,-180 528.5,-180 522.5,-174 522.5,-168 522.5,-168 522.5,-156 522.5,-156 522.5,-150 528.5,-144 534.5,-144 534.5,-144 577.5,-144 577.5,-144 583.5,-144 589.5,-150 589.5,-156 589.5,-156 589.5,-168 589.5,-168 589.5,-174 583.5,-180 577.5,-180"/>
<text text-anchor="middle" x="556" y="-158.3" font-family="Times,serif" font-size="14.00" fill="#ffffff">TreeMap</text>
</g>
<!-- ListMap -->
<g id="node6" class="node"><title>ListMap</title>
<path fill="#4a5659" stroke="#4a5659" d="M487.5,-252C487.5,-252 448.5,-252 448.5,-252 442.5,-252 436.5,-246 436.5,-240 436.5,-240 436.5,-228 436.5,-228 436.5,-222 442.5,-216 448.5,-216 448.5,-216 487.5,-216 487.5,-216 493.5,-216 499.5,-222 499.5,-228 499.5,-228 499.5,-240 499.5,-240 499.5,-246 493.5,-252 487.5,-252"/>
<text text-anchor="middle" x="468" y="-230.3" font-family="Times,serif" font-size="14.00" fill="#ffffff">ListMap</text>
</g>
<!-- Vector -->
<g id="node7" class="node"><title>Vector</title>
<path fill="#4a5659" stroke="#4a5659" d="M42,-36C42,-36 12,-36 12,-36 6,-36 0,-30 0,-24 0,-24 0,-12 0,-12 0,-6 6,-0 12,-0 12,-0 42,-0 42,-0 48,-0 54,-6 54,-12 54,-12 54,-24 54,-24 54,-30 48,-36 42,-36"/>
<text text-anchor="middle" x="27" y="-14.3" font-family="Times,serif" font-size="14.00" fill="#ffffff">Vector</text>
</g>
<!-- NumericRange -->
<g id="node8" class="node"><title>NumericRange</title>
<path fill="#4a5659" stroke="#4a5659" d="M159.5,-36C159.5,-36 84.5,-36 84.5,-36 78.5,-36 72.5,-30 72.5,-24 72.5,-24 72.5,-12 72.5,-12 72.5,-6 78.5,-0 84.5,-0 84.5,-0 159.5,-0 159.5,-0 165.5,-0 171.5,-6 171.5,-12 171.5,-12 171.5,-24 171.5,-24 171.5,-30 165.5,-36 159.5,-36"/>
<text text-anchor="middle" x="122" y="-14.3" font-family="Times,serif" font-size="14.00" fill="#ffffff">NumericRange</text>
</g>
<!-- String -->
<g id="node9" class="node"><title>String</title>
<path fill="#4a5659" stroke="#4a5659" d="M232,-36C232,-36 202,-36 202,-36 196,-36 190,-30 190,-24 190,-24 190,-12 190,-12 190,-6 196,-0 202,-0 202,-0 232,-0 232,-0 238,-0 244,-6 244,-12 244,-12 244,-24 244,-24 244,-30 238,-36 232,-36"/>
<text text-anchor="middle" x="217" y="-14.3" font-family="Times,serif" font-size="14.00" fill="#ffffff">String</text>
</g>
<!-- Range -->
<g id="node10" class="node"><title>Range</title>
<path fill="#4a5659" stroke="#4a5659" d="M304,-36C304,-36 274,-36 274,-36 268,-36 262,-30 262,-24 262,-24 262,-12 262,-12 262,-6 268,-0 274,-0 274,-0 304,-0 304,-0 310,-0 316,-6 316,-12 316,-12 316,-24 316,-24 316,-30 310,-36 304,-36"/>
<text text-anchor="middle" x="289" y="-14.3" font-family="Times,serif" font-size="14.00" fill="#ffffff">Range</text>
</g>
<!-- List -->
<g id="node11" class="node"><title>List</title>
<path fill="#4a5659" stroke="#4a5659" d="M376,-36C376,-36 346,-36 346,-36 340,-36 334,-30 334,-24 334,-24 334,-12 334,-12 334,-6 340,-0 346,-0 346,-0 376,-0 376,-0 382,-0 388,-6 388,-12 388,-12 388,-24 388,-24 388,-30 382,-36 376,-36"/>
<text text-anchor="middle" x="361" y="-14.3" font-family="Times,serif" font-size="14.00" fill="#ffffff">List</text>
</g>
<!-- Stack -->
<g id="node12" class="node"><title>Stack</title>
<path fill="#4a5659" stroke="#4a5659" d="M448,-36C448,-36 418,-36 418,-36 412,-36 406,-30 406,-24 406,-24 406,-12 406,-12 406,-6 412,-0 418,-0 418,-0 448,-0 448,-0 454,-0 460,-6 460,-12 460,-12 460,-24 460,-24 460,-30 454,-36 448,-36"/>
<text text-anchor="middle" x="433" y="-14.3" font-family="Times,serif" font-size="14.00" fill="#ffffff">Stack</text>
</g>
<!-- Stream -->
<g id="node13" class="node"><title>Stream</title>
<path fill="#4a5659" stroke="#4a5659" d="M522,-36C522,-36 490,-36 490,-36 484,-36 478,-30 478,-24 478,-24 478,-12 478,-12 478,-6 484,-0 490,-0 490,-0 522,-0 522,-0 528,-0 534,-6 534,-12 534,-12 534,-24 534,-24 534,-30 528,-36 522,-36"/>
<text text-anchor="middle" x="506" y="-14.3" font-family="Times,serif" font-size="14.00" fill="#ffffff">Stream</text>
</g>
<!-- Queue -->
<g id="node14" class="node"><title>Queue</title>
<path fill="#4a5659" stroke="#4a5659" d="M594,-36C594,-36 564,-36 564,-36 558,-36 552,-30 552,-24 552,-24 552,-12 552,-12 552,-6 558,-0 564,-0 564,-0 594,-0 594,-0 600,-0 606,-6 606,-12 606,-12 606,-24 606,-24 606,-30 600,-36 594,-36"/>
<text text-anchor="middle" x="579" y="-14.3" font-family="Times,serif" font-size="14.00" fill="#ffffff">Queue</text>
</g>
<!-- Traversable -->
<g id="node15" class="node"><title>Traversable</title>
<path fill="#6dc6e6" stroke="#6dc6e6" d="M348,-468C348,-468 292,-468 292,-468 286,-468 280,-462 280,-456 280,-456 280,-444 280,-444 280,-438 286,-432 292,-432 292,-432 348,-432 348,-432 354,-432 360,-438 360,-444 360,-444 360,-456 360,-456 360,-462 354,-468 348,-468"/>
<text text-anchor="middle" x="320" y="-446.3" font-family="Times,serif" font-size="14.00" fill="#ffffff">Traversable</text>
</g>
<!-- Iterable -->
<g id="node16" class="node"><title>Iterable</title>
<path fill="#6dc6e6" stroke="#6dc6e6" d="M337,-396C337,-396 303,-396 303,-396 297,-396 291,-390 291,-384 291,-384 291,-372 291,-372 291,-366 297,-360 303,-360 303,-360 337,-360 337,-360 343,-360 349,-366 349,-372 349,-372 349,-384 349,-384 349,-390 343,-396 337,-396"/>
<text text-anchor="middle" x="320" y="-374.3" font-family="Times,serif" font-size="14.00" fill="#ffffff">Iterable</text>
</g>
<!-- Traversable&#45;&gt;Iterable -->
<g id="edge1" class="edge"><title>Traversable&#45;&gt;Iterable</title>
<path fill="none" stroke="#7f7f7f" stroke-width="4" d="M320,-431.697C320,-423.983 320,-414.712 320,-406.112"/>
<polygon fill="#7f7f7f" stroke="#7f7f7f" stroke-width="4" points="323.5,-406.104 320,-396.104 316.5,-406.104 323.5,-406.104"/>
</g>
<!-- Set -->
<g id="node17" class="node"><title>Set</title>
<path fill="#6dc6e6" stroke="#6dc6e6" d="M228,-324C228,-324 198,-324 198,-324 192,-324 186,-318 186,-312 186,-312 186,-300 186,-300 186,-294 192,-288 198,-288 198,-288 228,-288 228,-288 234,-288 240,-294 240,-300 240,-300 240,-312 240,-312 240,-318 234,-324 228,-324"/>
<text text-anchor="middle" x="213" y="-302.3" font-family="Times,serif" font-size="14.00" fill="#ffffff">Set</text>
</g>
<!-- Iterable&#45;&gt;Set -->
<g id="edge2" class="edge"><title>Iterable&#45;&gt;Set</title>
<path fill="none" stroke="#7f7f7f" d="M293.825,-359.876C279.964,-350.808 262.759,-339.552 247.789,-329.759"/>
<polygon fill="#7f7f7f" stroke="#7f7f7f" points="249.56,-326.735 239.276,-324.19 245.728,-332.593 249.56,-326.735"/>
</g>
<!-- Seq -->
<g id="node18" class="node"><title>Seq</title>
<path fill="#6dc6e6" stroke="#6dc6e6" d="M340,-180C340,-180 310,-180 310,-180 304,-180 298,-174 298,-168 298,-168 298,-156 298,-156 298,-150 304,-144 310,-144 310,-144 340,-144 340,-144 346,-144 352,-150 352,-156 352,-156 352,-168 352,-168 352,-174 346,-180 340,-180"/>
<text text-anchor="middle" x="325" y="-158.3" font-family="Times,serif" font-size="14.00" fill="#ffffff">Seq</text>
</g>
<!-- Iterable&#45;&gt;Seq -->
<g id="edge3" class="edge"><title>Iterable&#45;&gt;Seq</title>
<path fill="none" stroke="#7f7f7f" stroke-width="4" d="M320.401,-359.849C321.266,-322.832 323.314,-235.181 324.36,-190.386"/>
<polygon fill="#7f7f7f" stroke="#7f7f7f" stroke-width="4" points="327.863,-190.312 324.597,-180.232 320.865,-190.148 327.863,-190.312"/>
</g>
<!-- Map -->
<g id="node19" class="node"><title>Map</title>
<path fill="#6dc6e6" stroke="#6dc6e6" d="M440,-324C440,-324 410,-324 410,-324 404,-324 398,-318 398,-312 398,-312 398,-300 398,-300 398,-294 404,-288 410,-288 410,-288 440,-288 440,-288 446,-288 452,-294 452,-300 452,-300 452,-312 452,-312 452,-318 446,-324 440,-324"/>
<text text-anchor="middle" x="425" y="-302.3" font-family="Times,serif" font-size="14.00" fill="#ffffff">Map</text>
</g>
<!-- Iterable&#45;&gt;Map -->
<g id="edge4" class="edge"><title>Iterable&#45;&gt;Map</title>
<path fill="none" stroke="#7f7f7f" d="M345.686,-359.876C359.288,-350.808 376.172,-339.552 390.861,-329.759"/>
<polygon fill="#7f7f7f" stroke="#7f7f7f" points="392.836,-332.649 399.215,-324.19 388.953,-326.825 392.836,-332.649"/>
</g>
<!-- Set&#45;&gt;HashSet -->
<g id="edge6" class="edge"><title>Set&#45;&gt;HashSet</title>
<path fill="none" stroke="#7f7f7f" stroke-width="4" d="M185.864,-288.765C170.228,-279.41 150.348,-267.516 133.263,-257.294"/>
<polygon fill="#7f7f7f" stroke="#7f7f7f" stroke-width="4" points="135,-254.255 124.621,-252.124 131.406,-260.262 135,-254.255"/>
</g>
<!-- Set&#45;&gt;ListSet -->
<g id="edge7" class="edge"><title>Set&#45;&gt;ListSet</title>
<path fill="none" stroke="#7f7f7f" d="M203.112,-287.697C198.511,-279.644 192.94,-269.894 187.847,-260.982"/>
<polygon fill="#7f7f7f" stroke="#7f7f7f" points="190.774,-259.05 182.774,-252.104 184.696,-262.523 190.774,-259.05"/>
</g>
<!-- SortedSet -->
<g id="node20" class="node"><title>SortedSet</title>
<path fill="#6dc6e6" stroke="#6dc6e6" d="M275.5,-252C275.5,-252 230.5,-252 230.5,-252 224.5,-252 218.5,-246 218.5,-240 218.5,-240 218.5,-228 218.5,-228 218.5,-222 224.5,-216 230.5,-216 230.5,-216 275.5,-216 275.5,-216 281.5,-216 287.5,-222 287.5,-228 287.5,-228 287.5,-240 287.5,-240 287.5,-246 281.5,-252 275.5,-252"/>
<text text-anchor="middle" x="253" y="-230.3" font-family="Times,serif" font-size="14.00" fill="#ffffff">SortedSet</text>
</g>
<!-- Set&#45;&gt;SortedSet -->
<g id="edge5" class="edge"><title>Set&#45;&gt;SortedSet</title>
<path fill="none" stroke="#7f7f7f" d="M222.888,-287.697C227.489,-279.644 233.06,-269.894 238.153,-260.982"/>
<polygon fill="#7f7f7f" stroke="#7f7f7f" points="241.304,-262.523 243.226,-252.104 235.226,-259.05 241.304,-262.523"/>
</g>
<!-- IndexedSeq -->
<g id="node22" class="node"><title>IndexedSeq</title>
<path fill="#6dc6e6" stroke="#6dc6e6" d="M245,-108C245,-108 189,-108 189,-108 183,-108 177,-102 177,-96 177,-96 177,-84 177,-84 177,-78 183,-72 189,-72 189,-72 245,-72 245,-72 251,-72 257,-78 257,-84 257,-84 257,-96 257,-96 257,-102 251,-108 245,-108"/>
<text text-anchor="middle" x="217" y="-86.3" font-family="Times,serif" font-size="14.00" fill="#ffffff">IndexedSeq</text>
</g>
<!-- Seq&#45;&gt;IndexedSeq -->
<g id="edge10" class="edge"><title>Seq&#45;&gt;IndexedSeq</title>
<path fill="none" stroke="#7f7f7f" d="M298.58,-143.876C284.59,-134.808 267.224,-123.552 252.114,-113.759"/>
<polygon fill="#7f7f7f" stroke="#7f7f7f" points="253.817,-110.692 243.521,-108.19 250.009,-116.566 253.817,-110.692"/>
</g>
<!-- LinearSeq -->
<g id="node23" class="node"><title>LinearSeq</title>
<path fill="#6dc6e6" stroke="#6dc6e6" d="M457,-108C457,-108 409,-108 409,-108 403,-108 397,-102 397,-96 397,-96 397,-84 397,-84 397,-78 403,-72 409,-72 409,-72 457,-72 457,-72 463,-72 469,-78 469,-84 469,-84 469,-96 469,-96 469,-102 463,-108 457,-108"/>
<text text-anchor="middle" x="433" y="-86.3" font-family="Times,serif" font-size="14.00" fill="#ffffff">LinearSeq</text>
</g>
<!-- Seq&#45;&gt;LinearSeq -->
<g id="edge11" class="edge"><title>Seq&#45;&gt;LinearSeq</title>
<path fill="none" stroke="#7f7f7f" stroke-width="4" d="M351.42,-143.876C365.41,-134.808 382.776,-123.552 397.886,-113.759"/>
<polygon fill="#7f7f7f" stroke="#7f7f7f" stroke-width="4" points="399.991,-116.566 406.479,-108.19 396.183,-110.692 399.991,-116.566"/>
</g>
<!-- Map&#45;&gt;HashMap -->
<g id="edge20" class="edge"><title>Map&#45;&gt;HashMap</title>
<path fill="none" stroke="#7f7f7f" stroke-width="4" d="M414.618,-287.697C409.735,-279.559 403.813,-269.689 398.421,-260.701"/>
<polygon fill="#7f7f7f" stroke="#7f7f7f" stroke-width="4" points="401.409,-258.879 393.263,-252.104 395.406,-262.48 401.409,-258.879"/>
</g>
<!-- Map&#45;&gt;ListMap -->
<g id="edge21" class="edge"><title>Map&#45;&gt;ListMap</title>
<path fill="none" stroke="#7f7f7f" d="M435.629,-287.697C440.628,-279.559 446.691,-269.689 452.212,-260.701"/>
<polygon fill="#7f7f7f" stroke="#7f7f7f" points="455.241,-262.457 457.493,-252.104 449.277,-258.793 455.241,-262.457"/>
</g>
<!-- SortedMap -->
<g id="node24" class="node"><title>SortedMap</title>
<path fill="#6dc6e6" stroke="#6dc6e6" d="M582.5,-252C582.5,-252 529.5,-252 529.5,-252 523.5,-252 517.5,-246 517.5,-240 517.5,-240 517.5,-228 517.5,-228 517.5,-222 523.5,-216 529.5,-216 529.5,-216 582.5,-216 582.5,-216 588.5,-216 594.5,-222 594.5,-228 594.5,-228 594.5,-240 594.5,-240 594.5,-246 588.5,-252 582.5,-252"/>
<text text-anchor="middle" x="556" y="-230.3" font-family="Times,serif" font-size="14.00" fill="#ffffff">SortedMap</text>
</g>
<!-- Map&#45;&gt;SortedMap -->
<g id="edge22" class="edge"><title>Map&#45;&gt;SortedMap</title>
<path fill="none" stroke="#7f7f7f" d="M452.143,-290.496C470.21,-280.842 494.289,-267.975 514.713,-257.062"/>
<polygon fill="#7f7f7f" stroke="#7f7f7f" points="516.634,-260.004 523.804,-252.204 513.335,-253.83 516.634,-260.004"/>
</g>
<!-- SortedSet&#45;&gt;TreeSet -->
<g id="edge9" class="edge"><title>SortedSet&#45;&gt;TreeSet</title>
<path fill="none" stroke="#7f7f7f" d="M234.461,-215.697C225.197,-207.05 213.838,-196.449 203.743,-187.027"/>
<polygon fill="#7f7f7f" stroke="#7f7f7f" points="206.025,-184.369 196.326,-180.104 201.249,-189.486 206.025,-184.369"/>
</g>
<!-- BitSet -->
<g id="node21" class="node"><title>BitSet</title>
<path fill="#6dc6e6" stroke="#6dc6e6" d="M268,-180C268,-180 238,-180 238,-180 232,-180 226,-174 226,-168 226,-168 226,-156 226,-156 226,-150 232,-144 238,-144 238,-144 268,-144 268,-144 274,-144 280,-150 280,-156 280,-156 280,-168 280,-168 280,-174 274,-180 268,-180"/>
<text text-anchor="middle" x="253" y="-158.3" font-family="Times,serif" font-size="14.00" fill="#ffffff">BitSet</text>
</g>
<!-- SortedSet&#45;&gt;BitSet -->
<g id="edge8" class="edge"><title>SortedSet&#45;&gt;BitSet</title>
<path fill="none" stroke="#7f7f7f" d="M253,-215.697C253,-207.983 253,-198.712 253,-190.112"/>
<polygon fill="#7f7f7f" stroke="#7f7f7f" points="256.5,-190.104 253,-180.104 249.5,-190.104 256.5,-190.104"/>
</g>
<!-- IndexedSeq&#45;&gt;Vector -->
<g id="edge12" class="edge"><title>IndexedSeq&#45;&gt;Vector</title>
<path fill="none" stroke="#7f7f7f" stroke-width="4" d="M176.993,-76.5648C147.727,-67.1706 106.965,-53.4715 63.6565,-36.0764"/>
<polygon fill="#7f7f7f" stroke="#7f7f7f" stroke-width="4" points="64.9614,-32.8288 54.3794,-32.3086 62.3274,-39.3143 64.9614,-32.8288"/>
</g>
<!-- IndexedSeq&#45;&gt;NumericRange -->
<g id="edge13" class="edge"><title>IndexedSeq&#45;&gt;NumericRange</title>
<path fill="none" stroke="#7f7f7f" d="M193.517,-71.6966C181.437,-62.796 166.546,-51.8232 153.484,-42.1989"/>
<polygon fill="#7f7f7f" stroke="#7f7f7f" points="155.34,-39.2187 145.213,-36.1043 151.187,-44.8541 155.34,-39.2187"/>
</g>
<!-- IndexedSeq&#45;&gt;String -->
<g id="edge15" class="edge"><title>IndexedSeq&#45;&gt;String</title>
<path fill="none" stroke="#7f7f7f" stroke-dasharray="5,2" d="M217,-71.6966C217,-63.9827 217,-54.7125 217,-46.1124"/>
<polygon fill="#7f7f7f" stroke="#7f7f7f" points="220.5,-46.1043 217,-36.1043 213.5,-46.1044 220.5,-46.1043"/>
</g>
<!-- IndexedSeq&#45;&gt;Range -->
<g id="edge14" class="edge"><title>IndexedSeq&#45;&gt;Range</title>
<path fill="none" stroke="#7f7f7f" d="M234.798,-71.6966C243.604,-63.135 254.382,-52.6562 264.001,-43.3045"/>
<polygon fill="#7f7f7f" stroke="#7f7f7f" points="266.677,-45.5846 271.407,-36.1043 261.797,-40.5657 266.677,-45.5846"/>
</g>
<!-- LinearSeq&#45;&gt;List -->
<g id="edge16" class="edge"><title>LinearSeq&#45;&gt;List</title>
<path fill="none" stroke="#7f7f7f" stroke-width="4" d="M415.202,-71.6966C406.396,-63.135 395.618,-52.6562 385.999,-43.3045"/>
<polygon fill="#7f7f7f" stroke="#7f7f7f" stroke-width="4" points="388.203,-40.5657 378.593,-36.1043 383.323,-45.5846 388.203,-40.5657"/>
</g>
<!-- LinearSeq&#45;&gt;Stack -->
<g id="edge17" class="edge"><title>LinearSeq&#45;&gt;Stack</title>
<path fill="none" stroke="#7f7f7f" d="M433,-71.6966C433,-63.9827 433,-54.7125 433,-46.1124"/>
<polygon fill="#7f7f7f" stroke="#7f7f7f" points="436.5,-46.1043 433,-36.1043 429.5,-46.1044 436.5,-46.1043"/>
</g>
<!-- LinearSeq&#45;&gt;Stream -->
<g id="edge18" class="edge"><title>LinearSeq&#45;&gt;Stream</title>
<path fill="none" stroke="#7f7f7f" d="M451.045,-71.6966C460.062,-63.0503 471.118,-52.4486 480.943,-43.027"/>
<polygon fill="#7f7f7f" stroke="#7f7f7f" points="483.367,-45.5518 488.163,-36.1043 478.522,-40.4993 483.367,-45.5518"/>
</g>
<!-- LinearSeq&#45;&gt;Queue -->
<g id="edge19" class="edge"><title>LinearSeq&#45;&gt;Queue</title>
<path fill="none" stroke="#7f7f7f" d="M468.716,-71.8761C491.171,-61.1096 520.061,-47.2583 542.639,-36.4334"/>
<polygon fill="#7f7f7f" stroke="#7f7f7f" points="544.387,-39.4767 551.891,-31.9973 541.361,-33.1646 544.387,-39.4767"/>
</g>
<!-- SortedMap&#45;&gt;TreeMap -->
<g id="edge23" class="edge"><title>SortedMap&#45;&gt;TreeMap</title>
<path fill="none" stroke="#7f7f7f" d="M556,-215.697C556,-207.983 556,-198.712 556,-190.112"/>
<polygon fill="#7f7f7f" stroke="#7f7f7f" points="559.5,-190.104 556,-180.104 552.5,-190.104 559.5,-190.104"/>
</g>
</g>
</svg>
