<?xml version="1.0" encoding="UTF-8" standalone="no"?>
<!DOCTYPE svg PUBLIC "-//W3C//DTD SVG 1.1//EN"
 "http://www.w3.org/Graphics/SVG/1.1/DTD/svg11.dtd">
<!-- Generated by graphviz version 2.38.0 (20140413.2041)
 -->
<!-- Title: MutableCollections Pages: 1 -->
<svg width="836pt" height="476pt"
 viewBox="0.00 0.00 835.50 476.00" xmlns="http://www.w3.org/2000/svg" xmlns:xlink="http://www.w3.org/1999/xlink">
<g id="graph0" class="graph" transform="scale(1 1) rotate(0) translate(4 472)">
<title>MutableCollections</title>
<polygon fill="white" stroke="none" points="-4,4 -4,-472 831.5,-472 831.5,4 -4,4"/>
<!-- HashSet -->
<g id="node1" class="node"><title>HashSet</title>
<path fill="#4a5659" stroke="#4a5659" d="M50,-324C50,-324 12,-324 12,-324 6,-324 3.55271e-15,-318 3.55271e-15,-312 3.55271e-15,-312 3.55271e-15,-300 3.55271e-15,-300 3.55271e-15,-294 6,-288 12,-288 12,-288 50,-288 50,-288 56,-288 62,-294 62,-300 62,-300 62,-312 62,-312 62,-318 56,-324 50,-324"/>
<text text-anchor="middle" x="31" y="-302.3" font-family="Times,serif" font-size="14.00" fill="#ffffff">HashSet</text>
</g>
<!-- LinkedHashSet -->
<g id="node2" class="node"><title>LinkedHashSet</title>
<path fill="#4a5659" stroke="#4a5659" d="M128,-252C128,-252 52,-252 52,-252 46,-252 40,-246 40,-240 40,-240 40,-228 40,-228 40,-222 46,-216 52,-216 52,-216 128,-216 128,-216 134,-216 140,-222 140,-228 140,-228 140,-240 140,-240 140,-246 134,-252 128,-252"/>
<text text-anchor="middle" x="90" y="-230.3" font-family="Times,serif" font-size="14.00" fill="#ffffff">LinkedHashSet</text>
</g>
<!-- HashMap -->
<g id="node3" class="node"><title>HashMap</title>
<path fill="#4a5659" stroke="#4a5659" d="M264,-324C264,-324 218,-324 218,-324 212,-324 206,-318 206,-312 206,-312 206,-300 206,-300 206,-294 212,-288 218,-288 218,-288 264,-288 264,-288 270,-288 276,-294 276,-300 276,-300 276,-312 276,-312 276,-318 270,-324 264,-324"/>
<text text-anchor="middle" x="241" y="-302.3" font-family="Times,serif" font-size="14.00" fill="#ffffff">HashMap</text>
</g>
<!-- WeakHashMap -->
<g id="node4" class="node"><title>WeakHashMap</title>
<path fill="#4a5659" stroke="#4a5659" d="M331,-252C331,-252 253,-252 253,-252 247,-252 241,-246 241,-240 241,-240 241,-228 241,-228 241,-222 247,-216 253,-216 253,-216 331,-216 331,-216 337,-216 343,-222 343,-228 343,-228 343,-240 343,-240 343,-246 337,-252 331,-252"/>
<text text-anchor="middle" x="292" y="-230.3" font-family="Times,serif" font-size="14.00" fill="#ffffff">WeakHashMap</text>
</g>
<!-- LinkedHashMap -->
<g id="node5" class="node"><title>LinkedHashMap</title>
<path fill="#4a5659" stroke="#4a5659" d="M610,-252C610,-252 526,-252 526,-252 520,-252 514,-246 514,-240 514,-240 514,-228 514,-228 514,-222 520,-216 526,-216 526,-216 610,-216 610,-216 616,-216 622,-222 622,-228 622,-228 622,-240 622,-240 622,-246 616,-252 610,-252"/>
<text text-anchor="middle" x="568" y="-230.3" font-family="Times,serif" font-size="14.00" fill="#ffffff">LinkedHashMap</text>
</g>
<!-- ListMap -->
<g id="node6" class="node"><title>ListMap</title>
<path fill="#4a5659" stroke="#4a5659" d="M412.5,-252C412.5,-252 373.5,-252 373.5,-252 367.5,-252 361.5,-246 361.5,-240 361.5,-240 361.5,-228 361.5,-228 361.5,-222 367.5,-216 373.5,-216 373.5,-216 412.5,-216 412.5,-216 418.5,-216 424.5,-222 424.5,-228 424.5,-228 424.5,-240 424.5,-240 424.5,-246 418.5,-252 412.5,-252"/>
<text text-anchor="middle" x="393" y="-230.3" font-family="Times,serif" font-size="14.00" fill="#ffffff">ListMap</text>
</g>
<!-- TreeMap -->
<g id="node7" class="node"><title>TreeMap</title>
<path fill="#4a5659" stroke="#4a5659" d="M425.5,-324C425.5,-324 382.5,-324 382.5,-324 376.5,-324 370.5,-318 370.5,-312 370.5,-312 370.5,-300 370.5,-300 370.5,-294 376.5,-288 382.5,-288 382.5,-288 425.5,-288 425.5,-288 431.5,-288 437.5,-294 437.5,-300 437.5,-300 437.5,-312 437.5,-312 437.5,-318 431.5,-324 425.5,-324"/>
<text text-anchor="middle" x="404" y="-302.3" font-family="Times,serif" font-size="14.00" fill="#ffffff">TreeMap</text>
</g>
<!-- ArraySeq -->
<g id="node8" class="node"><title>ArraySeq</title>
<path fill="#4a5659" stroke="#4a5659" d="M509,-108C509,-108 465,-108 465,-108 459,-108 453,-102 453,-96 453,-96 453,-84 453,-84 453,-78 459,-72 465,-72 465,-72 509,-72 509,-72 515,-72 521,-78 521,-84 521,-84 521,-96 521,-96 521,-102 515,-108 509,-108"/>
<text text-anchor="middle" x="487" y="-86.3" font-family="Times,serif" font-size="14.00" fill="#ffffff">ArraySeq</text>
</g>
<!-- ArrayBuffer -->
<g id="node9" class="node"><title>ArrayBuffer</title>
<path fill="#4a5659" stroke="#4a5659" d="M750.5,-108C750.5,-108 691.5,-108 691.5,-108 685.5,-108 679.5,-102 679.5,-96 679.5,-96 679.5,-84 679.5,-84 679.5,-78 685.5,-72 691.5,-72 691.5,-72 750.5,-72 750.5,-72 756.5,-72 762.5,-78 762.5,-84 762.5,-84 762.5,-96 762.5,-96 762.5,-102 756.5,-108 750.5,-108"/>
<text text-anchor="middle" x="721" y="-86.3" font-family="Times,serif" font-size="14.00" fill="#ffffff">ArrayBuffer</text>
</g>
<!-- ArrayDeque -->
<g id="node10" class="node"><title>ArrayDeque</title>
<path fill="#4a5659" stroke="#4a5659" d="M649.5,-108C649.5,-108 590.5,-108 590.5,-108 584.5,-108 578.5,-102 578.5,-96 578.5,-96 578.5,-84 578.5,-84 578.5,-78 584.5,-72 590.5,-72 590.5,-72 649.5,-72 649.5,-72 655.5,-72 661.5,-78 661.5,-84 661.5,-84 661.5,-96 661.5,-96 661.5,-102 655.5,-108 649.5,-108"/>
<text text-anchor="middle" x="620" y="-86.3" font-family="Times,serif" font-size="14.00" fill="#ffffff">ArrayDeque</text>
</g>
<!-- Stack -->
<g id="node13" class="node"><title>Stack</title>
<path fill="#4a5659" stroke="#4a5659" d="M644,-36C644,-36 614,-36 614,-36 608,-36 602,-30 602,-24 602,-24 602,-12 602,-12 602,-6 608,-0 614,-0 614,-0 644,-0 644,-0 650,-0 656,-6 656,-12 656,-12 656,-24 656,-24 656,-30 650,-36 644,-36"/>
<text text-anchor="middle" x="629" y="-14.3" font-family="Times,serif" font-size="14.00" fill="#ffffff">Stack</text>
</g>
<!-- ArrayDeque&#45;&gt;Stack -->
<g id="edge18" class="edge"><title>ArrayDeque&#45;&gt;Stack</title>
<path fill="none" stroke="#7f7f7f" d="M622.225,-71.6966C623.217,-63.9827 624.408,-54.7125 625.514,-46.1124"/>
<polygon fill="#7f7f7f" stroke="#7f7f7f" points="628.997,-46.469 626.801,-36.1043 622.054,-45.5763 628.997,-46.469"/>
</g>
<!-- Queue -->
<g id="node14" class="node"><title>Queue</title>
<path fill="#4a5659" stroke="#4a5659" d="M716,-36C716,-36 686,-36 686,-36 680,-36 674,-30 674,-24 674,-24 674,-12 674,-12 674,-6 680,-0 686,-0 686,-0 716,-0 716,-0 722,-0 728,-6 728,-12 728,-12 728,-24 728,-24 728,-30 722,-36 716,-36"/>
<text text-anchor="middle" x="701" y="-14.3" font-family="Times,serif" font-size="14.00" fill="#ffffff">Queue</text>
</g>
<!-- ArrayDeque&#45;&gt;Queue -->
<g id="edge26" class="edge"><title>ArrayDeque&#45;&gt;Queue</title>
<path fill="none" stroke="#7f7f7f" d="M640.022,-71.6966C650.126,-62.9655 662.536,-52.2405 673.518,-42.7503"/>
<polygon fill="#7f7f7f" stroke="#7f7f7f" points="675.93,-45.2912 681.208,-36.1043 671.353,-39.9948 675.93,-45.2912"/>
</g>
<!-- StringBuilder -->
<g id="node11" class="node"><title>StringBuilder</title>
<path fill="#4a5659" stroke="#4a5659" d="M572,-36C572,-36 506,-36 506,-36 500,-36 494,-30 494,-24 494,-24 494,-12 494,-12 494,-6 500,-0 506,-0 506,-0 572,-0 572,-0 578,-0 584,-6 584,-12 584,-12 584,-24 584,-24 584,-30 578,-36 572,-36"/>
<text text-anchor="middle" x="539" y="-14.3" font-family="Times,serif" font-size="14.00" fill="#ffffff">StringBuilder</text>
</g>
<!-- ListBuffer -->
<g id="node12" class="node"><title>ListBuffer</title>
<path fill="#4a5659" stroke="#4a5659" d="M815.5,-36C815.5,-36 766.5,-36 766.5,-36 760.5,-36 754.5,-30 754.5,-24 754.5,-24 754.5,-12 754.5,-12 754.5,-6 760.5,-0 766.5,-0 766.5,-0 815.5,-0 815.5,-0 821.5,-0 827.5,-6 827.5,-12 827.5,-12 827.5,-24 827.5,-24 827.5,-30 821.5,-36 815.5,-36"/>
<text text-anchor="middle" x="791" y="-14.3" font-family="Times,serif" font-size="14.00" fill="#ffffff">ListBuffer</text>
</g>
<!-- PriorityQueue -->
<g id="node15" class="node"><title>PriorityQueue</title>
<path fill="#4a5659" stroke="#4a5659" d="M500.5,-468C500.5,-468 431.5,-468 431.5,-468 425.5,-468 419.5,-462 419.5,-456 419.5,-456 419.5,-444 419.5,-444 419.5,-438 425.5,-432 431.5,-432 431.5,-432 500.5,-432 500.5,-432 506.5,-432 512.5,-438 512.5,-444 512.5,-444 512.5,-456 512.5,-456 512.5,-462 506.5,-468 500.5,-468"/>
<text text-anchor="middle" x="466" y="-446.3" font-family="Times,serif" font-size="14.00" fill="#ffffff">PriorityQueue</text>
</g>
<!-- Iterable -->
<g id="node16" class="node"><title>Iterable</title>
<path fill="#6dc6e6" stroke="#6dc6e6" d="M390,-468C390,-468 356,-468 356,-468 350,-468 344,-462 344,-456 344,-456 344,-444 344,-444 344,-438 350,-432 356,-432 356,-432 390,-432 390,-432 396,-432 402,-438 402,-444 402,-444 402,-456 402,-456 402,-462 396,-468 390,-468"/>
<text text-anchor="middle" x="373" y="-446.3" font-family="Times,serif" font-size="14.00" fill="#ffffff">Iterable</text>
</g>
<!-- Iterable&#45;&gt;PriorityQueue -->
<g id="edge4" class="edge"><title>Iterable&#45;&gt;PriorityQueue</title>
<path fill="none" stroke="#7f7f7f" d="M402.062,-450C404.362,-450 406.662,-450 408.962,-450"/>
<polygon fill="#7f7f7f" stroke="#7f7f7f" points="409.046,-453.5 419.046,-450 409.046,-446.5 409.046,-453.5"/>
</g>
<!-- Map -->
<g id="node17" class="node"><title>Map</title>
<path fill="#6dc6e6" stroke="#6dc6e6" d="M388,-396C388,-396 358,-396 358,-396 352,-396 346,-390 346,-384 346,-384 346,-372 346,-372 346,-366 352,-360 358,-360 358,-360 388,-360 388,-360 394,-360 400,-366 400,-372 400,-372 400,-384 400,-384 400,-390 394,-396 388,-396"/>
<text text-anchor="middle" x="373" y="-374.3" font-family="Times,serif" font-size="14.00" fill="#ffffff">Map</text>
</g>
<!-- Iterable&#45;&gt;Map -->
<g id="edge1" class="edge"><title>Iterable&#45;&gt;Map</title>
<path fill="none" stroke="#7f7f7f" d="M373,-431.697C373,-423.983 373,-414.712 373,-406.112"/>
<polygon fill="#7f7f7f" stroke="#7f7f7f" points="376.5,-406.104 373,-396.104 369.5,-406.104 376.5,-406.104"/>
</g>
<!-- Seq -->
<g id="node18" class="node"><title>Seq</title>
<path fill="#6dc6e6" stroke="#6dc6e6" d="M682,-252C682,-252 652,-252 652,-252 646,-252 640,-246 640,-240 640,-240 640,-228 640,-228 640,-222 646,-216 652,-216 652,-216 682,-216 682,-216 688,-216 694,-222 694,-228 694,-228 694,-240 694,-240 694,-246 688,-252 682,-252"/>
<text text-anchor="middle" x="667" y="-230.3" font-family="Times,serif" font-size="14.00" fill="#ffffff">Seq</text>
</g>
<!-- Iterable&#45;&gt;Seq -->
<g id="edge2" class="edge"><title>Iterable&#45;&gt;Seq</title>
<path fill="none" stroke="#7f7f7f" stroke-width="4" d="M402.415,-435.191C463.748,-406.229 601.025,-340.448 618,-324 636.122,-306.44 649.292,-280.712 657.385,-261.429"/>
<polygon fill="#7f7f7f" stroke="#7f7f7f" stroke-width="4" points="660.689,-262.594 661.154,-252.01 654.19,-259.994 660.689,-262.594"/>
</g>
<!-- Set -->
<g id="node19" class="node"><title>Set</title>
<path fill="#6dc6e6" stroke="#6dc6e6" d="M137,-396C137,-396 107,-396 107,-396 101,-396 95,-390 95,-384 95,-384 95,-372 95,-372 95,-366 101,-360 107,-360 107,-360 137,-360 137,-360 143,-360 149,-366 149,-372 149,-372 149,-384 149,-384 149,-390 143,-396 137,-396"/>
<text text-anchor="middle" x="122" y="-374.3" font-family="Times,serif" font-size="14.00" fill="#ffffff">Set</text>
</g>
<!-- Iterable&#45;&gt;Set -->
<g id="edge3" class="edge"><title>Iterable&#45;&gt;Set</title>
<path fill="none" stroke="#7f7f7f" d="M343.716,-440.833C297.863,-428.045 209.186,-403.315 158.989,-389.316"/>
<polygon fill="#7f7f7f" stroke="#7f7f7f" points="159.761,-385.898 149.189,-386.582 157.881,-392.64 159.761,-385.898"/>
</g>
<!-- Map&#45;&gt;HashMap -->
<g id="edge5" class="edge"><title>Map&#45;&gt;HashMap</title>
<path fill="none" stroke="#7f7f7f" stroke-width="4" d="M345.969,-362.666C327.572,-352.91 302.882,-339.816 282.069,-328.779"/>
<polygon fill="#7f7f7f" stroke="#7f7f7f" stroke-width="4" points="283.591,-325.625 273.117,-324.032 280.312,-331.809 283.591,-325.625"/>
</g>
<!-- Map&#45;&gt;WeakHashMap -->
<g id="edge6" class="edge"><title>Map&#45;&gt;WeakHashMap</title>
<path fill="none" stroke="#7f7f7f" d="M363.23,-359.871C349.181,-335.244 323.167,-289.638 306.765,-260.885"/>
<polygon fill="#7f7f7f" stroke="#7f7f7f" points="309.8,-259.141 301.805,-252.189 303.72,-262.61 309.8,-259.141"/>
</g>
<!-- Map&#45;&gt;ListMap -->
<g id="edge8" class="edge"><title>Map&#45;&gt;ListMap</title>
<path fill="none" stroke="#7f7f7f" d="M366.7,-359.99C360.911,-341.869 354.182,-312.482 361,-288 363.668,-278.419 368.588,-268.84 373.784,-260.513"/>
<polygon fill="#7f7f7f" stroke="#7f7f7f" points="376.805,-262.291 379.436,-252.028 370.979,-258.41 376.805,-262.291"/>
</g>
<!-- Map&#45;&gt;TreeMap -->
<g id="edge7" class="edge"><title>Map&#45;&gt;TreeMap</title>
<path fill="none" stroke="#7f7f7f" d="M380.663,-359.697C384.192,-351.728 388.456,-342.1 392.369,-333.264"/>
<polygon fill="#7f7f7f" stroke="#7f7f7f" points="395.576,-334.665 396.425,-324.104 389.176,-331.831 395.576,-334.665"/>
</g>
<!-- MultiMap -->
<g id="node20" class="node"><title>MultiMap</title>
<path fill="#6dc6e6" stroke="#6dc6e6" d="M516.5,-324C516.5,-324 467.5,-324 467.5,-324 461.5,-324 455.5,-318 455.5,-312 455.5,-312 455.5,-300 455.5,-300 455.5,-294 461.5,-288 467.5,-288 467.5,-288 516.5,-288 516.5,-288 522.5,-288 528.5,-294 528.5,-300 528.5,-300 528.5,-312 528.5,-312 528.5,-318 522.5,-324 516.5,-324"/>
<text text-anchor="middle" x="492" y="-302.3" font-family="Times,serif" font-size="14.00" fill="#ffffff">MultiMap</text>
</g>
<!-- Map&#45;&gt;MultiMap -->
<g id="edge9" class="edge"><title>Map&#45;&gt;MultiMap</title>
<path fill="none" stroke="#7f7f7f" d="M400.003,-361.116C416.003,-351.704 436.526,-339.632 454.127,-329.278"/>
<polygon fill="#7f7f7f" stroke="#7f7f7f" points="456.18,-332.131 463.025,-324.044 452.631,-326.098 456.18,-332.131"/>
</g>
<!-- SeqMap -->
<g id="node21" class="node"><title>SeqMap</title>
<path fill="#6dc6e6" stroke="#6dc6e6" d="M597,-324C597,-324 559,-324 559,-324 553,-324 547,-318 547,-312 547,-312 547,-300 547,-300 547,-294 553,-288 559,-288 559,-288 597,-288 597,-288 603,-288 609,-294 609,-300 609,-300 609,-312 609,-312 609,-318 603,-324 597,-324"/>
<text text-anchor="middle" x="578" y="-302.3" font-family="Times,serif" font-size="14.00" fill="#ffffff">SeqMap</text>
</g>
<!-- Map&#45;&gt;SeqMap -->
<g id="edge10" class="edge"><title>Map&#45;&gt;SeqMap</title>
<path fill="none" stroke="#7f7f7f" d="M400.217,-368.939C432.941,-359.078 489.406,-341.525 537,-324 537.099,-323.963 537.199,-323.927 537.299,-323.89"/>
<polygon fill="#7f7f7f" stroke="#7f7f7f" points="538.682,-327.108 546.763,-320.256 536.173,-320.573 538.682,-327.108"/>
</g>
<!-- IndexedSeq -->
<g id="node24" class="node"><title>IndexedSeq</title>
<path fill="#6dc6e6" stroke="#6dc6e6" d="M648,-180C648,-180 592,-180 592,-180 586,-180 580,-174 580,-168 580,-168 580,-156 580,-156 580,-150 586,-144 592,-144 592,-144 648,-144 648,-144 654,-144 660,-150 660,-156 660,-156 660,-168 660,-168 660,-174 654,-180 648,-180"/>
<text text-anchor="middle" x="620" y="-158.3" font-family="Times,serif" font-size="14.00" fill="#ffffff">IndexedSeq</text>
</g>
<!-- Seq&#45;&gt;IndexedSeq -->
<g id="edge16" class="edge"><title>Seq&#45;&gt;IndexedSeq</title>
<path fill="none" stroke="#7f7f7f" stroke-width="4" d="M655.382,-215.697C649.861,-207.474 643.153,-197.483 637.068,-188.421"/>
<polygon fill="#7f7f7f" stroke="#7f7f7f" stroke-width="4" points="639.965,-186.456 631.484,-180.104 634.153,-190.358 639.965,-186.456"/>
</g>
<!-- Buffer -->
<g id="node25" class="node"><title>Buffer</title>
<path fill="#6dc6e6" stroke="#6dc6e6" d="M728,-180C728,-180 698,-180 698,-180 692,-180 686,-174 686,-168 686,-168 686,-156 686,-156 686,-150 692,-144 698,-144 698,-144 728,-144 728,-144 734,-144 740,-150 740,-156 740,-156 740,-168 740,-168 740,-174 734,-180 728,-180"/>
<text text-anchor="middle" x="713" y="-158.3" font-family="Times,serif" font-size="14.00" fill="#ffffff">Buffer</text>
</g>
<!-- Seq&#45;&gt;Buffer -->
<g id="edge17" class="edge"><title>Seq&#45;&gt;Buffer</title>
<path fill="none" stroke="#7f7f7f" d="M678.371,-215.697C683.718,-207.559 690.204,-197.689 696.111,-188.701"/>
<polygon fill="#7f7f7f" stroke="#7f7f7f" points="699.193,-190.384 701.76,-180.104 693.343,-186.539 699.193,-190.384"/>
</g>
<!-- Set&#45;&gt;HashSet -->
<g id="edge12" class="edge"><title>Set&#45;&gt;HashSet</title>
<path fill="none" stroke="#7f7f7f" stroke-width="4" d="M99.5056,-359.697C88.0449,-350.881 73.9417,-340.032 61.5165,-330.474"/>
<polygon fill="#7f7f7f" stroke="#7f7f7f" stroke-width="4" points="63.2959,-327.427 53.2356,-324.104 59.0279,-332.976 63.2959,-327.427"/>
</g>
<!-- Set&#45;&gt;LinkedHashSet -->
<g id="edge13" class="edge"><title>Set&#45;&gt;LinkedHashSet</title>
<path fill="none" stroke="#7f7f7f" d="M117.653,-359.845C115.062,-349.484 111.753,-336.005 109,-324 104.262,-303.34 99.2721,-279.892 95.5953,-262.252"/>
<polygon fill="#7f7f7f" stroke="#7f7f7f" points="98.947,-261.177 93.4898,-252.096 92.0928,-262.598 98.947,-261.177"/>
</g>
<!-- SortedSet -->
<g id="node22" class="node"><title>SortedSet</title>
<path fill="#6dc6e6" stroke="#6dc6e6" d="M175.5,-324C175.5,-324 130.5,-324 130.5,-324 124.5,-324 118.5,-318 118.5,-312 118.5,-312 118.5,-300 118.5,-300 118.5,-294 124.5,-288 130.5,-288 130.5,-288 175.5,-288 175.5,-288 181.5,-288 187.5,-294 187.5,-300 187.5,-300 187.5,-312 187.5,-312 187.5,-318 181.5,-324 175.5,-324"/>
<text text-anchor="middle" x="153" y="-302.3" font-family="Times,serif" font-size="14.00" fill="#ffffff">SortedSet</text>
</g>
<!-- Set&#45;&gt;SortedSet -->
<g id="edge14" class="edge"><title>Set&#45;&gt;SortedSet</title>
<path fill="none" stroke="#7f7f7f" d="M129.663,-359.697C133.192,-351.728 137.456,-342.1 141.369,-333.264"/>
<polygon fill="#7f7f7f" stroke="#7f7f7f" points="144.576,-334.665 145.425,-324.104 138.176,-331.831 144.576,-334.665"/>
</g>
<!-- SeqMap&#45;&gt;LinkedHashMap -->
<g id="edge11" class="edge"><title>SeqMap&#45;&gt;LinkedHashMap</title>
<path fill="none" stroke="#7f7f7f" d="M575.528,-287.697C574.426,-279.983 573.102,-270.712 571.873,-262.112"/>
<polygon fill="#7f7f7f" stroke="#7f7f7f" points="575.323,-261.509 570.443,-252.104 568.393,-262.499 575.323,-261.509"/>
</g>
<!-- BitSet -->
<g id="node23" class="node"><title>BitSet</title>
<path fill="#6dc6e6" stroke="#6dc6e6" d="M200,-252C200,-252 170,-252 170,-252 164,-252 158,-246 158,-240 158,-240 158,-228 158,-228 158,-222 164,-216 170,-216 170,-216 200,-216 200,-216 206,-216 212,-222 212,-228 212,-228 212,-240 212,-240 212,-246 206,-252 200,-252"/>
<text text-anchor="middle" x="185" y="-230.3" font-family="Times,serif" font-size="14.00" fill="#ffffff">BitSet</text>
</g>
<!-- SortedSet&#45;&gt;BitSet -->
<g id="edge15" class="edge"><title>SortedSet&#45;&gt;BitSet</title>
<path fill="none" stroke="#7f7f7f" d="M160.91,-287.697C164.553,-279.728 168.954,-270.1 172.994,-261.264"/>
<polygon fill="#7f7f7f" stroke="#7f7f7f" points="176.206,-262.654 177.181,-252.104 169.84,-259.744 176.206,-262.654"/>
</g>
<!-- IndexedSeq&#45;&gt;ArraySeq -->
<g id="edge19" class="edge"><title>IndexedSeq&#45;&gt;ArraySeq</title>
<path fill="none" stroke="#7f7f7f" d="M587.465,-143.876C569.753,-134.554 547.647,-122.919 528.684,-112.939"/>
<polygon fill="#7f7f7f" stroke="#7f7f7f" points="530.14,-109.75 519.661,-108.19 526.88,-115.944 530.14,-109.75"/>
</g>
<!-- IndexedSeq&#45;&gt;ArrayBuffer -->
<g id="edge21" class="edge"><title>IndexedSeq&#45;&gt;ArrayBuffer</title>
<path fill="none" stroke="#7f7f7f" stroke-width="4" d="M644.707,-143.876C657.669,-134.893 673.728,-123.763 687.765,-114.034"/>
<polygon fill="#7f7f7f" stroke="#7f7f7f" stroke-width="4" points="689.972,-116.763 696.198,-108.19 685.985,-111.009 689.972,-116.763"/>
</g>
<!-- IndexedSeq&#45;&gt;ArrayDeque -->
<g id="edge22" class="edge"><title>IndexedSeq&#45;&gt;ArrayDeque</title>
<path fill="none" stroke="#7f7f7f" d="M620,-143.697C620,-135.983 620,-126.712 620,-118.112"/>
<polygon fill="#7f7f7f" stroke="#7f7f7f" points="623.5,-118.104 620,-108.104 616.5,-118.104 623.5,-118.104"/>
</g>
<!-- IndexedSeq&#45;&gt;StringBuilder -->
<g id="edge20" class="edge"><title>IndexedSeq&#45;&gt;StringBuilder</title>
<path fill="none" stroke="#7f7f7f" d="M600.322,-143.952C590.127,-134.261 578.142,-121.407 570,-108 558.303,-88.7374 550.219,-64.4394 545.246,-46.1003"/>
<polygon fill="#7f7f7f" stroke="#7f7f7f" points="548.616,-45.1495 542.737,-36.335 541.836,-46.8914 548.616,-45.1495"/>
</g>
<!-- Buffer&#45;&gt;ArrayBuffer -->
<g id="edge23" class="edge"><title>Buffer&#45;&gt;ArrayBuffer</title>
<path fill="none" stroke="#7f7f7f" stroke-width="4" d="M714.978,-143.697C715.859,-135.983 716.919,-126.712 717.901,-118.112"/>
<polygon fill="#7f7f7f" stroke="#7f7f7f" stroke-width="4" points="721.387,-118.437 719.045,-108.104 714.432,-117.642 721.387,-118.437"/>
</g>
<!-- Buffer&#45;&gt;ArrayDeque -->
<g id="edge24" class="edge"><title>Buffer&#45;&gt;ArrayDeque</title>
<path fill="none" stroke="#7f7f7f" d="M690.011,-143.697C678.186,-134.796 663.608,-123.823 650.821,-114.199"/>
<polygon fill="#7f7f7f" stroke="#7f7f7f" points="652.819,-111.322 642.724,-108.104 648.609,-116.915 652.819,-111.322"/>
</g>
<!-- Buffer&#45;&gt;ListBuffer -->
<g id="edge25" class="edge"><title>Buffer&#45;&gt;ListBuffer</title>
<path fill="none" stroke="#7f7f7f" d="M738.555,-143.894C750.467,-134.631 763.793,-122.182 772,-108 782.915,-89.1385 787.584,-64.7657 789.569,-46.2957"/>
<polygon fill="#7f7f7f" stroke="#7f7f7f" points="793.068,-46.4566 790.454,-36.1893 786.095,-45.8457 793.068,-46.4566"/>
</g>
</g>
</svg>
