<?xml version="1.0" encoding="UTF-8" standalone="no"?>
<!DOCTYPE svg PUBLIC "-//W3C//DTD SVG 1.1//EN"
 "http://www.w3.org/Graphics/SVG/1.1/DTD/svg11.dtd">
<!-- Generated by graphviz version 2.38.0 (20140413.2041)
 -->
<!-- Title: Legend Pages: 1 -->
<svg width="282pt" height="152pt"
 viewBox="0.00 0.00 282.00 152.00" xmlns="http://www.w3.org/2000/svg" xmlns:xlink="http://www.w3.org/1999/xlink">
<g id="graph0" class="graph" transform="scale(1 1) rotate(0) translate(4 148)">
<title>Legend</title>
<polygon fill="white" stroke="none" points="-4,4 -4,-148 278,-148 278,4 -4,4"/>
<!-- Class1 -->
<g id="node1" class="node"><title>Class1</title>
<path fill="#4a5659" stroke="#4a5659" d="M262,-36C262,-36 232,-36 232,-36 226,-36 220,-30 220,-24 220,-24 220,-12 220,-12 220,-6 226,-0 232,-0 232,-0 262,-0 262,-0 268,-0 274,-6 274,-12 274,-12 274,-24 274,-24 274,-30 268,-36 262,-36"/>
<text text-anchor="middle" x="247" y="-14.3" font-family="Times New Roman,serif" font-size="14.00" fill="#ffffff">Class</text>
</g>
<!-- Class2 -->
<g id="node2" class="node"><title>Class2</title>
<path fill="#4a5659" stroke="#4a5659" d="M262,-90C262,-90 232,-90 232,-90 226,-90 220,-84 220,-78 220,-78 220,-66 220,-66 220,-60 226,-54 232,-54 232,-54 262,-54 262,-54 268,-54 274,-60 274,-66 274,-66 274,-78 274,-78 274,-84 268,-90 262,-90"/>
<text text-anchor="middle" x="247" y="-68.3" font-family="Times New Roman,serif" font-size="14.00" fill="#ffffff">Class</text>
</g>
<!-- Class3 -->
<g id="node3" class="node"><title>Class3</title>
<path fill="#4a5659" stroke="#4a5659" d="M262,-144C262,-144 232,-144 232,-144 226,-144 220,-138 220,-132 220,-132 220,-120 220,-120 220,-114 226,-108 232,-108 232,-108 262,-108 262,-108 268,-108 274,-114 274,-120 274,-120 274,-132 274,-132 274,-138 268,-144 262,-144"/>
<text text-anchor="middle" x="247" y="-122.3" font-family="Times New Roman,serif" font-size="14.00" fill="#ffffff">Class</text>
</g>
<!-- Trait1 -->
<g id="node4" class="node"><title>Trait1</title>
<path fill="#6dc6e6" stroke="#6dc6e6" d="M42,-36C42,-36 12,-36 12,-36 6,-36 0,-30 0,-24 0,-24 0,-12 0,-12 0,-6 6,-0 12,-0 12,-0 42,-0 42,-0 48,-0 54,-6 54,-12 54,-12 54,-24 54,-24 54,-30 48,-36 42,-36"/>
<text text-anchor="middle" x="27" y="-14.3" font-family="Times New Roman,serif" font-size="14.00" fill="#ffffff">Trait</text>
</g>
<!-- Trait1&#45;&gt;Class1 -->
<g id="edge1" class="edge"><title>Trait1&#45;&gt;Class1</title>
<path fill="none" stroke="#7f7f7f" d="M54.2959,-18C93.1095,-18 165.864,-18 209.725,-18"/>
<polygon fill="#7f7f7f" stroke="#7f7f7f" points="209.95,-21.5001 219.95,-18 209.95,-14.5001 209.95,-21.5001"/>
<text text-anchor="middle" x="137" y="-21.8" font-family="Times New Roman,serif" font-size="14.00">Implemented by</text>
</g>
<!-- Trait2 -->
<g id="node5" class="node"><title>Trait2</title>
<path fill="#6dc6e6" stroke="#6dc6e6" d="M42,-90C42,-90 12,-90 12,-90 6,-90 0,-84 0,-78 0,-78 0,-66 0,-66 0,-60 6,-54 12,-54 12,-54 42,-54 42,-54 48,-54 54,-60 54,-66 54,-66 54,-78 54,-78 54,-84 48,-90 42,-90"/>
<text text-anchor="middle" x="27" y="-68.3" font-family="Times New Roman,serif" font-size="14.00" fill="#ffffff">Trait</text>
</g>
<!-- Trait2&#45;&gt;Class2 -->
<g id="edge2" class="edge"><title>Trait2&#45;&gt;Class2</title>
<path fill="none" stroke="#7f7f7f" stroke-width="4" d="M54.2959,-72C93.1095,-72 165.864,-72 209.725,-72"/>
<polygon fill="#7f7f7f" stroke="#7f7f7f" stroke-width="4" points="209.95,-75.5001 219.95,-72 209.95,-68.5001 209.95,-75.5001"/>
<text text-anchor="middle" x="137" y="-75.8" font-family="Times New Roman,serif" font-size="14.00">Default Implementation</text>
</g>
<!-- Trait3 -->
<g id="node6" class="node"><title>Trait3</title>
<path fill="#6dc6e6" stroke="#6dc6e6" d="M42,-144C42,-144 12,-144 12,-144 6,-144 0,-138 0,-132 0,-132 0,-120 0,-120 0,-114 6,-108 12,-108 12,-108 42,-108 42,-108 48,-108 54,-114 54,-120 54,-120 54,-132 54,-132 54,-138 48,-144 42,-144"/>
<text text-anchor="middle" x="27" y="-122.3" font-family="Times New Roman,serif" font-size="14.00" fill="#ffffff">Trait</text>
</g>
<!-- Trait3&#45;&gt;Class3 -->
<g id="edge3" class="edge"><title>Trait3&#45;&gt;Class3</title>
<path fill="none" stroke="#7f7f7f" stroke-dasharray="5,2" d="M54.2959,-126C93.1095,-126 165.864,-126 209.725,-126"/>
<polygon fill="#7f7f7f" stroke="#7f7f7f" points="209.95,-129.5 219.95,-126 209.95,-122.5 209.95,-129.5"/>
<text text-anchor="middle" x="137" y="-129.8" font-family="Times New Roman,serif" font-size="14.00">via Implicit Conversion</text>
</g>
</g>
</svg>
