<?xml version="1.0" encoding="UTF-8" standalone="no"?>
<!DOCTYPE svg PUBLIC "-//W3C//DTD SVG 1.1//EN"
 "http://www.w3.org/Graphics/SVG/1.1/DTD/svg11.dtd">
<!-- Generated by graphviz version 2.40.1 (20161225.0304)
 -->
<!-- Title: UnifiedTypes Pages: 1 -->
<svg width="508pt" height="116pt"
 viewBox="0.00 0.00 508.28 116.00" xmlns="http://www.w3.org/2000/svg" xmlns:xlink="http://www.w3.org/1999/xlink">
<g id="graph0" class="graph" transform="scale(1 1) rotate(0) translate(4 112)">
<title>UnifiedTypes</title>
<polygon fill="#ffffff" stroke="transparent" points="-4,4 -4,-112 504.2831,-112 504.2831,4 -4,4"/>
<!-- Byte -->
<g id="node1" class="node">
<title>Byte</title>
<ellipse fill="none" stroke="#000000" cx="31.3346" cy="-90" rx="31.1701" ry="18"/>
<text text-anchor="middle" x="31.3346" y="-85.8" font-family="Courier,monospace" font-size="14.00" fill="#000000">Byte</text>
</g>
<!-- Short -->
<g id="node2" class="node">
<title>Short</title>
<ellipse fill="none" stroke="#000000" cx="117.3346" cy="-90" rx="36.7836" ry="18"/>
<text text-anchor="middle" x="117.3346" y="-85.8" font-family="Courier,monospace" font-size="14.00" fill="#000000">Short</text>
</g>
<!-- Byte&#45;&gt;Short -->
<g id="edge1" class="edge">
<title>Byte&#45;&gt;Short</title>
<path fill="none" stroke="#000000" d="M62.9127,-90C65.3641,-90 67.8155,-90 70.2668,-90"/>
<polygon fill="#000000" stroke="#000000" points="70.3448,-93.5001 80.3447,-90 70.3447,-86.5001 70.3448,-93.5001"/>
</g>
<!-- Int -->
<g id="node3" class="node">
<title>Int</title>
<ellipse fill="none" stroke="#000000" cx="199.3346" cy="-90" rx="27" ry="18"/>
<text text-anchor="middle" x="199.3346" y="-85.8" font-family="Courier,monospace" font-size="14.00" fill="#000000">Int</text>
</g>
<!-- Short&#45;&gt;Int -->
<g id="edge2" class="edge">
<title>Short&#45;&gt;Int</title>
<path fill="none" stroke="#000000" d="M154.1705,-90C156.7948,-90 159.4191,-90 162.0434,-90"/>
<polygon fill="#000000" stroke="#000000" points="162.1656,-93.5001 172.1656,-90 162.1656,-86.5001 162.1656,-93.5001"/>
</g>
<!-- Long -->
<g id="node4" class="node">
<title>Long</title>
<ellipse fill="none" stroke="#000000" cx="275.3346" cy="-90" rx="31.1701" ry="18"/>
<text text-anchor="middle" x="275.3346" y="-85.8" font-family="Courier,monospace" font-size="14.00" fill="#000000">Long</text>
</g>
<!-- Int&#45;&gt;Long -->
<g id="edge3" class="edge">
<title>Int&#45;&gt;Long</title>
<path fill="none" stroke="#000000" d="M226.3502,-90C228.8257,-90 231.3013,-90 233.7768,-90"/>
<polygon fill="#000000" stroke="#000000" points="233.954,-93.5001 243.954,-90 233.9539,-86.5001 233.954,-93.5001"/>
</g>
<!-- Float -->
<g id="node5" class="node">
<title>Float</title>
<ellipse fill="none" stroke="#000000" cx="361.3346" cy="-90" rx="36.7836" ry="18"/>
<text text-anchor="middle" x="361.3346" y="-85.8" font-family="Courier,monospace" font-size="14.00" fill="#000000">Float</text>
</g>
<!-- Long&#45;&gt;Float -->
<g id="edge4" class="edge">
<title>Long&#45;&gt;Float</title>
<path fill="none" stroke="#000000" d="M306.9127,-90C309.3641,-90 311.8155,-90 314.2668,-90"/>
<polygon fill="#000000" stroke="#000000" points="314.3448,-93.5001 324.3447,-90 314.3447,-86.5001 314.3448,-93.5001"/>
</g>
<!-- Double -->
<g id="node6" class="node">
<title>Double</title>
<ellipse fill="none" stroke="#000000" cx="458.3346" cy="-90" rx="41.897" ry="18"/>
<text text-anchor="middle" x="458.3346" y="-85.8" font-family="Courier,monospace" font-size="14.00" fill="#000000">Double</text>
</g>
<!-- Float&#45;&gt;Double -->
<g id="edge5" class="edge">
<title>Float&#45;&gt;Double</title>
<path fill="none" stroke="#000000" d="M398.0885,-90C400.6968,-90 403.3051,-90 405.9134,-90"/>
<polygon fill="#000000" stroke="#000000" points="405.9741,-93.5001 415.9741,-90 405.974,-86.5001 405.9741,-93.5001"/>
</g>
<!-- Char -->
<g id="node7" class="node">
<title>Char</title>
<ellipse fill="none" stroke="#000000" cx="199.3346" cy="-18" rx="31.1701" ry="18"/>
<text text-anchor="middle" x="199.3346" y="-13.8" font-family="Courier,monospace" font-size="14.00" fill="#000000">Char</text>
</g>
<!-- Char&#45;&gt;Int -->
<g id="edge6" class="edge">
<title>Char&#45;&gt;Int</title>
<path fill="none" stroke="#000000" d="M199.3346,-36.1686C199.3346,-43.869 199.3346,-53.0257 199.3346,-61.5834"/>
<polygon fill="#000000" stroke="#000000" points="195.8347,-61.5867 199.3346,-71.5867 202.8347,-61.5868 195.8347,-61.5867"/>
</g>
</g>
</svg>
