<?xml version="1.0" encoding="UTF-8" standalone="no"?>
<!-- Created with Inkscape (http://www.inkscape.org/) -->

<svg
   xmlns:dc="http://purl.org/dc/elements/1.1/"
   xmlns:cc="http://creativecommons.org/ns#"
   xmlns:rdf="http://www.w3.org/1999/02/22-rdf-syntax-ns#"
   xmlns:svg="http://www.w3.org/2000/svg"
   xmlns="http://www.w3.org/2000/svg"
   xmlns:sodipodi="http://sodipodi.sourceforge.net/DTD/sodipodi-0.dtd"
   xmlns:inkscape="http://www.inkscape.org/namespaces/inkscape"
   id="svg3142"
   version="1.1"
   inkscape:version="0.48.3.1 r9886"
   width="133.90666"
   height="145.52235"
   sodipodi:docname="Bsd_daemon.svg"
   inkscape:export-filename="/home/sast/projects/scala/scala-lang/resources/img/logos/Bsd_daemon.png"
   inkscape:export-xdpi="29.572838"
   inkscape:export-ydpi="29.572838">
  <metadata
     id="metadata3148">
    <rdf:RDF>
      <cc:Work
         rdf:about="">
        <dc:format>image/svg+xml</dc:format>
        <dc:type
           rdf:resource="http://purl.org/dc/dcmitype/StillImage" />
        <dc:title></dc:title>
      </cc:Work>
    </rdf:RDF>
  </metadata>
  <defs
     id="defs3146" />
  <sodipodi:namedview
     pagecolor="#ffffff"
     bordercolor="#666666"
     borderopacity="1"
     objecttolerance="10"
     gridtolerance="10"
     guidetolerance="10"
     inkscape:pageopacity="0"
     inkscape:pageshadow="2"
     inkscape:window-width="1600"
     inkscape:window-height="851"
     id="namedview3144"
     showgrid="false"
     inkscape:zoom="3.1466667"
     inkscape:cx="-3.2458942"
     inkscape:cy="79.465809"
     inkscape:window-x="0"
     inkscape:window-y="25"
     inkscape:window-maximized="1"
     inkscape:current-layer="g3225"
     fit-margin-top="0"
     fit-margin-left="0"
     fit-margin-right="0"
     fit-margin-bottom="0" />
  <g
     id="g3225"
     inkscape:export-filename="/home/sast/projects/scala/scala-lang/resources/img/logos/Bsd_daemon.png"
     inkscape:export-xdpi="29.686161"
     inkscape:export-ydpi="29.686161"
     transform="translate(-6.5321274,-1.3412647)">
    <path
       id="path3223"
       d="m 99.5,140.41514 c -12.293215,1.85609 -38.096599,-3.31555 -39.892439,-7.99544 -0.301856,-0.78662 0.284366,-4.10728 1.302714,-7.37924 1.851543,-5.94902 1.851543,-5.94902 -3.779366,-3.155 -7.151635,3.54859 -14.901033,5.64959 -28.110597,7.62129 -10.432115,1.55712 -15.491618,3.54757 -14.760771,5.80698 0.526145,1.62658 9.033597,4.30686 9.474259,2.98487 0.18608,-0.55824 0.910922,-1.79805 1.610761,-2.75514 1.178392,-1.61154 1.859888,-1.41878 9.220831,2.60819 4.371618,2.39159 9.182794,4.98689 10.691502,5.76733 3.515215,1.81838 3.512043,3.13954 -0.0069,2.87173 -1.5125,-0.11511 -7.18653,-0.357 -12.608949,-0.53753 -6.459594,-0.21506 -10.315446,-0.78472 -11.182889,-1.65217 -0.728163,-0.72816 -3.201668,-1.62419 -5.496677,-1.99118 -5.065848,-0.81006 -10.3083189,-5.47597 -9.3048953,-8.28156 1.668459,-4.66503 6.8796863,-7.62448 16.3977893,-9.3123 22.2977,-3.95397 30.808224,-8.08576 35.325151,-17.15005 2.449492,-4.91549 2.588929,-5.907 2.014329,-14.323489 C 59.86425,85.78504 60.076552,83.718383 61.887756,79 c 1.161179,-3.025 2.111462,-6.081778 2.11174,-6.792841 2.77e-4,-0.711063 -1.965283,-3.411063 -4.367911,-6 -5.758597,-6.20514 -7.852409,-10.5258 -7.940817,-16.386174 C 51.650767,47.169443 51.227043,45 50.749159,45 49.308029,45 38.909167,34.725029 37.403447,31.813287 34.221227,25.659551 36.693237,16.206707 43.303966,9.25 45.045345,7.4174845 47.397148,6 48.696167,6 c 2.701403,0 2.89499,1.1681468 0.73891,4.45874 -0.918132,1.401248 -1.434763,3.923754 -1.25,6.103262 0.25884,3.053318 0.91975,4.037988 3.711182,5.529174 3.39626,1.814285 3.39626,1.814285 7.45632,-1.660975 C 66.2908,14.491342 78.568836,12.331009 87.433876,15.489268 94.138035,17.877692 95.036417,14.739093 89.5,8.2710344 85.372391,3.4488518 84.825084,0.50679141 88.25,1.5516353 c 4.189422,1.2780728 13.23209,8.0868814 16.61977,12.5140987 3.36978,4.403814 3.36978,4.403814 2.75247,13.41904 -0.72453,10.581096 0.1858,15.309954 3.76644,19.565296 5.65985,6.726356 2.58784,13.545017 -9.03411,20.052154 C 98.034555,69.521001 94.05,71.679975 93.5,71.899944 90.398463,73.140386 91.556312,78 94.953396,78 98.329425,78 100,76.829625 100,74.46444 c 0,-4.452165 5.82989,-7.124126 9.90932,-4.541647 2.49668,1.580522 3.9779,0.157049 3.41918,-3.285888 -0.78492,-4.836923 2.83371,-11.013394 7.92959,-13.534634 2.27303,-1.124605 4.27645,-1.901061 4.45206,-1.725458 0.1756,0.175602 -0.69985,2.406691 -1.94544,4.957975 -1.66117,3.402506 -2.70958,4.497846 -3.93406,4.110165 -1.98269,-0.627741 -3.58915,3.19655 -2.00726,4.778437 0.69609,0.696086 1.78666,0.265304 3.41935,-1.350663 2.27212,-2.248835 8.6962,-5.26712 9.4999,-4.463422 0.87184,0.871839 -2.77883,7.686362 -3.7847,7.064702 -0.59618,-0.368461 -1.95402,0.117459 -3.01742,1.079823 -1.4731,1.333132 -1.66704,2.070766 -0.81454,3.097962 1.62585,1.959031 6.87402,1.759612 6.87402,-0.261198 0,-1.244215 0.77827,-1.518547 3.42985,-1.20899 1.88642,0.220229 3.24149,0.09562 3.01125,-0.276904 -0.23023,-0.372526 0.47589,-0.911234 1.56915,-1.19713 3.33999,-0.873426 3.21159,1.026084 -0.24152,3.572976 -8.65896,6.386555 -10.86255,6.962042 -16.13304,4.213293 -3.74945,-1.955476 -4.97182,-1.884886 -7.04585,0.406884 -1.126,1.244224 -1.35223,2.128093 -0.65498,2.559017 3.79271,2.344025 -2.20282,10.683076 -9.02192,12.548385 -4.39418,1.201993 -6.167898,4.545263 -5.297895,9.985965 0.449865,2.81328 0.0669,5.0758 -1.387296,8.19597 -1.104783,2.37047 -2.271487,5.7712 -2.592674,7.5572 -0.537956,2.99134 -0.300542,3.36568 3.012598,4.75 1.978117,0.8265 6.579117,1.51867 10.224447,1.53814 4.13419,0.0221 9.07346,0.86863 13.12788,2.25 5.49506,1.87221 6.54005,2.60112 6.75905,4.7146 0.44747,4.31836 -1.08547,5.36685 -8.44059,5.77314 -3.75015,0.20715 -8.31751,1.05639 -10.14967,1.8872 -1.97298,0.89467 -2.65417,1.60827 -3.78384,1.61268 -0.71653,0.30379 -3.88495,0.68917 -6.88495,1.14212 z"
       style="fill:#bcaa54"
       inkscape:connector-curvature="0"
       inkscape:export-xdpi="29.686161"
       inkscape:export-ydpi="29.686161"
       inkscape:export-filename="/home/sast/projects/scala/scala-lang/resources/img/logos/Bsd_daemon.png.png" />
    <path
       id="path3214"
       d="m 108.50151,136.99919 c 2.75508,-1.47448 3.6088,-5.63924 0.94655,-4.61763 -0.85356,0.32754 -1.28922,0.17046 -0.96813,-0.34908 0.9185,-1.48617 -3.67813,-3.96312 -8.544891,-4.60452 -5.460264,-0.71962 -8.540488,1.08908 -7.490202,4.39824 0.622973,1.96281 1.378992,2.1738 7.789213,2.1738 8.50999,0 8.37921,0.82979 -0.283305,1.79756 -8.563834,0.95676 -9.02636,3.01005 -0.767594,3.4076 3.158429,0.15204 6.008829,-0.56644 6.645649,-0.60746 0.22367,-0.3404 0.87279,-0.63522 2.67271,-1.59851 z"
       style="fill:#ffffff"
       inkscape:connector-curvature="0"
       inkscape:export-filename="/home/sast/projects/scala/scala-lang/resources/img/logos/Bsd_daemon.png.png"
       inkscape:export-xdpi="29.686161"
       inkscape:export-ydpi="29.686161" />
    <path
       id="path3212"
       d="m 124.99114,133.71014 c 1.37013,-0.6932 2.64191,-2.04323 2.82617,-3.00005 0.7292,-3.78639 -15.74322,-7.95152 -17.13218,-4.33195 -0.92723,2.41633 1.54574,3.61766 7.76487,3.77205 5.9026,0.14654 5.94058,0.16481 1.55894,0.75 -3.18435,0.42529 -4.58773,1.10898 -4.82332,2.34981 -0.26987,1.42136 0.38573,1.74723 3.49106,1.73526 2.10282,-0.008 4.94433,-0.58191 6.31446,-1.27512 z"
       style="fill:#ffffff"
       inkscape:connector-curvature="0"
       inkscape:export-filename="/home/sast/projects/scala/scala-lang/resources/img/logos/Bsd_daemon.png.png"
       inkscape:export-xdpi="29.686161"
       inkscape:export-ydpi="29.686161" />
    <path
       id="path3210"
       d="M 87.446858,50.25 C 84.674444,44.935295 86.567016,38.509953 91.108561,37.818398 93.100743,37.515043 93.041271,37.263776 89.849765,32.5 c -5.917878,-8.833273 -10.683531,-5.73621 -10.771361,7 -0.01981,2.872972 0.78619,6.807974 1.894666,9.25 1.64412,3.622075 2.370849,4.25 4.918735,4.25 2.942469,0 2.966979,-0.04334 1.555053,-2.75 z"
       style="fill:#ffffff"
       inkscape:connector-curvature="0"
       inkscape:export-filename="/home/sast/projects/scala/scala-lang/resources/img/logos/Bsd_daemon.png.png"
       inkscape:export-xdpi="29.686161"
       inkscape:export-ydpi="29.686161" />
    <path
       id="path3164"
       d="m 98,37.440983 c 0,-1.74661 3.13689,-1.904097 4.8,-0.240983 1.94511,1.945111 1.3788,0.04045 -1.18035,-3.969872 -3.00775,-4.71329 -7.186124,-8.616096 -8.412802,-7.857967 -0.553933,0.342349 -0.09689,3.448737 1.110761,7.54958 C 96.144798,39.126344 98,41.403154 98,37.440983 z"
       style="fill:#ffffff"
       inkscape:connector-curvature="0"
       inkscape:export-filename="/home/sast/projects/scala/scala-lang/resources/img/logos/Bsd_daemon.png.png"
       inkscape:export-xdpi="29.686161"
       inkscape:export-ydpi="29.686161" />
    <path
       style="fill:#5e934b"
       d="m 34.085167,146.25195 c -8.032093,-0.22555 -11.736418,-0.71891 -12.5,-1.66481 -0.596842,-0.73935 -2.820264,-1.60335 -4.940938,-1.92 -10.0259479,-1.49703 -12.8672565,-8.89405 -5.229511,-13.61443 1.879941,-1.16187 8.67514,-3.20264 15.100443,-4.53504 21.372415,-4.43195 27.323472,-7.53937 31.855347,-16.63366 2.46772,-4.95207 2.598801,-5.8949 2.001308,-14.394939 -0.560391,-7.972212 -0.375791,-9.691659 1.494407,-13.91955 C 63.0398,76.916455 64,73.837134 64,72.726587 64,71.61604 61.948059,68.513719 59.44013,65.83254 54.045246,60.064973 51.833333,55.264386 51.833333,49.323259 c 0,-3.361439 -0.465461,-4.591196 -2.060953,-5.445077 C 46.415477,42.081622 38.957416,34.818331 37.423223,31.851529 36.64045,30.337814 36,27.365328 36,25.246004 36,17.778324 44.002799,6 49.076725,6 c 2.386716,0 2.387042,-0.00808 -0.216082,5.349938 -2.865154,5.89735 -2.052575,8.808827 3.107978,11.135912 4.011619,1.808988 4.011619,1.808988 5.984793,-0.699497 4.722188,-6.003289 18.740043,-9.180216 28.275471,-6.408192 C 93.239405,17.416175 93,17.440355 93,14.69428 93,12.447685 89.163584,6.3371683 86.858753,4.9127048 86.22615,4.5217344 85.990262,3.4677595 86.334558,2.5705383 c 0.565223,-1.472947 1.015161,-1.4327729 4.634807,0.4138328 2.204847,1.1248293 6.826223,4.6933234 10.269725,7.9299869 6.26091,5.884843 6.26091,5.884843 6.26091,18.762613 0,12.877771 0,12.877771 3.25,17.297402 3.79999,5.167552 3.95613,6.721167 1.21545,12.093356 -1.52783,2.99479 -3.33351,4.609692 -7.25,6.483999 -10.293531,4.926155 -13.849017,7.504169 -13.521156,9.803926 0.249265,1.748448 1.090358,2.201117 4.555706,2.451844 4.036802,0.292072 4.25,0.170611 4.25,-2.421259 0,-4.647899 2.33195,-6.252834 7.64348,-5.260531 2.51803,0.470417 4.99215,0.599485 5.49806,0.286817 0.5059,-0.312667 0.6862,-2.220895 0.40065,-4.240506 C 113.023,62.5 113.023,62.5 114.06823,65.858577 c 0.83924,2.696687 0.73843,3.697577 -0.5115,5.07874 -1.94769,2.152166 -1.97411,4.128596 -0.0885,6.621553 0.8075,1.067622 1.4825,2.712972 1.5,3.656334 C 115.012,83.577522 109.19436,90 107.01071,90 c -2.48698,0 -6.42256,2.28256 -6.95808,4.035562 -0.246061,0.805441 -0.505131,4.011225 -0.575715,7.123968 -0.07211,3.18023 -0.797513,6.68483 -1.655878,8 -0.84015,1.28726 -1.834561,4.40067 -2.209804,6.91869 -0.682259,4.57822 -0.682259,4.57822 3.103254,5.70718 2.082033,0.62094 7.125093,1.37532 11.206813,1.67642 4.08171,0.30109 7.68171,0.81331 8,1.13827 0.31828,0.32496 -0.77157,0.45195 -2.4219,0.28222 -1.65033,-0.16974 -3.56283,0.0389 -4.25,0.46355 -1.87288,1.15751 -1.50448,4.44726 0.62569,5.58729 2.94504,1.57614 3.33505,4.79353 0.64343,5.30806 -1.78285,0.34081 -2.14599,0.0502 -1.76378,-1.41134 0.6297,-2.40799 -1.27682,-4.60334 -5.54726,-6.38765 -6.653747,-2.78011 -13.024442,-1.5366 -14.548643,2.83979 -0.685515,1.9683 2.350612,3.6059 7.156263,3.8599 1.955314,0.10334 1.619194,0.30714 -1.236932,0.75 -5.902722,0.91523 -5.841083,3.10119 0.0885,3.1385 4.026072,0.0253 4.514552,0.21548 2.924673,1.13848 -1.243419,0.72187 -4.975025,0.89041 -10.706447,0.48359 -10.180798,-0.72266 -15.55614,-1.80925 -23.319581,-4.71393 C 60.35539,133.98927 60,133.64542 60,130.55388 c 0,-1.81634 0.655038,-5.159 1.455641,-7.42815 C 62.256244,120.85658 62.762923,119 62.581594,119 c -0.181328,0 -2.298867,1.0882 -4.705641,2.41821 -6.23794,3.44718 -16.694259,6.33597 -29.153178,8.05423 C 17.426929,131.0303 14,132.18022 14,134.41274 c 0,1.98206 2.032686,3.32096 6.233607,4.10599 3.394537,0.63434 3.823664,0.46083 4.725249,-1.91051 C 25.504259,135.1737 26.132117,134 26.354095,134 c 0.221978,0 2.842337,1.4625 5.823019,3.25 2.980682,1.7875 7.760201,4.33942 10.621154,5.67094 4.763147,2.21681 6.977484,4.38272 3.951732,3.8653 -0.6875,-0.11756 -6.386675,-0.35799 -12.664833,-0.53429 z m 34.771569,-38.17886 c 4.430778,-2.26042 6.686524,-4.6193 5.260261,-5.50078 C 72.81161,101.76553 64,107.13978 64,108.74272 c 0,1.65753 0.404409,1.60178 4.856736,-0.66963 z M 89,52.964817 c 0,-0.569351 -0.730199,-2.149608 -1.622664,-3.511682 -2.63203,-4.016985 -0.314494,-11.558979 3.495109,-11.374188 0.895155,0.04342 1.112826,0.289998 0.483713,0.547948 -0.637969,0.261581 -0.890032,1.439569 -0.569947,2.663576 0.529579,2.025113 0.634464,1.968097 1.358285,-0.738368 0.625179,-2.337632 0.174045,-3.999716 -2.222618,-8.188645 -3.561161,-6.224261 -6.231103,-7.499776 -9.28941,-4.437842 -1.835363,1.83754 -2.129149,3.2802 -2.108648,10.354691 0.03349,11.556889 1.947992,14.790584 9.22618,15.583511 0.6875,0.0749 1.25,-0.32965 1.25,-0.899001 z M 99.640564,36.282636 c 0.627306,-0.20699 2.089806,0.830426 3.249996,2.305368 2.64595,3.36378 2.72782,1.544443 0.15724,-3.494312 C 100.21062,29.532361 96.107979,25 93.911106,25 c -2.364412,0 -2.368583,-0.156356 0.22483,8.429053 3.138013,10.388288 3.149225,10.407988 3.785166,6.650438 0.318394,-1.881281 1.092152,-3.589865 1.719462,-3.796855 z"
       id="path3162"
       inkscape:connector-curvature="0"
       inkscape:export-filename="/home/sast/projects/scala/scala-lang/resources/img/logos/Bsd_daemon.png.png"
       inkscape:export-xdpi="29.686161"
       inkscape:export-ydpi="29.686161" />
    <path
       style="fill:#cf451d;fill-opacity:1"
       d="M 25.25,145.2766 C 23.4625,145.05478 22,144.45179 22,143.93664 c 0,-0.51515 -1.2375,-0.94652 -2.75,-0.9586 -4.79936,-0.0383 -11.1005778,-3.53451 -11.8658726,-6.58369 -0.5664433,-2.25689 -0.1427807,-3.2208 2.4233991,-5.51368 3.0267325,-2.70439 11.4551785,-5.87811 15.6239745,-5.88319 4.104734,-0.005 20.616923,-5.00296 24.382793,-7.38025 5.565144,-3.51312 8.945398,-7.98278 10.761419,-14.22968 1.260886,-4.337293 1.339089,-5.785281 0.375181,-6.94672 C 59.255595,94.39812 60.252562,81.78968 62.364211,78.566896 65.084666,74.414957 64.4609,70.467911 60.51716,66.879188 55.942522,62.71636 52,54.687387 52,49.533933 52,45.831742 51.539438,45.097849 46.945845,41.480277 38.992284,35.216642 36.496737,31.392206 36.518288,25.5 36.54696,17.660772 42.604901,7.8902197 48.327183,6.4540182 51.525927,5.6511848 51.51268,5.5715247 49,10.5 c -2.558146,5.017654 -2.530432,7.927917 0.09882,10.377439 3.780071,3.521673 6.826867,3.58692 10.300053,0.220575 5.892353,-5.711093 17.260915,-8.210956 25.908394,-5.697066 6.824222,1.983855 7.33142,1.982997 8.097622,-0.01369 0.675195,-1.75953 -2.148087,-6.9398881 -5.372605,-9.8580364 -4.896227,-4.4310247 -0.633024,-4.7649003 6.053619,-0.4740933 6.704077,4.3019939 12.659227,11.0693557 13.449967,15.2843997 0.3631,1.935488 0.16948,5.807159 -0.43028,8.603712 -1.36853,6.381268 0.0874,12.796971 4.26531,18.795727 2.76214,3.965944 2.87599,4.493635 1.76761,8.193056 -1.34755,4.497716 -3.48302,6.388616 -14.388512,12.740611 -7.693368,4.481066 -9.36477,6.812231 -6.5,9.065784 0.6875,0.540817 2.951673,0.77003 5.031497,0.509361 C 100.41032,77.855635 100.9617,77.454678 100.4761,75.92469 99.402372,72.54168 101.70141,70 105.83518,70 109.97006,70 112,71.402399 112,74.259017 c 0,1.022459 0.35357,1.640498 0.78571,1.373419 0.43215,-0.267079 0.83848,0.268863 0.90297,1.190983 0.0645,0.922119 0.43919,2.692094 0.83267,3.933277 0.57389,1.810261 -0.0391,2.947764 -3.09838,5.75 -2.09759,1.921317 -4.73837,3.507616 -5.86839,3.525107 -2.43763,0.03773 -4.56873,1.65009 -6.358248,4.810536 -1.022543,1.805904 -1.054329,3.057903 -0.147402,5.805921 1.01488,3.07512 0.864436,4.07507 -1.230348,8.17763 -1.312638,2.57076 -2.513598,6.3072 -2.6688,8.30321 -0.25565,3.28784 0.02017,3.7345 2.93324,4.75 1.768483,0.61649 4.385778,1.12704 5.816198,1.13455 1.43043,0.008 3.59278,0.27964 4.80522,0.60472 2.06645,0.55407 2.10845,0.73756 0.67091,2.93153 -1.28302,1.95813 -1.93964,2.18606 -4.01954,1.39528 -3.89589,-1.48122 -11.653932,-1.1251 -14.190202,0.65138 -1.428413,1.0005 -2.164827,2.40052 -1.972506,3.75 0.248745,1.74539 1.159582,2.25107 4.806898,2.66866 4.442089,0.50858 4.41371,0.52413 -2.2052,1.20819 -3.687859,0.38113 -9.087859,0.49319 -12,0.24902 -3.869678,-0.32446 -4.621912,-0.20545 -2.7948,0.44213 1.375,0.48734 4.975,0.94688 8,1.0212 3.025,0.0743 6.625,0.78576 8,1.58101 2.292115,1.32566 1.876344,1.39722 -5,0.86062 -8.652326,-0.6752 -16.953893,-2.5714 -23.451869,-5.35676 C 59.392346,132.8106 58.95251,131.22036 61.5,124 c 0.825,-2.3383 1.5,-4.56265 1.5,-4.94301 0,-0.38035 -3.0375,0.79543 -6.75,2.61286 -7.877424,3.85632 -15.181289,5.85381 -27.137223,7.42156 -4.737027,0.62116 -10.075277,1.73174 -11.862777,2.46796 -5.380593,2.21611 -3.716655,6.00381 3.125222,7.11409 3.130643,0.50804 3.696063,0.26419 4.749744,-2.04839 1.288508,-2.82796 1.943196,-3.15038 3.425034,-1.68673 0.5225,0.51608 5,3.20791 9.95,5.98183 9,5.04349 9,5.04349 -0.5,4.90162 -5.225,-0.078 -10.9625,-0.32336 -12.75,-0.54519 z m 61.024822,-14.21952 c 0.614784,-2.35094 6.610325,-6.20734 8.721828,-5.60998 3.35216,0.94835 10.53559,0.98902 11.00335,0.0623 0.27745,-0.54969 -1.91493,-1.375 -4.92566,-1.85424 -2.984119,-0.475 -6.053762,-1.49173 -6.821433,-2.2594 C 93.485237,120.62809 93.130118,120 93.463755,120 93.797392,120 93.588702,119.1 93,118 92.411298,116.9 91.382965,116.01497 90.714816,116.03327 89.352485,116.07058 85,119.45858 85,120.48172 c 0,1.67894 2.962572,3.35149 5.119166,2.89007 2.273576,-0.48645 2.290733,-0.45173 0.380834,0.77064 -2.521858,1.61402 -4.5,1.95211 -4.5,0.76909 C 86,124.41018 85.325,124 84.5,124 c -0.825,0 -1.5,-0.45 -1.5,-1 0,-0.55 -1.4625,-1.07202 -3.25,-1.16004 -3.25,-0.16003 -3.25,-0.16003 0,-0.56336 3.631356,-0.45064 4.18368,-1.70654 1.404606,-3.19386 -2.176625,-1.16489 -6.580869,1.36405 -5.82156,3.34278 0.552467,1.43971 -2.986221,3.90686 -4.373723,3.04934 C 70.431695,124.14877 70,124.61008 70,125.5 c 0,1.02828 0.455609,1.34431 1.25,0.86706 0.781619,-0.46958 0.700295,-0.0233 -0.217032,1.19098 -0.806868,1.06808 -1.073272,1.60836 -0.59201,1.20064 0.481263,-0.40773 1.547314,-0.18338 2.369002,0.49856 1.840529,1.52751 6.802629,3.22387 10.321615,3.5286 1.885532,0.16328 2.776631,-0.32682 3.143247,-1.72876 z M 71.220779,106.85833 c 3.594192,-2.30639 4.599062,-3.43635 3.779507,-4.25 -1.420875,-1.41065 -10.347296,3.33146 -10.82361,5.74997 -0.481462,2.44465 1.581517,2.00536 7.044103,-1.49997 z M 88.495063,51.75 c -2.474828,-7.543167 -1.396971,-13.770198 2.377382,-13.734687 1.146093,0.01078 1.268904,0.243231 0.415155,0.785779 -0.679815,0.432014 -0.959334,1.738193 -0.63631,2.97344 0.856488,3.275216 2.222141,1.72264 1.912903,-2.17473 C 92.285276,36.084566 88.828138,29.42254 86.155487,27.25 c -4.110115,-3.341023 -7.58757,0.434507 -8.605948,9.343619 -1.062201,9.292483 3.481301,17.341602 9.817092,17.391639 1.489604,0.01176 1.717528,-0.439719 1.128432,-2.235258 z M 98.992978,37 c 0.479735,0 1.157892,0.9 1.507022,2 0.34913,1.1 1.1026,2 1.67438,2 0.57178,0 0.76535,-0.7875 0.43016,-1.75 -0.50804,-1.458797 -0.35944,-1.426992 0.89301,0.19113 2.66549,3.443744 1.69808,-0.567316 -1.4684,-6.088237 -3.331052,-5.80787 -7.85703,-9.925013 -9.311581,-8.470462 -0.586388,0.586388 -0.179114,3.323493 1.083049,7.27868 1.112563,3.486389 2.383398,7.688889 2.82408,9.338889 0.801238,3 0.801238,3 1.148635,-0.75 C 97.964402,38.6875 98.513242,37 98.992978,37 z"
       id="path3160"
       inkscape:connector-curvature="0"
       inkscape:export-filename="/home/sast/projects/scala/scala-lang/resources/img/logos/Bsd_daemon.png.png"
       inkscape:export-xdpi="29.686161"
       inkscape:export-ydpi="29.686161" />
    <path
       style="fill:#b71f0c;fill-opacity:1"
       d="M 25.25,145.2766 C 23.4625,145.05478 22,144.45179 22,143.93664 c 0,-0.51515 -1.2375,-0.94652 -2.75,-0.9586 -4.79936,-0.0383 -11.1005778,-3.53451 -11.8658726,-6.58369 -0.5664433,-2.25689 -0.1427807,-3.2208 2.4233991,-5.51368 3.0267325,-2.70439 11.4551785,-5.87811 15.6239745,-5.88319 4.104734,-0.005 20.616923,-5.00296 24.382793,-7.38025 5.565144,-3.51312 8.945398,-7.98278 10.761419,-14.22968 1.260886,-4.337293 1.339089,-5.785281 0.375181,-6.94672 C 59.255595,94.39812 60.252562,81.78968 62.364211,78.566896 65.084666,74.414957 64.4609,70.467911 60.51716,66.879188 55.942522,62.71636 52,54.687387 52,49.533933 52,45.831742 51.539438,45.097849 46.945845,41.480277 38.992284,35.216642 36.496737,31.392206 36.518288,25.5 36.54696,17.660772 42.604901,7.8902197 48.327183,6.4540182 51.525927,5.6511848 51.51268,5.5715247 49,10.5 c -2.558146,5.017654 -2.530432,7.927917 0.09882,10.377439 3.780071,3.521673 6.826867,3.58692 10.300053,0.220575 5.892353,-5.711093 17.260915,-8.210956 25.908394,-5.697066 6.824222,1.983855 7.33142,1.982997 8.097622,-0.01369 0.675195,-1.75953 -2.148087,-6.9398881 -5.372605,-9.8580364 -4.896227,-4.4310247 -0.633024,-4.7649003 6.053619,-0.4740933 6.704077,4.3019939 12.659227,11.0693557 13.449967,15.2843997 0.3631,1.935488 0.16948,5.807159 -0.43028,8.603712 -1.36853,6.381268 0.0874,12.796971 4.26531,18.795727 2.76214,3.965944 2.87599,4.493635 1.76761,8.193056 -1.34755,4.497716 -3.48302,6.388616 -14.388512,12.740611 -7.693368,4.481066 -9.36477,6.812231 -6.5,9.065784 0.6875,0.540817 2.951673,0.77003 5.031497,0.509361 C 100.41032,77.855635 100.9617,77.454678 100.4761,75.92469 99.393361,72.513291 101.69962,70 105.91274,70 c 4.51726,0 6.56366,1.92364 5.52563,5.19417 -0.60625,1.910146 -0.48959,2.093229 0.7031,1.103385 1.14205,-0.947816 1.45357,-0.845565 1.54721,0.507842 0.0645,0.932031 0.43919,2.710116 0.83267,3.951299 0.57389,1.810261 -0.0391,2.947764 -3.09838,5.75 -2.09759,1.921317 -4.73837,3.507616 -5.86839,3.525107 -2.43763,0.03773 -4.56873,1.65009 -6.358248,4.810536 -1.022543,1.805904 -1.054329,3.057903 -0.147402,5.805921 1.01488,3.07512 0.864436,4.07507 -1.230348,8.17763 -1.312638,2.57076 -2.513598,6.3072 -2.6688,8.30321 -0.25565,3.28784 0.02017,3.7345 2.93324,4.75 1.768483,0.61649 4.385778,1.12704 5.816198,1.13455 1.43043,0.008 3.59278,0.27964 4.80522,0.60472 2.06645,0.55407 2.10845,0.73756 0.67091,2.93153 -1.28302,1.95813 -1.93964,2.18606 -4.01954,1.39528 -3.89589,-1.48122 -11.653932,-1.1251 -14.190202,0.65138 -1.428413,1.0005 -2.164827,2.40052 -1.972506,3.75 0.248745,1.74539 1.159582,2.25107 4.806898,2.66866 4.442089,0.50858 4.41371,0.52413 -2.2052,1.20819 -3.687859,0.38113 -9.087859,0.49319 -12,0.24902 -3.869678,-0.32446 -4.621912,-0.20545 -2.7948,0.44213 1.375,0.48734 4.975,0.94688 8,1.0212 3.025,0.0743 6.625,0.78576 8,1.58101 2.292115,1.32566 1.876344,1.39722 -5,0.86062 -8.652326,-0.6752 -16.953893,-2.5714 -23.451869,-5.35676 C 59.392346,132.8106 58.95251,131.22036 61.5,124 c 0.825,-2.3383 1.5,-4.56265 1.5,-4.94301 0,-0.38035 -3.0375,0.79543 -6.75,2.61286 -7.877424,3.85632 -15.181289,5.85381 -27.137223,7.42156 -4.737027,0.62116 -10.075277,1.73174 -11.862777,2.46796 -5.380593,2.21611 -3.716655,6.00381 3.125222,7.11409 3.130643,0.50804 3.696063,0.26419 4.749744,-2.04839 1.288508,-2.82796 1.943196,-3.15038 3.425034,-1.68673 0.5225,0.51608 5,3.20791 9.95,5.98183 9,5.04349 9,5.04349 -0.5,4.90162 -5.225,-0.078 -10.9625,-0.32336 -12.75,-0.54519 z m 61.024822,-14.21952 c 0.614784,-2.35094 6.610325,-6.20734 8.721828,-5.60998 3.35216,0.94835 10.53559,0.98902 11.00335,0.0623 0.27745,-0.54969 -1.91493,-1.375 -4.92566,-1.85424 -2.984119,-0.475 -6.053762,-1.49173 -6.821433,-2.2594 C 93.485237,120.62809 93.130118,120 93.463755,120 93.797392,120 93.588702,119.1 93,118 92.411298,116.9 91.382965,116.01497 90.714816,116.03327 89.352485,116.07058 85,119.45858 85,120.48172 c 0,1.67894 2.962572,3.35149 5.119166,2.89007 2.273576,-0.48645 2.290733,-0.45173 0.380834,0.77064 -2.521858,1.61402 -4.5,1.95211 -4.5,0.76909 C 86,124.41018 85.325,124 84.5,124 c -0.825,0 -1.5,-0.45 -1.5,-1 0,-0.55 -1.4625,-1.07202 -3.25,-1.16004 -3.25,-0.16003 -3.25,-0.16003 0,-0.56336 3.631356,-0.45064 4.18368,-1.70654 1.404606,-3.19386 -2.176625,-1.16489 -6.580869,1.36405 -5.82156,3.34278 0.552467,1.43971 -2.986221,3.90686 -4.373723,3.04934 C 70.431695,124.14877 70,124.61008 70,125.5 c 0,1.02828 0.455609,1.34431 1.25,0.86706 0.781619,-0.46958 0.700295,-0.0233 -0.217032,1.19098 -0.806868,1.06808 -1.073272,1.60836 -0.59201,1.20064 0.481263,-0.40773 1.547314,-0.18338 2.369002,0.49856 1.840529,1.52751 6.802629,3.22387 10.321615,3.5286 1.885532,0.16328 2.776631,-0.32682 3.143247,-1.72876 z m 7.143391,-19.66407 C 94.288196,111.05917 95,110.35202 95,109.82158 c 0,-0.53044 0.675,-1.63944 1.5,-2.46444 0.825,-0.825 1.5,-2.56118 1.5,-3.85817 0,-2.35818 0,-2.35818 -4.342944,0.0691 -5.162301,2.88527 -8.104782,5.89844 -7.196,7.36888 0.720665,1.16606 4.466917,1.41162 6.957157,0.45602 z m -22.197434,-4.53468 c 3.594192,-2.30639 4.599062,-3.43635 3.779507,-4.25 -1.420875,-1.41065 -10.347296,3.33146 -10.82361,5.74997 -0.481462,2.44465 1.581517,2.00536 7.044103,-1.49997 z M 94.035174,92.457618 c 0.969568,-1.168259 0.999269,-1.823175 0.122444,-2.7 C 93.520928,89.120928 93,87.79 93,86.8 93,85.81 92.55,85 92,85 91.45,85 91.1125,84.4375 91.25,83.75 91.741204,81.293978 82.550644,84.122662 81.547745,86.736175 80.677048,89.005175 83.867258,92 87.154988,92 88.719744,92 90,92.45 90,93 c 0,1.535884 2.600456,1.186348 4.035174,-0.542382 z M 86.993172,80.49578 c 1.135192,0.701587 3.016652,-1.889556 2.199626,-3.029318 C 87.689143,75.368844 74.655575,74.211032 72.517862,75.985176 70.368083,77.769334 70.635962,80 73,80 c 1.1,0 2,0.417004 2,0.926676 0,1.581361 3.325769,1.759295 7.356479,0.393583 2.121064,-0.718672 4.207576,-1.089688 4.636693,-0.824479 z m 5.504964,-15.498797 c -0.367007,-0.59383 0.322839,-0.849793 1.690983,-0.627428 1.270984,0.206573 3.127436,-0.04845 4.125448,-0.566722 2.702633,-1.403489 0.241309,-3.824786 -3.679043,-3.619206 -4.154536,0.21786 -5.441698,-0.246617 -8.269203,-2.983972 C 84.52014,55.412335 83.15498,54.991423 80.245109,55.312336 78.185299,55.5395 75.7125,56.060301 74.75,56.46967 c -2.502687,1.06444 -2.162798,3.516293 0.5,3.606841 3.949776,0.134312 5.606853,0.685371 8.713931,2.897806 C 85.633769,64.163346 87,64.858185 87,64.518404 c 0,-0.339781 0.7875,-0.159108 1.75,0.401497 2.265479,1.31952 4.544977,1.366399 3.748136,0.07708 z M 111.68362,53.677913 C 111.13238,49.568078 108.60104,46 106.2366,46 c -1.10666,0 -1.26861,0.656099 -0.67883,2.75 0.42602,1.5125 0.71567,3.875 0.64366,5.25 -0.072,1.375 0.37959,3.513125 1.00355,4.75139 1.08577,2.154744 1.21728,2.176445 3.06362,0.505528 1.48747,-1.346137 1.81144,-2.62348 1.41502,-5.579005 z m -9.61788,2.286903 c 2.50759,-1.34202 2.4906,-4.653464 -0.028,-5.452827 C 100.218,49.934414 96,51.393747 96,52.600925 96,53.918817 98.171938,57 99.100925,57 c 0.566807,0 1.900975,-0.465833 2.964815,-1.035184 z M 88.495063,51.75 c -2.474828,-7.543167 -1.396971,-13.770198 2.377382,-13.734687 1.146093,0.01078 1.268904,0.243231 0.415155,0.785779 -0.679815,0.432014 -0.959334,1.738193 -0.63631,2.97344 0.856488,3.275216 2.222141,1.72264 1.912903,-2.17473 C 92.285276,36.084566 88.828138,29.42254 86.155487,27.25 c -4.110115,-3.341023 -7.58757,0.434507 -8.605948,9.343619 -1.062201,9.292483 3.481301,17.341602 9.817092,17.391639 1.489604,0.01176 1.717528,-0.439719 1.128432,-2.235258 z M 77.057037,52 c 0.491404,0 0.417289,-1.2375 -0.1647,-2.75 -0.581989,-1.5125 -1.09626,-6.6875 -1.142826,-11.5 -0.04657,-4.8125 -0.346755,-8.748313 -0.667088,-8.746252 -0.945081,0.0061 -3.88606,8.149683 -4.595334,12.724526 -0.793255,5.116515 0.282148,11.245625 1.606296,9.154866 0.68419,-1.080299 0.879342,-0.976549 0.891302,0.473849 0.01055,1.279819 0.506947,1.668331 1.5971,1.25 C 75.451771,52.273145 76.565633,52 77.057037,52 z M 98.992978,37 c 0.479735,0 1.157892,0.9 1.507022,2 0.34913,1.1 1.1026,2 1.67438,2 0.57178,0 0.76535,-0.7875 0.43016,-1.75 -0.50804,-1.458797 -0.35944,-1.426992 0.89301,0.19113 2.66549,3.443744 1.69808,-0.567316 -1.4684,-6.088237 -3.331052,-5.80787 -7.85703,-9.925013 -9.311581,-8.470462 -0.586388,0.586388 -0.179114,3.323493 1.083049,7.27868 1.112563,3.486389 2.383398,7.688889 2.82408,9.338889 0.801238,3 0.801238,3 1.148635,-0.75 C 97.964402,38.6875 98.513242,37 98.992978,37 z M 58,28.547004 C 58,27.246808 52.530795,25.020589 49.29969,25.005577 48.63952,25.00251 47.640704,24.2125 47.080099,23.25 c -0.560605,-0.9625 -1.032966,-1.396668 -1.04969,-0.964817 -0.06239,1.611045 3.401485,5.941558 5.399265,6.750121 C 54.76769,30.3863 58,30.146078 58,28.547004 z m 47.9731,-5.356021 C 105.95182,19.479879 105.33078,17.7689 103,15 c -1.98169,-2.354193 -2.95501,-2.967182 -2.9731,-1.872445 -0.0148,0.895156 0.66717,2.203584 1.51548,2.907619 0.93854,0.778915 1.1823,1.640146 0.62263,2.199812 -1.06603,1.066034 1.9139,10.831 3.08499,10.109225 0.4125,-0.254235 0.73789,-2.573187 0.7231,-5.153228 z"
       id="path3158"
       inkscape:connector-curvature="0"
       inkscape:export-filename="/home/sast/projects/scala/scala-lang/resources/img/logos/Bsd_daemon.png.png"
       inkscape:export-xdpi="29.686161"
       inkscape:export-ydpi="29.686161" />
    <path
       style="fill:#9d1406;fill-opacity:1"
       d="M 25.25,145.2766 C 23.4625,145.05478 22,144.45179 22,143.93664 c 0,-0.51515 -1.2375,-0.94652 -2.75,-0.9586 -4.79936,-0.0383 -11.1005778,-3.53451 -11.8658726,-6.58369 -0.5664433,-2.25689 -0.1427807,-3.2208 2.4233991,-5.51368 3.0267325,-2.70439 11.4551785,-5.87811 15.6239745,-5.88319 4.104734,-0.005 20.616923,-5.00296 24.382793,-7.38025 5.565144,-3.51312 8.945398,-7.98278 10.761419,-14.22968 1.260886,-4.337293 1.339089,-5.785281 0.375181,-6.94672 C 59.255595,94.39812 60.252562,81.78968 62.364211,78.566896 65.084666,74.414957 64.4609,70.467911 60.51716,66.879188 55.942522,62.71636 52,54.687387 52,49.533933 52,45.831742 51.539438,45.097849 46.945845,41.480277 38.992284,35.216642 36.496737,31.392206 36.518288,25.5 36.538408,19.998935 38.541808,15.187785 42.842511,10.312426 45.381476,7.434207 51.85169,4.4410182 50.848289,6.6088695 48.82486,10.980497 47.539488,13 46.780468,13 46.286292,13 46.166895,12.4375 46.51514,11.75 46.863386,11.0625 46.43994,11.373508 45.574157,12.44113 43.424275,15.092199 43.600292,21.832233 45.9187,25.634336 47.854992,28.809783 52.906661,32 55.99865,32 c 2.20163,0 5.101087,-3.222887 4.20076,-4.669349 -0.384676,-0.618018 -2.553164,-1.621766 -4.818863,-2.230552 -5.537834,-1.487996 -9.055978,-4.43531 -9.583333,-8.028409 -0.239429,-1.631335 -0.06675,-2.738273 0.38373,-2.45986 C 46.631425,14.890242 47,16.179775 47,17.477458 c 0,1.600185 1.083798,3.029247 3.368034,4.440983 4.46392,2.758854 5.72743,2.635129 9.106356,-0.89171 5.248119,-5.477856 17.29387,-8.10814 25.803357,-5.634365 6.855898,1.993063 7.360494,1.992746 8.127144,-0.0051 C 94.080086,13.627725 91.256804,8.4473669 88.032286,5.5292186 85.492191,3.2304642 85.44258,2 87.889991,2 89.678923,2 102,10.353202 102,11.566027 c 0,0.313589 -1.31841,-0.368628 -2.929794,-1.516036 -3.496515,-2.4897384 -4.627764,-1.3475463 -2.57106,2.595931 0.818693,1.569743 1.491305,3.718645 1.494693,4.775337 0.0034,1.056693 0.750905,2.744193 1.661149,3.75 2.008042,2.218865 0.606422,2.400569 -2.380309,0.308581 C 95.737614,20.403237 93.921988,20.148746 91.052173,20.607648 87.367015,21.196928 87,21.060053 87,19.096423 c 0,-2.487235 -2.61323,-3.883193 -4.234435,-2.261988 -0.8,0.8 -0.645304,1.274483 0.567218,1.739771 2.967343,1.138677 1.994612,3.441273 -1.18511,2.805329 -2.320321,-0.464065 -3.255982,-0.03974 -5.016507,2.275 -4.73585,6.226697 -5.66983,7.254771 -6.631166,7.299224 -1.028672,0.04757 -1.273268,2.46606 -1.469433,14.529316 -0.08247,5.071501 0.286269,7.275433 1.347023,8.051075 0.861221,0.629741 1.391193,2.475176 1.291493,4.497166 -0.161504,3.275468 0.0102,3.454968 3.830917,4.004821 2.2,0.31661 6.794394,1.841329 10.209764,3.388265 8.194165,3.711414 10.689309,2.990359 17.214696,-4.974758 1.3374,-1.632481 1.47293,-1.60768 2.21777,0.405807 0.96192,2.600303 1.60781,2.659001 4.34149,0.394549 1.16194,-0.9625 0.90121,-0.625 -0.57942,0.75 -1.48062,1.375 -6.1148,4.44953 -10.29817,6.832289 -4.667716,2.658631 -7.612046,4.976561 -7.621443,6 -0.0111,1.20935 -0.233677,1.3238 -0.809816,0.416418 -0.520218,-0.819311 -3.803423,-1.315996 -9.510256,-1.438716 -10.461677,-0.224968 -12.321989,0.872368 -11.241649,6.631074 0.376967,2.009405 1.119175,3.341907 1.671365,3.000635 0.546303,-0.337634 1.652375,-0.06688 2.457938,0.601679 0.893566,0.741595 2.87908,0.98603 5.092175,0.626894 3.627517,-0.588665 3.627517,-0.588665 1.365023,1.81965 -2.159992,2.299206 -2.208804,6.369342 -0.06046,5.041594 0.529722,-0.327387 1.709655,0.544091 2.622073,1.936618 C 83.993726,95.63937 84.969814,96 89.42388,96 c 2.856624,0 6.041383,-0.619724 7.077244,-1.377164 1.817496,-1.328985 1.79066,-1.487359 -0.767095,-4.527077 -1.464196,-1.740099 -2.395317,-3.814854 -2.080378,-4.635572 0.313555,-0.817111 0.124831,-2.042426 -0.419387,-2.722922 -0.544217,-0.680496 -1.334472,-2.358736 -1.756121,-3.729423 -0.630124,-2.048392 -0.518368,-2.295749 0.627611,-1.389141 0.766835,0.60666 3.095919,0.889744 5.175743,0.629075 C 100.41032,77.855635 100.9617,77.454678 100.4761,75.92469 99.818372,73.852382 101.52073,70 103.0942,70 c 0.56311,0 0.75147,0.4407 0.41857,0.979333 -0.67274,1.088518 1.1762,5.10457 2.88693,6.270667 0.77755,0.530001 0.7237,0.993451 -0.18357,1.57995 -1.50796,0.974809 -0.58989,4.108573 1.70768,5.829045 1.0998,0.823549 2.13073,0.858394 3.56198,0.12039 1.4416,-0.743344 1.17924,-0.148901 -0.92288,2.091005 -1.6154,1.721286 -3.8654,3.143922 -5,3.161413 -3.96323,0.0611 -8.101097,5.512173 -7.044939,9.280745 0.431173,1.538512 0.334026,1.784942 -0.327464,0.830692 -0.615962,-0.88858 -1.163983,-0.995173 -1.588124,-0.3089 -0.356189,0.57633 -4.012439,2.66628 -8.125,4.64434 C 84.364822,106.45675 81,108.47559 81,108.965 c 0,1.83867 5.29011,5.02151 7.638376,4.59569 4.924158,-0.89292 6.427004,-1.78644 7.946328,-4.72449 0.859523,-1.66213 1.835122,-2.74971 2.167998,-2.41683 0.332876,0.33287 -0.290493,1.83719 -1.385263,3.34293 -1.094771,1.50573 -2.090623,4.60084 -2.213004,6.87801 -0.205966,3.83247 0.01417,4.22282 2.960751,5.25 1.750793,0.61033 4.353614,1.11583 5.784034,1.12334 1.43043,0.008 3.59278,0.27964 4.80522,0.60472 2.06645,0.55407 2.10845,0.73756 0.67091,2.93153 -1.28302,1.95813 -1.93964,2.18606 -4.01954,1.39528 -3.89589,-1.48122 -11.653932,-1.1251 -14.190202,0.65138 -1.428413,1.0005 -2.164827,2.40052 -1.972506,3.75 0.248745,1.74539 1.159582,2.25107 4.806898,2.66866 4.442089,0.50858 4.41371,0.52413 -2.2052,1.20819 -3.687859,0.38113 -9.087859,0.49319 -12,0.24902 -3.869678,-0.32446 -4.621912,-0.20545 -2.7948,0.44213 1.375,0.48734 4.975,0.94688 8,1.0212 3.025,0.0743 6.625,0.78576 8,1.58101 2.292115,1.32566 1.876344,1.39722 -5,0.86062 -8.652326,-0.6752 -16.953893,-2.5714 -23.451869,-5.35676 C 59.392346,132.8106 58.95251,131.22036 61.5,124 c 0.825,-2.3383 1.5,-4.56265 1.5,-4.94301 0,-0.38035 -3.0375,0.79761 -6.75,2.61769 -7.823348,3.83546 -14.638918,5.65449 -29.220993,7.7989 -11.202782,1.64745 -14.326967,3.23172 -12.414094,6.29518 0.594556,0.95218 2.775763,2.16064 4.847126,2.68547 3.784741,0.95896 5.504439,-0.006 6.855798,-3.84604 0.25415,-0.72224 1.050325,-0.5461 2.286064,0.50574 1.042854,0.88767 5.496099,3.53968 9.896099,5.89336 4.4,2.35368 8.1875,4.43991 8.416667,4.63606 C 47.457752,146.1065 29.486021,145.80229 25.25,145.2766 z M 37.755005,142.75 c -0.226413,-0.6875 -1.388913,-1.3938 -2.583333,-1.56955 C 33.977252,141.0047 33,140.51443 33,140.09096 33,139.27241 28.554335,137 26.952947,137 26.428826,137 26,138.1395 26,139.53222 c 0,2.95371 2.564281,4.309 8.333333,4.40439 2.639902,0.0437 3.705171,-0.32577 3.421672,-1.18661 z m 48.519817,-11.69292 c 0.614784,-2.35094 6.610325,-6.20734 8.721828,-5.60998 3.35216,0.94835 10.53559,0.98902 11.00335,0.0623 0.27745,-0.54969 -1.91493,-1.375 -4.92566,-1.85424 -2.984119,-0.475 -6.053762,-1.49173 -6.821433,-2.2594 C 93.485237,120.62809 93.130118,120 93.463755,120 93.797392,120 93.588702,119.1 93,118 92.411298,116.9 91.382965,116.01497 90.714816,116.03327 89.352485,116.07058 85,119.45858 85,120.48172 c 0,1.67894 2.962572,3.35149 5.119166,2.89007 2.273576,-0.48645 2.290733,-0.45173 0.380834,0.77064 -2.521858,1.61402 -4.5,1.95211 -4.5,0.76909 C 86,124.41018 85.325,124 84.5,124 c -0.825,0 -1.5,-0.45 -1.5,-1 0,-0.55 -1.4625,-1.07202 -3.25,-1.16004 -3.25,-0.16003 -3.25,-0.16003 0,-0.56336 3.631356,-0.45064 4.18368,-1.70654 1.404606,-3.19386 -2.176625,-1.16489 -6.580869,1.36405 -5.82156,3.34278 0.552467,1.43971 -2.986221,3.90686 -4.373723,3.04934 C 70.431695,124.14877 70,124.61008 70,125.5 c 0,1.02828 0.455609,1.34431 1.25,0.86706 0.781619,-0.46958 0.700295,-0.0233 -0.217032,1.19098 -0.806868,1.06808 -1.073272,1.60836 -0.59201,1.20064 0.481263,-0.40773 1.547314,-0.18338 2.369002,0.49856 1.840529,1.52751 6.802629,3.22387 10.321615,3.5286 1.885532,0.16328 2.776631,-0.32682 3.143247,-1.72876 z M 71.220779,106.85833 c 3.594192,-2.30639 4.599062,-3.43635 3.779507,-4.25 -1.420875,-1.41065 -10.347296,3.33146 -10.82361,5.74997 -0.481462,2.44465 1.581517,2.00536 7.044103,-1.49997 z M 90.535298,57.111214 c -0.448033,-1.411626 -1.938762,-2.056119 -5.90089,-2.551154 -5.301413,-0.662368 -5.301413,-0.662368 -6.967911,-5.949106 -4.051888,-12.85407 0.270869,-26.204003 7.54059,-23.287539 0.711102,0.28528 0.06579,0.554217 -1.434034,0.597638 -4.218797,0.122137 -6.085096,3.885778 -6.160081,12.422621 -0.07729,8.79898 2.223069,13.604254 7.195201,15.030243 3.985619,1.14306 4.858288,0.384221 3.354268,-2.916744 -1.554833,-3.412486 -1.47742,-9.950874 0.133645,-11.28794 C 89.850338,37.879319 94,38.03227 94,39.379471 c 0,0.524624 0.310626,0.643237 0.690279,0.263583 C 95.069933,39.2634 95.933385,40.2009 96.60906,41.726387 97.837562,44.5 97.837562,44.5 97.918781,40.75 98.006046,36.72086 99.463099,35.733015 100.5,39 c 0.34913,1.1 1.1026,2 1.67438,2 0.57178,0 0.77161,-0.698372 0.44406,-1.551938 -0.34149,-0.889925 -0.17385,-1.291322 0.39301,-0.940983 C 103.55515,38.843104 104,39.766476 104,40.559017 104,41.351558 104.50248,42 105.11663,42 c 0.68497,0 0.86399,-0.869805 0.46309,-2.25 -0.35945,-1.2375 -0.81572,-3.697108 -1.01393,-5.465795 -0.19822,-1.768687 -1.35105,-4.918687 -2.56185,-7 C 99.947078,23.748564 99.938871,23.664212 101.879,26 c 1.14209,1.375 2.08653,2.885645 2.09876,3.356989 0.0122,0.471344 0.7473,0.578757 1.63349,0.238696 1.30299,-0.500007 1.4911,-0.139625 0.98327,1.883755 -0.93236,3.714822 1.31151,11.45047 4.7124,16.245823 2.69473,3.799629 2.88629,4.555144 1.90163,7.5 C 112.11359,58.5 112.11359,58.5 112.63318,54.936045 c 0.43702,-2.997571 -0.0217,-4.211813 -2.88633,-7.640583 -3.40592,-4.076628 -3.40592,-4.076628 -5.88629,-0.995947 -2.48036,3.080682 -2.48036,3.080682 -4.527097,1.033948 -2.046734,-2.046734 -2.046734,-2.046734 -3.621013,1.426512 -1.767656,3.899886 -1.010281,7.388089 1.982111,9.128901 1.471534,0.856059 1.03189,1.055931 -2.377173,1.080715 -3.238391,0.02354 -4.317944,-0.395983 -4.78209,-1.858377 z"
       id="path3156"
       inkscape:connector-curvature="0"
       inkscape:export-filename="/home/sast/projects/scala/scala-lang/resources/img/logos/Bsd_daemon.png.png"
       inkscape:export-xdpi="29.686161"
       inkscape:export-ydpi="29.686161" />
    <path
       style="fill:#211c18"
       d="m 22,144.12781 c 0,-0.47971 -1.871399,-1.17144 -4.158664,-1.53719 -5.523038,-0.88317 -9.7836565,-3.51263 -10.5336622,-6.50089 -0.4714783,-1.87852 0.07022,-3.03819 2.3854986,-5.10689 2.9687396,-2.65257 6.8979316,-3.89774 23.8068276,-7.54449 15.449297,-3.33195 22.85661,-8.43007 26.535697,-18.2633 1.842175,-4.92366 1.961231,-6.154329 0.904985,-9.354786 -1.402397,-4.249305 -0.602022,-12.640694 1.614505,-16.926985 2.550325,-4.931784 1.847866,-8.310583 -2.715153,-13.059772 -4.979705,-5.182875 -7.788155,-10.967836 -7.818072,-16.103985 -0.01959,-3.363028 -0.825501,-4.551721 -7.457804,-11 C 38.728689,33.055968 36.981201,30.683625 36.444774,27.706862 35.531297,22.637753 38.214088,15.75188 43.135345,10.534297 46.940518,6.5 46.940518,6.5 44.770545,10.94244 c -3.641514,7.455024 -3.326984,13.052757 1.00479,17.882397 2.89458,3.227263 9.260903,6.891029 12.948895,7.45198 3.206896,0.487776 3.761378,1.373092 3.896515,6.221381 0.230092,8.25499 2.569278,17.782734 4.95052,20.163976 2.866805,2.866805 3.315792,6.924077 1.25839,11.371451 -1.138708,2.461483 -1.454541,5.144901 -1.089465,9.256448 0.441966,4.977499 0.882205,5.981583 3.136963,7.154689 3.638215,1.892891 7.336614,6.292493 5.811544,6.913392 -0.653783,0.266173 -0.0637,0.526368 1.311303,0.578211 1.916711,0.07227 2.162195,0.307973 1.052155,1.01024 -1.463959,0.926173 -0.316832,1.405875 5.447845,2.278155 1.1,0.16645 2,0.96383 2,1.77197 0,1.69249 -7.242667,3.27527 -7.768525,1.6977 -0.202585,-0.60776 -1.260414,-0.52504 -2.779274,0.21734 -2.163199,1.05731 -2.247788,1.03309 -0.717745,-0.20548 0.953952,-0.77222 1.441452,-1.69705 1.083334,-2.05517 -1.46915,-1.46915 -5.267212,-0.47038 -9.288381,2.44254 -3.839719,2.78147 -4.115748,3.24857 -2.735428,4.62889 1.380321,1.38032 1.836935,1.32042 4.525,-0.59365 3.206883,-2.2835 4.67519,-2.7375 3.688098,-1.14035 -0.336025,0.5437 0.003,0.75296 0.753291,0.46503 0.786805,-0.30192 1.939496,0.55136 2.723316,2.01594 0.747489,1.39669 1.84445,2.44301 2.437692,2.32516 0.593242,-0.11786 2.134656,0.36925 3.425364,1.08247 1.619232,0.89476 4.138791,1.08878 8.127378,0.62585 5.780634,-0.67091 5.780634,-0.67091 5.278615,1.95523 -0.459598,2.40424 -0.646016,2.49583 -2.206118,1.08396 -2.197521,-1.98873 -3.023264,-1.91121 -5.996164,0.56296 -3.173682,2.64125 -1.720547,5.52679 2.584643,5.1324 2.649792,-0.24274 2.714734,-0.17056 0.864904,0.96123 -2.563278,1.56831 -4.5,1.87506 -4.5,0.71274 C 86,124.41018 85.325,124 84.5,124 c -0.825,0 -1.5,-0.42149 -1.5,-0.93664 0,-0.51515 -1.4625,-1.11814 -3.25,-1.33996 -3.25,-0.40333 -3.25,-0.40333 0.106989,-0.56336 2.616853,-0.12476 3.223162,-0.50879 2.75,-1.74183 C 82.273145,118.54823 82,117.43735 82,116.9496 c 0,-0.48776 -0.7875,-0.60755 -1.75,-0.26622 -2.72825,0.96754 -5.3657,3.57273 -4.885046,4.82529 0.477447,1.24421 -3.211201,3.97842 -4.128999,3.06062 C 70.922846,124.25618 71.191667,124 71.833333,124 c 1.790069,0 1.420692,-5.68854 -0.41512,-6.39301 C 68.980177,116.67143 66,116.88759 66,118 c 0,0.55 0.6199,1 1.377555,1 0.757656,0 1.937756,0.675 2.622445,1.5 0.751596,0.90562 0.833136,1.5 0.205778,1.5 -0.571511,0 -1.216098,-0.53096 -1.432415,-1.17991 -0.609263,-1.82779 -3.967609,-0.0672 -3.592018,1.88304 0.181036,0.94005 1.451794,2.02155 2.823906,2.40334 1.372112,0.3818 1.932249,0.73903 1.244749,0.79385 -2.27,0.18102 -1.301636,2.0205 2,3.79916 1.7875,0.96296 5.8375,2.48591 9,3.38434 5.27363,1.49819 5.751842,1.50024 5.772236,0.0248 0.01223,-0.88477 0.931559,-2.73367 2.042955,-4.10867 2.020719,-2.5 2.020719,-2.5 0.562869,1.16844 -0.801817,2.01764 -1.212995,3.91329 -0.913729,4.21256 0.299267,0.29926 -0.671257,1.09788 -2.156718,1.7747 -1.693466,0.7716 -2.953868,0.87075 -3.379226,0.26584 -0.665973,-0.94709 -5.085871,-1.74343 -10.332895,-1.86171 -1.45998,-0.0329 -2.454076,-0.38414 -2.209102,-0.78051 0.244973,-0.39638 -0.697998,-1.00766 -2.095492,-1.35841 -2.713714,-0.6811 -3.342669,-1.99858 -1.290898,-2.70406 1.218712,-0.41904 -0.97807,-0.0453 -4.504293,0.76621 -1.459756,0.33597 -1.663841,-0.10966 -1.215555,-2.65421 0.296305,-1.68188 1.189763,-4.61609 1.985462,-6.52046 0.795699,-1.90438 1.117699,-3.31275 0.715556,-3.12972 -0.402144,0.18304 -3.037401,1.54678 -5.856128,3.03054 -8.687302,4.57295 -28.98046,9.11416 -31.618408,7.07557 C 24.219091,127.09658 16,127.83729 16,129.16405 c 0,0.52469 -0.444174,0.67947 -0.987054,0.34395 -0.54288,-0.33552 -1.993697,0.3278 -3.224037,1.47403 -1.770836,1.64979 -2.0113006,2.44185 -1.15396,3.80102 0.595663,0.94432 1.70898,1.7374 2.474037,1.7624 0.765058,0.025 1.283912,0.57131 1.15301,1.21402 -0.134453,0.66014 0.409398,0.92012 1.25,0.59755 C 16.330398,138.04297 17,138.22177 17,138.75434 c 0,0.53257 1.2375,0.82188 2.75,0.6429 1.619425,-0.19163 1.952084,-0.0894 0.809157,0.24875 -1.651993,0.48871 -1.428752,0.81207 1.5,2.17271 1.892464,0.8792 5.015843,1.89081 6.940843,2.24802 3.148675,0.58428 2.973013,0.66371 -1.75,0.79137 -2.8875,0.078 -5.25,-0.25058 -5.25,-0.73028 z M 99,92.900505 C 99,92.306549 98.06183,91.060901 96.915178,90.132398 94.366051,88.068241 93.519794,79.39825 95.782685,78.529897 98.094989,77.642583 101,77.937198 101,79.059017 c 0,0.582459 -0.39884,0.812521 -0.88631,0.511247 -0.48747,-0.301273 -1.150988,0.459669 -1.474483,1.690983 -0.323495,1.231314 -0.149656,2.388753 0.38631,2.572086 C 99.561483,84.016667 100,84.997024 100,86.011905 c 0,1.014881 0.63844,2.483677 1.41875,3.263991 1.22501,1.225005 1.15673,1.643111 -0.5,3.061641 C 99.863439,93.241126 99,93.494461 99,92.900505 z M 88.556704,50.777494 C 86.933032,48.459378 86.604288,45.078498 87.630286,41.25 c 0.797111,-2.97441 2.179099,-2.857651 2.95907,0.25 0.345103,1.375 1.07746,2.5 1.62746,2.5 0.567323,0 0.728512,-1.081693 0.37254,-2.5 -0.345103,-1.375 -0.221371,-2.5 0.274961,-2.5 2.548152,0 2.799019,10.089714 0.306942,12.345012 -2.365531,2.140777 -2.750777,2.093397 -4.614555,-0.567518 z M 98.666667,46.333333 C 97.694452,45.361119 97.849269,37 98.839485,37 c 0.461717,0 1.392635,1.214031 2.068705,2.697847 0.88564,1.943758 1.45204,2.33733 2.02636,1.40805 0.55509,-0.898143 0.94461,-0.518372 1.28278,1.250667 0.2671,1.397255 0.0125,3.013633 -0.56584,3.59195 -1.18184,1.181832 -3.972385,1.397257 -4.984823,0.384819 z M 58.180051,24.132439 c -0.994799,-0.630768 -0.516015,-1.513401 1.94363,-3.583056 1.794968,-1.510366 4.413946,-3.185051 5.819949,-3.721522 4.57844,-1.746936 11.488665,-2.686553 13.045898,-1.773913 1.196021,0.700946 1.042066,0.891565 -0.739528,0.915643 C 77.0125,15.986316 76,16.45 76,17 c 0,0.55 -0.898704,1 -1.997119,1 -1.098416,0 -3.740456,1.575 -5.871201,3.5 -3.784748,3.419292 -7.260593,4.338735 -9.951629,2.632439 z M 89,18.09362 c 0,-0.49851 0.838029,-0.687231 1.862286,-0.419382 1.311707,0.343019 2.034993,-0.173429 2.446448,-1.746838 C 94.01425,13.229505 91.943617,8.9559088 88.289024,5.5671796 85.255992,2.7547935 85.812251,1.122411 89.240422,2.7752314 90.655564,3.4575126 90.939429,3.8956551 90,3.9476325 89.063468,3.9994496 88.895474,4.3066073 89.552786,4.7653128 91.178648,5.8999207 95.02011,12.583324 95.989823,15.964515 96.85406,18.977933 96.831817,19 92.930194,19 90.768587,19 89,18.592129 89,18.09362 z"
       id="path3154"
       inkscape:connector-curvature="0"
       inkscape:export-filename="/home/sast/projects/scala/scala-lang/resources/img/logos/Bsd_daemon.png.png"
       inkscape:export-xdpi="29.686161"
       inkscape:export-ydpi="29.686161" />
  </g>
</svg>
